<?xml version="1.0" standalone="no"?>
<!DOCTYPE svg PUBLIC "-//W3C//DTD SVG 20010904//EN"
 "http://www.w3.org/TR/2001/REC-SVG-20010904/DTD/svg10.dtd">
<svg version="1.0" xmlns="http://www.w3.org/2000/svg"
 width="1144.000000pt" height="797.000000pt" viewBox="0 0 1144.000000 797.000000"
 preserveAspectRatio="xMidYMid meet">

<g transform="translate(0.000000,797.000000) scale(0.100000,-0.100000)"
fill="#272343" stroke="none">
<path d="M0 3985 l0 -3985 5720 0 5720 0 0 3985 0 3985 -5720 0 -5720 0 0
-3985z m11410 0 l0 -3965 -5700 0 -5700 0 0 3965 0 3965 5700 0 5700 0 0
-3965z"/>
<path d="M9590 7735 c0 -3 47 -102 105 -220 58 -118 105 -219 105 -225 0 -5 5
-10 10 -10 6 0 10 -7 10 -15 0 -8 17 -49 39 -92 21 -43 57 -116 79 -163 121
-257 172 -368 172 -374 0 -2 21 -48 46 -103 25 -54 54 -118 64 -143 10 -25 29
-70 43 -100 14 -30 40 -93 57 -140 17 -47 44 -119 60 -160 58 -153 100 -283
179 -546 85 -283 151 -619 192 -979 18 -156 20 -218 15 -470 -7 -374 -30 -604
-87 -890 -21 -105 -106 -442 -115 -457 -5 -7 -35 -107 -49 -158 -7 -28 -113
-334 -148 -430 -32 -87 -69 -176 -133 -318 -13 -29 -24 -55 -24 -58 0 -4 -13
-34 -29 -68 -73 -156 -121 -259 -121 -262 0 -10 -369 -740 -454 -899 -53 -99
-94 -185 -92 -191 6 -15 254 -26 300 -13 29 8 43 23 82 87 25 42 59 93 75 113
16 20 29 39 29 42 0 3 47 82 105 176 58 94 105 175 105 180 0 5 4 11 8 13 8 3
132 215 132 224 0 3 18 32 40 65 22 33 40 64 40 68 0 8 61 115 77 136 17 21
151 288 202 400 18 39 45 97 61 130 16 33 35 76 43 95 35 86 42 100 49 100 5
0 8 6 8 13 0 11 48 136 70 182 14 30 68 186 106 310 19 61 43 137 54 170 62
195 138 577 160 804 32 336 20 864 -25 1121 -14 80 -30 172 -36 205 -14 84
-92 394 -128 506 -16 52 -31 103 -34 114 -6 23 -54 160 -66 190 -5 11 -38 94
-74 185 -76 193 -110 273 -118 280 -3 3 -11 21 -19 40 -32 82 -365 746 -381
760 -3 3 -19 30 -35 60 -25 45 -139 241 -229 394 -11 18 -46 78 -78 132 -32
55 -71 119 -86 144 l-27 45 -167 3 c-92 1 -167 0 -167 -3z"/>
<path d="M1582 7638 c-7 -13 -16 -30 -22 -38 -26 -41 -107 -177 -113 -190 -4
-8 -24 -43 -44 -77 -21 -33 -65 -108 -97 -165 -33 -56 -79 -134 -102 -173 -41
-68 -137 -244 -172 -315 -9 -19 -19 -37 -22 -40 -6 -5 -54 -102 -185 -375
-100 -206 -124 -260 -169 -370 -20 -49 -41 -99 -46 -110 -14 -30 -73 -194
-123 -345 -57 -169 -94 -304 -157 -580 -31 -132 -70 -392 -80 -530 -13 -167
-12 -566 0 -748 12 -176 15 -200 35 -322 9 -52 18 -108 21 -125 4 -28 57 -263
74 -330 35 -138 167 -554 180 -565 3 -3 12 -25 20 -50 8 -25 20 -56 27 -70 7
-14 13 -29 13 -33 0 -5 14 -39 31 -75 17 -37 46 -101 64 -142 60 -137 235
-501 246 -510 3 -3 22 -34 41 -70 19 -36 46 -84 61 -107 15 -24 27 -45 27 -49
0 -7 101 -186 110 -194 5 -5 25 -39 57 -100 10 -19 21 -37 24 -40 3 -3 14 -18
23 -35 10 -16 27 -46 39 -66 12 -20 36 -60 54 -90 18 -30 37 -61 43 -69 6 -8
32 -49 58 -91 149 -238 166 -262 193 -277 18 -10 58 -11 164 -7 77 4 143 10
147 13 7 7 -10 44 -89 192 -25 47 -58 108 -73 135 -15 28 -52 100 -82 160 -31
61 -67 133 -82 160 -14 28 -39 79 -56 115 -16 36 -35 74 -41 85 -29 49 -63
117 -99 195 -21 47 -54 119 -73 160 -19 41 -52 113 -72 160 -21 47 -48 108
-60 135 -29 64 -125 293 -125 299 0 3 -5 17 -12 33 -6 15 -12 33 -13 39 -2 5
-19 55 -38 110 -33 92 -153 458 -164 499 -1 6 -7 28 -13 50 -6 22 -22 92 -35
155 -98 446 -125 692 -125 1145 0 272 7 360 55 673 19 129 82 442 100 502 8
25 28 95 45 155 32 115 136 446 151 480 20 49 42 103 56 145 20 60 81 214 104
267 11 23 19 44 19 48 0 3 18 44 40 91 22 47 40 88 40 91 0 2 20 46 44 96 24
51 55 117 69 147 120 261 260 552 398 832 31 64 55 119 51 122 -3 3 -78 6
-167 6 -158 0 -162 -1 -173 -22z"/>
<path d="M6088 7283 c-10 -2 -18 -8 -18 -11 0 -4 -18 -18 -40 -32 -22 -14 -40
-27 -40 -31 0 -3 -21 -29 -47 -56 -86 -91 -114 -124 -153 -181 -42 -63 -100
-181 -100 -204 0 -9 -7 -29 -15 -44 -16 -30 -20 -108 -9 -164 6 -26 15 -36 50
-51 l42 -19 50 31 c47 29 53 30 89 19 21 -7 43 -16 48 -21 6 -4 31 -11 55 -15
57 -9 70 -23 70 -73 0 -43 2 -42 -105 -67 -75 -17 -136 -72 -175 -155 -13 -27
-27 -49 -32 -49 -4 0 -8 -4 -8 -9 0 -4 -17 -44 -37 -87 -20 -43 -37 -81 -38
-84 0 -3 -8 -27 -17 -55 -9 -27 -22 -69 -28 -93 l-11 -43 -112 3 -112 3 2 34
c1 21 9 41 21 50 11 9 31 34 46 56 29 44 32 84 16 194 -11 81 -35 105 -119
122 -78 17 -120 3 -178 -57 -35 -37 -43 -52 -49 -100 -11 -94 2 -164 38 -201
18 -18 38 -33 45 -33 7 0 13 -4 13 -9 0 -5 14 -11 31 -15 22 -4 30 -11 27 -23
-3 -15 -16 -19 -77 -21 -45 -2 -112 -15 -169 -33 -145 -45 -223 -35 -275 33
-12 16 -32 40 -44 54 -12 13 -19 24 -16 24 4 0 2 5 -5 12 -8 8 -19 3 -42 -22
-16 -17 -30 -36 -30 -41 0 -4 -10 -17 -22 -29 -19 -17 -34 -20 -107 -19 -95 1
-198 25 -214 50 -5 9 -7 28 -3 42 5 20 16 29 46 37 22 6 40 16 40 22 0 6 3 9
6 5 7 -7 32 15 56 52 40 59 7 177 -67 234 -58 46 -145 82 -195 81 -53 0 -149
-42 -128 -55 10 -7 10 -9 -2 -9 -9 0 -24 -10 -34 -21 -16 -19 -18 -36 -13
-143 5 -144 26 -216 71 -251 57 -45 66 -54 60 -69 -7 -18 -56 -36 -99 -36 -36
0 -109 -45 -152 -93 -16 -18 -37 -33 -46 -35 -10 -2 -45 24 -87 66 -49 48 -82
72 -112 81 -24 7 -53 17 -66 22 -13 5 -63 9 -112 9 -88 0 -120 5 -120 20 0 9
35 50 43 50 24 0 83 91 102 157 8 29 -21 90 -46 98 -11 4 -32 31 -46 60 -15
30 -30 52 -35 49 -4 -3 -6 1 -3 8 3 7 -5 24 -17 38 -13 14 -30 37 -38 52 -22
37 -108 108 -132 108 -23 0 -72 -32 -109 -72 -25 -28 -54 -30 -70 -6 -3 5 -18
6 -32 3 -22 -6 -27 -14 -33 -53 -5 -26 -8 -51 -9 -57 -1 -23 -17 -55 -27 -55
-5 0 -22 -9 -38 -20 -54 -38 -47 -112 15 -170 25 -23 34 -25 138 -26 72 -1
113 -6 115 -13 2 -6 9 -8 14 -5 6 4 8 2 5 -3 -4 -6 1 -17 10 -24 31 -26 73
-92 73 -115 0 -15 -8 -25 -22 -30 -33 -11 -98 -12 -98 -2 0 4 -12 8 -28 8 -80
0 -269 81 -332 143 -39 38 -47 59 -66 162 -8 44 -20 92 -26 107 -10 27 -43 46
-56 33 -4 -4 -7 -57 -7 -118 0 -99 3 -118 25 -162 14 -27 28 -51 32 -53 4 -2
5 -9 2 -15 -4 -13 91 -77 114 -77 7 0 12 -4 12 -9 0 -12 153 -71 184 -71 15 0
26 -4 26 -9 0 -5 24 -14 53 -19 65 -13 178 -53 195 -69 7 -7 18 -13 23 -13 17
0 75 -64 94 -105 11 -22 23 -41 28 -43 11 -5 8 -90 -4 -97 -6 -4 -8 -14 -5
-22 3 -8 1 -11 -4 -8 -5 3 -29 -7 -52 -22 -24 -15 -63 -38 -88 -51 -59 -32
-141 -90 -162 -116 -10 -12 -18 -35 -18 -52 l0 -31 93 -12 c141 -18 230 -33
255 -42 21 -8 22 -13 17 -71 -8 -77 -20 -118 -53 -183 -31 -59 -94 -168 -103
-175 -3 -3 -8 -13 -12 -22 -3 -9 -49 -82 -101 -163 -53 -80 -96 -154 -96 -163
0 -28 60 -58 129 -65 89 -10 101 2 101 97 1 57 6 79 25 111 14 22 29 49 34 60
5 11 31 65 58 120 50 103 83 192 83 227 0 11 9 59 21 108 l21 88 41 -5 c48 -5
117 -32 117 -45 0 -5 4 -6 10 -3 6 3 7 -1 4 -9 -3 -9 -2 -16 3 -16 15 0 42
-65 49 -118 6 -45 4 -51 -21 -70 -15 -12 -38 -22 -52 -22 -34 0 -93 -27 -93
-42 0 -46 52 -148 76 -148 15 0 38 46 31 63 -12 31 17 50 73 48 29 -1 56 -4
60 -6 5 -3 15 -3 22 0 12 5 14 37 10 185 -3 135 -1 184 8 195 13 16 65 21 74
6 3 -4 19 -11 36 -14 35 -8 37 -21 15 -108 -18 -69 -24 -204 -10 -218 14 -13
160 -31 270 -32 112 -1 137 -8 146 -39 12 -40 36 -131 50 -183 14 -57 48 -88
114 -107 64 -18 139 -4 143 26 4 29 -21 51 -71 64 -91 22 -87 15 -144 240 -29
113 -55 230 -59 261 -6 52 -4 58 20 80 54 50 32 166 -63 343 l-43 79 -6 162
c-6 191 -11 184 114 153 89 -23 179 -20 219 6 28 18 55 21 55 5 0 -5 21 -20
48 -31 61 -28 219 -30 301 -5 116 36 194 7 242 -91 23 -46 24 -55 24 -297 0
-213 3 -260 19 -315 10 -36 19 -69 21 -75 1 -5 4 -17 7 -25 8 -23 57 -201 64
-235 4 -16 10 -34 14 -40 13 -18 45 -169 63 -301 3 -17 13 -43 22 -58 14 -22
25 -26 61 -26 39 0 46 3 56 28 19 47 12 93 -36 227 -26 72 -49 140 -51 151 -3
12 -19 81 -35 154 -34 149 -38 200 -15 200 23 0 42 -38 69 -140 14 -52 32
-122 42 -155 9 -33 20 -78 25 -100 16 -78 38 -167 42 -172 9 -9 122 -11 144
-2 34 13 29 30 -27 90 -27 30 -49 60 -50 67 0 6 -4 12 -8 12 -9 0 -24 70 -52
240 -28 176 -83 437 -96 458 -8 12 -12 26 -10 31 5 8 -11 42 -62 136 -10 17
-19 32 -22 35 -4 3 -16 27 -27 55 -17 38 -19 54 -11 70 17 32 48 54 83 61 68
12 84 -4 105 -108 12 -62 26 -73 68 -57 39 15 92 52 92 65 0 7 6 14 13 17 19
7 47 69 47 104 0 15 -9 39 -20 53 -11 14 -20 29 -20 33 0 5 -7 16 -16 24 -26
26 -10 88 58 233 12 25 28 51 35 58 7 7 13 17 13 21 0 11 85 97 108 110 19 10
23 9 31 -11 22 -57 34 -511 16 -568 -11 -35 -66 -153 -74 -160 -8 -7 -27 -37
-52 -85 -12 -22 -24 -42 -28 -45 -3 -3 -30 -52 -59 -110 -50 -98 -52 -107 -41
-138 6 -18 14 -31 16 -28 3 3 11 -1 18 -8 7 -7 41 -14 77 -15 80 -3 102 -17
124 -83 9 -29 20 -55 24 -58 3 -3 22 -43 40 -90 19 -47 38 -87 41 -90 3 -3 10
-16 14 -30 4 -14 49 -110 100 -215 141 -286 152 -320 160 -483 3 -53 8 -105
11 -114 6 -19 69 -40 119 -40 107 0 188 67 140 116 -8 8 -15 18 -15 23 0 5
-20 29 -45 53 -25 24 -45 49 -45 55 0 6 -9 17 -20 25 -11 8 -20 19 -20 24 0 5
-18 47 -40 93 -22 47 -40 90 -40 97 0 7 -7 21 -15 32 -8 10 -15 29 -15 41 0
12 -4 23 -8 25 -4 2 -17 28 -29 58 -12 30 -45 111 -73 180 -84 207 -131 352
-119 367 27 32 77 3 99 -57 7 -19 23 -57 35 -85 13 -27 39 -90 59 -140 21 -49
42 -101 48 -115 7 -14 12 -27 13 -30 7 -30 70 -148 76 -144 5 3 6 -1 3 -9 -6
-16 64 -157 77 -157 5 0 6 -7 3 -15 -4 -8 -2 -15 3 -15 6 0 25 -30 43 -67 41
-85 71 -126 134 -185 65 -61 109 -82 171 -82 50 -1 50 -1 49 31 -1 22 -13 44
-38 70 -20 21 -36 41 -36 45 0 4 -11 17 -24 30 -24 23 -116 152 -116 162 0 3
-16 28 -35 55 -19 26 -35 53 -35 60 0 6 -4 11 -10 11 -5 0 -10 6 -10 13 0 6
-18 41 -40 77 -22 36 -68 121 -102 190 -34 69 -65 128 -70 131 -6 3 -10 10
-10 15 -1 15 -9 37 -43 109 -18 39 -36 85 -40 103 -6 30 -5 32 19 32 14 0 26
4 26 9 0 5 12 12 28 15 15 4 55 19 90 34 89 38 87 51 -38 175 -56 55 -99 104
-97 110 2 6 16 17 33 26 16 9 53 31 82 49 29 17 54 32 57 32 12 0 104 72 126
99 19 23 30 28 52 24 52 -10 80 -64 117 -223 18 -80 45 -190 61 -245 35 -124
54 -235 45 -268 -3 -14 -17 -39 -31 -55 -49 -58 -48 -162 1 -162 37 0 150 39
167 57 28 31 30 66 7 129 -12 32 -32 91 -44 129 -13 39 -25 77 -29 85 -14 37
-47 150 -57 195 -20 87 -23 109 -24 160 l-1 50 33 -2 c33 -1 122 -63 122 -85
0 -5 8 -22 18 -36 17 -25 42 -93 55 -152 3 -14 11 -72 17 -130 12 -122 38
-249 53 -268 14 -18 66 -10 121 18 65 34 252 237 234 255 -3 3 -28 6 -56 6
-43 1 -62 -5 -112 -35 -102 -60 -106 -57 -134 109 -22 133 -19 117 -64 310
-22 94 -54 217 -71 275 -43 146 -33 214 52 352 49 80 255 303 289 314 11 3 17
12 14 20 -3 7 -2 13 2 12 4 -1 21 6 39 15 38 20 129 23 170 5 78 -34 164 -102
208 -163 11 -15 31 -40 45 -56 14 -15 41 -46 60 -69 19 -23 49 -57 67 -76 56
-58 63 -127 41 -375 -17 -195 5 -447 49 -559 4 -8 5 -18 5 -22 -1 -5 4 -8 11
-8 14 0 51 -77 62 -127 26 -115 93 -224 222 -361 22 -23 25 -58 9 -106 -9 -26
-16 -55 -16 -65 0 -22 43 -71 63 -71 27 0 87 73 104 126 24 78 11 110 -92 219
-46 50 -85 96 -85 103 0 6 -4 12 -9 12 -9 0 -58 76 -83 131 -18 36 -35 119
-25 119 7 0 55 -49 87 -89 14 -18 59 -66 100 -109 94 -95 170 -188 170 -207 0
-7 4 -15 10 -17 5 -1 17 -52 27 -112 18 -108 18 -109 47 -113 17 -2 36 3 47
13 21 19 38 93 41 181 2 60 1 63 -35 98 -20 20 -41 34 -46 31 -5 -3 -8 0 -7 8
0 7 -61 77 -137 156 -135 139 -159 173 -177 255 -11 47 -3 59 48 76 20 7 39
15 42 18 3 3 29 17 59 31 85 39 141 78 141 98 0 22 -37 43 -115 67 -33 10 -65
22 -71 27 -7 5 -16 8 -20 7 -10 -2 -22 2 -111 38 -35 14 -63 28 -63 32 0 3
-13 12 -29 19 -56 25 -85 139 -94 365 l-3 88 30 15 c29 13 79 46 117 76 8 7
22 29 29 48 8 19 21 40 30 47 19 15 57 17 73 3 7 -6 32 -29 55 -50 43 -39 91
-53 93 -27 4 49 -52 207 -74 207 -8 0 -7 4 2 9 7 5 9 10 4 12 -6 2 -25 31 -43
64 -18 33 -59 86 -90 117 -69 68 -136 91 -232 81 -87 -9 -99 -25 -91 -122 7
-90 0 -126 -24 -135 -16 -6 -73 37 -73 56 0 8 -24 39 -70 89 -39 43 -60 69
-60 74 0 11 -117 115 -146 131 -39 21 -55 15 -82 -31 l-22 -36 28 -25 c15 -14
52 -42 82 -62 34 -24 56 -46 58 -60 5 -30 -10 -28 -97 14 -88 43 -129 51 -182
35 -21 -6 -58 -16 -81 -23 -24 -7 -45 -15 -48 -18 -3 -3 -15 -11 -27 -17 -25
-14 -30 -10 -50 47 -21 59 -17 105 12 124 38 25 35 86 -5 120 -54 45 -136 47
-289 6 -88 -24 -181 -84 -207 -136 -13 -24 -12 -28 8 -45 11 -11 38 -24 58
-29 44 -12 65 -39 75 -98 4 -23 10 -42 14 -42 4 0 13 -17 19 -38 7 -21 21 -47
32 -57 11 -10 20 -27 20 -37 0 -11 4 -16 10 -13 16 10 -1 -59 -18 -72 -31 -25
-68 -15 -106 27 -20 22 -36 44 -36 49 0 5 -6 16 -12 23 -7 7 -24 33 -37 58
-24 45 -198 310 -210 320 -3 3 -19 23 -35 45 -32 43 -107 117 -114 111 -2 -2
-17 0 -33 4 -26 8 -29 6 -29 -15 0 -23 16 -69 32 -90 40 -54 114 -146 138
-172 37 -40 102 -140 120 -185 8 -18 17 -35 20 -38 13 -11 70 -108 70 -118 0
-7 3 -12 8 -12 4 -1 23 -25 42 -55 19 -30 38 -55 42 -55 3 0 20 -12 37 -26 61
-51 33 -121 -111 -270 -82 -85 -104 -98 -114 -66 -19 62 -58 155 -70 167 -8 7
-14 16 -14 18 0 9 -344 345 -389 381 -25 19 -59 37 -76 40 -46 9 -65 36 -72
98 -5 48 -2 62 26 114 17 32 31 65 31 72 0 6 3 12 8 12 7 0 44 75 77 155 9 22
30 54 46 71 l30 31 -22 39 c-31 53 -50 70 -87 79 -35 7 -45 18 -48 52 -4 37
-28 77 -52 88 -12 5 -25 18 -28 27 -13 42 -62 58 -126 41z m80 -394 c2 -5 10
-9 18 -9 8 0 14 -5 14 -11 0 -5 4 -8 9 -5 5 3 11 -8 15 -25 29 -147 -80 -265
-212 -230 -31 9 -41 17 -46 39 -12 49 -18 114 -12 138 8 30 64 94 82 94 8 0
14 4 14 9 0 21 111 21 118 0z m1213 -265 c15 -18 24 -111 15 -148 -8 -33 -44
-66 -71 -66 -12 0 -35 15 -51 33 -25 28 -29 40 -29 95 0 55 3 66 24 83 29 23
93 25 112 3z m1074 -114 c4 -6 11 -7 17 -4 7 5 8 2 3 -6 -4 -7 -3 -15 4 -19
14 -9 29 -89 21 -121 -4 -17 -16 -28 -40 -35 -19 -5 -41 -14 -48 -18 -22 -15
-62 2 -72 29 -17 44 0 152 27 172 20 15 79 16 88 2z m-2031 -360 c61 -29 180
-136 200 -180 5 -11 12 -20 17 -20 13 0 29 -61 29 -111 0 -70 -14 -99 -77
-166 -13 -13 -23 -26 -23 -28 0 -9 -85 -89 -92 -87 -5 1 -8 -2 -8 -8 0 -13
-68 -56 -100 -64 -35 -7 -79 32 -90 79 -11 48 -25 526 -16 559 6 25 50 53 85
55 7 1 41 -12 75 -29z m-3094 -93 c29 -55 21 -82 -34 -111 l-36 -19 -26 24
c-14 13 -35 37 -46 52 -19 26 -19 33 -8 68 l13 38 56 -3 c55 -4 56 -5 81 -49z
m898 31 c2 -4 10 -8 17 -8 27 0 34 -73 11 -118 -24 -44 -52 -62 -101 -62 -56
0 -75 24 -75 95 0 43 4 55 28 77 15 14 36 28 47 31 25 5 69 -3 73 -15z m1170
-57 c3 -27 -2 -39 -24 -58 -38 -32 -97 -29 -102 5 -2 12 -8 20 -13 17 -17 -11
-9 20 14 48 19 24 28 27 72 25 49 -3 50 -4 53 -37z m1755 -406 c2 -60 -9 -65
-92 -40 -80 25 -101 40 -101 74 0 64 53 114 130 123 22 3 27 -3 43 -52 10 -30
19 -77 20 -105z m-3508 24 c22 -13 48 -32 58 -42 25 -25 67 -110 67 -135 0
-28 20 -70 36 -76 13 -5 84 60 84 77 0 4 5 13 10 20 6 7 24 30 40 52 16 22 34
45 40 52 5 7 10 15 10 18 0 22 78 55 112 47 24 -5 27 -20 35 -162 l6 -129 -25
-10 c-50 -19 -105 -90 -160 -204 -15 -33 -28 -63 -28 -69 0 -13 -26 -38 -41
-38 -7 0 -27 11 -45 25 -18 14 -37 25 -42 25 -6 0 -12 3 -14 8 -1 4 -23 23
-48 42 -25 19 -55 44 -66 56 -12 11 -32 29 -45 40 -50 40 -110 122 -162 224
-66 129 -77 159 -66 188 8 21 12 22 106 18 81 -3 105 -7 138 -27z m4865 -190
c110 -53 110 -57 5 -109 -87 -43 -96 -40 -113 43 -7 38 -11 75 -8 83 8 22 46
17 116 -17z m-2241 -89 c9 -4 42 -20 74 -35 32 -15 54 -31 51 -37 -4 -6 -1
-14 5 -18 7 -4 15 -25 18 -48 5 -37 3 -42 -24 -55 -71 -37 -307 -48 -346 -16
-20 16 -21 20 -9 65 7 27 16 51 20 54 4 3 16 23 27 44 33 64 41 69 108 61 33
-3 67 -10 76 -15z m-1976 -122 c9 -11 17 -26 17 -34 0 -8 4 -14 8 -14 11 0 32
-44 42 -88 7 -28 5 -35 -16 -49 -33 -22 -159 -53 -213 -53 -82 0 -99 39 -57
134 13 30 22 57 20 60 -2 3 -1 4 2 2 6 -5 16 2 49 32 25 23 79 41 105 35 14
-3 33 -14 43 -25z m1246 -8 c6 -22 15 -70 18 -106 7 -81 -4 -94 -80 -94 -76 0
-91 35 -67 161 12 62 29 79 80 79 34 0 38 -3 49 -40z m-2045 -17 c15 -13 30
-23 34 -23 5 0 21 -13 37 -30 16 -16 34 -30 41 -30 19 0 29 -41 13 -51 -16
-11 -41 -8 -199 20 -63 12 -118 25 -123 30 -11 11 9 30 76 71 31 18 54 37 51
41 -9 15 46 -7 70 -28z m762 -298 c17 -4 24 -17 33 -62 14 -74 14 -166 -1
-181 -17 -17 -75 -15 -128 5 -52 19 -80 47 -80 77 0 39 30 160 40 166 11 7 93
3 136 -5z"/>
<path d="M4564 3690 c-128 -14 -216 -53 -284 -126 -25 -27 -54 -66 -63 -86
-24 -51 -39 -136 -32 -183 7 -48 44 -135 65 -152 8 -7 12 -13 8 -13 -4 0 14
-19 40 -43 73 -67 160 -104 352 -151 236 -59 290 -93 290 -184 0 -55 -23 -98
-72 -135 -47 -36 -114 -50 -216 -45 -72 3 -95 9 -134 32 -54 31 -101 98 -120
169 -10 40 -16 47 -33 43 -11 -2 -67 -8 -124 -12 l-103 -7 5 -48 c7 -57 72
-202 108 -240 52 -56 122 -99 202 -125 73 -24 98 -27 222 -27 262 -1 399 65
486 234 32 61 34 70 34 169 0 95 -3 110 -28 160 -67 132 -164 191 -417 255
-146 36 -255 73 -277 93 -47 40 -56 103 -23 145 37 46 99 68 194 68 47 0 103
-5 125 -11 52 -14 96 -59 118 -121 l18 -49 90 0 c49 0 107 3 128 6 32 6 37 10
37 33 -1 36 -43 152 -66 180 -68 85 -121 121 -220 150 -81 23 -210 32 -310 21z"/>
<path d="M3047 3673 c-3 -5 -29 -69 -57 -143 -29 -74 -84 -214 -122 -309 -39
-96 -83 -211 -99 -255 -17 -44 -36 -94 -44 -111 -8 -16 -25 -60 -39 -98 -14
-37 -31 -82 -39 -100 -8 -17 -28 -70 -46 -117 -18 -47 -39 -100 -47 -118 -8
-18 -12 -38 -9 -43 7 -11 221 -11 248 0 19 7 52 83 97 220 l24 71 270 0 271 0
55 -145 c46 -122 58 -145 78 -150 13 -3 75 -5 138 -4 125 1 127 3 99 62 -28
62 -75 182 -75 195 0 6 -4 12 -10 12 -5 0 -10 6 -10 14 0 8 -11 41 -24 73 -13
32 -45 110 -71 173 -25 63 -50 124 -55 135 -13 28 -156 384 -191 475 -16 41
-39 96 -50 122 l-22 46 -132 1 c-74 1 -136 -2 -138 -6z m189 -434 c20 -57 40
-108 44 -114 4 -5 22 -53 40 -105 18 -52 36 -99 40 -104 25 -26 -5 -31 -176
-29 -97 1 -178 4 -181 6 -2 3 2 20 11 39 9 18 27 65 40 103 63 181 106 295
116 316 16 28 18 24 66 -112z"/>
<path d="M5330 3031 c0 -582 2 -649 16 -655 9 -3 234 -6 500 -6 l485 0 -3 108
-3 107 -367 3 -368 2 0 180 0 180 330 0 330 0 0 105 0 105 -330 0 -330 0 0
150 0 150 355 0 355 0 0 110 0 110 -485 0 -485 -1 0 -648z"/>
<path d="M6903 3668 c-11 -16 -23 -44 -108 -263 -36 -93 -87 -222 -112 -285
-64 -162 -119 -302 -153 -392 -16 -43 -39 -98 -50 -122 -11 -25 -20 -49 -20
-54 0 -10 -44 -116 -60 -144 -6 -10 -10 -22 -10 -28 0 -12 249 -13 269 -1 6 4
30 59 52 122 22 63 45 126 51 142 l10 27 267 0 266 0 48 -122 c74 -191 54
-173 187 -176 63 -1 125 0 137 3 24 6 23 11 -12 90 -7 16 -43 107 -80 200 -37
94 -76 188 -85 210 -10 22 -35 83 -55 135 -21 52 -45 113 -55 135 -9 22 -23
56 -29 75 -7 19 -19 49 -27 65 -14 30 -52 126 -121 302 l-36 91 -132 1 c-97 1
-135 -2 -142 -11z m161 -355 c10 -26 21 -57 26 -68 5 -11 13 -33 18 -50 6 -16
33 -90 61 -164 29 -74 49 -136 47 -138 -8 -9 -356 -8 -356 0 0 15 52 160 71
201 11 22 19 46 19 53 0 7 6 27 14 45 8 18 26 66 41 106 15 39 30 70 34 67 5
-2 16 -26 25 -52z"/>
<path d="M8062 3028 l3 -653 105 -3 c58 -2 115 0 128 3 l22 5 0 275 0 275 275
0 275 0 0 105 0 105 -275 0 -275 0 0 160 0 160 320 0 320 0 0 110 0 110 -450
0 -450 0 2 -652z"/>
<path d="M2726 2101 c-3 -4 -17 -41 -32 -82 -15 -41 -35 -92 -45 -114 -29 -66
-69 -171 -69 -183 0 -20 70 -15 76 6 3 9 11 31 18 47 l13 30 84 -3 84 -3 19
-45 c17 -41 20 -44 57 -44 l38 0 -14 38 c-14 39 -110 273 -135 330 -13 28 -20
32 -52 32 -20 0 -39 -4 -42 -9z m73 -157 c30 -81 29 -84 -28 -84 -28 0 -53 4
-56 10 -3 5 3 31 14 56 12 26 21 53 21 60 0 34 29 9 49 -42z"/>
<path d="M4049 2104 c-1 -2 -1 -13 -1 -24 0 -39 2 -41 35 -38 28 3 32 6 32 33
0 27 -3 30 -32 31 -18 1 -33 -1 -34 -2z"/>
<path d="M4858 2079 c-5 -34 6 -43 44 -37 40 5 25 68 -16 68 -19 0 -25 -6 -28
-31z"/>
<path d="M5155 2080 c-19 -37 -19 -40 5 -40 19 0 69 45 70 63 0 4 -13 7 -30 7
-23 0 -33 -7 -45 -30z"/>
<path d="M5955 2102 c-3 -3 -5 -92 -5 -199 l0 -194 153 3 152 3 0 25 0 25
-112 3 -113 3 0 59 0 60 106 0 105 0 -3 28 -3 27 -103 3 -103 3 3 46 3 47 105
0 105 1 0 30 0 30 -142 1 c-78 1 -145 -1 -148 -4z"/>
<path d="M7825 2098 c-3 -8 -4 -97 -3 -198 l3 -185 37 -3 37 -3 -2 198 -2 198
-33 3 c-20 2 -34 -2 -37 -10z"/>
<path d="M8383 2103 c-9 -3 -13 -28 -13 -75 l0 -69 -26 20 c-91 71 -209 -42
-175 -167 24 -93 103 -133 168 -85 39 28 43 28 43 3 0 -16 7 -20 30 -20 17 0
30 6 31 13 7 80 5 356 -2 370 -9 17 -31 21 -56 10z m-33 -175 c15 -16 20 -35
20 -73 0 -64 -20 -95 -62 -95 -50 0 -68 24 -68 90 0 64 23 100 65 100 13 0 33
-10 45 -22z"/>
<path d="M6645 2070 c-22 -15 -29 -26 -27 -45 3 -20 -1 -25 -17 -25 -17 0 -21
-6 -21 -29 0 -19 6 -31 16 -33 12 -2 16 -21 17 -100 2 -114 12 -131 76 -130
51 1 61 7 54 32 -3 13 -14 20 -29 20 -23 0 -24 2 -24 80 0 44 0 83 0 88 0 4
11 8 25 10 20 3 25 9 25 33 0 24 -4 29 -25 29 -23 0 -25 4 -25 45 0 25 -3 45
-7 45 -5 0 -21 -9 -38 -20z"/>
<path d="M7268 2082 c-10 -2 -18 -8 -18 -13 0 -5 -7 -9 -15 -9 -10 0 -15 -10
-15 -29 0 -20 -6 -30 -20 -34 -12 -3 -20 -14 -20 -27 0 -13 8 -24 20 -27 18
-5 20 -14 20 -87 0 -44 3 -91 6 -103 9 -34 50 -56 90 -48 29 5 34 10 34 33 0
24 -4 28 -27 27 l-28 0 -3 88 -3 87 31 0 c27 0 30 3 30 30 0 19 -5 30 -12 29
-40 -5 -47 1 -50 44 -2 34 -6 42 -20 39z"/>
<path d="M3109 1971 c-38 -38 -39 -82 -3 -110 24 -19 48 -27 127 -45 20 -5 27
-12 27 -30 0 -41 -85 -44 -118 -3 -12 14 -58 12 -67 -3 -3 -4 4 -19 15 -33 40
-50 165 -54 216 -6 20 19 24 31 22 62 -3 33 -8 42 -38 58 -19 10 -61 26 -93
34 -45 12 -58 20 -55 33 4 24 95 30 104 8 7 -17 41 -21 62 -7 11 7 11 12 1 28
-16 26 -64 43 -123 43 -39 0 -53 -5 -77 -29z"/>
<path d="M3450 1992 c-57 -25 -90 -79 -90 -144 0 -82 62 -142 146 -140 89 1
146 59 148 149 0 54 -1 57 -48 99 -43 39 -53 44 -94 43 -26 0 -54 -3 -62 -7z
m114 -74 c24 -34 21 -107 -6 -135 -31 -33 -80 -31 -108 5 -18 22 -21 36 -17
76 5 58 24 76 78 76 28 0 42 -6 53 -22z"/>
<path d="M3806 1988 c-60 -34 -87 -112 -66 -189 28 -102 166 -130 235 -47 31
36 28 52 -9 56 -19 3 -33 -4 -47 -22 -24 -31 -58 -33 -90 -7 -19 15 -23 28
-23 74 -1 47 3 59 24 77 26 23 61 21 91 -6 21 -19 69 -18 69 1 0 19 -31 55
-47 55 -7 0 -13 5 -13 10 0 14 -100 12 -124 -2z"/>
<path d="M4047 1993 c-2 -4 -3 -62 -1 -128 2 -66 4 -128 4 -138 0 -15 7 -18
33 -15 l32 3 0 140 0 140 -32 3 c-17 2 -33 -1 -36 -5z"/>
<path d="M4251 1974 c-17 -14 -31 -32 -31 -40 0 -19 49 -18 74 1 24 18 68 19
84 3 21 -21 14 -47 -15 -53 -16 -3 -53 -13 -83 -23 -59 -18 -79 -46 -67 -93
11 -39 22 -50 63 -59 29 -7 47 -5 78 10 35 16 42 16 49 4 4 -8 20 -14 36 -14
l27 0 -3 93 c-5 135 -10 153 -42 177 -44 31 -130 28 -170 -6z m139 -150 c0
-37 -16 -61 -45 -68 -38 -10 -67 10 -63 42 2 22 11 28 48 38 62 17 60 17 60
-12z"/>
<path d="M4607 1981 c-42 -27 -58 -56 -63 -114 -6 -60 14 -108 57 -140 53 -39
173 -15 198 39 15 33 7 44 -30 44 -19 0 -29 -5 -29 -15 0 -18 -31 -35 -64 -35
-35 0 -58 38 -59 101 -2 42 2 54 22 70 30 24 56 24 81 -1 23 -23 80 -28 80 -7
0 18 -29 51 -57 65 -33 18 -104 14 -136 -7z"/>
<path d="M4859 1960 c-1 -22 -3 -59 -4 -82 -1 -24 0 -71 3 -106 l5 -63 31 3
31 3 3 143 3 142 -35 0 c-35 0 -36 -1 -37 -40z"/>
<path d="M5102 1985 c-47 -26 -71 -57 -78 -102 -13 -90 25 -151 108 -174 32
-8 49 -7 88 7 41 15 53 25 75 66 22 40 25 56 20 91 -13 75 -74 128 -148 126
-23 -1 -52 -7 -65 -14z m123 -68 c23 -32 19 -113 -5 -137 -20 -20 -54 -26 -85
-14 -36 14 -59 106 -33 132 7 7 9 12 4 12 -4 0 -1 6 6 14 30 30 90 26 113 -7z"/>
<path d="M5410 1854 l0 -144 35 0 35 0 0 104 c0 97 2 106 22 120 39 28 86 17
93 -20 2 -10 4 -61 4 -111 l1 -93 35 0 35 0 0 119 c0 114 -1 119 -26 145 -34
33 -99 36 -134 6 -23 -20 -40 -19 -40 4 0 8 -13 13 -30 14 l-30 1 0 -145z"/>
<path d="M6342 1972 c-63 -56 -27 -120 80 -144 65 -14 92 -38 70 -60 -20 -20
-94 -14 -109 9 -10 14 -21 18 -43 15 -36 -5 -38 -21 -7 -49 57 -54 177 -50
224 7 17 21 16 78 -2 97 -8 8 -47 24 -87 35 -79 22 -104 38 -85 57 16 16 82
14 97 -4 14 -17 47 -19 69 -6 12 8 8 15 -18 40 -30 28 -40 31 -95 31 -54 0
-66 -4 -94 -28z"/>
<path d="M6903 1965 c-39 -39 -39 -39 -2 -48 19 -5 33 -1 49 13 40 34 100 22
100 -21 0 -18 -10 -23 -70 -34 -60 -11 -90 -27 -105 -56 -23 -44 7 -98 63
-112 26 -6 83 10 94 27 4 7 13 4 26 -7 10 -9 29 -17 43 -17 24 0 24 0 21 97
-4 142 -8 160 -42 178 -16 8 -54 15 -86 15 -51 0 -59 -3 -91 -35z m147 -141
c0 -37 -16 -61 -45 -68 -38 -10 -67 10 -63 42 3 23 10 29 48 39 62 16 60 16
60 -13z"/>
<path d="M7529 1985 c-14 -7 -30 -25 -36 -38 -11 -23 -9 -25 18 -29 20 -3 34
1 46 14 22 25 79 24 93 -1 17 -34 12 -39 -62 -55 -88 -20 -107 -33 -114 -78
-9 -52 28 -91 83 -90 23 0 55 8 72 17 28 14 32 14 37 0 4 -9 18 -15 35 -15
l29 0 0 99 c0 111 -11 153 -45 175 -30 20 -120 20 -156 1z m125 -150 c3 -8 1
-27 -5 -42 -23 -67 -120 -53 -102 15 4 17 32 29 94 41 4 0 9 -6 13 -14z"/>
<path d="M8574 1966 l-39 -34 0 -82 c0 -77 2 -83 28 -106 43 -37 99 -50 146
-34 38 12 81 50 81 70 0 17 -77 12 -84 -5 -9 -24 -72 -19 -90 7 -31 43 -23 48
78 48 52 0 98 4 101 10 14 22 -9 83 -45 121 -33 35 -42 39 -87 39 -42 0 -56
-5 -89 -34z m122 -24 c19 -12 33 -47 25 -61 -12 -20 -115 -11 -119 11 -7 37
60 73 94 50z"/>
<path d="M2726 1421 c-12 -18 -146 -366 -146 -377 0 -7 13 -12 32 -11 28 2 36
8 52 42 10 22 23 43 30 47 6 4 44 8 84 8 l73 0 19 -45 c11 -25 23 -45 27 -46
4 0 20 -2 36 -4 20 -3 27 1 27 13 0 15 -32 99 -100 262 -11 25 -26 62 -34 83
-14 34 -18 37 -55 37 -22 0 -42 -4 -45 -9z m76 -156 l26 -75 -59 0 -59 0 6 28
c4 15 10 32 14 37 4 6 13 27 19 48 7 20 16 37 19 37 4 0 19 -34 34 -75z"/>
<path d="M4090 1402 c0 -37 4 -39 40 -34 25 4 30 9 30 33 0 26 -3 29 -35 29
-32 0 -35 -3 -35 -28z"/>
<path d="M4840 1397 c0 -32 2 -33 35 -33 33 1 35 3 35 34 0 30 -2 32 -35 32
-33 0 -35 -2 -35 -33z"/>
<path d="M6560 1235 l0 -195 25 -6 c49 -12 55 -2 55 91 l0 85 86 0 85 0 -3 28
c-3 27 -4 27 -88 32 l-85 5 0 48 0 47 103 0 102 0 0 30 0 30 -140 0 -140 0 0
-195z"/>
<path d="M7842 1398 c3 -31 5 -33 41 -33 36 -1 38 0 34 30 -3 27 -7 30 -41 33
-37 3 -37 3 -34 -30z"/>
<path d="M8022 1233 l3 -198 35 0 35 0 0 195 0 195 -38 3 -37 3 2 -198z"/>
<path d="M8206 1422 c-3 -5 -3 -17 -1 -28 2 -10 4 -21 4 -24 1 -3 15 -5 31 -5
23 0 32 5 36 22 3 12 3 27 -1 32 -7 13 -62 15 -69 3z"/>
<path d="M5766 1389 c-15 -12 -26 -30 -26 -45 0 -15 -6 -24 -15 -24 -9 0 -15
-9 -15 -25 0 -16 6 -25 15 -25 12 0 15 -16 15 -84 0 -110 12 -144 55 -152 51
-9 70 -2 73 29 3 23 0 27 -22 27 -26 0 -26 0 -26 90 0 90 0 90 26 90 20 0 25
4 22 22 -2 14 -12 24 -28 28 -22 5 -25 10 -22 48 4 49 -10 54 -52 21z"/>
<path d="M3177 1319 c-69 -19 -97 -63 -97 -156 0 -47 4 -58 34 -90 29 -33 39
-37 92 -41 49 -3 63 0 87 18 15 12 34 34 42 50 14 28 14 28 -21 35 -20 3 -37
5 -38 3 -24 -52 -52 -63 -95 -37 -28 17 -31 23 -31 72 0 68 19 97 65 97 23 0
39 -7 48 -20 11 -16 21 -19 45 -14 40 8 40 18 2 54 -31 29 -87 41 -133 29z"/>
<path d="M3470 1317 c-51 -18 -58 -24 -81 -73 -18 -40 -19 -52 -9 -100 9 -43
18 -59 46 -81 99 -75 244 -7 244 115 0 105 -98 173 -200 139z m105 -67 c11
-13 18 -36 18 -70 1 -61 -23 -91 -72 -92 -54 -2 -77 39 -72 123 3 51 90 79
126 39z"/>
<path d="M3844 1323 c-12 -2 -35 -16 -53 -31 -64 -54 -60 -177 8 -234 30 -25
102 -24 126 2 22 24 35 17 35 -18 0 -45 -26 -72 -67 -72 -20 0 -44 6 -52 14
-18 15 -75 28 -85 19 -3 -3 -1 -12 5 -20 6 -7 8 -13 3 -13 -5 0 9 -12 31 -25
47 -29 129 -34 175 -10 50 26 61 69 58 234 l-3 146 -24 3 c-15 3 -30 -3 -37
-13 -11 -15 -15 -15 -36 -2 -29 19 -57 25 -84 20z m102 -84 c48 -93 -45 -199
-106 -121 -18 21 -21 36 -17 74 5 61 20 78 68 78 33 0 41 -4 55 -31z"/>
<path d="M4376 1309 c-35 -19 -40 -19 -48 -5 -9 16 -57 23 -59 9 -5 -54 -8
-244 -4 -261 5 -19 11 -22 38 -19 l32 3 5 105 c3 57 9 110 13 117 5 6 24 12
43 12 19 0 36 -6 39 -12 2 -7 6 -60 8 -118 l3 -105 35 0 34 1 5 107 c5 116 10
127 62 127 34 0 37 -11 41 -140 2 -93 2 -95 27 -98 49 -5 52 5 44 131 -8 141
-19 160 -93 156 -25 -1 -54 -9 -64 -17 -16 -14 -21 -13 -56 6 -48 27 -57 27
-105 1z"/>
<path d="M5092 1317 c-77 -24 -114 -136 -71 -219 24 -46 63 -68 125 -68 39 0
51 5 81 35 19 19 32 39 28 45 -11 18 -59 11 -73 -10 -24 -39 -102 -12 -102 36
0 24 1 24 95 24 l95 0 0 34 c0 19 -4 38 -10 41 -5 3 -10 14 -10 23 0 21 -55
58 -95 64 -16 3 -45 1 -63 -5z m97 -78 c6 -18 11 -34 11 -35 0 -2 -29 -4 -64
-4 -61 0 -64 1 -59 23 8 31 31 47 69 47 27 0 34 -5 43 -31z"/>
<path d="M5477 1306 c-35 -24 -37 -24 -37 -6 0 16 -7 20 -35 20 l-35 0 0 -139
c0 -88 4 -142 11 -146 5 -4 21 -4 35 -1 23 6 24 9 24 94 0 112 12 136 67 140
51 4 52 1 56 -138 l2 -95 30 0 30 0 3 121 c2 114 1 121 -20 141 -38 35 -87 39
-131 9z"/>
<path d="M6100 1318 c-46 -13 -69 -34 -91 -83 -31 -70 0 -157 68 -190 119 -58
250 56 207 180 -17 49 -47 80 -93 94 -44 13 -44 13 -91 -1z m101 -70 c23 -28
26 -112 5 -134 -38 -38 -102 -35 -123 6 -20 40 -16 100 9 127 29 31 83 31 109
1z"/>
<path d="M6981 1315 c-19 -6 -40 -23 -47 -37 -13 -24 -12 -26 12 -32 17 -5 32
-2 43 9 25 21 88 20 100 -3 14 -27 1 -40 -49 -47 -66 -10 -106 -32 -121 -67
-11 -26 -10 -35 5 -63 26 -47 98 -61 144 -29 21 15 25 15 40 0 10 -9 27 -13
39 -10 21 6 21 10 16 122 -6 130 -13 145 -72 162 -44 12 -66 11 -110 -5z m115
-160 c6 -24 -16 -74 -34 -76 -4 0 -15 -2 -24 -4 -10 -2 -28 5 -39 14 -32 25
-18 56 34 75 56 19 56 20 63 -9z"/>
<path d="M7380 1310 c-43 -24 -50 -24 -50 -4 0 11 -8 14 -32 12 l-33 -3 0
-140 0 -140 35 1 35 0 5 108 c5 117 11 128 65 124 l30 -3 5 -115 5 -115 35 0
35 0 3 104 c1 59 8 111 14 118 7 9 26 13 47 11 l36 -3 5 -115 5 -115 29 -3
c16 -2 32 2 37 9 11 18 1 219 -13 246 -24 48 -100 51 -149 7 -14 -13 -19 -13
-31 -1 -18 19 -54 37 -70 37 -7 -1 -29 -9 -48 -20z"/>
<path d="M8446 1320 c-34 -10 -66 -38 -66 -56 0 -22 51 -30 62 -10 6 11 23 16
53 16 36 0 45 -4 50 -21 9 -28 1 -34 -68 -48 -73 -16 -110 -46 -110 -90 0 -49
33 -76 92 -76 34 0 55 6 70 19 18 16 21 17 27 3 7 -19 31 -29 53 -22 24 7 17
229 -8 256 -33 36 -94 47 -155 29z m104 -178 c0 -42 -36 -68 -87 -63 -7 0 -17
10 -23 22 -19 35 17 63 88 68 18 1 22 -4 22 -27z"/>
<path d="M8840 1323 c-8 -4 -23 -15 -32 -26 -18 -20 -18 -20 -18 1 0 18 -6 22
-35 22 l-35 0 0 -140 c0 -77 3 -141 8 -141 41 -6 62 -7 62 -1 4 190 19 239 72
228 23 -5 29 -2 34 20 4 14 5 26 3 28 -10 9 -45 14 -59 9z"/>
<path d="M4092 1178 l3 -143 30 0 30 0 3 143 3 142 -36 0 -36 0 3 -142z"/>
<path d="M4844 1307 c-2 -7 -3 -71 -2 -143 l3 -129 34 3 c19 1 35 4 35 5 1 1
0 64 -2 140 l-3 137 -30 0 c-16 0 -32 -6 -35 -13z"/>
<path d="M7847 1314 c-4 -4 -7 -67 -7 -140 0 -140 1 -143 50 -140 l25 1 0 140
0 140 -30 3 c-17 2 -34 0 -38 -4z"/>
<path d="M8208 1313 c-2 -4 -1 -69 2 -143 l5 -135 30 0 30 0 0 140 0 140 -32
3 c-17 2 -33 -1 -35 -5z"/>
</g>
</svg>
