<?xml version="1.0" standalone="no"?>
<!DOCTYPE svg PUBLIC "-//W3C//DTD SVG 20010904//EN"
 "http://www.w3.org/TR/2001/REC-SVG-20010904/DTD/svg10.dtd">
<svg version="1.0" xmlns="http://www.w3.org/2000/svg"
 width="512.000000pt" height="512.000000pt" viewBox="0 0 512.000000 512.000000"
 preserveAspectRatio="xMidYMid meet">

<g transform="translate(0.000000,512.000000) scale(0.100000,-0.100000)"
fill="#000000" stroke="none">
<path d="M2470 5011 c-81 -27 -128 -66 -442 -379 l-328 -326 0 182 c0 181 0
183 -25 207 l-24 25 -284 0 c-272 0 -285 -1 -311 -21 l-26 -20 0 -522 0 -521
-433 -436 c-486 -487 -479 -479 -485 -615 -3 -64 1 -92 19 -140 30 -81 103
-154 184 -184 81 -30 197 -27 270 8 40 19 238 212 1012 984 l961 960 32 -26
c52 -44 110 -28 110 30 0 35 -106 143 -141 143 -18 0 -255 -231 -1019 -993
-865 -864 -1000 -995 -1036 -1005 -80 -23 -146 -8 -205 45 -69 62 -89 127 -69
215 12 53 18 59 1104 1146 618 620 1107 1102 1128 1113 46 23 134 25 186 4 23
-10 102 -81 208 -185 179 -178 201 -192 237 -152 37 40 24 59 -155 238 -205
204 -240 226 -363 230 -44 2 -91 0 -105 -5z m-890 -619 l0 -207 -215 -215
-215 -215 0 423 0 422 215 0 215 0 0 -208z"/>
<path d="M3200 4452 c-358 -100 -565 -484 -432 -801 103 -244 438 -605 882
-951 160 -124 174 -133 200 -125 11 3 80 53 153 109 489 381 814 737 915 1004
32 83 35 211 8 312 -59 218 -248 403 -466 454 -202 48 -378 -7 -549 -171 l-75
-72 -71 68 c-76 74 -150 124 -235 161 -76 32 -236 38 -330 12z m290 -123 c76
-27 181 -109 253 -196 86 -105 100 -106 181 -4 92 115 220 201 329 222 82 15
187 -3 282 -50 168 -83 274 -236 291 -422 16 -164 -97 -357 -380 -646 -142
-146 -322 -307 -497 -443 l-113 -88 -61 46 c-263 200 -615 531 -748 704 -141
181 -195 307 -183 427 17 184 124 339 291 422 124 61 239 71 355 28z"/>
<path d="M3244 4139 c-116 -44 -204 -165 -204 -281 0 -46 4 -59 19 -68 47 -25
91 3 91 56 0 17 12 54 26 83 32 63 90 105 162 116 54 8 82 28 82 60 0 55 -81
71 -176 34z"/>
<path d="M4597 3042 c-36 -39 -23 -60 131 -216 130 -132 150 -157 160 -198 7
-26 12 -55 12 -65 0 -83 -72 -174 -156 -199 -110 -32 -158 -7 -344 180 -152
153 -177 168 -214 130 -38 -38 -23 -62 141 -225 195 -192 216 -204 358 -204
92 0 104 2 154 30 109 60 173 170 172 296 0 122 -39 186 -230 372 -125 123
-150 136 -184 99z"/>
<path d="M1346 2334 c-82 -25 -155 -83 -214 -169 -15 -22 -34 -34 -70 -43
-165 -43 -252 -193 -222 -380 14 -85 48 -187 91 -274 16 -31 33 -86 39 -122 6
-37 21 -96 35 -133 13 -37 23 -68 22 -69 -1 -1 -22 -12 -46 -24 -56 -28 -141
-108 -180 -169 -16 -25 -40 -75 -52 -111 -21 -60 -23 -85 -27 -348 l-4 -282
-54 0 -54 0 0 944 c0 1031 3 976 -55 976 -58 0 -55 58 -55 -1015 0 -881 2
-985 16 -999 14 -14 213 -16 2044 -16 1831 0 2030 2 2044 16 14 14 16 118 16
999 0 1070 3 1015 -53 1015 -55 -1 -52 59 -57 -967 l-5 -948 -67 -3 -66 -3 -4
283 c-4 233 -8 293 -22 338 -25 77 -61 136 -124 202 l-54 57 12 38 c9 25 40
65 95 118 66 64 85 90 99 133 30 90 19 202 -28 274 -13 20 -13 29 0 78 18 65
13 121 -17 191 -24 56 -101 131 -152 149 -18 6 -46 29 -65 55 -94 124 -268
205 -442 205 -158 0 -286 -55 -405 -175 -44 -44 -96 -87 -116 -96 -47 -21
-103 -78 -130 -132 -28 -53 -36 -157 -17 -210 13 -36 12 -42 -17 -100 -25 -51
-30 -73 -30 -132 1 -100 27 -152 123 -245 54 -52 81 -87 89 -114 12 -38 12
-38 -37 -87 -58 -58 -92 -114 -120 -194 -25 -73 -26 -117 -2 -138 43 -39 82
-13 101 67 31 128 123 228 249 271 35 13 37 12 92 -33 30 -25 83 -58 118 -75
52 -24 72 -29 116 -25 67 6 150 46 215 104 l49 44 55 -20 c112 -42 191 -125
227 -239 18 -56 20 -91 20 -327 l0 -264 -568 0 -568 0 -16 87 c-30 157 -118
294 -245 379 -32 21 -59 39 -61 40 -1 1 11 30 28 65 16 35 30 72 30 82 0 10
12 22 28 28 31 12 69 45 84 74 30 55 26 138 -8 176 -11 12 -15 48 -17 130 -2
107 -4 119 -35 181 -20 42 -51 83 -80 109 -172 153 -467 155 -630 4 -98 -91
-140 -197 -129 -328 5 -61 3 -74 -15 -100 -53 -74 -24 -189 59 -235 31 -17 45
-32 53 -60 7 -20 23 -57 36 -81 13 -24 23 -45 22 -46 -165 -98 -262 -220 -303
-380 -8 -32 -15 -74 -15 -92 l0 -33 -531 0 -530 0 3 288 c3 285 3 287 29 342
36 76 97 141 166 177 l58 31 46 -41 c25 -23 72 -55 105 -72 54 -28 67 -30 164
-30 97 0 110 2 170 31 36 17 86 50 111 72 l46 41 51 -25 c69 -34 142 -117 177
-198 32 -75 57 -90 101 -61 23 15 26 22 20 53 -16 104 -119 238 -229 301 l-55
32 24 60 c14 34 30 98 36 143 9 58 18 89 35 110 50 61 82 188 83 327 0 71 2
77 30 104 39 37 86 111 95 148 10 36 -14 63 -63 71 -48 7 -92 32 -178 97 -123
93 -256 139 -399 138 -38 0 -92 -7 -119 -15z m255 -120 c74 -22 132 -53 214
-114 39 -29 85 -59 103 -68 17 -9 32 -21 32 -27 0 -31 -112 -96 -196 -115 -94
-21 -243 -30 -322 -19 -98 14 -159 40 -208 90 -42 43 -80 51 -106 22 -22 -24
-65 -128 -103 -247 l-32 -100 -12 35 c-7 19 -15 71 -18 116 -5 69 -3 87 16
125 26 55 72 86 158 107 65 15 68 18 94 65 30 58 94 118 141 133 51 17 178 15
239 -3z m2160 -8 c117 -25 227 -97 280 -183 15 -23 40 -42 83 -62 46 -21 69
-38 86 -65 33 -55 37 -115 11 -168 -27 -57 -27 -74 5 -115 32 -43 54 -95 54
-131 0 -46 -46 -124 -96 -161 -46 -35 -96 -98 -114 -145 -5 -14 -16 -26 -25
-26 -20 0 -20 1 20 84 44 92 73 215 82 343 5 88 9 103 24 108 25 8 35 50 20
82 -13 28 -24 28 -173 3 -165 -28 -359 45 -484 183 -32 35 -60 57 -73 57 -31
0 -61 -35 -61 -72 -1 -48 -33 -112 -72 -141 -19 -15 -59 -32 -89 -38 -62 -14
-89 -33 -89 -63 -1 -16 -6 -12 -21 17 -24 46 -27 123 -5 164 20 40 68 80 106
88 20 4 45 25 76 63 83 103 178 163 287 181 75 13 95 12 168 -3z m-2521 -399
c87 -43 186 -60 327 -55 l121 5 20 -66 c77 -251 49 -455 -81 -585 -122 -122
-282 -125 -407 -10 -123 114 -166 280 -124 482 17 86 75 264 84 260 3 -2 30
-15 60 -31z m2307 -23 c112 -85 257 -134 401 -134 l85 0 -6 -92 c-7 -115 -27
-191 -75 -288 -63 -127 -194 -242 -278 -242 -113 0 -276 181 -328 366 -17 58
-38 244 -29 259 2 4 19 14 36 23 41 21 104 81 123 117 8 15 17 27 19 27 3 0
26 -16 52 -36z m-1687 -33 c0 -27 -3 -63 -7 -82 -6 -32 -7 -31 -24 32 -25 90
-25 90 24 98 4 0 7 -21 7 -48z m1343 -206 c7 -112 37 -229 81 -317 18 -37 31
-70 28 -73 -15 -14 -32 -1 -43 33 -8 24 -42 67 -100 124 -95 94 -106 117 -96
204 3 31 16 59 41 91 20 25 36 50 36 55 0 5 11 1 24 -9 21 -16 24 -28 29 -108z
m-546 -14 c71 -31 137 -103 157 -172 28 -94 35 -89 -118 -89 -73 0 -148 3
-165 6 -45 9 -90 57 -97 105 -8 51 -25 72 -57 72 -38 0 -54 -18 -62 -64 -8
-44 -45 -95 -75 -103 -11 -4 -29 -9 -40 -12 -17 -4 -20 -1 -20 24 0 100 84
206 191 241 86 28 211 24 286 -8z m-190 -358 c22 -9 80 -13 188 -13 154 0 155
0 155 -22 0 -14 13 -34 32 -50 29 -23 31 -29 23 -54 -8 -23 -18 -30 -48 -35
-49 -8 -55 -15 -73 -85 -41 -155 -126 -238 -244 -238 -64 0 -104 18 -154 70
-43 44 -73 104 -85 169 -10 53 -38 85 -75 85 -52 0 -61 52 -16 95 17 16 30 36
30 46 0 11 12 18 39 23 21 3 60 21 87 39 l49 33 30 -24 c17 -14 44 -31 62 -39z
m34 -608 c76 0 92 3 146 31 l61 32 41 -23 c69 -40 121 -87 162 -148 40 -61 79
-167 79 -218 l0 -29 -484 0 c-267 0 -487 3 -489 8 -10 16 16 120 46 182 36 77
121 166 191 202 l49 25 56 -31 c50 -28 65 -31 142 -31z"/>
<path d="M1272 1564 c-32 -22 -30 -69 4 -91 24 -15 29 -15 53 -2 36 20 41 71
9 93 -28 20 -38 20 -66 0z"/>
<path d="M1520 1560 c-11 -11 -20 -29 -20 -40 0 -22 33 -60 53 -60 27 0 57 31
57 60 0 18 -8 34 -22 44 -30 21 -44 20 -68 -4z"/>
<path d="M1282 1304 c-66 -46 24 -144 133 -144 112 0 200 100 129 147 -25 16
-28 16 -65 -5 -47 -27 -85 -28 -124 -2 -36 24 -44 24 -73 4z"/>
<path d="M3532 1564 c-42 -29 -17 -104 35 -104 20 0 53 38 53 60 0 22 -33 60
-53 60 -7 0 -23 -7 -35 -16z"/>
<path d="M3782 1564 c-32 -22 -30 -69 4 -91 24 -15 29 -15 53 -2 36 20 41 71
9 93 -28 20 -38 20 -66 0z"/>
<path d="M3542 1304 c-66 -46 24 -144 133 -144 112 0 200 100 129 147 -25 16
-28 16 -65 -5 -47 -27 -85 -28 -124 -2 -36 24 -44 24 -73 4z"/>
</g>
</svg>
