<?xml version="1.0" standalone="no"?>
<!DOCTYPE svg PUBLIC "-//W3C//DTD SVG 20010904//EN"
 "http://www.w3.org/TR/2001/REC-SVG-20010904/DTD/svg10.dtd">
<svg version="1.0" xmlns="http://www.w3.org/2000/svg"
 width="512.000000pt" height="512.000000pt" viewBox="0 0 512.000000 512.000000"
 preserveAspectRatio="xMidYMid meet">

<g transform="translate(0.000000,512.000000) scale(0.100000,-0.100000)"
fill="#6246ea" stroke="none">
<path d="M2518 5016 c-36 -27 -38 -60 -38 -547 l0 -479 -515 0 c-554 0 -563
-1 -599 -51 -13 -20 -16 -54 -16 -220 0 -183 1 -198 20 -222 23 -30 74 -47
138 -47 l42 0 0 -110 0 -110 -735 0 c-805 0 -779 2 -804 -58 -9 -20 -11 -80
-9 -191 3 -150 4 -162 25 -183 15 -14 40 -24 70 -28 l48 -5 5 -518 5 -519 24
-19 c32 -26 67 -24 96 6 l25 24 0 516 0 515 623 -2 622 -3 3 -1263 2 -1262
-625 0 -625 0 0 599 c0 590 0 599 -21 625 -26 33 -79 36 -109 6 -20 -20 -20
-33 -20 -660 l0 -640 34 -38 34 -37 2341 0 2341 0 32 33 33 32 5 1303 5 1302
48 5 c30 4 55 14 70 28 21 21 22 33 25 183 2 111 0 171 -9 191 -25 60 1 58
-804 58 l-735 0 0 110 0 110 43 0 c63 0 114 17 137 47 19 24 20 39 20 223 0
184 -1 199 -20 223 -12 15 -38 31 -58 37 -23 6 -229 10 -550 10 l-513 0 3 108
3 107 328 5 329 5 34 37 34 38 0 262 c0 246 -1 265 -20 296 -36 59 -55 62
-400 62 l-310 0 0 40 c0 65 -64 103 -112 66z m692 -456 l0 -200 -290 0 -290 0
0 200 0 200 290 0 290 0 0 -200z m410 -840 l0 -120 -470 0 c-457 0 -471 -1
-490 -20 -25 -25 -26 -71 -1 -101 l19 -24 371 -3 371 -3 0 -1604 0 -1605 -95
0 -95 0 0 105 c0 67 -5 118 -14 139 -16 39 -59 75 -98 83 l-28 6 0 454 c0 492
-1 498 -55 541 -27 22 -31 22 -475 22 -444 0 -448 0 -475 -22 -54 -43 -55 -49
-55 -541 l0 -454 -28 -6 c-39 -8 -82 -44 -98 -83 -9 -21 -14 -72 -14 -139 l0
-105 -95 0 -95 0 0 1605 0 1605 334 0 c343 0 387 4 406 40 16 30 12 68 -10 90
-19 19 -33 20 -475 20 l-455 0 0 120 0 120 1060 0 1060 0 0 -120z m-2070 -720
l0 -80 -700 0 -700 0 0 80 0 80 700 0 700 0 0 -80z m3420 0 l0 -80 -700 0
-700 0 0 80 0 80 700 0 700 0 0 -80z m-150 -1495 l0 -1265 -625 0 -625 0 0
1258 c0 692 3 1262 7 1265 3 4 285 7 625 7 l618 0 0 -1265z m-2340 -500 l0
-435 -150 0 -150 0 0 435 0 435 150 0 150 0 0 -435z m460 0 l0 -436 -152 3
-153 3 -3 433 -2 432 155 0 155 0 0 -435z m140 -675 l0 -90 -520 0 -520 0 0
90 0 90 520 0 520 0 0 -90z"/>
<path d="M2470 3260 c-201 -31 -380 -162 -467 -340 -53 -109 -68 -173 -67
-290 0 -238 129 -444 346 -556 87 -44 172 -64 278 -64 110 0 194 21 291 71
142 74 250 203 305 364 23 68 27 96 27 190 0 91 -5 124 -27 191 -45 140 -129
251 -253 334 -123 82 -294 122 -433 100z m215 -162 c168 -42 314 -206 345
-387 38 -228 -108 -463 -331 -532 -80 -25 -198 -25 -278 0 -223 69 -369 303
-331 529 48 285 314 460 595 390z"/>
<path d="M2504 2889 c-16 -18 -20 -40 -22 -156 -7 -236 -2 -243 161 -243 106
0 115 2 135 23 29 31 28 72 -3 102 -20 21 -34 25 -85 25 l-60 0 0 118 c0 103
-3 121 -18 135 -27 24 -85 22 -108 -4z"/>
<path d="M3781 2404 c-43 -31 -51 -70 -51 -264 0 -202 8 -238 59 -264 26 -14
84 -16 408 -16 415 0 406 -1 438 60 22 42 22 398 0 440 -32 61 -23 60 -445 60
-340 0 -388 -2 -409 -16z m339 -264 l0 -130 -120 0 -120 0 0 130 0 130 120 0
120 0 0 -130z m380 0 l0 -130 -115 0 -115 0 0 130 0 130 115 0 115 0 0 -130z"/>
<path d="M3781 1654 c-43 -31 -51 -70 -51 -264 0 -197 7 -233 53 -263 24 -15
65 -17 409 -17 420 0 411 -1 443 60 22 42 22 398 0 440 -32 61 -23 60 -445 60
-340 0 -388 -2 -409 -16z m339 -264 l0 -130 -120 0 -120 0 0 130 0 130 120 0
120 0 0 -130z m380 0 l0 -130 -115 0 -115 0 0 130 0 130 115 0 115 0 0 -130z"/>
<path d="M508 2391 l-33 -29 -3 -203 c-3 -217 1 -244 46 -279 24 -19 42 -20
406 -20 360 0 383 1 413 20 21 13 35 31 42 57 17 59 14 376 -3 417 -28 67 -18
66 -448 66 l-388 0 -32 -29z m342 -251 l0 -130 -115 0 -115 0 0 130 0 130 115
0 115 0 0 -130z m390 0 l0 -130 -120 0 -120 0 0 130 0 130 120 0 120 0 0 -130z"/>
<path d="M508 1641 l-33 -29 -3 -203 c-3 -217 1 -244 46 -279 24 -19 42 -20
406 -20 360 0 383 1 413 20 21 13 35 31 42 57 17 59 14 376 -3 417 -28 67 -18
66 -448 66 l-388 0 -32 -29z m342 -251 l0 -130 -115 0 -115 0 0 130 0 130 115
0 115 0 0 -130z m390 0 l0 -130 -120 0 -120 0 0 130 0 130 120 0 120 0 0 -130z"/>
</g>
</svg>
