<?xml version="1.0" encoding="UTF-8" standalone="no"?>
<svg
   version="1.0"
   width="376.68381pt"
   height="258.03708pt"
   viewBox="0 0 376.68381 258.03708"
   preserveAspectRatio="xMidYMid"
   id="svg106"
   xmlns="http://www.w3.org/2000/svg"
   xmlns:svg="http://www.w3.org/2000/svg">
  <defs
     id="defs110" />
  <g
     transform="matrix(0.1,0,0,-0.1,-11.139769,267)"
     fill="#000000"
     stroke="none"
     id="g104"
     style="fill:#475c51;fill-opacity:1">
    <path
       d="m 3325,2638 c 7,-18 38,-83 68,-144 148,-299 244,-557 288,-774 20,-98 24,-144 23,-315 0,-228 -14,-316 -85,-535 C 3563,700 3517,592 3389,338 L 3280,120 h 55 c 63,0 56,-8 190,215 243,405 341,685 352,1016 7,216 -15,368 -85,584 -53,162 -187,432 -329,663 l -45,72 h -54 -53 z"
       id="path2"
       style="fill:#475c51;fill-opacity:1" />
    <path
       d="m 621,2640 -54,-5 -70,-115 C 417,2388 286,2131 242,2020 152,1794 119,1642 113,1426 108,1265 114,1183 141,1055 187,839 296,589 468,305 609,71 592,90 655,90 c 30,0 55,2 55,4 0,2 -38,78 -85,168 -171,331 -265,572 -316,808 -19,89 -23,136 -23,305 0,170 3,217 22,315 45,222 138,467 317,833 31,65 56,119 54,120 -2,1 -28,0 -58,-3 z"
       id="path4"
       style="fill:#475c51;fill-opacity:1" />
    <path
       d="m 2057,2468 c -57,-61 -89,-118 -90,-165 -1,-42 14,-59 40,-44 14,7 31,7 56,-1 52,-16 54,-35 6,-54 -43,-18 -77,-65 -105,-147 -12,-37 -20,-46 -43,-49 -50,-7 -69,15 -36,42 24,20 19,86 -7,104 -31,22 -45,20 -73,-9 -32,-31 -32,-69 1,-102 14,-14 24,-26 22,-27 -2,-1 -24,-7 -51,-14 -71,-18 -101,-15 -127,13 -23,24 -23,24 -37,5 -14,-20 -55,-26 -100,-14 -31,8 -29,20 7,54 36,34 37,40 5,78 -33,39 -77,50 -111,27 -24,-16 -26,-21 -20,-73 4,-37 13,-63 28,-79 20,-22 20,-23 2,-29 -28,-9 -57,-22 -75,-35 -13,-10 -23,-7 -51,14 -19,15 -44,27 -55,27 -11,0 -34,3 -52,6 l -31,6 25,30 c 14,16 25,36 25,43 0,8 -19,42 -41,75 -43,61 -70,75 -97,48 -7,-7 -20,-13 -30,-13 -10,0 -18,-9 -20,-22 -2,-12 -10,-27 -18,-33 -35,-30 -4,-70 55,-70 30,0 76,-43 65,-61 -14,-23 -99,-1 -151,38 -24,17 -35,35 -39,64 -9,53 -24,60 -24,10 0,-63 16,-87 80,-115 32,-14 62,-26 69,-26 31,0 93,-35 106,-61 24,-45 18,-57 -40,-90 -73,-41 -71,-61 8,-73 51,-7 57,-11 57,-33 0,-27 -26,-81 -82,-171 -44,-69 -44,-95 -1,-90 22,2 29,9 33,33 3,17 19,57 34,90 15,33 30,76 33,95 7,44 20,60 41,53 32,-11 52,-36 52,-63 0,-22 -6,-29 -26,-34 -19,-5 -24,-12 -22,-28 4,-25 28,-37 28,-14 0,11 9,16 28,16 27,0 27,0 24,61 -4,68 5,87 35,70 17,-8 19,-18 15,-65 l -4,-56 h 56 c 75,0 93,-11 101,-60 7,-42 27,-60 64,-60 29,0 26,18 -3,30 -19,7 -29,23 -41,62 -24,82 -29,126 -15,143 9,11 9,22 0,52 -7,21 -17,43 -22,49 -11,15 -29,121 -22,137 5,13 126,15 157,2 10,-4 48,-4 86,-1 94,10 106,-4 107,-128 1,-68 10,-123 36,-221 35,-133 43,-155 58,-155 19,0 19,36 1,89 -28,83 -46,160 -38,168 13,12 24,-11 47,-99 22,-85 24,-88 52,-88 h 30 l -24,28 c -15,18 -28,53 -36,98 -25,133 -35,169 -60,221 -21,43 -23,55 -12,68 20,25 47,18 59,-15 12,-36 21,-37 49,-7 25,27 27,39 10,66 -9,15 -9,28 0,58 13,44 66,112 79,100 4,-5 9,-52 11,-105 l 3,-97 -41,-70 c -52,-88 -56,-117 -16,-125 33,-6 28,3 106,-165 39,-83 64,-150 68,-185 8,-59 19,-68 68,-56 31,8 30,19 -5,64 -36,45 -145,308 -137,329 10,24 31,0 57,-65 72,-184 150,-302 199,-302 11,0 20,2 20,4 0,3 -24,39 -54,80 -62,87 -161,280 -151,295 3,6 12,11 18,11 7,0 23,7 36,16 l 23,16 -37,38 -36,37 63,42 c 62,42 63,42 79,22 17,-21 59,-181 59,-225 0,-14 -4,-28 -10,-31 -5,-3 -10,-15 -10,-26 0,-20 33,-26 59,-10 16,10 14,21 -23,140 -30,97 -32,121 -11,121 38,0 66,-57 82,-170 6,-39 13,-56 25,-58 17,-3 98,62 98,79 0,12 -37,11 -45,-1 -3,-5 -14,-10 -24,-10 -14,0 -20,10 -25,38 -3,20 -18,85 -33,143 -34,139 -30,156 53,247 54,59 71,72 96,72 38,0 72,-25 132,-95 l 48,-56 2,-142 c 2,-124 5,-147 24,-182 12,-21 22,-45 22,-51 0,-7 18,-36 40,-65 28,-38 38,-59 34,-75 -9,-35 4,-49 27,-28 27,24 24,66 -7,95 -32,30 -77,105 -72,120 2,6 32,-19 66,-56 45,-50 63,-78 69,-109 11,-51 25,-53 37,-4 9,36 7,38 -62,118 -40,44 -72,89 -72,99 0,11 17,26 50,41 28,13 49,28 47,33 -2,6 -30,19 -63,29 -84,28 -98,44 -102,126 -4,65 -3,68 23,82 14,8 31,22 36,32 12,22 32,23 49,3 7,-8 16,-15 21,-15 32,0 -31,126 -76,151 -18,11 -41,15 -57,12 -25,-5 -28,-10 -28,-44 0,-51 -16,-50 -60,4 -48,61 -79,82 -93,68 -9,-9 -4,-19 23,-42 l 35,-30 -30,7 c -31,7 -95,8 -130,2 -18,-3 -20,3 -20,47 v 50 l -54,-1 c -72,-2 -142,-53 -94,-68 22,-7 67,-101 59,-123 -11,-27 -30,-8 -101,97 -39,57 -80,106 -92,111 -32,12 -29,2 20,-61 24,-30 57,-80 75,-111 17,-30 41,-64 52,-74 11,-10 20,-24 20,-32 0,-15 -68,-93 -81,-93 -5,0 -15,15 -23,33 -16,38 -141,162 -172,171 -38,11 -36,44 6,125 l 40,75 -28,27 c -15,15 -35,38 -45,53 -10,14 -25,26 -34,26 -10,0 -39,-23 -66,-52 z m 93,-94 c 31,-36 -38,-115 -74,-85 -21,17 -20,59 1,83 20,22 56,23 73,2 z m 408,-104 c 3,-37 -13,-58 -35,-44 -36,22 -28,78 9,72 16,-2 24,-11 26,-28 z m 374,-36 c 11,-22 10,-28 -7,-40 -26,-19 -43,-17 -50,6 -8,24 11,60 31,60 8,0 20,-12 26,-26 z m -667,-135 c 58,-53 59,-83 8,-139 -78,-88 -98,-77 -108,56 -8,100 -1,124 36,124 11,0 40,-19 64,-41 z m -1097,-7 c 4,-28 -24,-40 -45,-19 -21,21 -9,49 19,45 15,-2 24,-11 26,-26 z m 316,6 c 8,-14 6,-22 -11,-39 -26,-26 -53,-19 -53,14 0,45 41,61 64,25 z m 391,-7 c 0,-22 -32,-38 -46,-24 -9,9 -9,16 1,28 15,19 45,16 45,-4 z m 597,-116 c 13,-49 -12,-60 -53,-25 l -24,20 24,20 c 30,26 43,22 53,-15 z m -1195,-17 c 13,-6 28,-26 35,-45 7,-18 16,-33 20,-33 4,0 19,18 34,39 26,41 52,58 65,44 4,-4 10,-26 14,-49 5,-36 3,-43 -17,-56 -13,-9 -32,-34 -43,-57 -10,-23 -24,-41 -31,-41 -7,0 -35,18 -63,40 -56,44 -118,149 -100,167 11,11 53,7 86,-9 z m 1665,-64 c 32,-17 31,-18 -15,-45 -14,-8 -19,-5 -27,16 -9,24 -6,45 6,45 3,0 19,-7 36,-16 z m -744,-40 c 15,-10 22,-24 20,-37 -2,-18 -12,-23 -53,-28 -77,-9 -88,1 -63,56 13,30 60,34 96,9 z m -687,-55 c 15,-37 5,-49 -48,-56 -45,-6 -58,5 -49,40 6,25 53,57 72,50 7,-2 18,-18 25,-34 z m 409,20 c 18,-33 9,-64 -20,-64 -18,0 -26,6 -28,22 -4,24 14,63 28,63 5,0 14,-9 20,-21 z m -666,-28 c 19,-21 19,-21 -11,-21 -44,0 -93,11 -93,21 0,5 12,15 27,23 30,15 47,10 77,-23 z m 236,-90 c 14,-27 13,-68 -2,-74 -7,-2 -25,0 -40,6 -28,9 -36,35 -22,71 9,22 51,20 64,-3 z"
       id="path6"
       style="fill:#ff6600;fill-opacity:1" />
  </g>
  <text
     xml:space="preserve"
     style="font-style:normal;font-variant:normal;font-weight:normal;font-stretch:normal;font-size:20px;line-height:1;font-family:Arial;-inkscape-font-specification:Arial;letter-spacing:0.4125px;fill:#475c51;fill-opacity:1"
     x="82.932968"
     y="215.35371"
     id="text1049"><tspan
       id="tspan1047"
       x="82.932968"
       y="215.35371"
       style="font-style:normal;font-variant:normal;font-weight:bold;font-stretch:normal;font-size:20px;font-family:Arial;-inkscape-font-specification:'Arial Bold';fill:#475c51;fill-opacity:1"
       dx="0">Asociación estatal de</tspan><tspan
       x="82.932968"
       y="235.35371"
       style="font-style:normal;font-variant:normal;font-weight:bold;font-stretch:normal;font-size:20px;font-family:Arial;-inkscape-font-specification:'Arial Bold';fill:#475c51;fill-opacity:1"
       id="tspan1686">Acogimiento Familiar</tspan></text>
  <text
     xml:space="preserve"
     style="font-style:normal;font-variant:normal;font-weight:bold;font-stretch:normal;font-size:64px;font-family:Arial;-inkscape-font-specification:'Arial Bold';letter-spacing:0.9px;fill:#475c51;fill-opacity:1;stroke-width:0.75"
     x="80.63047"
     y="185.09254"
     id="text1739"><tspan
       id="tspan1737"
       style="font-size:64px;stroke-width:0.75"
       x="80.63047"
       y="185.09254">ASEAF</tspan></text>
</svg>
