<?xml version="1.0" encoding="UTF-8" standalone="no"?>
<!DOCTYPE svg PUBLIC "-//W3C//DTD SVG 1.1//EN" "http://www.w3.org/Graphics/SVG/1.1/DTD/svg11.dtd">
<svg width="604px" height="171px" version="1.1" xmlns="http://www.w3.org/2000/svg" xmlns:xlink="http://www.w3.org/1999/xlink" xml:space="preserve" xmlns:serif="http://www.serif.com/" style="fill-rule:evenodd;clip-rule:evenodd;stroke-linejoin:round;stroke-miterlimit:2;">
    <g transform="matrix(1,0,0,1,-54.7448,-197.124)">
        <g transform="matrix(0.667148,0.3545,-0.30455,0.573145,283.287,-981.237)">
            <g transform="matrix(4.16667,0,0,4.16667,650.563,1952.96)">
                <g>
                    <path d="M0,-21.898L-3.73,-14.492L3.56,-6.641L-2.695,-6.24L-0.938,0L-28.247,-8.456L0,-21.898Z" style="fill:#c0ebe2;fill-rule:nonzero;"/>
                </g>
            </g>
        </g>
        <g transform="matrix(0.667148,0.3545,-0.30455,0.573145,283.287,-981.237)">
            <g transform="matrix(4.16667,0,0,4.16667,535.763,1891.15)">
                <g>
                    <path d="M0,6.669C-0.138,6.669 -0.263,6.575 -0.299,6.436C-0.34,6.271 -0.24,6.104 -0.075,6.063L23.746,0.044C23.912,0 24.079,0.102 24.12,0.267C24.162,0.432 24.062,0.599 23.896,0.641L0.076,6.659C0.05,6.666 0.025,6.669 0,6.669" style="fill:#2e1f22;fill-rule:nonzero;"/>
                </g>
            </g>
        </g>
        <g transform="matrix(0.667148,0.3545,-0.30455,0.573145,283.287,-981.237)">
            <g transform="matrix(4.16667,0,0,4.16667,665.396,1911.18)">
                <g>
                    <path d="M0,3.691C-0.037,3.691 -0.074,3.685 -0.11,3.67L-8.036,0.635C-8.194,0.575 -8.274,0.396 -8.213,0.237C-8.152,0.079 -7.973,0 -7.815,0.06L0.11,3.095C0.269,3.157 0.349,3.335 0.288,3.494C0.241,3.616 0.124,3.691 0,3.691" style="fill:#2e1f22;fill-rule:nonzero;"/>
                </g>
            </g>
        </g>
        <g transform="matrix(0.667148,0.3545,-0.30455,0.573145,283.287,-981.237)">
            <g transform="matrix(4.16667,0,0,4.16667,535.763,1911.28)">
                <g>
                    <path d="M0,1.838C-0.163,1.838 -0.299,1.71 -0.308,1.546C-0.316,1.375 -0.186,1.231 -0.016,1.222L23.17,0.018C23.337,0 23.485,0.139 23.494,0.31C23.503,0.48 23.372,0.624 23.202,0.633L0.016,1.837C0.011,1.838 0.005,1.838 0,1.838" style="fill:#2e1f22;fill-rule:nonzero;"/>
                </g>
            </g>
        </g>
        <g transform="matrix(0.667148,0.3545,-0.30455,0.573145,283.287,-981.237)">
            <g transform="matrix(4.16667,0,0,4.16667,639.334,1911.16)">
                <g>
                    <path d="M0,4.097C-0.114,4.097 -0.224,4.034 -0.277,3.924L-1.948,0.487C-2.022,0.333 -1.958,0.15 -1.805,0.075C-1.65,0 -1.467,0.065 -1.394,0.217L0.277,3.655C0.351,3.808 0.288,3.992 0.135,4.067C0.091,4.087 0.045,4.097 0,4.097" style="fill:#2e1f22;fill-rule:nonzero;"/>
                </g>
            </g>
        </g>
        <g transform="matrix(0.667148,0.3545,-0.30455,0.573145,283.287,-981.237)">
            <g transform="matrix(4.16667,0,0,4.16667,1035.84,1894.06)">
                <g>
                    <path d="M0,-99.597C-0.163,-99.597 -0.299,-99.725 -0.307,-99.89C-0.316,-100.06 -0.185,-100.204 -0.016,-100.213C0.798,-100.254 1.631,-100.28 2.46,-100.288L2.463,-100.288C2.632,-100.288 2.77,-100.153 2.771,-99.983C2.773,-99.813 2.637,-99.674 2.466,-99.672C1.646,-99.663 0.821,-99.639 0.016,-99.598C0.01,-99.597 0.005,-99.597 0,-99.597M7.394,-99.542C7.387,-99.542 7.381,-99.542 7.374,-99.543C6.548,-99.594 5.722,-99.63 4.919,-99.652C4.749,-99.657 4.615,-99.798 4.619,-99.967C4.624,-100.138 4.775,-100.265 4.935,-100.268C5.745,-100.246 6.579,-100.209 7.412,-100.159C7.582,-100.148 7.711,-100.001 7.7,-99.832C7.69,-99.668 7.555,-99.542 7.394,-99.542M-4.907,-99.13C-5.057,-99.13 -5.189,-99.241 -5.211,-99.395C-5.235,-99.563 -5.118,-99.719 -4.95,-99.743C-4.142,-99.858 -3.314,-99.956 -2.488,-100.034C-2.33,-100.043 -2.168,-99.926 -2.152,-99.756C-2.137,-99.587 -2.26,-99.437 -2.43,-99.42C-3.246,-99.343 -4.065,-99.246 -4.863,-99.133C-4.877,-99.131 -4.893,-99.13 -4.907,-99.13M12.306,-99.086C12.293,-99.086 12.28,-99.086 12.268,-99.088C11.455,-99.188 10.64,-99.278 9.825,-99.353C9.656,-99.369 9.531,-99.519 9.547,-99.689C9.563,-99.858 9.707,-99.975 9.883,-99.967C10.704,-99.89 11.524,-99.801 12.343,-99.7C12.512,-99.679 12.632,-99.525 12.61,-99.356C12.592,-99.201 12.458,-99.086 12.306,-99.086M17.176,-98.349C17.158,-98.349 17.14,-98.351 17.121,-98.354C16.318,-98.496 15.511,-98.63 14.701,-98.753C14.532,-98.779 14.417,-98.936 14.442,-99.104C14.468,-99.273 14.633,-99.389 14.793,-99.362C15.608,-99.24 16.421,-99.105 17.23,-98.96C17.396,-98.93 17.509,-98.77 17.479,-98.603C17.452,-98.453 17.322,-98.349 17.176,-98.349M-9.742,-98.185C-9.879,-98.185 -10.005,-98.278 -10.04,-98.417C-10.083,-98.582 -9.982,-98.749 -9.817,-98.791C-9.036,-98.989 -8.221,-99.171 -7.396,-99.332C-7.232,-99.363 -7.067,-99.255 -7.034,-99.088C-7.001,-98.921 -7.11,-98.76 -7.278,-98.727C-8.092,-98.568 -8.896,-98.389 -9.666,-98.194C-9.692,-98.188 -9.717,-98.185 -9.742,-98.185M22.009,-97.367C21.987,-97.367 21.964,-97.369 21.941,-97.374C21.146,-97.555 20.344,-97.728 19.537,-97.892C19.37,-97.926 19.263,-98.089 19.297,-98.255C19.331,-98.423 19.497,-98.53 19.66,-98.496C20.471,-98.33 21.277,-98.157 22.077,-97.975C22.243,-97.938 22.348,-97.773 22.31,-97.607C22.277,-97.463 22.15,-97.367 22.009,-97.367M-14.438,-96.7C-14.562,-96.7 -14.678,-96.774 -14.726,-96.897C-14.787,-97.055 -14.708,-97.234 -14.549,-97.295C-13.784,-97.59 -12.996,-97.867 -12.206,-98.116C-12.043,-98.164 -11.87,-98.076 -11.819,-97.914C-11.769,-97.752 -11.858,-97.579 -12.021,-97.528C-12.798,-97.283 -13.574,-97.01 -14.328,-96.72C-14.364,-96.706 -14.401,-96.7 -14.438,-96.7M26.795,-96.171C26.769,-96.171 26.742,-96.175 26.715,-96.182C25.93,-96.396 25.136,-96.603 24.334,-96.803C24.169,-96.844 24.069,-97.012 24.109,-97.177C24.15,-97.342 24.316,-97.443 24.483,-97.401C25.289,-97.201 26.087,-96.992 26.876,-96.777C27.04,-96.732 27.137,-96.562 27.093,-96.399C27.056,-96.261 26.932,-96.171 26.795,-96.171M31.529,-94.785C31.499,-94.785 31.469,-94.789 31.438,-94.798C30.664,-95.04 29.879,-95.28 29.082,-95.513C28.919,-95.561 28.825,-95.732 28.874,-95.895C28.921,-96.057 29.091,-96.153 29.256,-96.104C30.056,-95.869 30.845,-95.63 31.622,-95.387C31.784,-95.336 31.875,-95.163 31.824,-95C31.782,-94.869 31.661,-94.785 31.529,-94.785M-18.938,-94.699C-19.052,-94.699 -19.162,-94.762 -19.215,-94.871C-19.29,-95.025 -19.227,-95.209 -19.074,-95.284C-18.352,-95.636 -17.606,-95.987 -16.835,-96.331C-16.68,-96.404 -16.498,-96.332 -16.428,-96.176C-16.358,-96.021 -16.428,-95.839 -16.583,-95.77C-17.348,-95.427 -18.087,-95.08 -18.803,-94.73C-18.847,-94.709 -18.893,-94.699 -18.938,-94.699M36.212,-93.227C36.178,-93.227 36.144,-93.233 36.109,-93.244C35.35,-93.512 34.572,-93.779 33.781,-94.041C33.619,-94.095 33.532,-94.27 33.586,-94.431C33.64,-94.592 33.813,-94.682 33.976,-94.626C34.771,-94.363 35.551,-94.095 36.314,-93.826C36.475,-93.769 36.559,-93.593 36.503,-93.433C36.458,-93.306 36.339,-93.227 36.212,-93.227M-23.275,-92.37C-23.38,-92.37 -23.483,-92.425 -23.54,-92.522C-23.627,-92.669 -23.577,-92.858 -23.431,-92.944C-22.734,-93.354 -22.009,-93.762 -21.274,-94.156C-21.125,-94.234 -20.937,-94.179 -20.857,-94.03C-20.777,-93.88 -20.833,-93.693 -20.983,-93.613C-21.71,-93.223 -22.429,-92.819 -23.118,-92.413C-23.167,-92.384 -23.221,-92.37 -23.275,-92.37M40.839,-91.511C40.802,-91.511 40.764,-91.518 40.728,-91.533C39.982,-91.823 39.215,-92.115 38.425,-92.408C38.266,-92.467 38.185,-92.645 38.243,-92.804C38.303,-92.964 38.479,-93.044 38.64,-92.986C39.433,-92.692 40.203,-92.398 40.951,-92.107C41.109,-92.044 41.188,-91.867 41.126,-91.707C41.078,-91.586 40.963,-91.511 40.839,-91.511M-27.404,-89.694C-27.5,-89.694 -27.595,-89.739 -27.655,-89.823C-27.754,-89.961 -27.722,-90.154 -27.583,-90.252C-26.914,-90.73 -26.225,-91.199 -25.537,-91.644C-25.395,-91.736 -25.203,-91.697 -25.111,-91.553C-25.019,-91.41 -25.059,-91.219 -25.202,-91.127C-25.882,-90.687 -26.563,-90.224 -27.226,-89.75C-27.28,-89.712 -27.342,-89.694 -27.404,-89.694M45.409,-89.647C45.369,-89.647 45.327,-89.655 45.288,-89.671C44.565,-89.98 43.808,-90.297 43.016,-90.62C42.858,-90.685 42.782,-90.865 42.847,-91.022C42.911,-91.18 43.092,-91.255 43.248,-91.191C44.043,-90.867 44.805,-90.548 45.53,-90.238C45.687,-90.171 45.76,-89.991 45.692,-89.833C45.643,-89.716 45.529,-89.647 45.409,-89.647M49.917,-87.632C49.873,-87.632 49.829,-87.642 49.787,-87.661C49.108,-87.979 48.359,-88.323 47.546,-88.686C47.391,-88.755 47.321,-88.938 47.391,-89.093C47.46,-89.247 47.643,-89.319 47.798,-89.248C48.614,-88.883 49.365,-88.538 50.048,-88.22C50.202,-88.148 50.269,-87.964 50.196,-87.81C50.145,-87.699 50.033,-87.632 49.917,-87.632M-31.263,-86.64C-31.349,-86.64 -31.434,-86.676 -31.495,-86.745C-31.607,-86.873 -31.594,-87.068 -31.466,-87.18C-30.847,-87.722 -30.206,-88.255 -29.563,-88.764C-29.43,-88.869 -29.237,-88.847 -29.129,-88.714C-29.024,-88.58 -29.047,-88.387 -29.18,-88.281C-29.816,-87.779 -30.449,-87.251 -31.061,-86.717C-31.119,-86.665 -31.191,-86.64 -31.263,-86.64M54.353,-85.441C54.303,-85.441 54.253,-85.453 54.206,-85.479C54.199,-85.483 53.41,-85.908 52.009,-86.597C51.855,-86.671 51.793,-86.857 51.867,-87.009C51.943,-87.161 52.128,-87.224 52.28,-87.15C53.694,-86.454 54.491,-86.024 54.5,-86.02C54.648,-85.94 54.705,-85.752 54.624,-85.603C54.568,-85.499 54.462,-85.441 54.353,-85.441M-34.793,-83.213C-34.868,-83.213 -34.943,-83.24 -35.003,-83.295C-35.127,-83.411 -35.135,-83.607 -35.019,-83.731C-34.462,-84.329 -33.879,-84.925 -33.286,-85.5C-33.164,-85.619 -32.969,-85.617 -32.851,-85.494C-32.732,-85.372 -32.734,-85.177 -32.856,-85.059C-33.443,-84.49 -34.018,-83.902 -34.567,-83.311C-34.628,-83.246 -34.71,-83.213 -34.793,-83.213M-37.979,-79.459C-38.045,-79.459 -38.112,-79.481 -38.169,-79.525C-38.303,-79.629 -38.327,-79.823 -38.222,-79.957C-37.692,-80.637 -37.183,-81.265 -36.663,-81.879C-36.553,-82.008 -36.357,-82.024 -36.229,-81.915C-36.099,-81.805 -36.083,-81.611 -36.193,-81.481C-36.707,-80.873 -37.211,-80.251 -37.736,-79.577C-37.797,-79.5 -37.888,-79.459 -37.979,-79.459M-56.182,-76.91C-56.208,-76.91 -56.234,-76.912 -56.26,-76.919C-57.072,-77.13 -57.872,-77.209 -58.604,-77.165C-58.775,-77.156 -58.92,-77.284 -58.931,-77.453C-58.941,-77.623 -58.813,-77.77 -58.643,-77.781C-57.846,-77.832 -56.981,-77.743 -56.105,-77.516C-55.94,-77.473 -55.842,-77.305 -55.884,-77.14C-55.92,-77.002 -56.045,-76.91 -56.182,-76.91M-40.901,-75.493C-40.963,-75.493 -41.025,-75.511 -41.08,-75.549C-41.218,-75.648 -41.25,-75.84 -41.151,-75.979C-40.69,-76.626 -40.212,-77.295 -39.71,-77.982C-39.609,-78.118 -39.416,-78.148 -39.28,-78.048C-39.142,-77.948 -39.112,-77.755 -39.213,-77.618C-39.714,-76.933 -40.189,-76.267 -40.65,-75.621C-40.71,-75.537 -40.805,-75.493 -40.901,-75.493M-62.785,-74.872C-62.843,-74.872 -62.901,-74.889 -62.954,-74.923C-63.096,-75.016 -63.135,-75.207 -63.042,-75.35C-62.569,-76.071 -61.906,-76.672 -61.125,-77.091C-60.975,-77.171 -60.788,-77.116 -60.708,-76.966C-60.627,-76.816 -60.684,-76.628 -60.833,-76.549C-61.524,-76.178 -62.11,-75.647 -62.527,-75.011C-62.586,-74.921 -62.685,-74.872 -62.785,-74.872M-52.15,-74.291C-52.246,-74.291 -52.34,-74.335 -52.4,-74.418C-52.936,-75.157 -53.494,-75.704 -54.059,-76.048C-54.204,-76.137 -54.25,-76.327 -54.162,-76.472C-54.073,-76.618 -53.884,-76.663 -53.738,-76.575C-53.104,-76.188 -52.486,-75.584 -51.902,-74.781C-51.802,-74.643 -51.832,-74.451 -51.97,-74.351C-52.024,-74.311 -52.088,-74.291 -52.15,-74.291M-43.847,-71.546C-43.916,-71.546 -43.985,-71.569 -44.042,-71.617C-44.174,-71.725 -44.192,-71.919 -44.084,-72.05C-43.633,-72.596 -43.158,-73.21 -42.588,-73.984C-42.488,-74.122 -42.294,-74.152 -42.158,-74.05C-42.021,-73.95 -41.991,-73.756 -42.092,-73.619C-42.668,-72.836 -43.15,-72.212 -43.609,-71.658C-43.67,-71.583 -43.758,-71.546 -43.847,-71.546M-63.02,-70.182C-63.131,-70.182 -63.239,-70.243 -63.294,-70.348C-63.669,-71.071 -63.86,-71.84 -63.86,-72.636C-63.86,-72.719 -63.857,-72.802 -63.854,-72.883C-63.845,-73.053 -63.697,-73.196 -63.53,-73.175C-63.36,-73.166 -63.229,-73.022 -63.238,-72.852C-63.241,-72.78 -63.244,-72.708 -63.244,-72.636C-63.244,-71.94 -63.077,-71.266 -62.747,-70.632C-62.669,-70.482 -62.728,-70.295 -62.878,-70.217C-62.924,-70.194 -62.973,-70.182 -63.02,-70.182M-49.975,-69.886C-50.103,-69.886 -50.221,-69.966 -50.266,-70.092C-50.552,-70.907 -50.862,-71.662 -51.187,-72.341C-51.261,-72.494 -51.196,-72.678 -51.043,-72.752C-50.889,-72.826 -50.706,-72.761 -50.632,-72.608C-50.297,-71.91 -49.978,-71.132 -49.685,-70.297C-49.628,-70.136 -49.712,-69.96 -49.873,-69.904C-49.907,-69.892 -49.941,-69.886 -49.975,-69.886M-47.418,-68.194C-47.519,-68.194 -47.617,-68.243 -47.676,-68.332C-47.77,-68.475 -47.729,-68.666 -47.587,-68.759C-46.952,-69.176 -46.341,-69.668 -45.723,-70.264C-45.6,-70.383 -45.405,-70.377 -45.287,-70.255C-45.169,-70.132 -45.173,-69.938 -45.295,-69.82C-45.942,-69.198 -46.582,-68.682 -47.25,-68.244C-47.302,-68.21 -47.36,-68.194 -47.418,-68.194M-59.268,-67.166C-59.303,-67.166 -59.339,-67.172 -59.375,-67.185C-60.229,-67.5 -60.983,-67.907 -61.616,-68.392C-61.751,-68.495 -61.777,-68.689 -61.673,-68.824C-61.569,-68.959 -61.376,-68.986 -61.241,-68.881C-60.657,-68.433 -59.957,-68.057 -59.161,-67.763C-59.001,-67.703 -58.92,-67.527 -58.979,-67.368C-59.025,-67.243 -59.143,-67.166 -59.268,-67.166M-54.43,-66.362L-54.436,-66.362C-55.316,-66.376 -56.156,-66.445 -56.931,-66.566C-57.099,-66.592 -57.214,-66.75 -57.188,-66.918C-57.162,-67.086 -57.008,-67.199 -56.836,-67.175C-56.089,-67.058 -55.278,-66.992 -54.425,-66.978C-54.255,-66.975 -54.12,-66.835 -54.122,-66.665C-54.125,-66.496 -54.262,-66.362 -54.43,-66.362M-48.698,-65.128C-48.842,-65.128 -48.97,-65.23 -49,-65.375C-49.123,-65.989 -49.257,-66.588 -49.4,-67.167C-49.428,-67.143 -49.46,-67.123 -49.497,-67.11C-50.256,-66.83 -51.077,-66.627 -51.936,-66.504C-52.106,-66.485 -52.26,-66.598 -52.284,-66.766C-52.308,-66.935 -52.191,-67.091 -52.023,-67.115C-51.195,-67.233 -50.438,-67.42 -49.709,-67.688C-49.652,-67.708 -49.593,-67.711 -49.536,-67.7C-49.542,-67.719 -49.546,-67.739 -49.552,-67.758C-49.596,-67.923 -49.498,-68.091 -49.333,-68.135C-49.168,-68.181 -49,-68.081 -48.957,-67.916C-48.752,-67.147 -48.563,-66.333 -48.396,-65.497C-48.362,-65.33 -48.47,-65.168 -48.637,-65.134C-48.658,-65.13 -48.678,-65.128 -48.698,-65.128M-47.98,-60.252C-48.136,-60.252 -48.271,-60.37 -48.286,-60.53C-48.368,-61.352 -48.468,-62.17 -48.583,-62.962C-48.608,-63.131 -48.492,-63.287 -48.323,-63.312C-48.155,-63.333 -47.999,-63.22 -47.974,-63.051C-47.856,-62.249 -47.755,-61.422 -47.673,-60.59C-47.656,-60.421 -47.78,-60.27 -47.949,-60.253C-47.959,-60.252 -47.97,-60.252 -47.98,-60.252M-47.702,-55.331C-47.87,-55.331 -48.008,-55.466 -48.01,-55.634C-48.023,-56.458 -48.053,-57.284 -48.098,-58.085C-48.107,-58.255 -47.977,-58.401 -47.807,-58.41C-47.641,-58.429 -47.492,-58.289 -47.482,-58.12C-47.437,-57.309 -47.407,-56.476 -47.394,-55.644C-47.392,-55.474 -47.527,-55.334 -47.697,-55.331L-47.702,-55.331ZM-47.816,-50.402C-47.822,-50.402 -47.829,-50.402 -47.835,-50.403C-48.005,-50.412 -48.134,-50.559 -48.124,-50.729C-48.074,-51.54 -48.039,-52.367 -48.021,-53.181C-48.017,-53.351 -47.875,-53.467 -47.705,-53.482C-47.535,-53.478 -47.4,-53.337 -47.404,-53.166C-47.423,-52.344 -47.458,-51.511 -47.509,-50.691C-47.519,-50.528 -47.654,-50.402 -47.816,-50.402M-48.302,-45.495C-48.316,-45.495 -48.33,-45.497 -48.344,-45.498C-48.513,-45.522 -48.63,-45.677 -48.607,-45.846C-48.497,-46.649 -48.4,-47.468 -48.32,-48.283C-48.303,-48.452 -48.147,-48.579 -47.983,-48.559C-47.813,-48.542 -47.689,-48.391 -47.707,-48.222C-47.788,-47.401 -47.886,-46.573 -47.997,-45.762C-48.018,-45.608 -48.15,-45.495 -48.302,-45.495M-49.156,-40.639C-49.178,-40.639 -49.2,-40.642 -49.222,-40.647C-49.388,-40.682 -49.494,-40.846 -49.458,-41.012C-49.286,-41.807 -49.128,-42.617 -48.987,-43.42C-48.957,-43.587 -48.798,-43.705 -48.63,-43.67C-48.462,-43.641 -48.351,-43.481 -48.38,-43.313C-48.522,-42.502 -48.683,-41.684 -48.855,-40.882C-48.887,-40.738 -49.014,-40.639 -49.156,-40.639M-50.385,-35.865C-50.415,-35.865 -50.444,-35.868 -50.474,-35.877C-50.637,-35.926 -50.729,-36.098 -50.681,-36.261C-50.446,-37.044 -50.224,-37.839 -50.022,-38.624C-49.979,-38.789 -49.809,-38.888 -49.647,-38.846C-49.482,-38.803 -49.383,-38.635 -49.425,-38.471C-49.629,-37.678 -49.853,-36.874 -50.09,-36.084C-50.13,-35.951 -50.253,-35.865 -50.385,-35.865M-51.999,-31.207C-52.037,-31.207 -52.075,-31.214 -52.112,-31.229C-52.271,-31.292 -52.348,-31.471 -52.286,-31.629C-51.988,-32.383 -51.701,-33.158 -51.435,-33.928C-51.379,-34.089 -51.204,-34.173 -51.043,-34.118C-50.882,-34.063 -50.797,-33.888 -50.853,-33.727C-51.122,-32.948 -51.411,-32.165 -51.712,-31.403C-51.76,-31.282 -51.876,-31.207 -51.999,-31.207M-54.007,-26.708C-54.054,-26.708 -54.101,-26.718 -54.146,-26.741C-54.297,-26.817 -54.359,-27.002 -54.283,-27.155C-53.922,-27.873 -53.569,-28.618 -53.234,-29.369C-53.165,-29.524 -52.982,-29.594 -52.828,-29.525C-52.672,-29.455 -52.602,-29.274 -52.672,-29.118C-53.01,-28.359 -53.367,-27.606 -53.732,-26.877C-53.786,-26.77 -53.895,-26.708 -54.007,-26.708M-56.418,-22.412C-56.474,-22.412 -56.53,-22.427 -56.581,-22.459C-56.725,-22.549 -56.769,-22.74 -56.679,-22.884C-56.25,-23.569 -55.83,-24.278 -55.43,-24.99C-55.347,-25.139 -55.16,-25.191 -55.011,-25.109C-54.863,-25.025 -54.81,-24.837 -54.893,-24.689C-55.297,-23.968 -55.723,-23.25 -56.156,-22.557C-56.215,-22.463 -56.315,-22.412 -56.418,-22.412M-59.231,-18.368C-59.296,-18.368 -59.363,-18.39 -59.419,-18.433C-59.554,-18.537 -59.578,-18.73 -59.474,-18.865C-58.98,-19.504 -58.493,-20.169 -58.027,-20.838C-57.93,-20.978 -57.739,-21.013 -57.598,-20.915C-57.458,-20.819 -57.424,-20.627 -57.521,-20.488C-57.993,-19.809 -58.486,-19.136 -58.987,-18.489C-59.048,-18.41 -59.139,-18.368 -59.231,-18.368M-62.435,-14.629C-62.512,-14.629 -62.587,-14.658 -62.647,-14.714C-62.771,-14.831 -62.776,-15.027 -62.658,-15.15C-62.098,-15.739 -61.546,-16.35 -61.019,-16.966C-60.907,-17.095 -60.713,-17.111 -60.584,-16.999C-60.455,-16.889 -60.44,-16.695 -60.551,-16.565C-61.085,-15.941 -61.645,-15.322 -62.212,-14.725C-62.272,-14.661 -62.354,-14.629 -62.435,-14.629M-66.007,-11.24C-66.093,-11.24 -66.18,-11.276 -66.241,-11.347C-66.352,-11.476 -66.336,-11.67 -66.207,-11.782C-65.583,-12.316 -64.971,-12.867 -64.389,-13.419C-64.266,-13.536 -64.071,-13.532 -63.954,-13.408C-63.836,-13.285 -63.842,-13.089 -63.965,-12.973C-64.555,-12.412 -65.174,-11.855 -65.806,-11.313C-65.864,-11.263 -65.936,-11.24 -66.007,-11.24M-69.909,-8.239C-70.007,-8.239 -70.103,-8.285 -70.163,-8.372C-70.259,-8.512 -70.224,-8.703 -70.084,-8.8C-69.414,-9.264 -68.749,-9.749 -68.107,-10.243C-67.972,-10.344 -67.779,-10.32 -67.675,-10.186C-67.572,-10.051 -67.597,-9.857 -67.732,-9.753C-68.381,-9.254 -69.055,-8.763 -69.734,-8.293C-69.787,-8.256 -69.849,-8.239 -69.909,-8.239M-74.094,-5.647C-74.203,-5.647 -74.308,-5.703 -74.364,-5.806C-74.446,-5.954 -74.392,-6.142 -74.243,-6.224C-73.534,-6.617 -72.824,-7.033 -72.132,-7.46C-71.987,-7.549 -71.797,-7.506 -71.708,-7.361C-71.618,-7.216 -71.663,-7.026 -71.807,-6.937C-72.508,-6.503 -73.227,-6.081 -73.945,-5.685C-73.993,-5.66 -74.043,-5.647 -74.094,-5.647M-78.51,-3.471C-78.629,-3.471 -78.742,-3.54 -78.793,-3.656C-78.861,-3.812 -78.79,-3.993 -78.633,-4.061C-77.885,-4.388 -77.138,-4.734 -76.413,-5.091C-76.26,-5.166 -76.075,-5.104 -76,-4.951C-75.925,-4.798 -75.988,-4.613 -76.141,-4.538C-76.875,-4.177 -77.63,-3.827 -78.387,-3.496C-78.427,-3.479 -78.469,-3.471 -78.51,-3.471M-83.106,-1.703C-83.234,-1.703 -83.354,-1.785 -83.398,-1.913C-83.452,-2.075 -83.365,-2.248 -83.204,-2.303C-82.428,-2.564 -81.652,-2.843 -80.899,-3.132C-80.741,-3.193 -80.563,-3.114 -80.501,-2.955C-80.44,-2.796 -80.52,-2.618 -80.678,-2.557C-81.439,-2.264 -82.223,-1.983 -83.008,-1.719C-83.04,-1.707 -83.073,-1.703 -83.106,-1.703M-87.833,-0.326C-87.971,-0.326 -88.097,-0.419 -88.132,-0.559C-88.173,-0.725 -88.072,-0.892 -87.907,-0.933C-87.117,-1.129 -86.321,-1.344 -85.541,-1.572C-85.377,-1.619 -85.207,-1.525 -85.16,-1.362C-85.112,-1.198 -85.206,-1.027 -85.369,-0.979C-86.157,-0.75 -86.96,-0.534 -87.758,-0.334C-87.783,-0.328 -87.808,-0.326 -87.833,-0.326M-92.652,0.691C-92.799,0.691 -92.929,0.586 -92.956,0.435C-92.985,0.267 -92.873,0.108 -92.705,0.08C-91.904,-0.06 -91.093,-0.215 -90.296,-0.383C-90.13,-0.42 -89.966,-0.313 -89.931,-0.145C-89.896,0.021 -90.002,0.184 -90.169,0.219C-90.973,0.388 -91.791,0.546 -92.599,0.686C-92.617,0.689 -92.635,0.691 -92.652,0.691" style="fill:#2e1f22;fill-rule:nonzero;"/>
                </g>
            </g>
        </g>
    </g>
</svg>
