<?xml version="1.0" encoding="UTF-8" standalone="no"?>
<!DOCTYPE svg PUBLIC "-//W3C//DTD SVG 1.1//EN" "http://www.w3.org/Graphics/SVG/1.1/DTD/svg11.dtd">
<svg width="573px" height="454px" version="1.1" xmlns="http://www.w3.org/2000/svg" xmlns:xlink="http://www.w3.org/1999/xlink" xml:space="preserve" xmlns:serif="http://www.serif.com/" style="fill-rule:evenodd;clip-rule:evenodd;stroke-linejoin:round;stroke-miterlimit:2;">
    <g transform="matrix(1,0,0,1,-1384.91,-713.12)">
        <g transform="matrix(4.16667,0,0,4.16667,0,0)">
            <g transform="matrix(1,0,0,1,439.915,259.275)">
                <path d="M0,-5.746L7.792,-2.907L7.86,7.807L12.691,3.814L15.687,9.562L29.785,-15.308L0,-5.746Z" style="fill:#67bfcc;fill-rule:nonzero;"/>
            </g>
        </g>
        <g transform="matrix(4.16667,0,0,4.16667,0,0)">
            <g transform="matrix(1,0,0,1,447.707,244.08)">
                <path d="M0,12.597C-0.107,12.597 -0.213,12.54 -0.27,12.439C-0.352,12.289 -0.298,12.103 -0.149,12.02L21.325,0.082C21.473,0 21.661,0.053 21.744,0.201C21.827,0.35 21.773,0.538 21.625,0.621L0.15,12.558C0.103,12.584 0.052,12.597 0,12.597" style="fill:#2e1f22;fill-rule:nonzero;"/>
            </g>
        </g>
        <g transform="matrix(4.16667,0,0,4.16667,0,0)">
            <g transform="matrix(1,0,0,1,447.775,259.09)">
                <path d="M0,8.3C-0.045,8.3 -0.091,8.29 -0.134,8.27C-0.287,8.196 -0.352,8.011 -0.277,7.858L3.415,0.217C3.489,0.064 3.674,0 3.827,0.073C3.979,0.148 4.044,0.331 3.97,0.486L0.277,8.126C0.225,8.236 0.114,8.3 0,8.3" style="fill:#2e1f22;fill-rule:nonzero;"/>
            </g>
        </g>
        <g transform="matrix(4.16667,0,0,4.16667,0,0)">
            <g transform="matrix(1,0,0,1,451.468,244.086)">
                <path d="M0,15.663C-0.087,15.663 -0.174,15.626 -0.234,15.554C-0.345,15.424 -0.329,15.229 -0.199,15.12L17.515,0.11C17.645,0 17.839,0.017 17.949,0.146C18.059,0.276 18.043,0.471 17.913,0.58L0.199,15.59C0.142,15.639 0.071,15.663 0,15.663" style="fill:#2e1f22;fill-rule:nonzero;"/>
            </g>
        </g>
        <g transform="matrix(4.16667,0,0,4.16667,0,0)">
            <g transform="matrix(1,0,0,1,452.606,259.097)">
                <path d="M0,4.3C-0.131,4.3 -0.253,4.216 -0.294,4.084L-1.433,0.436C-1.483,0.274 -1.393,0.101 -1.23,0.05C-1.064,0 -0.896,0.091 -0.844,0.252L0.295,3.901C0.345,4.063 0.254,4.236 0.093,4.286C0.062,4.296 0.03,4.3 0,4.3" style="fill:#2e1f22;fill-rule:nonzero;"/>
            </g>
        </g>
        <g transform="matrix(4.16667,0,0,4.16667,0,0)">
            <g transform="matrix(1,0,0,1,332.686,279.236)">
                <path d="M0,-107.367C-0.154,-107.367 -0.288,-107.483 -0.306,-107.64C-0.325,-107.809 -0.203,-107.962 -0.034,-107.981C0.003,-107.985 0.905,-108.087 2.431,-108.087C2.601,-108.087 2.755,-107.95 2.755,-107.779C2.755,-107.609 2.633,-107.471 2.462,-107.471C0.944,-107.471 0.045,-107.37 0.035,-107.369C0.024,-107.367 0.012,-107.367 0,-107.367M7.386,-107.132C7.372,-107.132 7.358,-107.133 7.345,-107.134C6.535,-107.243 5.716,-107.327 4.909,-107.383C4.739,-107.395 4.611,-107.542 4.623,-107.712C4.635,-107.882 4.769,-108.007 4.952,-107.998C5.771,-107.941 6.604,-107.856 7.427,-107.745C7.596,-107.722 7.714,-107.567 7.69,-107.398C7.67,-107.244 7.538,-107.132 7.386,-107.132M12.217,-106.148C12.189,-106.148 12.163,-106.152 12.135,-106.159C11.357,-106.373 10.557,-106.564 9.757,-106.726C9.59,-106.761 9.482,-106.923 9.516,-107.09C9.55,-107.257 9.716,-107.362 9.879,-107.331C10.692,-107.165 11.507,-106.971 12.299,-106.753C12.463,-106.708 12.56,-106.539 12.515,-106.375C12.477,-106.238 12.353,-106.148 12.217,-106.148M16.86,-104.5C16.819,-104.5 16.776,-104.509 16.736,-104.526C15.999,-104.851 15.235,-105.155 14.466,-105.427C14.306,-105.484 14.222,-105.66 14.278,-105.821C14.336,-105.98 14.512,-106.064 14.672,-106.008C15.455,-105.73 16.234,-105.422 16.985,-105.09C17.141,-105.021 17.211,-104.84 17.142,-104.684C17.092,-104.569 16.979,-104.5 16.86,-104.5M21.191,-102.159C21.134,-102.159 21.075,-102.175 21.023,-102.209C20.35,-102.647 19.644,-103.066 18.927,-103.453C18.777,-103.534 18.721,-103.721 18.802,-103.871C18.883,-104.021 19.072,-104.076 19.22,-103.995C19.951,-103.6 20.671,-103.173 21.359,-102.725C21.502,-102.633 21.542,-102.441 21.449,-102.299C21.391,-102.208 21.292,-102.159 21.191,-102.159M25.074,-99.136C24.999,-99.136 24.924,-99.163 24.864,-99.218C24.272,-99.766 23.648,-100.297 23.008,-100.794C22.874,-100.899 22.85,-101.093 22.954,-101.227C23.059,-101.361 23.252,-101.386 23.387,-101.281C24.04,-100.772 24.678,-100.23 25.283,-99.67C25.408,-99.554 25.416,-99.359 25.301,-99.234C25.239,-99.169 25.157,-99.136 25.074,-99.136M28.391,-95.504C28.298,-95.504 28.207,-95.546 28.146,-95.624C27.649,-96.268 27.123,-96.896 26.581,-97.49C26.466,-97.616 26.475,-97.81 26.601,-97.925C26.727,-98.04 26.922,-98.031 27.036,-97.905C27.589,-97.299 28.127,-96.658 28.634,-96C28.738,-95.866 28.713,-95.672 28.578,-95.568C28.522,-95.525 28.456,-95.504 28.391,-95.504M31.079,-91.386C30.971,-91.386 30.866,-91.444 30.81,-91.546C30.416,-92.261 29.995,-92.964 29.557,-93.637C29.464,-93.78 29.504,-93.97 29.646,-94.063C29.789,-94.155 29.98,-94.116 30.072,-93.973C30.52,-93.287 30.949,-92.571 31.35,-91.842C31.432,-91.693 31.377,-91.506 31.228,-91.424C31.181,-91.398 31.13,-91.386 31.079,-91.386M33.143,-86.921C33.019,-86.921 32.902,-86.996 32.855,-87.118C32.561,-87.884 32.241,-88.64 31.906,-89.367C31.835,-89.522 31.902,-89.705 32.058,-89.776C32.21,-89.847 32.395,-89.781 32.466,-89.626C32.807,-88.887 33.131,-88.118 33.431,-87.34C33.491,-87.181 33.412,-87.003 33.254,-86.942C33.217,-86.928 33.18,-86.921 33.143,-86.921M34.635,-82.233C34.497,-82.233 34.372,-82.325 34.336,-82.464C34.132,-83.257 33.904,-84.048 33.662,-84.814C33.61,-84.976 33.7,-85.149 33.862,-85.2C34.026,-85.252 34.198,-85.162 34.249,-85C34.495,-84.223 34.726,-83.422 34.933,-82.617C34.975,-82.453 34.876,-82.285 34.712,-82.242C34.686,-82.236 34.66,-82.233 34.635,-82.233M35.632,-77.409C35.484,-77.409 35.354,-77.516 35.329,-77.667C35.274,-77.991 35.218,-78.32 35.158,-78.654C35.073,-79.137 34.982,-79.612 34.887,-80.08C34.853,-80.246 34.96,-80.409 35.127,-80.443C35.292,-80.475 35.456,-80.37 35.49,-80.203C35.588,-79.73 35.679,-79.25 35.765,-78.761C35.824,-78.426 35.882,-78.095 35.937,-77.769C35.965,-77.601 35.852,-77.442 35.684,-77.414C35.666,-77.411 35.649,-77.409 35.632,-77.409M36.356,-72.534C36.203,-72.534 36.07,-72.648 36.051,-72.804C35.953,-73.584 35.842,-74.395 35.717,-75.238C35.691,-75.407 35.808,-75.563 35.976,-75.589C36.141,-75.611 36.301,-75.497 36.325,-75.329C36.451,-74.481 36.564,-73.665 36.662,-72.881C36.684,-72.712 36.563,-72.558 36.396,-72.537C36.382,-72.535 36.369,-72.534 36.356,-72.534M36.831,-67.629C36.67,-67.629 36.534,-67.754 36.523,-67.917C36.475,-68.697 36.407,-69.52 36.324,-70.363C36.309,-70.533 36.433,-70.683 36.602,-70.7C36.771,-70.711 36.922,-70.593 36.938,-70.423C37.021,-69.573 37.089,-68.743 37.139,-67.956C37.149,-67.786 37.021,-67.64 36.851,-67.629L36.831,-67.629M35.432,-62.179C35.295,-62.179 35.171,-62.269 35.134,-62.408C35.091,-62.572 35.188,-62.741 35.353,-62.784C35.767,-62.894 36.187,-62.979 36.608,-63.036C36.627,-63.518 36.638,-64.025 36.638,-64.558C36.637,-64.854 36.634,-65.157 36.628,-65.469C36.625,-65.639 36.76,-65.78 36.93,-65.783L36.936,-65.783C37.104,-65.783 37.241,-65.649 37.244,-65.481C37.25,-65.166 37.253,-64.858 37.254,-64.559C37.254,-64.05 37.245,-63.565 37.228,-63.102C37.439,-63.118 37.651,-63.127 37.863,-63.13L37.867,-63.13C38.036,-63.13 38.173,-62.994 38.176,-62.826C38.178,-62.656 38.041,-62.516 37.871,-62.514C37.077,-62.504 36.284,-62.394 35.511,-62.189C35.484,-62.182 35.458,-62.179 35.432,-62.179M42.562,-61.256C42.506,-61.256 42.449,-61.271 42.397,-61.304C41.741,-61.717 41.012,-62.03 40.229,-62.234C40.064,-62.277 39.966,-62.446 40.009,-62.61C40.052,-62.774 40.218,-62.873 40.385,-62.83C41.229,-62.61 42.017,-62.272 42.727,-61.825C42.87,-61.735 42.914,-61.544 42.823,-61.4C42.765,-61.307 42.664,-61.256 42.562,-61.256M31.264,-59.69C31.193,-59.69 31.123,-59.713 31.065,-59.762C30.936,-59.871 30.918,-60.065 31.027,-60.196C31.549,-60.819 32.214,-61.366 33.003,-61.823C33.148,-61.909 33.338,-61.858 33.424,-61.71C33.509,-61.563 33.459,-61.375 33.312,-61.289C32.584,-60.868 31.975,-60.367 31.5,-59.8C31.438,-59.727 31.352,-59.69 31.264,-59.69M36.247,-57.833C36.22,-57.833 36.191,-57.836 36.163,-57.844C36,-57.89 35.904,-58.06 35.95,-58.224C36.146,-58.918 36.301,-59.716 36.414,-60.595C36.436,-60.764 36.593,-60.88 36.759,-60.862C36.927,-60.84 37.047,-60.686 37.025,-60.517C36.909,-59.607 36.747,-58.78 36.544,-58.057C36.505,-57.921 36.382,-57.833 36.247,-57.833M45.665,-57.528C45.543,-57.528 45.427,-57.601 45.379,-57.723C45.344,-57.813 45.308,-57.896 45.271,-57.973C44.968,-58.627 44.596,-59.222 44.166,-59.746C44.058,-59.877 44.076,-60.072 44.208,-60.179C44.339,-60.288 44.533,-60.269 44.642,-60.137C45.104,-59.574 45.505,-58.933 45.83,-58.234C45.87,-58.146 45.911,-58.051 45.952,-57.949C46.015,-57.79 45.937,-57.611 45.778,-57.549C45.741,-57.534 45.703,-57.528 45.665,-57.528M31.152,-55.229C31.067,-55.229 30.981,-55.265 30.921,-55.335C30.323,-56.018 29.979,-56.896 29.979,-57.742L30.287,-57.788L30.596,-57.776C30.596,-57.043 30.883,-56.314 31.385,-55.741C31.497,-55.613 31.483,-55.418 31.355,-55.305C31.297,-55.255 31.225,-55.229 31.152,-55.229M33.31,-54.239C33.152,-54.239 33.019,-54.36 33.004,-54.52C32.988,-54.689 33.114,-54.839 33.283,-54.854C33.923,-54.911 34.521,-55.329 35.017,-56.063C35.112,-56.205 35.304,-56.24 35.444,-56.146C35.586,-56.051 35.623,-55.86 35.528,-55.719C34.768,-54.59 33.917,-54.292 33.338,-54.24C33.329,-54.24 33.319,-54.239 33.31,-54.239M46.893,-52.74C46.75,-52.74 46.623,-52.84 46.592,-52.985C46.404,-53.877 46.228,-54.684 46.059,-55.392C46.019,-55.557 46.121,-55.723 46.286,-55.763C46.454,-55.804 46.618,-55.7 46.657,-55.535C46.828,-54.823 47.006,-54.01 47.195,-53.112C47.229,-52.945 47.123,-52.782 46.957,-52.746C46.936,-52.742 46.914,-52.74 46.893,-52.74M47.893,-47.897C47.75,-47.897 47.622,-47.997 47.592,-48.143C47.418,-48.975 47.254,-49.773 47.099,-50.531C47.064,-50.698 47.169,-50.877 47.335,-50.911C47.503,-50.945 47.661,-50.855 47.695,-50.688L47.702,-50.655C47.857,-49.898 48.021,-49.1 48.195,-48.268C48.229,-48.102 48.123,-47.939 47.957,-47.904C47.936,-47.9 47.914,-47.897 47.893,-47.897M48.954,-43.071C48.813,-43.071 48.687,-43.167 48.653,-43.309C48.462,-44.135 48.281,-44.94 48.11,-45.723C48.073,-45.889 48.179,-46.054 48.346,-46.09C48.51,-46.125 48.676,-46.021 48.712,-45.855C48.883,-45.075 49.063,-44.271 49.254,-43.449C49.293,-43.283 49.189,-43.117 49.023,-43.079C49,-43.074 48.977,-43.071 48.954,-43.071M50.146,-38.278C50.009,-38.278 49.885,-38.368 49.848,-38.506C49.632,-39.316 49.426,-40.116 49.23,-40.903C49.189,-41.068 49.29,-41.235 49.456,-41.276C49.622,-41.318 49.788,-41.216 49.829,-41.052C50.023,-40.268 50.228,-39.471 50.443,-38.665C50.487,-38.501 50.389,-38.332 50.225,-38.288C50.198,-38.281 50.171,-38.278 50.146,-38.278M51.513,-33.533C51.381,-33.533 51.26,-33.618 51.218,-33.75C50.97,-34.546 50.733,-35.337 50.508,-36.121C50.461,-36.284 50.556,-36.455 50.719,-36.502C50.884,-36.55 51.053,-36.455 51.101,-36.291C51.324,-35.512 51.56,-34.724 51.807,-33.933C51.857,-33.771 51.767,-33.598 51.604,-33.547C51.574,-33.538 51.542,-33.533 51.513,-33.533M53.098,-28.859C52.972,-28.859 52.854,-28.936 52.809,-29.06C52.521,-29.84 52.246,-30.618 51.983,-31.395C51.929,-31.556 52.016,-31.731 52.177,-31.786C52.338,-31.842 52.513,-31.754 52.567,-31.593C52.829,-30.821 53.102,-30.047 53.386,-29.274C53.445,-29.114 53.363,-28.937 53.204,-28.878C53.169,-28.865 53.133,-28.859 53.098,-28.859M54.937,-24.286C54.818,-24.286 54.706,-24.356 54.654,-24.471C54.322,-25.227 54.004,-25.987 53.697,-26.749C53.634,-26.907 53.711,-27.086 53.868,-27.15C54.026,-27.212 54.206,-27.137 54.269,-26.979C54.573,-26.223 54.89,-25.469 55.219,-24.719C55.288,-24.563 55.217,-24.381 55.061,-24.313C55.021,-24.295 54.979,-24.286 54.937,-24.286M57.08,-19.845C56.97,-19.845 56.863,-19.905 56.809,-20.009C56.431,-20.721 56.054,-21.465 55.689,-22.222C55.615,-22.375 55.68,-22.559 55.833,-22.633C55.985,-22.706 56.171,-22.643 56.244,-22.489C56.605,-21.74 56.979,-21.002 57.353,-20.298C57.433,-20.148 57.375,-19.961 57.225,-19.881C57.179,-19.857 57.129,-19.845 57.08,-19.845M117.986,-17.082C117.948,-17.082 117.91,-17.089 117.872,-17.104C117.714,-17.167 117.638,-17.347 117.701,-17.504C118.191,-18.729 118.412,-19.577 118.468,-19.808C118.509,-19.973 118.675,-20.076 118.841,-20.034C119.006,-19.994 119.107,-19.828 119.067,-19.662C119.009,-19.422 118.778,-18.538 118.272,-17.276C118.225,-17.155 118.109,-17.082 117.986,-17.082M59.582,-15.588C59.481,-15.588 59.383,-15.637 59.324,-15.728C58.88,-16.409 58.44,-17.12 58.018,-17.841C57.932,-17.989 57.981,-18.177 58.128,-18.263C58.273,-18.349 58.463,-18.3 58.55,-18.153C58.967,-17.44 59.401,-16.738 59.84,-16.064C59.933,-15.921 59.893,-15.731 59.75,-15.638C59.698,-15.604 59.64,-15.588 59.582,-15.588M115.727,-12.701C115.67,-12.701 115.613,-12.717 115.562,-12.75C115.418,-12.841 115.376,-13.032 115.468,-13.175C115.903,-13.859 116.313,-14.57 116.685,-15.287C116.763,-15.44 116.95,-15.497 117.1,-15.42C117.251,-15.342 117.311,-15.156 117.232,-15.005C116.852,-14.27 116.434,-13.543 115.987,-12.844C115.929,-12.752 115.828,-12.701 115.727,-12.701M62.489,-11.599C62.4,-11.599 62.312,-11.637 62.251,-11.712C61.737,-12.339 61.228,-13.001 60.733,-13.68C60.634,-13.818 60.663,-14.01 60.802,-14.111C60.938,-14.21 61.132,-14.181 61.231,-14.042C61.719,-13.373 62.222,-12.72 62.728,-12.102C62.835,-11.97 62.815,-11.776 62.685,-11.668C62.627,-11.621 62.558,-11.599 62.489,-11.599M112.715,-8.806C112.64,-8.806 112.564,-8.833 112.505,-8.889C112.38,-9.004 112.373,-9.2 112.489,-9.325C113.041,-9.917 113.57,-10.543 114.064,-11.182C114.169,-11.317 114.364,-11.34 114.497,-11.238C114.632,-11.134 114.656,-10.94 114.552,-10.806C114.047,-10.152 113.505,-9.512 112.94,-8.905C112.879,-8.839 112.797,-8.806 112.715,-8.806M65.838,-7.988C65.762,-7.988 65.686,-8.016 65.626,-8.073C65.035,-8.631 64.448,-9.225 63.882,-9.836C63.766,-9.961 63.773,-10.157 63.898,-10.272C64.023,-10.388 64.218,-10.38 64.334,-10.255C64.892,-9.654 65.469,-9.07 66.05,-8.52C66.173,-8.403 66.179,-8.208 66.062,-8.084C66.001,-8.02 65.92,-7.988 65.838,-7.988M109.051,-5.521C108.957,-5.521 108.864,-5.563 108.803,-5.645C108.702,-5.782 108.729,-5.974 108.866,-6.075C109.518,-6.561 110.151,-7.079 110.752,-7.617C110.878,-7.732 111.072,-7.721 111.187,-7.594C111.301,-7.467 111.289,-7.273 111.163,-7.159C110.549,-6.608 109.9,-6.077 109.234,-5.581C109.18,-5.54 109.115,-5.521 109.051,-5.521M69.641,-4.879C69.579,-4.879 69.518,-4.898 69.465,-4.935C68.795,-5.403 68.13,-5.907 67.485,-6.435C67.354,-6.542 67.334,-6.737 67.442,-6.868C67.55,-7 67.744,-7.02 67.875,-6.911C68.508,-6.394 69.161,-5.899 69.817,-5.44C69.957,-5.342 69.991,-5.151 69.894,-5.011C69.833,-4.925 69.737,-4.879 69.641,-4.879M104.863,-2.939C104.751,-2.939 104.643,-3 104.588,-3.108C104.512,-3.26 104.572,-3.446 104.725,-3.522C105.451,-3.888 106.168,-4.287 106.852,-4.708C106.996,-4.798 107.187,-4.752 107.275,-4.608C107.364,-4.462 107.319,-4.273 107.174,-4.184C106.476,-3.753 105.744,-3.346 105.001,-2.971C104.957,-2.95 104.91,-2.939 104.863,-2.939M73.876,-2.393C73.831,-2.393 73.785,-2.403 73.742,-2.423C73.001,-2.782 72.265,-3.175 71.553,-3.593C71.406,-3.68 71.356,-3.868 71.443,-4.015C71.529,-4.162 71.721,-4.21 71.864,-4.125C72.563,-3.715 73.285,-3.329 74.011,-2.978C74.163,-2.905 74.228,-2.72 74.153,-2.567C74.101,-2.456 73.99,-2.393 73.876,-2.393M100.305,-1.087C100.174,-1.087 100.053,-1.171 100.011,-1.302C99.959,-1.464 100.049,-1.637 100.211,-1.689C100.993,-1.939 101.765,-2.217 102.503,-2.517C102.662,-2.581 102.841,-2.505 102.904,-2.347C102.969,-2.19 102.893,-2.01 102.735,-1.946C101.982,-1.64 101.195,-1.356 100.397,-1.102C100.367,-1.092 100.335,-1.087 100.305,-1.087M78.457,-0.624C78.428,-0.624 78.398,-0.628 78.369,-0.637C77.576,-0.871 76.786,-1.14 76.021,-1.436C75.861,-1.497 75.782,-1.675 75.844,-1.834C75.904,-1.992 76.083,-2.074 76.242,-2.011C76.992,-1.721 77.768,-1.457 78.544,-1.228C78.707,-1.18 78.8,-1.008 78.752,-0.845C78.713,-0.711 78.59,-0.624 78.457,-0.624M95.523,0.075C95.377,0.075 95.247,-0.031 95.221,-0.181C95.191,-0.348 95.304,-0.508 95.472,-0.537C96.283,-0.678 97.088,-0.844 97.862,-1.032C98.032,-1.073 98.194,-0.97 98.234,-0.805C98.274,-0.64 98.173,-0.473 98.008,-0.433C97.22,-0.242 96.402,-0.074 95.577,0.07C95.559,0.073 95.541,0.075 95.523,0.075M83.259,0.398C83.245,0.398 83.231,0.397 83.217,0.395C82.396,0.285 81.574,0.142 80.774,-0.028C80.607,-0.063 80.501,-0.227 80.536,-0.393C80.571,-0.56 80.739,-0.663 80.901,-0.63C81.688,-0.463 82.494,-0.324 83.3,-0.215C83.469,-0.193 83.587,-0.037 83.563,0.132C83.543,0.286 83.411,0.398 83.259,0.398M90.632,0.643C90.47,0.643 90.334,0.517 90.324,0.354C90.313,0.184 90.443,0.038 90.613,0.028C91.411,-0.021 92.23,-0.094 93.051,-0.189C93.215,-0.209 93.372,-0.088 93.393,0.081C93.411,0.25 93.291,0.403 93.121,0.423C92.291,0.519 91.46,0.593 90.65,0.642C90.644,0.643 90.638,0.643 90.632,0.643M88.153,0.72C87.306,0.72 86.485,0.694 85.687,0.642C85.517,0.631 85.388,0.484 85.398,0.315C85.41,0.144 85.576,0.024 85.727,0.027C86.517,0.078 87.334,0.128 88.141,0.104L88.169,0.72L88.153,0.72Z" style="fill:#2e1f22;fill-rule:nonzero;"/>
            </g>
        </g>
    </g>
</svg>
