<?xml version="1.0" encoding="UTF-8" standalone="no"?>
<!DOCTYPE svg PUBLIC "-//W3C//DTD SVG 1.1//EN" "http://www.w3.org/Graphics/SVG/1.1/DTD/svg11.dtd">
<svg width="348px" height="255px" version="1.1" xmlns="http://www.w3.org/2000/svg" xmlns:xlink="http://www.w3.org/1999/xlink" xml:space="preserve" xmlns:serif="http://www.serif.com/" style="fill-rule:evenodd;clip-rule:evenodd;stroke-linecap:round;stroke-linejoin:round;stroke-miterlimit:10;">
    <g transform="matrix(1,0,0,1,52.3654,-5.64403)">
        <g transform="matrix(0.350516,0.310427,-0.310427,0.350516,108.479,-624.242)">
            <g transform="matrix(7.18067,-9.25187e-16,9.25187e-16,7.18067,1036.08,1291.7)">
                <g>
                    <path d="M0,1.896L4.896,-2.277L5.86,4.173L0,1.896Z" style="fill:#f97a5b;fill-rule:nonzero;"/>
                </g>
            </g>
        </g>
        <g transform="matrix(0.350516,0.310427,-0.310427,0.350516,108.479,-624.242)">
            <g transform="matrix(7.18067,-9.25187e-16,9.25187e-16,7.18067,1052.68,1350.97)">
                <g>
                    <path d="M0,3.429L4.244,-1.407L6.128,4.836L0,3.429Z" style="fill:#fbe4ae;fill-rule:nonzero;"/>
                </g>
            </g>
        </g>
        <g transform="matrix(0.350516,0.310427,-0.310427,0.350516,108.479,-624.242)">
            <g transform="matrix(7.18067,-9.25187e-16,9.25187e-16,7.18067,1071.9,1409.83)">
                <g>
                    <path d="M0,4.721L3.594,-0.616L6.256,5.337L0,4.721Z" style="fill:#f97a5b;fill-rule:nonzero;"/>
                </g>
            </g>
        </g>
        <g transform="matrix(0.350516,0.310427,-0.310427,0.350516,108.479,-624.242)">
            <g transform="matrix(7.18067,-9.25187e-16,9.25187e-16,7.18067,1063.39,1532.72)">
                <g>
                    <path d="M0,-3.597L6.311,-4.848L4.002,1.251L0,-3.597Z" style="fill:#fbe4ae;fill-rule:nonzero;"/>
                </g>
            </g>
        </g>
        <g transform="matrix(0.350516,0.310427,-0.310427,0.350516,108.479,-624.242)">
            <g transform="matrix(7.18067,-9.25187e-16,9.25187e-16,7.18067,1020.32,1610.33)">
                <g>
                    <path d="M0,-6.094L6.24,-4.527L1.546,0L0,-6.094Z" style="fill:#f97a5b;fill-rule:nonzero;"/>
                </g>
            </g>
        </g>
        <g transform="matrix(0.350516,0.310427,-0.310427,0.350516,108.479,-624.242)">
            <g transform="matrix(7.18067,-9.25187e-16,9.25187e-16,7.18067,1038.28,1305.77)">
                <g>
                    <path d="M0,-0.199L-5.048,-2.846L-4.719,2.647L0,-0.199Z" style="fill:#f97a5b;fill-rule:nonzero;"/>
                </g>
            </g>
        </g>
        <g transform="matrix(0.350516,0.310427,-0.310427,0.350516,108.479,-624.242)">
            <g transform="matrix(7.18067,-9.25187e-16,9.25187e-16,7.18067,1049.49,1373.88)">
                <g>
                    <path d="M0,-0.198L-5.047,-2.846L-4.719,2.648L0,-0.198Z" style="fill:#fbe4ae;fill-rule:nonzero;"/>
                </g>
            </g>
        </g>
        <g transform="matrix(0.350516,0.310427,-0.310427,0.350516,108.479,-624.242)">
            <g transform="matrix(7.18067,-9.25187e-16,9.25187e-16,7.18067,1070.7,1439.18)">
                <g>
                    <path d="M0,0.387L-4.88,-2.558L-4.881,2.945L0,0.387Z" style="fill:#f97a5b;fill-rule:nonzero;"/>
                </g>
            </g>
        </g>
        <g transform="matrix(0.350516,0.310427,-0.310427,0.350516,108.479,-624.242)">
            <g transform="matrix(7.18067,-9.25187e-16,9.25187e-16,7.18067,1061.89,1481.31)">
                <g>
                    <path d="M0,3.304L-3.768,-0.972L-5.424,4.276L0,3.304Z" style="fill:#fbe4ae;fill-rule:nonzero;"/>
                </g>
            </g>
        </g>
        <g transform="matrix(0.350516,0.310427,-0.310427,0.350516,108.479,-624.242)">
            <g transform="matrix(7.18067,-9.25187e-16,9.25187e-16,7.18067,1020.32,1525.91)">
                <g>
                    <path d="M0,5.663L-0.648,0L-5.007,3.36L0,5.663Z" style="fill:#f97a5b;fill-rule:nonzero;"/>
                </g>
            </g>
        </g>
        <g transform="matrix(0.350516,0.310427,-0.310427,0.350516,108.479,-624.242)">
            <g transform="matrix(-7.18051,-0.0476404,-0.0476404,7.18051,958.592,1595.07)">
                <g>
                    <path d="M-15.497,-59.74C-10.763,-52.437 -9.295,-43.097 -11.559,-34.693C-12.745,-30.287 -14.901,-26.131 -15.497,-21.607C-16.138,-16.739 -14.851,-11.643 -11.975,-7.664C-9.099,-3.684 -4.665,-0.863 0.158,0.054" style="fill:none;fill-rule:nonzero;stroke:#272727;stroke-width:0.7px;"/>
                </g>
            </g>
        </g>
        <g transform="matrix(0.350516,0.310427,-0.310427,0.350516,108.479,-624.242)">
            <g transform="matrix(-6.70786,2.56255,2.56255,6.70786,1175.66,1256.12)">
                <g>
                    <path d="M-28.823,-52.654L2.749,-52.654L17.054,-8.122L-27.885,-21.097L-28.823,-52.654Z" style="fill:#fbe4ae;fill-rule:nonzero;"/>
                </g>
            </g>
        </g>
        <g transform="matrix(0.350516,0.310427,-0.310427,0.350516,108.479,-624.242)">
            <g transform="matrix(7.18067,-9.25187e-16,9.25187e-16,7.18067,1234.07,1043.15)">
                <g>
                    <path d="M0,-29.814L-9.555,-9.273L10.385,0L0,-29.814Z" style="fill:#f97a5b;fill-rule:nonzero;"/>
                </g>
            </g>
        </g>
        <g transform="matrix(0.350516,0.310427,-0.310427,0.350516,108.479,-624.242)">
            <g transform="matrix(7.18067,-9.25187e-16,9.25187e-16,7.18067,1165.46,1178.75)">
                <g>
                    <path d="M0,-28.157L-19.938,-37.431L-17.409,9.274L0,-28.157Z" style="fill:#f97a5b;fill-rule:nonzero;"/>
                </g>
            </g>
        </g>
        <g transform="matrix(0.350516,0.310427,-0.310427,0.350516,108.479,-624.242)">
            <g transform="matrix(-3.02833,6.51086,6.51086,3.02833,1298.91,1222.44)">
                <g>
                    <path d="M-49.066,-31.292L19.957,-31.292" style="fill:none;fill-rule:nonzero;stroke:#fff;stroke-width:1.09px;"/>
                </g>
            </g>
        </g>
        <g transform="matrix(0.350516,0.310427,-0.310427,0.350516,108.479,-624.242)">
            <g transform="matrix(-6.51089,-3.02827,-3.02827,6.51089,1056.55,848.016)">
                <g>
                    <path d="M-44.464,9.835L2.175,9.834" style="fill:none;fill-rule:nonzero;stroke:#fff;stroke-width:1.09px;"/>
                </g>
            </g>
        </g>
    </g>
</svg>
