<?xml version="1.0" encoding="UTF-8" standalone="no"?>
<!DOCTYPE svg PUBLIC "-//W3C//DTD SVG 1.1//EN" "http://www.w3.org/Graphics/SVG/1.1/DTD/svg11.dtd">
<svg width="323px" height="430px" version="1.1" xmlns="http://www.w3.org/2000/svg" xmlns:xlink="http://www.w3.org/1999/xlink" xml:space="preserve" xmlns:serif="http://www.serif.com/" style="fill-rule:evenodd;clip-rule:evenodd;stroke-linejoin:round;stroke-miterlimit:2;">
    <g transform="matrix(1.83168,0,0,1.83168,271.246,89.5388)">
        <path d="M0,-5.746L-7.792,-2.907L-7.861,7.806L-12.692,3.813L-15.688,9.562L-29.786,-15.308L0,-5.746Z" style="fill:#f08715;fill-rule:nonzero;"/>
    </g>
    <g transform="matrix(1.83168,0,0,1.83168,256.972,61.7035)">
        <path d="M0,12.598C-0.05,12.598 -0.102,12.586 -0.149,12.559L-21.624,0.622C-21.773,0.539 -21.826,0.351 -21.744,0.202C-21.662,0.055 -21.474,0 -21.324,0.083L0.15,12.021C0.299,12.103 0.353,12.291 0.27,12.44C0.213,12.541 0.108,12.598 0,12.598" style="fill:#2e1f22;fill-rule:nonzero;"/>
    </g>
    <g transform="matrix(1.83168,0,0,1.83168,256.848,89.1987)">
        <path d="M0,8.3C-0.115,8.3 -0.225,8.236 -0.278,8.126L-3.971,0.485C-4.045,0.332 -3.981,0.148 -3.828,0.073C-3.673,0 -3.49,0.064 -3.416,0.217L0.277,7.858C0.351,8.011 0.287,8.196 0.134,8.269C0.09,8.29 0.045,8.3 0,8.3" style="fill:#2e1f22;fill-rule:nonzero;"/>
    </g>
    <g transform="matrix(1.83168,0,0,1.83168,250.082,61.7159)">
        <path d="M0,15.663C-0.07,15.663 -0.141,15.639 -0.199,15.59L-17.912,0.58C-18.042,0.471 -18.058,0.276 -17.948,0.146C-17.838,0.017 -17.644,0 -17.514,0.111L0.2,15.12C0.329,15.23 0.346,15.424 0.235,15.554C0.175,15.626 0.088,15.663 0,15.663" style="fill:#2e1f22;fill-rule:nonzero;"/>
    </g>
    <g transform="matrix(1.83168,0,0,1.83168,247.997,89.2095)">
        <path d="M0,4.301C-0.03,4.301 -0.061,4.297 -0.092,4.287C-0.254,4.237 -0.345,4.064 -0.294,3.901L0.844,0.253C0.895,0.091 1.068,0 1.23,0.051C1.393,0.102 1.483,0.274 1.433,0.437L0.294,4.085C0.253,4.217 0.131,4.301 0,4.301" style="fill:#2e1f22;fill-rule:nonzero;"/>
    </g>
    <g transform="matrix(1.83168,0,0,1.83168,152.077,18.3108)">
        <path d="M0,24.729L-71.042,24.729C-71.042,24.729 -68.027,3.541 -52.673,17.164C-52.673,17.164 -53.222,1.822 -41.835,0.911C-30.448,0 -29.311,15.048 -29.311,15.048C-29.311,15.048 -26.412,8.101 -19.759,9.038C-13.105,9.975 -13.253,19.527 -13.253,19.527C-13.253,19.527 -11.568,16.686 -7.462,18.056C-0.934,20.232 0,24.729 0,24.729" style="fill:#cabac4;fill-rule:nonzero;"/>
    </g>
    <g transform="matrix(1.83168,0,0,1.83168,277.906,339.883)">
        <path d="M0,-3.225L1.741,-7.351L3.936,-2.914L8.162,-2.652L4.546,-0.098L5.674,4.126L1.795,1.796L-2.482,3.965L-0.808,-0.452L-4.409,-2.508L0,-3.225Z" style="fill:#ffe5ad;fill-rule:nonzero;"/>
    </g>
    <g transform="matrix(1.83168,0,0,1.83168,8.07588,132.144)">
        <path d="M0,-3.224L1.741,-7.351L3.936,-2.913L8.162,-2.651L4.546,-0.097L5.674,4.127L1.795,1.796L-2.482,3.965L-0.808,-0.452L-4.409,-2.507L0,-3.224Z" style="fill:#4abbcb;fill-rule:nonzero;"/>
    </g>
    <g transform="matrix(1.83168,0,0,1.83168,185.634,22.8603)">
        <path d="M0,-3.224L1.741,-7.351L3.936,-2.913L8.162,-2.651L4.546,-0.097L5.674,4.127L1.795,1.796L-2.482,3.965L-0.808,-0.452L-4.409,-2.507L0,-3.224Z" style="fill:#faba18;fill-rule:nonzero;"/>
    </g>
    <g transform="matrix(1.83168,0,0,1.83168,17.4444,336.593)">
        <path d="M0,-3.224L1.741,-7.351L3.936,-2.913L8.162,-2.651L4.546,-0.097L5.674,4.127L1.795,1.796L-2.482,3.965L-0.808,-0.452L-4.409,-2.507L0,-3.224Z" style="fill:#e88989;fill-rule:nonzero;"/>
    </g>
    <g transform="matrix(1.83168,0,0,1.83168,41.9691,378.727)">
        <path d="M0,-1.965L-0.881,-5.263L1.607,-2.797L4.229,-4.867L3.147,-1.816L6.458,-1.392L3.616,-0.408L5.08,2.373L2.521,1.141L1.302,3.298L0.686,0.987L-2.148,2.333L-0.393,0.063L-2.703,-1.247L0,-1.965Z" style="fill:#ffe5ad;fill-rule:nonzero;"/>
    </g>
    <g transform="matrix(1.83168,0,0,1.83168,212.248,303.317)">
        <path d="M0,-1.965L-0.881,-5.263L1.607,-2.797L4.229,-4.867L3.147,-1.816L6.458,-1.392L3.616,-0.408L5.08,2.373L2.522,1.141L1.302,3.298L0.686,0.987L-2.148,2.333L-0.393,0.063L-2.703,-1.247L0,-1.965Z" style="fill:#ffe5ad;fill-rule:nonzero;"/>
    </g>
    <g transform="matrix(1.83168,0,0,1.83168,313.085,300.778)">
        <path d="M0,-1.573L-0.706,-4.215L1.287,-2.24L3.387,-3.897L2.521,-1.454L5.172,-1.114L2.896,-0.326L4.069,1.902L2.02,0.915L1.043,2.642L0.549,0.791L-1.721,1.869L-0.314,0.051L-2.165,-0.998L0,-1.573Z" style="fill:#ffe5ad;fill-rule:nonzero;"/>
    </g>
    <g transform="matrix(1.83168,0,0,1.83168,256.1,158.122)">
        <path d="M0,-1.965L-0.881,-5.263L1.607,-2.797L4.229,-4.867L3.147,-1.816L6.458,-1.392L3.616,-0.408L5.08,2.373L2.521,1.141L1.302,3.298L0.686,0.987L-2.148,2.333L-0.393,0.062L-2.703,-1.247L0,-1.965Z" style="fill:#ffe5ad;fill-rule:nonzero;"/>
    </g>
    <g transform="matrix(1.83168,0,0,1.83168,5.93117,222.325)">
        <path d="M0,-1.965L-0.881,-5.263L1.607,-2.797L4.229,-4.867L3.147,-1.816L6.458,-1.392L3.616,-0.408L5.08,2.373L2.521,1.141L1.302,3.298L0.686,0.987L-2.148,2.333L-0.393,0.063L-2.703,-1.247L0,-1.965Z" style="fill:#ffe5ad;fill-rule:nonzero;"/>
    </g>
    <g transform="matrix(1.83168,0,0,1.83168,110.785,80.8369)">
        <path d="M0,58.558C0,58.558 -6.639,58.919 -10.744,55.277C-20.914,46.252 -10.53,40.246 -10.53,40.246C-10.53,40.246 -16.177,38.7 -17.049,32.52C-18.264,23.916 -8.349,21.47 -8.349,21.47C-8.349,21.47 -13.999,8.901 -3.449,4.487C7.101,0.074 12.038,7.135 12.038,7.135C12.038,7.135 15.695,-3.073 25.226,0.119C34.757,3.31 36.918,8.606 36.918,8.606C36.918,8.606 41.993,1.724 48.055,5.675C58.42,12.431 54.47,22.728 54.47,22.728C54.47,22.728 63.621,20.894 64.66,30.309C65.699,39.725 58.33,42.09 58.33,42.09C58.33,42.09 63.739,46.788 59.84,54.209C55.941,61.631 47.662,61.161 47.662,61.161L0,58.558Z" style="fill:#ff7b59;fill-rule:nonzero;"/>
    </g>
    <g transform="matrix(1.83168,0,0,1.83168,92.0586,428.059)">
        <path d="M0,-54.25C0,-54.25 11.117,-49.045 19.636,-36.258C28.155,-23.471 29.435,-3.638 29.435,-3.638C29.435,-3.638 38.466,-6.533 36.574,-5.187C34.683,-3.841 25.572,0 25.572,0C25.572,0 7.183,-30.388 -2.812,-35.213L0,-54.25Z" style="fill:#f3af8e;fill-rule:nonzero;"/>
    </g>
    <g transform="matrix(1.83168,0,0,1.83168,131.137,423.495)">
        <path d="M0,-2.975L8.263,-6.28L8.948,-4.5C8.948,-4.5 15.5,-5.596 17.437,-2.994L2.923,3.305L0,-2.975Z" style="fill:#e52d31;fill-rule:nonzero;"/>
    </g>
    <g transform="matrix(1.83168,0,0,1.83168,143.639,412.607)">
        <path d="M0,2.651C-0.076,2.651 -0.152,2.623 -0.212,2.567C-0.335,2.45 -0.341,2.255 -0.224,2.131L1.67,0.129C1.787,0.005 1.982,0 2.105,0.116C2.229,0.234 2.234,0.428 2.118,0.552L0.224,2.555C0.164,2.619 0.082,2.651 0,2.651" style="fill:#2d202a;fill-rule:nonzero;"/>
    </g>
    <g transform="matrix(1.83168,0,0,1.83168,146.178,413.715)">
        <path d="M0,3.278C-0.051,3.278 -0.103,3.265 -0.15,3.239C-0.299,3.156 -0.352,2.968 -0.269,2.82L1.195,0.201C1.278,0.052 1.464,0 1.614,0.083C1.762,0.166 1.815,0.353 1.732,0.502L0.269,3.121C0.212,3.221 0.108,3.278 0,3.278" style="fill:#2d202a;fill-rule:nonzero;"/>
    </g>
    <g transform="matrix(1.83168,0,0,1.83168,150.552,414.241)">
        <path d="M0,2.991C-0.023,2.991 -0.047,2.989 -0.07,2.983C-0.236,2.945 -0.339,2.779 -0.3,2.613L0.243,0.273C0.282,0.107 0.449,0 0.613,0.042C0.779,0.08 0.882,0.246 0.843,0.412L0.3,2.753C0.267,2.895 0.14,2.991 0,2.991" style="fill:#2d202a;fill-rule:nonzero;"/>
    </g>
    <g transform="matrix(1.83168,0,0,1.83168,128.432,400.372)">
        <path d="M0,-46.842C0,-46.842 12.021,-44.357 23.272,-33.893C34.524,-23.429 40.367,-4.434 40.367,-4.434C40.367,-4.434 48.481,-9.344 46.953,-7.596C45.425,-5.849 37.453,0 37.453,0C37.453,0 12.52,-25.296 1.678,-27.673L0,-46.842Z" style="fill:#f3af8e;fill-rule:nonzero;"/>
    </g>
    <g transform="matrix(1.83168,0,0,1.83168,187.164,391.127)">
        <path d="M0,0.712L7.271,-4.419L8.35,-2.846C8.35,-2.846 14.47,-5.431 16.958,-3.349L4.299,6.143L0,0.712Z" style="fill:#e52d31;fill-rule:nonzero;"/>
    </g>
    <g transform="matrix(1.83168,0,0,1.83168,199.058,383.4)">
        <path d="M0,3.047C-0.052,3.047 -0.105,3.034 -0.154,3.006C-0.301,2.921 -0.352,2.732 -0.267,2.585L1.111,0.198C1.196,0.051 1.385,0 1.532,0.085C1.679,0.171 1.73,0.359 1.645,0.506L0.267,2.893C0.21,2.992 0.106,3.047 0,3.047" style="fill:#2d202a;fill-rule:nonzero;"/>
    </g>
    <g transform="matrix(1.25755,1.33178,1.33178,-1.25755,22.9382,284.528)">
        <path d="M30.275,-3.056C30.275,-3.056 50.562,18.429 59.361,35.881C59.361,35.881 38.043,59.076 30.275,66.406C30.275,66.406 1.214,57.682 -6.173,56.182C-6.173,56.182 -15.486,22.076 30.275,-3.056" style="fill:#c0ebe2;fill-rule:nonzero;"/>
    </g>
    <g transform="matrix(1.83168,0,0,1.83168,218.794,249.386)">
        <path d="M0,-18.403C0,-18.403 -1.136,-24.615 -0.366,-24.924C0.404,-25.232 2.113,-20.292 2.113,-20.292C2.113,-20.292 3.282,-28.829 4.514,-28.513C5.747,-28.197 5.348,-21.987 5.348,-21.987C5.348,-21.987 8.737,-29.689 9.353,-28.611C9.969,-27.532 7.935,-20.983 7.935,-20.983C7.935,-20.983 11.355,-26.324 12.588,-24.914C13.82,-23.503 8.121,-18.444 8.121,-18.444C8.121,-18.444 11.478,-20.866 12.248,-19.48C13.018,-18.093 6.272,-15.055 6.272,-15.055C6.272,-15.055 2.421,11.286 -33.163,9.438L-34.586,-7.507C-34.586,-7.507 -5.7,-5.463 0,-18.403" style="fill:#f7ba7e;fill-rule:nonzero;"/>
    </g>
    <g transform="matrix(1.83168,0,0,1.83168,225.088,211.579)">
        <path d="M0,3.45C-0.037,3.45 -0.074,3.444 -0.11,3.429C-0.268,3.369 -0.348,3.193 -0.289,3.034C-0.27,2.98 0.123,1.81 -1.507,0.596C-1.644,0.494 -1.672,0.301 -1.57,0.165C-1.468,0.028 -1.275,0 -1.139,0.102C0.886,1.61 0.313,3.186 0.288,3.252C0.241,3.375 0.124,3.45 0,3.45" style="fill:#2d202a;fill-rule:nonzero;"/>
    </g>
    <g transform="matrix(1.83168,0,0,1.83168,60.6561,198.079)">
        <path d="M0,-28.778C0,-28.778 5.778,-31.329 5.6,-32.139C5.422,-32.949 0.375,-31.588 0.375,-31.588C0.375,-31.588 6.78,-37.352 5.826,-38.194C4.872,-39.035 -0.041,-35.215 -0.041,-35.215C-0.041,-35.215 4.426,-42.347 3.188,-42.251C1.95,-42.154 -2.325,-36.792 -2.325,-36.792C-2.325,-36.792 0.171,-42.623 -1.688,-42.849C-3.547,-43.076 -4.529,-35.518 -4.529,-35.518C-4.529,-35.518 -4.413,-39.656 -5.992,-39.514C-7.572,-39.372 -6.294,-32.085 -6.294,-32.085C-6.294,-32.085 -25.919,-14.097 -4.394,14.298L10.423,5.954C10.423,5.954 -7.5,-16.792 0,-28.778" style="fill:#f7ba7e;fill-rule:nonzero;"/>
    </g>
    <g transform="matrix(1.83168,0,0,1.83168,55.7496,138.168)">
        <path d="M0,1.902C-0.062,1.902 -0.124,1.883 -0.178,1.845C-0.315,1.747 -0.349,1.558 -0.252,1.419C-0.212,1.361 0.77,0 3.155,0.829C3.316,0.885 3.401,1.06 3.346,1.221C3.29,1.382 3.114,1.467 2.954,1.411C1.028,0.745 0.282,1.732 0.251,1.774C0.191,1.858 0.096,1.902 0,1.902" style="fill:#2d202a;fill-rule:nonzero;"/>
    </g>
    <g transform="matrix(1.83168,0,0,1.83168,143.639,378.373)">
        <path d="M0,-32.708C0,-32.708 7.838,-29.135 13.582,-23.129L-2.905,-11.411C-2.905,-11.411 -8.713,-18.125 -13.557,-21.309C-13.557,-21.309 -6.692,-14.634 -5.049,-9.91C-5.049,-9.91 -20.659,-2.413 -24.972,0C-24.972,0 -39.938,-17.662 -47.333,-27.124C-47.333,-27.124 -11.148,-28.806 0,-32.708" style="fill:#f08715;fill-rule:nonzero;"/>
    </g>
    <g transform="matrix(1.83168,0,0,1.83168,102.036,330.995)">
        <path d="M0,23.042C-0.123,23.042 -0.239,22.968 -0.287,22.847C-3.708,14.191 -20.359,0.722 -20.527,0.586C-20.66,0.48 -20.68,0.286 -20.574,0.153C-20.466,0.021 -20.273,0 -20.141,0.106C-19.45,0.662 -3.195,13.814 0.286,22.621C0.349,22.779 0.271,22.958 0.113,23.021C0.076,23.035 0.038,23.042 0,23.042" style="fill:#2d202a;fill-rule:nonzero;"/>
    </g>
    <g transform="matrix(1.83168,0,0,1.83168,118.808,323.837)">
        <path d="M0,7.027C-0.074,7.027 -0.147,7.001 -0.204,6.949L-6.69,1.198C-6.818,1.086 -6.83,0.891 -6.717,0.764C-6.604,0.635 -6.409,0.624 -6.282,0.737L-0.427,5.929C-0.638,4.741 -1.177,2.47 -2.432,0.519C-2.524,0.375 -2.482,0.185 -2.339,0.093C-2.195,0 -2.006,0.042 -1.914,0.185C-0.046,3.09 0.293,6.545 0.307,6.691C0.318,6.817 0.252,6.937 0.139,6.994C0.095,7.016 0.047,7.027 0,7.027" style="fill:#2d202a;fill-rule:nonzero;"/>
    </g>
    <g transform="matrix(1.83168,0,0,1.83168,81.3457,326.256)">
        <path d="M0,9.609C-0.084,9.609 -0.168,9.574 -0.229,9.506C-0.343,9.38 -0.333,9.185 -0.206,9.071C-0.172,9.041 3.139,5.978 1.76,0.413C1.719,0.248 1.82,0.081 1.985,0.04C2.148,0 2.317,0.1 2.358,0.265C3.83,6.203 0.354,9.398 0.205,9.53C0.146,9.583 0.073,9.609 0,9.609" style="fill:#2d202a;fill-rule:nonzero;"/>
    </g>
    <g transform="matrix(1.83168,0,0,1.83168,150.074,321.922)">
        <path d="M0,3.453C-4.135,3.453 -8.135,-0.043 -8.335,-0.221C-8.462,-0.334 -8.474,-0.528 -8.361,-0.655C-8.248,-0.783 -8.054,-0.795 -7.926,-0.682C-7.87,-0.632 -2.283,4.248 2.207,2.42C2.364,2.355 2.544,2.431 2.608,2.589C2.673,2.747 2.597,2.927 2.439,2.991C1.64,3.316 0.817,3.453 0,3.453" style="fill:#2d202a;fill-rule:nonzero;"/>
    </g>
    <g transform="matrix(1.83168,0,0,1.83168,165.548,317.823)">
        <path d="M0,11.388C-0.078,11.388 -0.156,11.358 -0.217,11.299C-0.288,11.229 -7.375,4.236 -12.148,0.594C-12.283,0.491 -12.309,0.297 -12.206,0.162C-12.103,0.027 -11.91,0 -11.774,0.104C-6.97,3.77 0.146,10.79 0.217,10.861C0.337,10.98 0.339,11.176 0.219,11.296C0.159,11.357 0.08,11.388 0,11.388" style="fill:#2d202a;fill-rule:nonzero;"/>
    </g>
    <g transform="matrix(-0.34238,1.7994,1.7994,0.34238,86.0496,195.053)">
        <path d="M7.261,-24.963C7.261,-24.963 -4.98,-12.239 -3.669,-9.794C-2.358,-7.349 7.261,8.029 7.261,8.029C7.261,8.029 28.457,-2.53 31.235,-7.543C34.013,-12.557 10.83,-28.854 7.261,-24.963" style="fill:#c0ebe2;fill-rule:nonzero;"/>
    </g>
    <g transform="matrix(-1.23032,1.35697,1.35697,1.23032,186.816,255.671)">
        <path d="M10.068,-30.492C10.068,-30.492 -0.538,-16.443 -3.616,-13.219C-6.695,-9.994 7.961,2.964 10.068,2.933C12.175,2.902 29.162,-12.798 28.779,-15.27C28.396,-17.74 10.068,-30.492 10.068,-30.492" style="fill:#c0ebe2;fill-rule:nonzero;"/>
    </g>
    <g transform="matrix(1.83168,0,0,1.83168,115.657,193.323)">
        <path d="M0,-28.625C0,-28.625 19.823,-47.11 39.646,-28.625C52.429,-16.706 48.722,14.859 21.774,16.895C0.723,18.485 -15.404,-11.989 0,-28.625" style="fill:#f7ba7e;fill-rule:nonzero;"/>
    </g>
    <g transform="matrix(1.83168,0,0,1.83168,121.2,239.826)">
        <path d="M0,-24.129L-8.283,-13.124L-11.96,-15.548C-11.96,-15.548 -13.946,-4.627 -4.402,-2.046C3.166,0 5.18,-5.067 5.18,-5.067L2.107,-6.932L6.352,-17.351L0,-24.129Z" style="fill:#f7ba7e;fill-rule:nonzero;"/>
    </g>
    <g transform="matrix(1.83168,0,0,1.83168,155.082,192.258)">
        <path d="M0,7.963C-0.204,7.963 -0.412,7.952 -0.625,7.928C-1.498,7.831 -2.215,7.43 -2.756,6.735C-4.406,4.616 -3.857,0.464 -3.833,0.289C-3.81,0.12 -3.656,0 -3.486,0.026C-3.317,0.048 -3.2,0.204 -3.223,0.372C-3.228,0.413 -3.76,4.444 -2.27,6.357C-1.828,6.923 -1.268,7.237 -0.557,7.316C3.076,7.723 5.427,3.907 5.45,3.868C5.538,3.723 5.727,3.676 5.873,3.764C6.019,3.852 6.065,4.041 5.978,4.187C5.88,4.349 3.66,7.963 0,7.963" style="fill:#2d202a;fill-rule:nonzero;"/>
    </g>
    <g transform="matrix(0,-1.83168,-1.83168,0,129.163,177.006)">
        <path d="M-5.476,-5.476C-8.5,-5.476 -10.952,-3.025 -10.952,0.001C-10.952,3.024 -8.5,5.476 -5.476,5.476C-2.452,5.476 0.001,3.024 0.001,0.001C0.001,-3.025 -2.452,-5.476 -5.476,-5.476" style="fill:#ef9b79;fill-rule:nonzero;"/>
    </g>
    <g transform="matrix(0,-1.83168,-1.83168,0,178.408,192.157)">
        <path d="M-5.476,-5.476C-8.5,-5.476 -10.952,-3.024 -10.952,0C-10.952,3.024 -8.5,5.476 -5.476,5.476C-2.452,5.476 0,3.024 0,0C0,-3.024 -2.452,-5.476 -5.476,-5.476" style="fill:#ef9b79;fill-rule:nonzero;"/>
    </g>
    <g transform="matrix(0,-1.83168,-1.83168,0,144.184,170.049)">
        <path d="M-2.773,-2.773C-4.305,-2.773 -5.546,-1.531 -5.546,0C-5.546,1.532 -4.305,2.773 -2.773,2.773C-1.242,2.773 0,1.532 0,0C0,-1.531 -1.242,-2.773 -2.773,-2.773" style="fill:#2e1f22;fill-rule:nonzero;"/>
    </g>
    <g transform="matrix(0,-1.83168,-1.83168,0,178.408,179.631)">
        <path d="M-2.774,-2.774C-4.306,-2.774 -5.547,-1.531 -5.547,-0C-5.547,1.531 -4.306,2.774 -2.774,2.774C-1.241,2.774 -0,1.531 -0,-0C-0,-1.531 -1.241,-2.774 -2.774,-2.774" style="fill:#2e1f22;fill-rule:nonzero;"/>
    </g>
    <g transform="matrix(1.83168,0,0,1.83168,117.705,213.514)">
        <path d="M0,15.812C-1.841,15.812 -4.015,15.378 -6.553,14.248C-15.587,10.225 -13.595,-2.065 -13.574,-2.188C-13.545,-2.356 -13.387,-2.467 -13.218,-2.44C-13.05,-2.412 -12.938,-2.252 -12.966,-2.084C-12.972,-2.055 -13.471,0.952 -12.887,4.391C-12.113,8.958 -9.897,12.084 -6.302,13.685C4.016,18.279 7.828,11.107 7.985,10.8C8.063,10.648 8.249,10.587 8.399,10.665C8.551,10.742 8.612,10.927 8.535,11.079C8.503,11.141 6.041,15.812 0,15.812" style="fill:#2d202a;fill-rule:nonzero;"/>
    </g>
    <g transform="matrix(1.83168,0,0,1.83168,64.7917,323.876)">
        <path d="M0,-25.377C0,-25.377 -1.147,-23.304 9.037,-17.343C19.221,-11.381 42.891,-12.971 42.891,-12.971C42.891,-12.971 43.909,-4.54 42.891,-5.079C41.874,-5.619 4.624,0 0,-1.518C-4.624,-3.036 -4.12,-23.079 0,-25.377" style="fill:#86dacb;fill-rule:nonzero;"/>
    </g>
    <g transform="matrix(1.83168,0,0,1.83168,147.107,240.736)">
        <path d="M0,18.398C-0.167,18.398 -0.304,18.264 -0.308,18.097C-0.468,10.763 0.958,0.391 0.973,0.287C0.996,0.119 1.149,0 1.32,0.024C1.488,0.047 1.606,0.204 1.583,0.372C1.568,0.476 0.149,10.799 0.308,18.084C0.312,18.253 0.177,18.394 0.007,18.398L0,18.398Z" style="fill:#2d202a;fill-rule:nonzero;"/>
    </g>
    <g transform="matrix(0.669238,-1.70504,-1.70504,-0.669238,127.382,205.499)">
        <path d="M-5.395,-3.162C-5.395,-3.162 -5.124,1.933 -1.127,6.677L-5.395,7.616L-8.447,-3.093L-5.395,-3.162Z" style="fill:#e67e66;fill-rule:nonzero;"/>
    </g>
    <g transform="matrix(1.83168,0,0,1.83168,98.0116,103.82)">
        <path d="M0,35.42C0,35.42 11.373,37.869 17.007,33.951C22.641,30.032 19.267,18.118 28.082,15.989C36.871,13.866 38.361,21.867 38.361,21.867C38.361,21.867 45.571,17.384 49.28,20.239C58.505,27.34 45.771,39.319 56.354,38.921C66.936,38.523 65.303,29.542 65.303,29.542C65.303,29.542 63.344,29.704 61.548,27.419C59.751,25.135 66.813,5.212 41.954,10.438C41.954,10.438 33.037,-3.899 15.402,2.795C-2.233,9.49 -5.236,26.113 0,35.42" style="fill:#ff7b59;fill-rule:nonzero;"/>
    </g>
    <g transform="matrix(1.83168,0,0,1.83168,113.137,167.495)">
        <path d="M0,4.605C0,4.605 0,-7.903 -7.415,-3.176C-16.617,2.69 -9.207,10.072 -4.833,11.29C-0.458,12.508 0,4.605 0,4.605" style="fill:#f7ba7e;fill-rule:nonzero;"/>
    </g>
    <g transform="matrix(1.83168,0,0,1.83168,104.469,164.748)">
        <path d="M0,9.774C-0.017,9.774 -0.034,9.773 -0.051,9.77C-0.219,9.742 -0.333,9.583 -0.304,9.415C0.569,4.171 -0.203,2.095 -1.005,1.277C-1.603,0.667 -2.238,0.752 -2.265,0.754C-2.429,0.777 -2.589,0.664 -2.615,0.497C-2.641,0.33 -2.529,0.173 -2.362,0.146C-2.324,0.138 -1.409,0 -0.583,0.827C0.744,2.156 1.042,5.079 0.303,9.516C0.278,9.667 0.148,9.774 0,9.774" style="fill:#2d202a;fill-rule:nonzero;"/>
    </g>
    <g transform="matrix(1.83168,0,0,1.83168,158.657,180.131)">
        <path d="M0,9.404C-0.105,9.404 -0.208,9.35 -0.266,9.253C-0.352,9.106 -0.304,8.917 -0.157,8.831L4.165,6.275L0.405,5.861C0.32,5.851 0.242,5.806 0.191,5.737C0.14,5.669 0.12,5.581 0.136,5.497L1.124,0.275C1.155,0.108 1.318,0 1.484,0.029C1.651,0.061 1.761,0.222 1.729,0.389L0.804,5.284L5.151,5.763C5.282,5.778 5.39,5.875 5.418,6.005C5.446,6.134 5.388,6.267 5.274,6.335L0.156,9.361C0.107,9.39 0.053,9.404 0,9.404" style="fill:#2d202a;fill-rule:nonzero;"/>
    </g>
    <g transform="matrix(1.83168,0,0,1.83168,61.3448,208.363)">
        <path d="M0,18.634C-0.022,18.634 -0.045,18.632 -0.068,18.627C-0.234,18.589 -0.338,18.424 -0.301,18.258C-0.276,18.151 2.205,7.49 9.833,0.118C9.955,0 10.15,0.003 10.268,0.125C10.386,0.247 10.383,0.443 10.261,0.561C2.768,7.802 0.324,18.289 0.3,18.394C0.268,18.537 0.141,18.634 0,18.634" style="fill:#2d202a;fill-rule:nonzero;"/>
    </g>
    <g transform="matrix(1.83168,0,0,1.83168,105.963,114.9)">
        <path d="M0,14.392C-1.048,14.392 -1.984,14.121 -2.799,13.578C-5.73,11.626 -6.013,6.909 -6.023,6.709C-6.032,6.539 -5.902,6.394 -5.732,6.385C-5.562,6.372 -5.417,6.506 -5.408,6.676C-5.406,6.722 -5.13,11.288 -2.457,13.066C-1.158,13.929 0.519,14.003 2.529,13.286C4.819,12.469 7.354,10.182 10.037,7.762C14.266,3.946 18.638,0 23.092,0.678C25.686,1.072 27.969,2.988 30.07,6.536C30.157,6.682 30.108,6.871 29.962,6.957C29.816,7.045 29.626,6.996 29.54,6.85C27.539,3.472 25.399,1.652 22.999,1.287C18.837,0.654 14.573,4.499 10.45,8.219C7.72,10.682 5.142,13.008 2.736,13.866C1.755,14.217 0.841,14.392 0,14.392" style="fill:#2d202a;fill-rule:nonzero;"/>
    </g>
    <g transform="matrix(1.83168,0,0,1.83168,168.03,97.172)">
        <path d="M0,17.301C-0.018,17.301 -0.037,17.3 -0.055,17.296C-0.223,17.265 -0.333,17.105 -0.304,16.938C-0.288,16.851 1.223,8.231 -2.748,5.137C-4.371,3.872 -6.85,4.113 -9.248,4.346C-11.56,4.571 -13.743,4.783 -15.013,3.601C-15.751,2.913 -16.091,1.838 -16.052,0.314C-16.047,0.143 -15.917,0 -15.736,0.013C-15.565,0.018 -15.431,0.159 -15.436,0.329C-15.47,1.667 -15.194,2.59 -14.593,3.15C-13.526,4.143 -11.478,3.944 -9.308,3.733C-6.79,3.488 -4.186,3.235 -2.37,4.651C1.895,7.974 0.37,16.679 0.303,17.048C0.276,17.197 0.146,17.301 0,17.301" style="fill:#2d202a;fill-rule:nonzero;"/>
    </g>
    <g transform="matrix(1.83168,0,0,1.83168,173.329,112.158)">
        <path d="M0,10.308C-0.014,10.308 -0.027,10.308 -0.042,10.305C-0.21,10.282 -0.329,10.127 -0.306,9.958C-0.253,9.575 1.042,0.568 7.052,0.168C9.563,0 11.536,0.478 13.121,0.861C15.249,1.376 16.653,1.715 17.973,0.268C18.087,0.141 18.282,0.133 18.408,0.248C18.534,0.363 18.542,0.558 18.428,0.683C16.862,2.4 15.148,1.985 12.976,1.46C11.432,1.087 9.509,0.622 7.093,0.783C1.584,1.149 0.317,9.953 0.305,10.042C0.284,10.196 0.152,10.308 0,10.308" style="fill:#2d202a;fill-rule:nonzero;"/>
    </g>
    <g transform="matrix(1.83168,0,0,1.83168,214.22,126.529)">
        <path d="M0,12.646C-2.882,12.646 -3.685,10.837 -4.659,8.646C-5.57,6.594 -6.604,4.268 -9.585,2.416C-11.793,1.045 -13.721,0.638 -15.315,1.208C-17.489,1.984 -18.321,4.356 -18.329,4.38C-18.384,4.541 -18.56,4.628 -18.72,4.573C-18.881,4.518 -18.967,4.343 -18.913,4.183C-18.876,4.074 -17.983,1.51 -15.528,0.629C-13.747,-0.009 -11.638,0.416 -9.26,1.892C-6.117,3.844 -4.997,6.368 -4.096,8.395C-2.956,10.961 -2.204,12.655 1.888,11.811C2.054,11.778 2.218,11.884 2.252,12.05C2.287,12.217 2.18,12.38 2.013,12.415C1.246,12.573 0.581,12.646 0,12.646" style="fill:#2d202a;fill-rule:nonzero;"/>
    </g>
    <g transform="matrix(1.83168,0,0,1.83168,112.665,128.532)">
        <path d="M0,14.827C-0.622,14.827 -1.012,14.777 -1.069,14.769C-1.237,14.745 -1.354,14.59 -1.332,14.422C-1.308,14.253 -1.155,14.135 -0.984,14.159C-0.935,14.164 4.087,14.802 8.176,11.018C9.701,9.608 10.818,7.758 11.898,5.969C13.751,2.899 15.501,0 18.859,0.76C19.025,0.798 19.129,0.963 19.092,1.129C19.054,1.295 18.888,1.398 18.723,1.361C15.797,0.697 14.236,3.289 12.426,6.287C11.323,8.113 10.183,10.001 8.595,11.471C5.407,14.42 1.767,14.827 0,14.827" style="fill:#2d202a;fill-rule:nonzero;"/>
    </g>
    <g transform="matrix(1.83168,0,0,1.83168,214.199,140.447)">
        <path d="M0,16.192C-1.533,16.192 -7.007,16.03 -7.17,13.73C-7.208,13.201 -7.073,12.487 -6.901,11.583C-6.285,8.331 -5.353,3.417 -11.135,0.629C-11.289,0.555 -11.353,0.371 -11.279,0.217C-11.205,0.065 -11.021,0 -10.868,0.074C-4.66,3.067 -5.684,8.47 -6.296,11.698C-6.453,12.524 -6.588,13.237 -6.556,13.686C-6.452,15.153 -2.286,15.624 0.315,15.573C0.485,15.574 0.625,15.706 0.629,15.876C0.632,16.046 0.497,16.186 0.326,16.189C0.26,16.191 0.148,16.192 0,16.192" style="fill:#2d202a;fill-rule:nonzero;"/>
    </g>
    <g transform="matrix(1.83168,0,0,1.83168,202.052,384.108)">
        <path d="M0,3.538C-0.028,3.538 -0.056,3.534 -0.084,3.526C-0.248,3.48 -0.343,3.31 -0.296,3.146L0.52,0.259C0.565,0.095 0.735,0 0.9,0.047C1.064,0.093 1.159,0.263 1.112,0.427L0.296,3.314C0.258,3.45 0.134,3.538 0,3.538" style="fill:#2d202a;fill-rule:nonzero;"/>
    </g>
    <g transform="matrix(1.83168,0,0,1.83168,206.307,384.043)">
        <path d="M0,3.02C-0.169,3.02 -0.307,2.883 -0.308,2.714L-0.322,0.311C-0.323,0.14 -0.187,0.001 -0.016,0L-0.014,0C0.155,0 0.293,0.137 0.294,0.307L0.308,2.71C0.309,2.88 0.172,3.019 0.001,3.02L0,3.02Z" style="fill:#2d202a;fill-rule:nonzero;"/>
    </g>
    <g transform="matrix(1.83168,0,0,1.83168,271.825,347.682)">
        <path d="M0,-126.944C-0.056,-126.944 -0.112,-126.959 -0.163,-126.99C-1.458,-127.799 -2.27,-128.254 -2.278,-128.258C-2.427,-128.341 -2.48,-128.529 -2.397,-128.677C-2.314,-128.826 -2.127,-128.879 -1.978,-128.797C-1.97,-128.792 -1.146,-128.331 0.164,-127.513C0.308,-127.423 0.352,-127.233 0.262,-127.089C0.203,-126.995 0.103,-126.944 0,-126.944M4.113,-124.205C4.051,-124.205 3.989,-124.223 3.935,-124.262C3.219,-124.769 2.537,-125.235 1.906,-125.655C1.765,-125.749 1.726,-125.941 1.82,-126.082C1.914,-126.224 2.105,-126.263 2.248,-126.168C2.883,-125.744 3.569,-125.276 4.291,-124.765C4.43,-124.666 4.463,-124.474 4.365,-124.336C4.304,-124.251 4.209,-124.205 4.113,-124.205M8.058,-121.233C7.99,-121.233 7.922,-121.256 7.865,-121.301C7.208,-121.829 6.559,-122.333 5.923,-122.811C5.787,-122.914 5.76,-123.107 5.862,-123.243C5.964,-123.378 6.157,-123.406 6.294,-123.303C6.934,-122.821 7.589,-122.313 8.251,-121.781C8.383,-121.675 8.405,-121.481 8.298,-121.348C8.237,-121.273 8.148,-121.233 8.058,-121.233M11.791,-118.002C11.715,-118.002 11.64,-118.029 11.581,-118.085C11,-118.629 10.386,-119.182 9.754,-119.728C9.625,-119.839 9.611,-120.033 9.722,-120.162C9.834,-120.292 10.029,-120.305 10.156,-120.194C10.795,-119.642 11.416,-119.084 12.002,-118.535C12.126,-118.418 12.132,-118.223 12.016,-118.099C11.955,-118.035 11.873,-118.002 11.791,-118.002M15.226,-114.458C15.14,-114.458 15.054,-114.494 14.993,-114.564C14.476,-115.16 13.917,-115.766 13.332,-116.368C13.213,-116.49 13.216,-116.685 13.338,-116.803C13.46,-116.923 13.656,-116.919 13.774,-116.798C14.366,-116.188 14.933,-115.572 15.458,-114.968C15.57,-114.84 15.557,-114.645 15.428,-114.533C15.37,-114.483 15.298,-114.458 15.226,-114.458M18.192,-110.52C18.09,-110.52 17.99,-110.571 17.932,-110.663C17.513,-111.323 17.044,-111.997 16.538,-112.666C16.435,-112.801 16.461,-112.995 16.597,-113.097C16.732,-113.201 16.926,-113.174 17.028,-113.038C17.545,-112.356 18.024,-111.668 18.452,-110.993C18.543,-110.85 18.5,-110.659 18.357,-110.568C18.306,-110.536 18.249,-110.52 18.192,-110.52M20.353,-106.103C20.224,-106.103 20.104,-106.184 20.061,-106.312C19.814,-107.043 19.5,-107.795 19.128,-108.546C19.053,-108.698 19.115,-108.883 19.268,-108.959C19.42,-109.035 19.605,-108.972 19.681,-108.819C20.064,-108.043 20.389,-107.266 20.645,-106.509C20.699,-106.348 20.613,-106.173 20.452,-106.119C20.419,-106.108 20.386,-106.103 20.353,-106.103M21.092,-101.265L21.079,-101.265C20.909,-101.273 20.777,-101.416 20.784,-101.587C20.792,-101.754 20.795,-101.922 20.795,-102.09C20.796,-102.707 20.745,-103.342 20.644,-103.978C20.617,-104.146 20.732,-104.304 20.9,-104.33C21.069,-104.357 21.226,-104.242 21.252,-104.074C21.358,-103.407 21.412,-102.739 21.412,-102.09C21.412,-101.913 21.408,-101.736 21.4,-101.559C21.393,-101.394 21.256,-101.265 21.092,-101.265M19.862,-96.526C19.821,-96.526 19.778,-96.534 19.738,-96.552C19.583,-96.621 19.512,-96.803 19.581,-96.959C19.751,-97.342 19.915,-97.741 20.072,-98.154C20.206,-98.507 20.322,-98.865 20.418,-99.222C20.462,-99.387 20.633,-99.485 20.796,-99.44C20.96,-99.396 21.058,-99.227 21.013,-99.062C20.912,-98.686 20.789,-98.307 20.648,-97.936C20.487,-97.511 20.319,-97.102 20.145,-96.709C20.093,-96.594 19.98,-96.526 19.862,-96.526M17.344,-92.306C17.276,-92.306 17.208,-92.328 17.151,-92.374C17.019,-92.48 16.997,-92.674 17.103,-92.807C17.59,-93.416 18.051,-94.086 18.474,-94.8C18.56,-94.946 18.749,-94.995 18.896,-94.908C19.042,-94.821 19.09,-94.632 19.004,-94.486C18.567,-93.748 18.089,-93.053 17.584,-92.422C17.523,-92.346 17.434,-92.306 17.344,-92.306M11.709,-91.909C11.678,-91.909 11.646,-91.914 11.614,-91.924C10.802,-92.19 10.013,-92.385 9.268,-92.505C9.1,-92.532 8.986,-92.69 9.013,-92.858C9.04,-93.026 9.199,-93.141 9.366,-93.113C10.143,-92.988 10.963,-92.785 11.805,-92.51C11.967,-92.458 12.055,-92.283 12.002,-92.122C11.96,-91.992 11.839,-91.909 11.709,-91.909M4.78,-91.434C4.717,-91.434 4.653,-91.453 4.598,-91.493C4.461,-91.594 4.431,-91.787 4.532,-91.924C4.659,-92.098 4.809,-92.271 4.979,-92.44C5.385,-92.843 6.005,-93.1 6.822,-93.205C6.993,-93.224 7.145,-93.108 7.167,-92.939C7.188,-92.77 7.069,-92.616 6.9,-92.594C6.23,-92.508 5.716,-92.304 5.414,-92.003C5.266,-91.857 5.137,-91.708 5.029,-91.56C4.969,-91.478 4.875,-91.434 4.78,-91.434M13.677,-89.054C13.572,-89.054 13.47,-89.108 13.412,-89.204C13.325,-89.35 13.373,-89.539 13.519,-89.627C13.972,-89.896 14.414,-90.201 14.841,-90.539C14.521,-90.711 14.197,-90.873 13.87,-91.027C13.716,-91.1 13.649,-91.283 13.722,-91.437C13.794,-91.591 13.979,-91.657 14.131,-91.585C14.543,-91.392 14.951,-91.184 15.351,-90.964C15.385,-90.993 15.418,-91.023 15.451,-91.052C15.578,-91.166 15.773,-91.155 15.886,-91.028C15.984,-90.92 15.989,-90.76 15.909,-90.646C16.05,-90.562 16.19,-90.478 16.33,-90.391C16.474,-90.301 16.519,-90.111 16.429,-89.966C16.339,-89.822 16.149,-89.778 16.004,-89.868C15.813,-89.987 15.619,-90.103 15.422,-90.216C14.913,-89.798 14.381,-89.423 13.834,-89.097C13.785,-89.068 13.731,-89.054 13.677,-89.054M6.588,-87.809C6.56,-87.809 6.53,-87.813 6.501,-87.821C5.501,-88.114 4.725,-88.633 4.314,-89.281C4.223,-89.425 4.266,-89.616 4.409,-89.707C4.554,-89.798 4.744,-89.755 4.834,-89.611C5.165,-89.09 5.818,-88.664 6.675,-88.413C6.838,-88.365 6.932,-88.194 6.884,-88.03C6.844,-87.896 6.721,-87.809 6.588,-87.809M9.028,-87.563C8.866,-87.563 8.73,-87.69 8.721,-87.853C8.711,-88.023 8.84,-88.169 9.01,-88.178C9.778,-88.224 10.564,-88.377 11.345,-88.632C11.507,-88.685 11.681,-88.596 11.733,-88.435C11.787,-88.274 11.698,-88.099 11.537,-88.047C10.705,-87.775 9.867,-87.612 9.046,-87.564C9.04,-87.563 9.034,-87.563 9.028,-87.563M19.986,-86.724C19.904,-86.724 19.822,-86.757 19.762,-86.821C19.221,-87.396 18.624,-87.949 17.984,-88.465C17.852,-88.571 17.831,-88.765 17.938,-88.898C18.044,-89.03 18.239,-89.051 18.371,-88.944C19.032,-88.411 19.651,-87.839 20.21,-87.244C20.327,-87.12 20.321,-86.924 20.197,-86.808C20.138,-86.752 20.062,-86.724 19.986,-86.724M22.723,-82.655C22.604,-82.655 22.491,-82.724 22.44,-82.84C22.124,-83.558 21.73,-84.265 21.272,-84.941C21.177,-85.082 21.213,-85.274 21.354,-85.369C21.495,-85.464 21.686,-85.428 21.782,-85.287C22.261,-84.581 22.672,-83.84 23.004,-83.088C23.073,-82.932 23.002,-82.75 22.846,-82.682C22.806,-82.664 22.764,-82.655 22.723,-82.655M23.777,-77.879C23.609,-77.879 23.472,-78.013 23.469,-78.181C23.454,-78.985 23.359,-79.786 23.187,-80.562C23.151,-80.728 23.256,-80.892 23.422,-80.929C23.587,-80.967 23.752,-80.861 23.79,-80.694C23.97,-79.879 24.069,-79.037 24.085,-78.193C24.088,-78.023 23.953,-77.882 23.783,-77.879L23.777,-77.879ZM23.004,-73.039C22.973,-73.039 22.94,-73.044 22.908,-73.055C22.746,-73.108 22.658,-73.282 22.712,-73.444C22.971,-74.229 23.166,-75.017 23.292,-75.785C23.32,-75.953 23.478,-76.071 23.646,-76.039C23.814,-76.011 23.928,-75.853 23.9,-75.685C23.769,-74.885 23.566,-74.066 23.297,-73.251C23.254,-73.121 23.134,-73.039 23.004,-73.039M20.9,-68.598C20.846,-68.598 20.79,-68.612 20.74,-68.643C20.595,-68.732 20.549,-68.922 20.638,-69.067C21.075,-69.778 21.467,-70.496 21.803,-71.199C21.876,-71.353 22.06,-71.417 22.214,-71.344C22.367,-71.271 22.433,-71.087 22.359,-70.933C22.013,-70.211 21.611,-69.475 21.164,-68.745C21.105,-68.65 21.004,-68.598 20.9,-68.598M17.995,-64.625C17.925,-64.625 17.854,-64.649 17.796,-64.698C17.667,-64.808 17.65,-65.002 17.76,-65.132C18.302,-65.771 18.811,-66.416 19.275,-67.047C19.376,-67.183 19.568,-67.214 19.706,-67.112C19.843,-67.011 19.873,-66.819 19.771,-66.682C19.299,-66.039 18.781,-65.384 18.23,-64.734C18.169,-64.662 18.083,-64.625 17.995,-64.625M14.607,-61.05C14.526,-61.05 14.445,-61.082 14.384,-61.145C14.267,-61.268 14.271,-61.463 14.395,-61.581C14.998,-62.156 15.58,-62.739 16.125,-63.313C16.242,-63.436 16.437,-63.442 16.561,-63.324C16.684,-63.207 16.689,-63.012 16.572,-62.888C16.02,-62.308 15.43,-61.718 14.82,-61.135C14.76,-61.078 14.684,-61.05 14.607,-61.05M10.913,-57.793C10.823,-57.793 10.735,-57.831 10.674,-57.905C10.566,-58.037 10.585,-58.231 10.717,-58.339C11.365,-58.87 11.994,-59.403 12.588,-59.925C12.715,-60.038 12.91,-60.026 13.022,-59.898C13.135,-59.77 13.123,-59.575 12.995,-59.463C12.396,-58.936 11.761,-58.398 11.107,-57.862C11.05,-57.816 10.981,-57.793 10.913,-57.793M7.007,-54.789C6.911,-54.789 6.817,-54.834 6.757,-54.917C6.657,-55.054 6.688,-55.247 6.826,-55.347C7.506,-55.84 8.162,-56.33 8.793,-56.815C8.929,-56.919 9.122,-56.892 9.225,-56.758C9.329,-56.624 9.304,-56.43 9.169,-56.326C8.533,-55.838 7.873,-55.345 7.187,-54.848C7.133,-54.808 7.069,-54.789 7.007,-54.789M2.95,-51.992C2.85,-51.992 2.751,-52.04 2.692,-52.131C2.599,-52.273 2.639,-52.464 2.781,-52.557C3.481,-53.018 4.161,-53.475 4.819,-53.929C4.96,-54.025 5.152,-53.99 5.248,-53.85C5.344,-53.71 5.309,-53.518 5.169,-53.422C4.506,-52.965 3.824,-52.506 3.119,-52.042C3.067,-52.008 3.008,-51.992 2.95,-51.992M-1.219,-49.364C-1.323,-49.364 -1.425,-49.417 -1.482,-49.513C-1.571,-49.658 -1.524,-49.848 -1.378,-49.936C-0.663,-50.369 0.035,-50.799 0.714,-51.228C0.858,-51.318 1.049,-51.275 1.139,-51.131C1.229,-50.987 1.186,-50.797 1.042,-50.706C0.36,-50.276 -0.34,-49.844 -1.06,-49.409C-1.109,-49.379 -1.164,-49.364 -1.219,-49.364M-5.432,-46.808C-5.535,-46.808 -5.636,-46.86 -5.694,-46.953C-5.784,-47.098 -5.74,-47.288 -5.595,-47.378C-4.907,-47.806 -4.206,-48.236 -3.491,-48.668C-3.346,-48.756 -3.156,-48.709 -3.068,-48.564C-2.98,-48.418 -3.027,-48.229 -3.172,-48.141C-3.885,-47.71 -4.584,-47.281 -5.27,-46.855C-5.321,-46.823 -5.376,-46.808 -5.432,-46.808M-9.582,-44.151C-9.682,-44.151 -9.78,-44.199 -9.839,-44.289C-9.933,-44.431 -9.894,-44.622 -9.751,-44.716C-9.076,-45.162 -8.386,-45.611 -7.682,-46.061C-7.539,-46.153 -7.348,-46.111 -7.257,-45.968C-7.165,-45.824 -7.207,-45.634 -7.35,-45.542C-8.052,-45.093 -8.739,-44.646 -9.412,-44.201C-9.464,-44.167 -9.523,-44.151 -9.582,-44.151M-13.651,-41.372C-13.747,-41.372 -13.843,-41.418 -13.902,-41.502C-14.001,-41.641 -13.968,-41.834 -13.829,-41.932C-13.169,-42.398 -12.493,-42.868 -11.801,-43.34C-11.661,-43.435 -11.469,-43.399 -11.373,-43.259C-11.277,-43.118 -11.313,-42.926 -11.454,-42.831C-12.143,-42.361 -12.816,-41.893 -13.473,-41.428C-13.527,-41.39 -13.589,-41.372 -13.651,-41.372M-17.624,-38.459C-17.717,-38.459 -17.809,-38.501 -17.87,-38.58C-17.973,-38.715 -17.947,-38.909 -17.812,-39.012C-17.169,-39.501 -16.51,-39.994 -15.833,-40.49C-15.696,-40.591 -15.503,-40.562 -15.403,-40.423C-15.302,-40.286 -15.332,-40.093 -15.469,-39.993C-16.143,-39.5 -16.799,-39.009 -17.437,-38.522C-17.494,-38.48 -17.559,-38.459 -17.624,-38.459M-21.48,-35.392C-21.568,-35.392 -21.656,-35.43 -21.717,-35.504C-21.826,-35.634 -21.808,-35.829 -21.677,-35.937C-21.058,-36.453 -20.418,-36.972 -19.76,-37.495C-19.627,-37.601 -19.434,-37.579 -19.327,-37.446C-19.221,-37.313 -19.244,-37.119 -19.377,-37.013C-20.032,-36.492 -20.667,-35.976 -21.283,-35.464C-21.341,-35.416 -21.411,-35.392 -21.48,-35.392M-25.189,-32.151C-25.272,-32.151 -25.355,-32.184 -25.416,-32.25C-25.531,-32.375 -25.523,-32.57 -25.398,-32.685C-24.807,-33.23 -24.194,-33.78 -23.558,-34.335C-23.43,-34.447 -23.235,-34.434 -23.124,-34.306C-23.012,-34.178 -23.025,-33.983 -23.153,-33.871C-23.785,-33.319 -24.394,-32.773 -24.98,-32.233C-25.04,-32.178 -25.115,-32.151 -25.189,-32.151M-28.712,-28.709C-28.79,-28.709 -28.866,-28.737 -28.926,-28.795C-29.049,-28.912 -29.053,-29.108 -28.935,-29.23C-28.379,-29.809 -27.799,-30.394 -27.193,-30.985C-27.07,-31.104 -26.876,-31.101 -26.757,-30.98C-26.638,-30.858 -26.641,-30.663 -26.762,-30.544C-27.364,-29.958 -27.939,-29.377 -28.491,-28.803C-28.551,-28.74 -28.632,-28.709 -28.712,-28.709M-31.994,-25.036C-32.063,-25.036 -32.132,-25.059 -32.189,-25.106C-32.321,-25.215 -32.339,-25.409 -32.231,-25.54C-31.717,-26.163 -31.174,-26.794 -30.617,-27.417C-30.504,-27.544 -30.31,-27.554 -30.182,-27.441C-30.055,-27.327 -30.044,-27.132 -30.158,-27.006C-30.709,-26.389 -31.247,-25.764 -31.755,-25.148C-31.817,-25.074 -31.905,-25.036 -31.994,-25.036M-34.949,-21.098C-35.008,-21.098 -35.069,-21.115 -35.122,-21.151C-35.263,-21.246 -35.299,-21.438 -35.204,-21.579C-34.752,-22.247 -34.268,-22.926 -33.764,-23.595C-33.662,-23.732 -33.469,-23.759 -33.333,-23.656C-33.197,-23.554 -33.169,-23.361 -33.272,-23.225C-33.769,-22.564 -34.248,-21.894 -34.694,-21.234C-34.753,-21.146 -34.85,-21.098 -34.949,-21.098M-37.459,-16.864C-37.506,-16.864 -37.554,-16.875 -37.599,-16.897C-37.75,-16.975 -37.81,-17.16 -37.733,-17.312C-37.367,-18.031 -36.963,-18.762 -36.534,-19.485C-36.447,-19.631 -36.257,-19.68 -36.111,-19.592C-35.965,-19.506 -35.917,-19.317 -36.004,-19.17C-36.427,-18.459 -36.824,-17.74 -37.184,-17.032C-37.238,-16.925 -37.347,-16.864 -37.459,-16.864M-39.344,-12.32C-39.375,-12.32 -39.406,-12.324 -39.438,-12.334C-39.6,-12.386 -39.689,-12.559 -39.638,-12.721C-39.393,-13.489 -39.104,-14.275 -38.777,-15.056C-38.711,-15.214 -38.531,-15.288 -38.375,-15.222C-38.218,-15.157 -38.143,-14.977 -38.209,-14.819C-38.528,-14.054 -38.812,-13.285 -39.05,-12.534C-39.092,-12.403 -39.213,-12.32 -39.344,-12.32M-40.356,-7.508C-40.366,-7.508 -40.376,-7.509 -40.387,-7.51C-40.556,-7.527 -40.68,-7.677 -40.663,-7.846C-40.584,-8.656 -40.455,-9.486 -40.279,-10.313C-40.244,-10.48 -40.08,-10.586 -39.914,-10.55C-39.748,-10.515 -39.641,-10.351 -39.676,-10.185C-39.848,-9.381 -39.974,-8.574 -40.05,-7.787C-40.065,-7.628 -40.2,-7.508 -40.356,-7.508M-40.193,-2.598C-40.339,-2.598 -40.47,-2.703 -40.496,-2.853C-40.638,-3.658 -40.723,-4.497 -40.749,-5.346C-40.754,-5.516 -40.621,-5.658 -40.451,-5.664C-40.287,-5.67 -40.138,-5.535 -40.133,-5.365C-40.108,-4.546 -40.026,-3.736 -39.889,-2.959C-39.86,-2.792 -39.972,-2.631 -40.139,-2.602C-40.157,-2.599 -40.175,-2.598 -40.193,-2.598M-38.553,1.935C-39.005,1.935 -39.856,-0.397 -39.864,-0.42C-39.921,-0.581 -39.836,-0.756 -39.676,-0.813C-39.514,-0.869 -39.339,-0.785 -39.283,-0.625C-38.82,0.689 -38.334,1.402 -38.304,1.446C-38.267,1.497 -38.245,1.559 -38.245,1.627C-38.245,1.797 -38.383,1.935 -38.553,1.935" style="fill:#2e1f22;fill-rule:nonzero;"/>
    </g>
    <g transform="matrix(1.61021,0.873092,0.873092,-1.61021,10.8404,266.497)">
        <path d="M-1.063,-0.982L4.473,-0.982L4.521,-3.84L-2.269,-3.078L-1.063,-0.982Z" style="fill:#cabac4;fill-rule:nonzero;"/>
    </g>
    <g transform="matrix(-1.52674,1.01198,1.01198,1.52674,27.963,304.649)">
        <path d="M-5.893,1.13L-0.356,1.13L-0.309,-1.728L-7.098,-0.966L-5.893,1.13Z" style="fill:#faba18;fill-rule:nonzero;"/>
    </g>
    <g transform="matrix(-1.52674,1.01198,1.01198,1.52674,54.1157,96.2179)">
        <path d="M-5.894,1.13L-0.357,1.13L-0.309,-1.728L-7.099,-0.966L-5.894,1.13Z" style="fill:#85c6a8;fill-rule:nonzero;"/>
    </g>
    <g transform="matrix(-1.13846,-1.43491,-1.43491,1.13846,22.5492,1.37867)">
        <path d="M-3.261,4.576L2.276,4.576L2.324,1.718L-4.466,2.48L-3.261,4.576Z" style="fill:#85c6a8;fill-rule:nonzero;"/>
    </g>
    <g transform="matrix(-0.628222,-1.72058,-1.72058,0.628222,47.1723,94.1082)">
        <path d="M-2.405,4.13L3.131,4.13L3.179,1.272L-3.611,2.034L-2.405,4.13Z" style="fill:#e88989;fill-rule:nonzero;"/>
    </g>
</svg>
