<?xml version="1.0" encoding="UTF-8" standalone="no"?>
<!DOCTYPE svg PUBLIC "-//W3C//DTD SVG 1.1//EN" "http://www.w3.org/Graphics/SVG/1.1/DTD/svg11.dtd">
<svg width="332px" height="339px" version="1.1" xmlns="http://www.w3.org/2000/svg" xmlns:xlink="http://www.w3.org/1999/xlink" xml:space="preserve" xmlns:serif="http://www.serif.com/" style="fill-rule:evenodd;clip-rule:evenodd;stroke-linecap:round;stroke-linejoin:round;stroke-miterlimit:10;">
    <g transform="matrix(1,0,0,1,-218.424,-661.713)">
        <g transform="matrix(1,0,0,1,-1205.07,-713.12)">
            <g transform="matrix(1.83517,0,0,1.9905,1518.53,1692.54)">
                <g>
                    <path d="M0,3.081C-0.109,3.081 -0.215,3.022 -0.271,2.92L-1.587,0.497C-1.668,0.349 -1.612,0.161 -1.463,0.08C-1.315,0 -1.127,0.054 -1.045,0.204L0.271,2.626C0.352,2.775 0.297,2.962 0.146,3.043C0.101,3.068 0.05,3.081 0,3.081" style="fill:#2d202a;fill-rule:nonzero;"/>
                </g>
            </g>
        </g>
        <g transform="matrix(1,0,0,1,-1205.07,-713.12)">
            <g transform="matrix(1.83517,0,0,1.9905,1515.49,1693.26)">
                <g>
                    <path d="M0,3.557C-0.138,3.557 -0.264,3.464 -0.299,3.326L-1.041,0.418C-1.083,0.253 -0.983,0.085 -0.818,0.043C-0.651,0 -0.486,0.101 -0.444,0.265L0.298,3.172C0.34,3.337 0.241,3.505 0.076,3.547C0.05,3.554 0.024,3.557 0,3.557" style="fill:#2d202a;fill-rule:nonzero;"/>
                </g>
            </g>
        </g>
        <g transform="matrix(1,0,0,1,-1205.07,-713.12)">
            <g transform="matrix(1.83517,0,0,1.9905,1466.15,1600.02)">
                <g>
                    <path d="M0,3.353C-0.019,3.353 -0.037,3.351 -0.057,3.348C-0.224,3.317 -0.334,3.157 -0.303,2.99L0.198,0.279C0.228,0.111 0.392,0 0.557,0.033C0.724,0.063 0.834,0.224 0.803,0.391L0.303,3.101C0.275,3.249 0.146,3.353 0,3.353" style="fill:#2d202a;fill-rule:nonzero;"/>
                </g>
            </g>
        </g>
        <g transform="matrix(1,0,0,1,-1205.07,-713.12)">
            <g transform="matrix(1.83517,0,0,1.9905,1462.83,1599.17)">
                <g>
                    <path d="M0,3.385C-0.043,3.385 -0.086,3.376 -0.129,3.357C-0.283,3.285 -0.351,3.103 -0.279,2.948L0.972,0.222C1.043,0.069 1.226,0 1.381,0.072C1.535,0.142 1.603,0.325 1.531,0.48L0.28,3.205C0.229,3.319 0.117,3.385 0,3.385" style="fill:#2d202a;fill-rule:nonzero;"/>
                </g>
            </g>
        </g>
        <g transform="matrix(1,0,0,1,-1205.07,-713.12)">
            <g transform="matrix(1.83517,0,0,1.9905,1460.24,1597.15)">
                <g>
                    <path d="M0,2.472C-0.071,2.472 -0.143,2.447 -0.2,2.397C-0.33,2.285 -0.344,2.091 -0.233,1.962L1.337,0.143C1.449,0.013 1.644,0 1.771,0.111C1.9,0.222 1.914,0.416 1.804,0.545L0.233,2.365C0.173,2.436 0.087,2.472 0,2.472" style="fill:#2d202a;fill-rule:nonzero;"/>
                </g>
            </g>
        </g>
        <g transform="matrix(1,0,0,1,-1205.07,-713.12)">
            <g transform="matrix(1.83517,0,0,1.9905,1423.49,1482.18)">
                <g>
                    <path d="M0,18.632L53.527,18.632C53.527,18.632 51.256,2.668 39.688,12.933C39.688,12.933 40.101,1.373 31.521,0.687C22.941,0 22.085,11.339 22.085,11.339C22.085,11.339 19.9,6.104 14.888,6.81C9.874,7.516 9.985,14.713 9.985,14.713C9.985,14.713 8.716,12.572 5.622,13.605C0.704,15.244 0,18.632 0,18.632" style="fill:#4abbcb;fill-rule:nonzero;"/>
                </g>
            </g>
        </g>
        <g transform="matrix(1,0,0,1,-1205.07,-713.12)">
            <g transform="matrix(1.83517,0,0,1.9905,1463.17,1569.14)">
                <g>
                    <path d="M0,-3.226L1.74,-7.352L3.936,-2.915L8.161,-2.653L4.546,-0.098L5.674,4.126L1.795,1.795L-2.482,3.964L-0.809,-0.453L-4.409,-2.509L0,-3.226Z" style="fill:#fff;fill-rule:nonzero;"/>
                </g>
            </g>
        </g>
        <g transform="matrix(1,0,0,1,-1205.07,-713.12)">
            <g transform="matrix(1.83517,0,0,1.9905,1499.43,1465.71)">
                <g>
                    <path d="M0,-3.226L1.741,-7.352L3.936,-2.915L8.161,-2.653L4.546,-0.098L5.674,4.126L1.795,1.795L-2.482,3.964L-0.809,-0.453L-4.409,-2.509L0,-3.226Z" style="fill:#faba18;fill-rule:nonzero;"/>
                </g>
            </g>
        </g>
        <g transform="matrix(1,0,0,1,-1205.07,-713.12)">
            <g transform="matrix(1.83517,0,0,1.9905,1644.73,1390.7)">
                <g>
                    <path d="M0,11.756C0,11.756 -1.136,-3.989 -11.685,-6.22C-22.233,-8.45 -35.369,7.641 -35.369,7.641C-35.369,7.641 -18.421,20.206 0,11.756" style="fill:#fdd887;fill-rule:nonzero;"/>
                </g>
            </g>
        </g>
        <g transform="matrix(1,0,0,1,-1205.07,-713.12)">
            <g transform="matrix(1.83517,0,0,1.9905,1659.61,1680.2)">
                <g>
                    <path d="M0,-1.965L-0.881,-5.263L1.607,-2.797L4.229,-4.866L3.147,-1.816L6.458,-1.392L3.616,-0.407L5.08,2.374L2.521,1.141L1.302,3.298L0.686,0.987L-2.147,2.333L-0.393,0.063L-2.703,-1.246L0,-1.965Z" style="fill:#f9f3df;fill-rule:nonzero;"/>
                </g>
            </g>
        </g>
        <g transform="matrix(1,0,0,1,-1205.07,-713.12)">
            <g transform="matrix(1.61328,0.948796,0.874757,-1.74983,1502.87,1553.21)">
                <g>
                    <path d="M-1.063,-0.982L4.473,-0.982L4.521,-3.84L-2.269,-3.078L-1.063,-0.982Z" style="fill:#cabac4;fill-rule:nonzero;"/>
                </g>
            </g>
        </g>
        <g transform="matrix(1,0,0,1,-1205.07,-713.12)">
            <g transform="matrix(1.61314,0.949073,0.875012,-1.74967,1549.06,1374.12)">
                <g>
                    <path d="M-1.064,-0.982L4.473,-0.982L4.521,-3.84L-2.269,-3.08L-1.064,-0.982Z" style="fill:#cabac4;fill-rule:nonzero;"/>
                </g>
            </g>
        </g>
        <g transform="matrix(1,0,0,1,-1205.07,-713.12)">
            <g transform="matrix(1.61328,0.948796,0.874757,-1.74983,1699.63,1667.23)">
                <g>
                    <path d="M-1.063,-0.982L4.473,-0.982L4.521,-3.84L-2.269,-3.078L-1.063,-0.982Z" style="fill:#cabac4;fill-rule:nonzero;"/>
                </g>
            </g>
        </g>
        <g transform="matrix(1,0,0,1,-1205.07,-713.12)">
            <g transform="matrix(-1.5295,1.09998,1.01414,1.65896,1743.36,1591.41)">
                <g>
                    <path d="M-5.893,1.128L-0.356,1.128L-0.31,-1.73L-7.098,-0.967L-5.893,1.128Z" style="fill:#faba18;fill-rule:nonzero;"/>
                </g>
            </g>
        </g>
        <g transform="matrix(1,0,0,1,-1205.07,-713.12)">
            <g transform="matrix(-1.62238,-0.930356,-0.857756,1.7597,1748.67,1422.62)">
                <g>
                    <path d="M-3.884,4.173L1.653,4.173L1.7,1.315L-5.09,2.077L-3.884,4.173Z" style="fill:#85c6a8;fill-rule:nonzero;"/>
                </g>
            </g>
        </g>
        <g transform="matrix(1,0,0,1,-1205.07,-713.12)">
            <g transform="matrix(1.83517,0,0,1.9905,1609.7,1392.86)">
                <g>
                    <path d="M0,3.037C0,3.037 4.331,-5.102 11.118,3.037C11.118,3.037 6.553,2.474 -1.599,8.139" style="fill:none;fill-rule:nonzero;stroke:#2e1f22;stroke-width:0.75px;"/>
                </g>
            </g>
        </g>
        <g transform="matrix(1,0,0,1,-1205.07,-713.12)">
            <g transform="matrix(1.25547,1.45182,1.33853,-1.36173,1627.63,1382.02)">
                <g>
                    <path d="M-0.534,-2.857C-0.534,-2.857 2.518,2.593 7.133,-2.857" style="fill:none;fill-rule:nonzero;stroke:#2e1f22;stroke-width:0.75px;"/>
                </g>
            </g>
        </g>
        <g transform="matrix(1,0,0,1,-1205.07,-713.12)">
            <g transform="matrix(1.83517,0,0,1.9905,1591.17,1711.1)">
                <g>
                    <path d="M0,-45.866C0,-45.866 -12.081,-43.69 -23.597,-33.518C-35.112,-23.346 -41.441,-4.507 -41.441,-4.507C-41.441,-4.507 -49.427,-9.623 -47.944,-7.837C-46.461,-6.051 -38.642,0 -38.642,0C-38.642,0 -13.068,-24.647 -2.169,-26.745L0,-45.866Z" style="fill:#f8a998;fill-rule:nonzero;"/>
                </g>
            </g>
        </g>
        <g transform="matrix(1,0,0,1,-1205.07,-713.12)">
            <g transform="matrix(1.83517,0,0,1.9905,1530.35,1700.38)">
                <g>
                    <path d="M0,1.193L-7.138,-4.122L-8.256,-2.578C-8.256,-2.578 -14.308,-5.319 -16.848,-3.301L-4.437,6.512L0,1.193Z" style="fill:#a5dacc;fill-rule:nonzero;"/>
                </g>
            </g>
        </g>
        <g transform="matrix(1,0,0,1,-1205.07,-713.12)">
            <g transform="matrix(1.83517,0,0,1.9905,1511.26,1693.1)">
                <g>
                    <path d="M0,3.019L-0.01,3.019C-0.181,3.014 -0.313,2.871 -0.309,2.702L-0.232,0.299C-0.228,0.129 -0.084,0.001 0.085,0C0.255,0.006 0.389,0.149 0.384,0.319L0.308,2.72C0.303,2.887 0.166,3.019 0,3.019" style="fill:#2d202a;fill-rule:nonzero;"/>
                </g>
            </g>
        </g>
        <g transform="matrix(1,0,0,1,-1205.07,-713.12)">
            <g transform="matrix(1.83517,0,0,1.9905,1568,1609.92)">
                <g>
                    <path d="M0,-7.59C0,-7.59 -10.76,-13.498 -26.11,-12.836C-41.462,-12.173 -58.232,-1.51 -58.232,-1.51C-58.232,-1.51 -61.222,-10.511 -61.192,-8.19C-61.164,-5.868 -58.892,3.755 -58.892,3.755C-58.892,3.755 -23.507,0.682 -13.715,5.908L0,-7.59Z" style="fill:#f8a998;fill-rule:nonzero;"/>
                </g>
            </g>
        </g>
        <g transform="matrix(1,0,0,1,-1205.07,-713.12)">
            <g transform="matrix(1.83517,0,0,1.9905,1472.61,1592.41)">
                <g>
                    <path d="M0,12.748L-2.204,4.126L-4.046,4.623C-4.046,4.623 -7.025,-1.315 -10.27,-1.344L-6.795,14.092L0,12.748Z" style="fill:#a5dacc;fill-rule:nonzero;"/>
                </g>
            </g>
        </g>
        <g transform="matrix(1,0,0,1,-1205.07,-713.12)">
            <g transform="matrix(1.83517,0,0,1.9905,1519.4,1662.61)">
                <g>
                    <path d="M0,-40.944C0,-40.944 15.274,-44.657 19.666,-42.92C19.666,-42.92 50.284,-17.061 57.497,-15.125C57.497,-15.125 44.33,1.091 29.53,3.713C29.53,3.713 16.169,-5.926 11.958,-11.48C11.958,-11.48 16.161,-18.515 20.121,-21.299C21.845,-21.67 13.084,-20.833 3.594,-17.977C3.594,-17.977 -1.594,-33.972 0,-40.944" style="fill:#f97a5b;fill-rule:nonzero;"/>
                </g>
            </g>
        </g>
        <g transform="matrix(1,0,0,1,-1205.07,-713.12)">
            <g transform="matrix(1.83517,0,0,1.9905,1559.78,1606.88)">
                <g>
                    <path d="M0,5.597C-0.03,5.597 -0.062,5.592 -0.092,5.582C-0.228,5.54 -0.316,5.41 -0.307,5.269C-0.297,5.109 -0.019,1.329 2.784,0.072C2.938,0 3.122,0.071 3.191,0.226C3.261,0.381 3.192,0.564 3.037,0.633C1.375,1.379 0.715,3.223 0.461,4.36C1.841,3.245 4.351,2.268 4.48,2.218C4.639,2.159 4.817,2.237 4.879,2.395C4.939,2.553 4.86,2.732 4.702,2.793C3.674,3.191 0.872,4.442 0.264,5.449C0.207,5.542 0.106,5.597 0,5.597" style="fill:#2d202a;fill-rule:nonzero;"/>
                </g>
            </g>
        </g>
        <g transform="matrix(1,0,0,1,-1205.07,-713.12)">
            <g transform="matrix(1.83517,0,0,1.9905,1530.47,1581.24)">
                <g>
                    <path d="M0,21.301C-0.117,21.301 -0.23,21.233 -0.281,21.118C-7.467,5.093 -3.104,0.321 -2.916,0.125C-2.797,0.003 -2.602,0 -2.479,0.118C-2.357,0.237 -2.354,0.431 -2.472,0.553C-2.521,0.606 -6.694,5.31 0.281,20.866C0.351,21.022 0.281,21.203 0.126,21.274C0.085,21.292 0.042,21.301 0,21.301" style="fill:#2d202a;fill-rule:nonzero;"/>
                </g>
            </g>
        </g>
        <g transform="matrix(1,0,0,1,-1205.07,-713.12)">
            <g transform="matrix(1.83517,0,0,1.9905,1576.97,1637.11)">
                <g>
                    <path d="M0,15.017C-0.04,15.017 -0.08,15.009 -0.119,14.994C-8.733,11.383 -17.465,0.648 -17.553,0.54C-17.659,0.408 -17.64,0.213 -17.507,0.107C-17.374,0 -17.181,0.021 -17.073,0.153C-16.987,0.26 -8.351,10.875 0.119,14.425C0.276,14.491 0.351,14.671 0.284,14.829C0.234,14.947 0.12,15.017 0,15.017" style="fill:#2d202a;fill-rule:nonzero;"/>
                </g>
            </g>
        </g>
        <g transform="matrix(1,0,0,1,-1205.07,-713.12)">
            <g transform="matrix(1.83517,0,0,1.9905,1569.75,1637.89)">
                <g>
                    <path d="M0,14.89C-0.126,14.89 -0.244,14.812 -0.289,14.688C-0.348,14.528 -0.266,14.351 -0.106,14.292C0.029,14.243 13.447,9.267 20.418,0.161C20.521,0.025 20.715,0 20.85,0.104C20.985,0.207 21.011,0.401 20.907,0.536C13.826,9.786 0.242,14.821 0.105,14.871C0.071,14.884 0.035,14.89 0,14.89" style="fill:#2d202a;fill-rule:nonzero;"/>
                </g>
            </g>
        </g>
        <g transform="matrix(1,0,0,1,-1205.07,-713.12)">
            <g transform="matrix(1.83517,0,0,1.9905,1588.82,1630.65)">
                <g>
                    <path d="M0,12.762C-0.09,12.762 -0.181,12.722 -0.241,12.646C-5.424,6.129 -1.709,0.241 -1.671,0.183C-1.577,0.04 -1.387,0 -1.245,0.093C-1.103,0.185 -1.062,0.375 -1.153,0.518C-1.3,0.743 -4.658,6.102 0.241,12.262C0.348,12.395 0.325,12.589 0.192,12.695C0.136,12.74 0.067,12.762 0,12.762" style="fill:#2d202a;fill-rule:nonzero;"/>
                </g>
            </g>
        </g>
        <g transform="matrix(1,0,0,1,-1205.07,-713.12)">
            <g transform="matrix(-0.930614,1.71559,1.58171,1.00938,1704.91,1431.58)">
                <g>
                    <path d="M20.127,-46.155C20.127,-46.155 -0.922,-47.877 -7.643,-23.411C-14.365,1.053 0.411,14.475 20.127,16.113C44.124,18.106 56.441,-2.059 52.454,-24.897C48.465,-47.735 20.127,-46.155 20.127,-46.155" style="fill:#fdd887;fill-rule:nonzero;"/>
                </g>
            </g>
        </g>
        <g transform="matrix(1,0,0,1,-1205.07,-713.12)">
            <g transform="matrix(1.82154,-0.242195,-0.223295,-1.97571,1620.43,1652.1)">
                <g>
                    <path d="M-4.461,0.151C-4.461,0.151 -34.069,26.062 -37.048,42.996C-37.048,42.996 -11.584,65.94 -4.461,73.897C-4.461,73.897 20.94,60.106 33.899,54.963C33.899,54.963 34.101,22.427 -4.461,0.151" style="fill:#cceae2;fill-rule:nonzero;"/>
                </g>
            </g>
        </g>
        <g transform="matrix(1,0,0,1,-1205.07,-713.12)">
            <g transform="matrix(1.83517,0,0,1.9905,1552.72,1504.77)">
                <g>
                    <path d="M0,-27.538C0,-27.538 4.48,-31.989 4.024,-32.682C3.567,-33.375 -0.656,-30.296 -0.656,-30.296C-0.656,-30.296 3.259,-37.972 2.067,-38.415C0.875,-38.859 -2.344,-33.534 -2.344,-33.534C-2.344,-33.534 -0.728,-41.792 -1.85,-41.259C-2.971,-40.726 -5.041,-34.187 -5.041,-34.187C-5.041,-34.187 -4.799,-40.525 -6.616,-40.071C-8.434,-39.616 -6.644,-32.209 -6.644,-32.209C-6.644,-32.209 -8.017,-36.114 -9.44,-35.416C-10.864,-34.718 -7.061,-28.371 -7.061,-28.371C-7.061,-28.371 -18.94,-4.547 11.327,14.254L22.172,1.156C22.172,1.156 -2.71,-13.661 0,-27.538" style="fill:#f8a998;fill-rule:nonzero;"/>
                </g>
            </g>
        </g>
        <g transform="matrix(1,0,0,1,-1205.07,-713.12)">
            <g transform="matrix(1.83517,0,0,1.9905,1546.6,1443.85)">
                <g>
                    <path d="M0,2.151C-0.025,2.151 -0.051,2.148 -0.076,2.142C-0.24,2.099 -0.339,1.935 -0.299,1.771C-0.282,1.702 0.147,0.082 2.671,0C2.872,0 2.983,0.128 2.989,0.297C2.994,0.467 2.86,0.61 2.691,0.616C0.655,0.681 0.312,1.872 0.299,1.922C0.262,2.06 0.136,2.151 0,2.151" style="fill:#2d202a;fill-rule:nonzero;"/>
                </g>
            </g>
        </g>
        <g transform="matrix(1,0,0,1,-1205.07,-713.12)">
            <g transform="matrix(1.83517,0,0,1.9905,1710.19,1568.76)">
                <g>
                    <path d="M0,25.031C0,25.031 -3.556,30.251 -2.977,30.844C-2.397,31.438 1.167,27.615 1.167,27.615C1.167,27.615 -1.224,35.892 0.031,36.103C1.286,36.313 3.438,30.474 3.438,30.474C3.438,30.474 3.416,38.889 4.416,38.153C5.416,37.417 6.21,30.605 6.21,30.605C6.21,30.605 7.173,36.874 8.871,36.084C10.569,35.293 7.408,28.358 7.408,28.358C7.408,28.358 9.496,31.933 10.762,30.977C12.027,30.022 7.091,24.511 7.091,24.511C7.091,24.511 14.242,-1.132 -19.04,-13.858L-27.206,1.056C-27.206,1.056 0.031,10.891 0,25.031" style="fill:#f8a998;fill-rule:nonzero;"/>
                </g>
            </g>
        </g>
        <g transform="matrix(1,0,0,1,-1205.07,-713.12)">
            <g transform="matrix(1.83517,0,0,1.9905,1699.55,1452.56)">
                <g>
                    <path d="M0,11.725C0,11.725 4.467,-15.009 -21.89,-21.331C-38.886,-25.408 -63.156,-4.889 -49.975,18.704C-39.678,37.133 -5.365,33.754 0,11.725" style="fill:#f8a998;fill-rule:nonzero;"/>
                </g>
            </g>
        </g>
        <g transform="matrix(1,0,0,1,-1205.07,-713.12)">
            <g transform="matrix(1.83517,0,0,1.9905,1650.76,1542.55)">
                <g>
                    <path d="M0,-19.511L-3.965,-8.362L-0.144,-6.646C-0.144,-6.646 -8.54,1.554 -15.961,-4.978C-21.845,-10.158 -18.841,-13.526 -18.841,-13.526L-15.223,-12.183L-9.158,-21.065L0,-19.511Z" style="fill:#f8a998;fill-rule:nonzero;"/>
                </g>
            </g>
        </g>
        <g transform="matrix(1,0,0,1,-1205.07,-713.12)">
            <g transform="matrix(1.83517,0,0,1.9905,1627.85,1465.24)">
                <g>
                    <path d="M0,8.919C-0.098,8.919 -0.195,8.915 -0.292,8.908C-1.17,8.84 -1.9,8.464 -2.464,7.789C-5.063,4.675 -3.075,0.399 -2.989,0.219C-2.916,0.065 -2.731,0 -2.578,0.073C-2.425,0.146 -2.359,0.329 -2.433,0.483C-2.452,0.523 -4.334,4.586 -1.99,7.395C-1.531,7.944 -0.96,8.238 -0.245,8.293C2.182,8.468 5.24,5.811 5.271,5.784C5.398,5.671 5.593,5.685 5.705,5.812C5.817,5.94 5.806,6.135 5.678,6.246C5.549,6.359 2.61,8.919 0,8.919" style="fill:#2d202a;fill-rule:nonzero;"/>
                </g>
            </g>
        </g>
        <g transform="matrix(1,0,0,1,-1205.07,-713.12)">
            <g transform="matrix(-1.53015,1.09892,1.01317,1.65966,1662.78,1495.6)">
                <g>
                    <path d="M3.023,-10.041C6.047,-10.04 8.499,-7.59 8.499,-4.565C8.499,-1.541 6.048,0.91 3.023,0.91C-0.001,0.909 -2.453,-1.542 -2.452,-4.566C-2.453,-7.59 -0.001,-10.042 3.023,-10.041" style="fill:#f97a5b;fill-rule:nonzero;"/>
                </g>
            </g>
        </g>
        <g transform="matrix(1,0,0,1,-1205.07,-713.12)">
            <g transform="matrix(-1.53007,1.09905,1.01329,1.65957,1622.88,1460.07)">
                <g>
                    <path d="M3.023,-10.041C6.047,-10.041 8.498,-7.59 8.498,-4.565C8.499,-1.542 6.047,0.911 3.023,0.911C-0.001,0.91 -2.453,-1.542 -2.453,-4.565C-2.453,-7.589 -0.001,-10.042 3.023,-10.041" style="fill:#f97a5b;fill-rule:nonzero;"/>
                </g>
            </g>
        </g>
        <g transform="matrix(1,0,0,1,-1205.07,-713.12)">
            <g transform="matrix(-1.53005,1.09908,1.01331,1.65956,1659.85,1472.75)">
                <g>
                    <path d="M1.531,-5.086C3.062,-5.085 4.304,-3.845 4.304,-2.312C4.305,-0.781 3.063,0.461 1.531,0.461C-0,0.461 -1.241,-0.78 -1.242,-2.313C-1.242,-3.844 -0,-5.086 1.531,-5.086" style="fill:#2e1f22;fill-rule:nonzero;"/>
                </g>
            </g>
        </g>
        <g transform="matrix(1,0,0,1,-1205.07,-713.12)">
            <g transform="matrix(-1.52995,1.09924,1.01346,1.65945,1632.92,1447.48)">
                <g>
                    <path d="M1.53,-5.085C3.061,-5.085 4.303,-3.844 4.303,-2.312C4.304,-0.781 3.062,0.461 1.53,0.462C-0.001,0.461 -1.242,-0.78 -1.243,-2.312C-1.243,-3.843 -0.001,-5.085 1.53,-5.085" style="fill:#2e1f22;fill-rule:nonzero;"/>
                </g>
            </g>
        </g>
        <g transform="matrix(1,0,0,1,-1205.07,-713.12)">
            <g transform="matrix(-1.05399,1.62948,1.50232,1.1432,1646.03,1511.73)">
                <g>
                    <path d="M4.4,-8.478C4.4,-8.478 4.129,-3.384 0.132,1.36L4.4,2.3L7.451,-8.41L4.4,-8.478Z" style="fill:#f97a5b;fill-rule:nonzero;"/>
                </g>
            </g>
        </g>
        <g transform="matrix(1,0,0,1,-1205.07,-713.12)">
            <g transform="matrix(1.83517,0,0,1.9905,1671.67,1510.93)">
                <g>
                    <path d="M0,-5.893C0,-5.893 10.428,-12.798 10.581,-4.007C10.771,6.905 0.524,4.802 -2.906,1.828C-6.337,-1.147 0,-5.893 0,-5.893" style="fill:#f8a998;fill-rule:nonzero;"/>
                </g>
            </g>
        </g>
        <g transform="matrix(1,0,0,1,-1205.07,-713.12)">
            <g transform="matrix(1.83517,0,0,1.9905,1671.33,1501.49)">
                <g>
                    <path d="M0,4.962C-0.082,4.962 -0.164,4.929 -0.226,4.863C-0.341,4.739 -0.334,4.544 -0.21,4.428C3.082,1.362 5.69,0 7.524,0.37C8.671,0.603 9.059,1.442 9.074,1.478C9.145,1.633 9.074,1.816 8.919,1.885C8.766,1.954 8.584,1.886 8.513,1.732C8.499,1.703 8.218,1.131 7.383,0.97C6.259,0.752 4.101,1.255 0.21,4.88C0.15,4.935 0.075,4.962 0,4.962" style="fill:#2d202a;fill-rule:nonzero;"/>
                </g>
            </g>
        </g>
        <g transform="matrix(1,0,0,1,-1205.07,-713.12)">
            <g transform="matrix(1.83517,0,0,1.9905,1629.07,1457.8)">
                <g>
                    <path d="M0,6.675C-0.162,6.675 -0.299,6.547 -0.307,6.383L-0.609,0.446C-0.616,0.313 -0.537,0.191 -0.413,0.143C-0.293,0.094 -0.15,0.131 -0.065,0.233L2.734,3.593L6.306,0.118C6.427,0 6.622,0.002 6.741,0.124C6.859,0.246 6.857,0.442 6.735,0.56L2.926,4.267C2.864,4.326 2.782,4.364 2.694,4.354C2.609,4.35 2.529,4.309 2.475,4.243L0.053,1.337L0.308,6.352C0.317,6.521 0.186,6.666 0.017,6.675L0,6.675Z" style="fill:#2d202a;fill-rule:nonzero;"/>
                </g>
            </g>
        </g>
        <g transform="matrix(1,0,0,1,-1205.07,-713.12)">
            <g transform="matrix(1.83517,0,0,1.9905,1616.92,1442.52)">
                <g>
                    <path d="M0,-11.83C0,-11.83 8.371,0.699 14.473,-0.035C20.573,-0.77 25.477,-10.012 25.477,-10.012C25.477,-10.012 18.589,-1.148 19.948,4.185C21.309,9.517 35.813,19.412 40.419,18.089C45.024,16.766 61.572,-5.313 40.419,-18.16C18.879,-31.242 2.392,-15.329 0,-11.83" style="fill:#fdd887;fill-rule:nonzero;"/>
                </g>
            </g>
        </g>
        <g transform="matrix(1,0,0,1,-1205.07,-713.12)">
            <g transform="matrix(1.83517,0,0,1.9905,1691.1,1494.42)">
                <g>
                    <path d="M0,-15.262C0,-15.262 0,-5.783 -7.255,3.113C-9.112,5.391 9.459,-3.152 9.056,-9.201C8.697,-14.57 7.148,-20.653 0,-15.262" style="fill:#fdd887;fill-rule:nonzero;"/>
                </g>
            </g>
        </g>
        <g transform="matrix(1,0,0,1,-1205.07,-713.12)">
            <g transform="matrix(1.83517,0,0,1.9905,1713.87,1526.95)">
                <g>
                    <path d="M0,-31.122C0,-31.122 15.599,-33.546 20.139,-23.766C24.678,-13.986 11.941,2.424 11.941,2.424C11.941,2.424 -4.104,-11.275 0,-31.122" style="fill:#fdd887;fill-rule:nonzero;"/>
                </g>
            </g>
        </g>
        <g transform="matrix(1,0,0,1,-1205.07,-713.12)">
            <g transform="matrix(-0.153046,1.98357,1.82878,0.165999,1587.03,1480.63)">
                <g>
                    <path d="M16.146,-20.772C16.146,-20.772 4.738,-10.402 3.562,-9.832C2.386,-9.261 15.318,13.765 16.146,16.34C16.146,16.34 31.021,0.762 32.301,-2.223C33.581,-5.208 17.903,-22.362 16.146,-20.772" style="fill:#cceae2;fill-rule:nonzero;"/>
                </g>
            </g>
        </g>
        <g transform="matrix(1,0,0,1,-1205.07,-713.12)">
            <g transform="matrix(-1.55282,1.06085,0.978067,1.68425,1701.98,1576.86)">
                <g>
                    <path d="M11.01,-35.162C11.01,-35.162 -2.041,-23.611 -5.82,-8.113C-5.82,-8.113 9.313,1.869 11.01,2.637C11.01,2.637 22.899,-16.016 29.582,-19.741L11.01,-35.162Z" style="fill:#cceae2;fill-rule:nonzero;"/>
                </g>
            </g>
        </g>
        <g transform="matrix(1,0,0,1,-1205.07,-713.12)">
            <g transform="matrix(1.83517,0,0,1.9905,1663.05,1536.97)">
                <g>
                    <path d="M0,19.977C-0.033,19.977 -0.067,19.971 -0.101,19.96C-0.261,19.905 -0.347,19.73 -0.291,19.568C3.835,7.589 0.528,0.555 0.495,0.485C0.42,0.332 0.484,0.148 0.637,0.074C0.79,0 0.974,0.062 1.049,0.215C1.191,0.508 4.509,7.528 0.292,19.769C0.248,19.897 0.128,19.977 0,19.977" style="fill:#2d202a;fill-rule:nonzero;"/>
                </g>
            </g>
        </g>
        <g transform="matrix(1,0,0,1,-1205.07,-713.12)">
            <g transform="matrix(1.83517,0,0,1.9905,1573.51,1510.09)">
                <g>
                    <path d="M0,14.166C-0.064,14.166 -0.129,14.145 -0.184,14.104C-0.32,14.003 -0.349,13.81 -0.247,13.674C0.137,13.158 9.219,1.034 14.876,0.029C15.046,0 15.204,0.111 15.233,0.278C15.264,0.446 15.152,0.606 14.984,0.636C9.566,1.599 0.34,13.917 0.248,14.042C0.187,14.123 0.094,14.166 0,14.166" style="fill:#2d202a;fill-rule:nonzero;"/>
                </g>
            </g>
        </g>
        <g transform="matrix(1,0,0,1,-1205.07,-713.12)">
            <g transform="matrix(1.83517,0,0,1.9905,1631.06,1526.26)">
                <g>
                    <path d="M0,8.852C-1.479,8.852 -2.931,8.551 -4.184,7.751C-9.135,4.594 -10.479,-0.734 -10.533,-0.96C-10.572,-1.125 -10.472,-1.291 -10.306,-1.332C-10.138,-1.372 -9.975,-1.27 -9.935,-1.105C-9.921,-1.052 -8.589,4.212 -3.853,7.232C0.838,10.224 8.96,5.512 9.04,5.464C9.187,5.378 9.375,5.426 9.462,5.574C9.549,5.72 9.499,5.91 9.354,5.996C9.094,6.148 4.428,8.852 0,8.852" style="fill:#2d202a;fill-rule:nonzero;"/>
                </g>
            </g>
        </g>
        <g transform="matrix(1,0,0,1,-1205.07,-713.12)">
            <g transform="matrix(1.83517,0,0,1.9905,1559.67,1643.39)">
                <g>
                    <path d="M0,-37.03C0,-37.03 2.602,-30.571 13.183,-21.682C23.765,-12.794 37.114,-9.62 37.114,-9.62L27.256,0C27.256,0 4.252,-13.079 -4.58,-31.832C-4.58,-31.832 -1.582,-36.003 0,-37.03" style="fill:#a5dacc;fill-rule:nonzero;"/>
                </g>
            </g>
        </g>
        <g transform="matrix(1,0,0,1,-1205.07,-713.12)">
            <g transform="matrix(1.83517,0,0,1.9905,1672.56,1414.6)">
                <g>
                    <path d="M0,23.837C-0.196,23.837 -0.362,23.684 -0.374,23.485C-1.239,9.653 3.346,0.353 3.393,0.261C3.485,0.074 3.713,0 3.896,0.094C4.081,0.187 4.155,0.412 4.062,0.597C4.018,0.688 -0.478,9.821 0.374,23.439C0.387,23.646 0.23,23.823 0.023,23.836C0.016,23.837 0.008,23.837 0,23.837" style="fill:#2e1f22;fill-rule:nonzero;"/>
                </g>
            </g>
        </g>
        <g transform="matrix(1,0,0,1,-1205.07,-713.12)">
            <g transform="matrix(1.83517,0,0,1.9905,1690.37,1414.62)">
                <g>
                    <path d="M0,28.742C-0.049,28.742 -0.098,28.732 -0.145,28.713C-0.336,28.633 -0.426,28.413 -0.346,28.222C3.497,19.052 2.748,12.038 1.442,7.769C0.034,3.164 -2.289,0.699 -2.312,0.675C-2.455,0.525 -2.45,0.288 -2.3,0.145C-2.151,0 -1.913,0.008 -1.771,0.157C-1.673,0.259 7.877,10.541 0.346,28.512C0.286,28.656 0.146,28.742 0,28.742" style="fill:#2e1f22;fill-rule:nonzero;"/>
                </g>
            </g>
        </g>
        <g transform="matrix(1,0,0,1,-1205.07,-713.12)">
            <g transform="matrix(1.83517,0,0,1.9905,1726.96,1473.14)">
                <g>
                    <path d="M0,14.18C-0.193,14.214 -0.376,14.01 -0.375,13.802C-0.306,3.885 -5.178,0.741 -5.228,0.71C-5.403,0.601 -5.457,0.369 -5.348,0.194C-5.237,0.017 -5.005,-0.034 -4.831,0.074C-4.616,0.207 0.447,3.474 0.375,13.808C0.374,14.014 0.206,14.18 0,14.18" style="fill:#2e1f22;fill-rule:nonzero;"/>
                </g>
            </g>
        </g>
        <g transform="matrix(1,0,0,1,-1205.07,-713.12)">
            <g transform="matrix(1.83517,0,0,1.9905,1732.63,1466.88)">
                <g>
                    <path d="M0,14.031C-0.193,14.031 -0.357,13.884 -0.374,13.688C-0.382,13.589 -1.297,3.712 -7.637,2.226C-7.774,2.194 -7.883,2.086 -7.916,1.948C-7.948,1.81 -7.9,1.665 -7.792,1.574C-7.716,1.51 -5.882,0 -3.348,0.572C-0.842,1.137 1.379,3.503 3.254,7.602C3.34,7.791 3.258,8.013 3.069,8.099C2.882,8.185 2.657,8.103 2.572,7.915C0.803,4.046 -1.24,1.822 -3.501,1.306C-4.839,0.999 -5.976,1.389 -6.649,1.736C-0.52,3.918 0.339,13.214 0.374,13.625C0.392,13.831 0.238,14.012 0.032,14.03C0.021,14.03 0.01,14.031 0,14.031" style="fill:#2e1f22;fill-rule:nonzero;"/>
                </g>
            </g>
        </g>
        <g transform="matrix(1,0,0,1,-1205.07,-713.12)">
            <g transform="matrix(1.83517,0,0,1.9905,1628.23,1397.18)">
                <g>
                    <path d="M0,10.677C-0.117,10.677 -0.232,10.622 -0.306,10.519C-0.426,10.351 -0.386,10.116 -0.217,9.996C0.36,9.586 14.033,0 24.302,4.45C24.491,4.532 24.579,4.753 24.496,4.944C24.415,5.134 24.194,5.224 24.003,5.138C14.131,0.862 0.355,10.51 0.217,10.608C0.151,10.655 0.075,10.677 0,10.677" style="fill:#2e1f22;fill-rule:nonzero;"/>
                </g>
            </g>
        </g>
        <g transform="matrix(1,0,0,1,-1205.07,-713.12)">
            <g transform="matrix(1.83517,0,0,1.9905,1641.6,1409.57)">
                <g>
                    <path d="M0,12.44C-0.098,12.44 -0.195,12.402 -0.269,12.327C-0.413,12.178 -0.41,11.941 -0.262,11.796C0.233,11.314 11.92,0 17.928,0C18.172,0.004 18.332,0.16 18.331,0.377C18.33,0.584 18.162,0.75 17.956,0.75L17.927,0.75C12.223,0.75 0.381,12.217 0.262,12.334C0.188,12.405 0.095,12.44 0,12.44" style="fill:#2e1f22;fill-rule:nonzero;"/>
                </g>
            </g>
        </g>
    </g>
</svg>
