<?xml version="1.0" encoding="UTF-8" standalone="no"?>
<!DOCTYPE svg PUBLIC "-//W3C//DTD SVG 1.1//EN" "http://www.w3.org/Graphics/SVG/1.1/DTD/svg11.dtd">
<svg width="396px" height="149px" version="1.1" xmlns="http://www.w3.org/2000/svg" xmlns:xlink="http://www.w3.org/1999/xlink" xml:space="preserve" xmlns:serif="http://www.serif.com/" style="fill-rule:evenodd;clip-rule:evenodd;stroke-linejoin:round;stroke-miterlimit:2;">
    <g transform="matrix(1,0,0,1,-368.254,-138.574)">
        <g transform="matrix(2.15866,0,0,2.15866,427.376,228.855)">
            <path d="M0,-41.206C-0.034,-41.206 -0.068,-41.203 -0.102,-41.197C-0.736,-41.09 -1.34,-40.035 -1.717,-38.373C-2.213,-36.188 -2.006,-33.909 -1.127,-31.585C-0.587,-32.068 -0.167,-32.554 0.159,-33.008C2.18,-35.822 1.859,-39.06 0.986,-40.461C0.687,-40.94 0.333,-41.206 0,-41.206M121.984,-39.448C121.923,-39.448 121.864,-39.436 121.811,-39.414C121.016,-39.076 120.507,-36.322 122.363,-30.117C122.634,-29.215 122.941,-28.371 123.285,-27.586C123.325,-27.698 123.363,-27.809 123.399,-27.918C124.975,-32.604 124.329,-36.409 123.298,-38.244C122.875,-38.995 122.372,-39.448 121.984,-39.448M70.41,-0.183C66.939,-0.183 63.377,-0.366 59.739,-0.738C42.229,-2.525 24.359,-8.512 11.937,-16.753C5.171,-21.241 0.658,-25.962 -1.37,-30.562C-7.71,-25.685 -19.929,-27.548 -27.151,-29.258C-27.316,-29.297 -27.419,-29.464 -27.38,-29.629C-27.341,-29.795 -27.175,-29.898 -27.009,-29.858C-12.032,-26.312 -4.948,-28.561 -1.624,-31.169C-2.612,-33.675 -2.856,-36.142 -2.319,-38.509C-1.745,-41.035 -0.852,-41.696 -0.205,-41.805C0.417,-41.911 1.04,-41.538 1.509,-40.787C2.634,-38.982 2.719,-35.516 0.659,-32.649C0.208,-32.021 -0.307,-31.462 -0.877,-30.965C1.062,-26.432 5.527,-21.744 12.277,-17.267C24.621,-9.078 42.387,-3.128 59.802,-1.351C79.942,0.705 97.807,-3.024 110.102,-11.852C117.909,-17.457 121.412,-22.89 122.978,-26.776C122.518,-27.74 122.116,-28.795 121.773,-29.94C119.791,-36.565 120.368,-39.471 121.569,-39.98C122.3,-40.29 123.165,-39.738 123.835,-38.546C124.98,-36.508 125.62,-32.594 123.983,-27.722C123.881,-27.414 123.77,-27.108 123.651,-26.802C125.258,-23.563 127.563,-21.442 130.529,-20.477C140.651,-17.187 155.362,-28.277 155.511,-28.389C155.644,-28.493 155.838,-28.467 155.941,-28.331C156.045,-28.196 156.019,-28.002 155.884,-27.899C155.271,-27.432 140.766,-16.502 130.339,-19.891C127.355,-20.862 125.013,-22.927 123.344,-26.05C121.124,-20.885 116.706,-15.835 110.462,-11.351C100.27,-4.034 86.307,-0.183 70.41,-0.183" style="fill:#413940;fill-rule:nonzero;"/>
        </g>
        <g transform="matrix(2.15866,0,0,2.15866,433.809,244.797)">
            <path d="M0,-31.59L20.646,-19.947L-4.699,0L0,-31.59Z" style="fill:#c0ebe2;fill-rule:nonzero;"/>
        </g>
        <g transform="matrix(2.15866,0,0,2.15866,484.414,270.459)">
            <path d="M0,-31.937L22.147,-23.492L0.046,0L0,-31.937Z" style="fill:#ff7b59;fill-rule:nonzero;"/>
        </g>
        <g transform="matrix(2.15866,0,0,2.15866,536.239,287.544)">
            <path d="M0,-30.243L23.686,-29.329L10.265,0L0,-30.243Z" style="fill:#ffe5ad;fill-rule:nonzero;"/>
        </g>
        <g transform="matrix(2.15866,0,0,2.15866,591.245,254.444)">
            <path d="M0,-12.558L21.564,-22.395L22.771,9.837L0,-12.558Z" style="fill:#ff7b59;fill-rule:nonzero;"/>
        </g>
        <g transform="matrix(2.15866,0,0,2.15866,640.129,226.497)">
            <path d="M0,-7.242L20.255,-19.553L25.253,12.311L0,-7.242Z" style="fill:#c0ebe2;fill-rule:nonzero;"/>
        </g>
    </g>
</svg>
