<?xml version="1.0" encoding="UTF-8" standalone="no"?>
<!DOCTYPE svg PUBLIC "-//W3C//DTD SVG 1.1//EN" "http://www.w3.org/Graphics/SVG/1.1/DTD/svg11.dtd">
<svg width="181px" height="216px" version="1.1" xmlns="http://www.w3.org/2000/svg" xmlns:xlink="http://www.w3.org/1999/xlink" xml:space="preserve" xmlns:serif="http://www.serif.com/" style="fill-rule:evenodd;clip-rule:evenodd;stroke-linecap:round;stroke-linejoin:round;stroke-miterlimit:10;">
    <g transform="matrix(1,0,0,1,-52.9585,-43.4697)">
        <g id="niño.svg" transform="matrix(0.382673,0,0,0.382673,143.269,151.001)">
            <g transform="matrix(1,0,0,1,-236,-281)">
                <g transform="matrix(1,0,0,1,-579.173,-33.9731)">
                    <g transform="matrix(3.66155,1.98851,-1.98851,3.66155,693.504,218.207)">
                        <path d="M0,-13.751C0,-13.751 -5.55,-16.663 -8.755,-14.208C-11.959,-11.753 -10.989,-6.314 -10.231,-4.261C-9.474,-2.208 -6.401,2.912 -1.368,1.351C2.668,0.263 3.922,-2.562 3.922,-2.562L0,-13.751Z" style="fill:#e4cdb9;fill-rule:nonzero;"/>
                    </g>
                    <g transform="matrix(3.66155,1.98851,-1.98851,3.66155,691.272,214.494)">
                        <path d="M0,-13.251C-0.103,-12.145 0.083,-11 0.253,-9.906C0.423,-8.815 0.629,-7.73 0.872,-6.652C1.365,-4.459 2.007,-2.301 2.786,-0.191C2.887,0.082 3.329,-0.036 3.226,-0.313C2.452,-2.402 1.812,-4.541 1.319,-6.714C1.074,-7.791 0.863,-8.875 0.688,-9.965C0.512,-11.062 0.418,-12.197 0.114,-13.267C0.095,-13.333 0.006,-13.314 0,-13.251" style="fill:#272727;fill-rule:nonzero;"/>
                    </g>
                    <g transform="matrix(3.66155,1.98851,-1.98851,3.66155,670.874,184.778)">
                        <path d="M0,-4.194C0.548,-3.718 1.19,-3.35 1.812,-2.981C2.465,-2.592 3.14,-2.24 3.816,-1.894C5.156,-1.21 6.523,-0.588 7.917,-0.021C8.225,0.104 8.36,-0.396 8.055,-0.519C6.665,-1.08 5.292,-1.688 3.945,-2.345C3.296,-2.663 2.657,-2.998 2.013,-3.324C1.365,-3.651 0.728,-4.02 0.049,-4.28C0.002,-4.298 -0.038,-4.227 0,-4.194" style="fill:#272727;fill-rule:nonzero;"/>
                    </g>
                    <g transform="matrix(3.66155,1.98851,-1.98851,3.66155,688.028,207.323)">
                        <path d="M0,-9.951C-0.276,-9.716 -0.363,-9.297 -0.487,-8.967C-0.639,-8.559 -0.79,-8.152 -0.94,-7.744C-1.233,-6.947 -1.542,-6.157 -1.856,-5.368C-2.496,-3.762 -3.198,-2.18 -3.961,-0.629C-4.129,-0.287 -3.617,0.015 -3.448,-0.329C-2.68,-1.89 -1.98,-3.484 -1.352,-5.107C-1.039,-5.914 -0.755,-6.734 -0.49,-7.558C-0.356,-7.972 -0.231,-8.385 -0.119,-8.804C-0.025,-9.155 0.153,-9.576 0.05,-9.937C0.043,-9.961 0.017,-9.966 0,-9.951" style="fill:#272727;fill-rule:nonzero;"/>
                    </g>
                    <g transform="matrix(-3.76564,-1.78355,-1.78355,3.76564,849.359,495.038)">
                        <path d="M0,-20.877L-26.831,-13.231C-26.831,-13.231 -31.25,-18.511 -33.246,-16.873C-34.148,-16.242 -31.467,-13.291 -31.467,-13.291C-31.467,-13.291 -40.058,-15.108 -40.12,-13.508C-40.182,-11.906 -35.309,-11.157 -35.309,-11.157C-35.309,-11.157 -41.105,-9.558 -41.183,-8.402C-41.261,-7.246 -34.682,-8.426 -34.682,-8.426C-34.682,-8.426 -40.134,-4.974 -39.253,-4.06C-38.371,-3.145 -32.751,-5.466 -32.751,-5.466C-32.751,-5.466 -36.621,-1.859 -35.664,-0.93C-34.706,0 -27.17,-4.757 -27.17,-4.757L1.623,-10.57L0,-20.877Z" style="fill:#e4cdb9;fill-rule:nonzero;"/>
                    </g>
                    <g transform="matrix(-4.16667,0,0,4.16667,745.207,477.517)">
                        <path d="M0,-24.007L26.006,-13.903C26.006,-13.903 30.896,-18.752 32.731,-16.936C33.57,-16.224 30.627,-13.534 30.627,-13.534C30.627,-13.534 39.35,-14.547 39.263,-12.946C39.176,-11.347 34.255,-11.053 34.255,-11.053C34.255,-11.053 39.878,-8.923 39.848,-7.765C39.818,-6.607 33.377,-8.392 33.377,-8.392C33.377,-8.392 38.485,-4.448 37.522,-3.619C36.561,-2.791 31.18,-5.624 31.18,-5.624C31.18,-5.624 34.698,-1.673 33.659,-0.836C32.619,0 25.558,-5.436 25.558,-5.436L-2.572,-13.895L0,-24.007Z" style="fill:#e4cdb9;fill-rule:nonzero;"/>
                    </g>
                    <g transform="matrix(-4.16667,0,0,4.16667,1005.39,294.85)">
                        <path d="M0,-13.751C0,-13.751 -5.55,-16.663 -8.755,-14.208C-11.959,-11.753 -10.989,-6.314 -10.231,-4.261C-9.474,-2.208 -6.401,2.912 -1.368,1.351C2.668,0.263 3.922,-2.562 3.922,-2.562L0,-13.751Z" style="fill:#e4cdb9;fill-rule:nonzero;"/>
                    </g>
                    <g transform="matrix(-4.16667,0,0,4.16667,1006.44,301.776)">
                        <path d="M0,-34.505C2.731,-49.133 18.874,-55.686 25.108,-57.374C31.343,-59.062 48.586,-61.548 58.325,-50.296C68.063,-39.044 79.376,-14.797 68.255,-4.049C57.135,6.7 48.859,6.433 52.81,24.212L47.581,25.627L42.352,27.043C36.792,9.699 29.783,14.106 14.758,10.435C-0.267,6.766 -2.731,-19.876 0,-34.505" style="fill:#e4cdb9;fill-rule:nonzero;"/>
                    </g>
                    <g transform="matrix(-4.16667,0,0,4.16667,1009.13,292.653)">
                        <path d="M0,-13.251C-0.103,-12.145 0.083,-11 0.253,-9.906C0.423,-8.815 0.629,-7.73 0.872,-6.652C1.365,-4.459 2.007,-2.301 2.786,-0.191C2.887,0.082 3.329,-0.036 3.226,-0.313C2.452,-2.402 1.812,-4.541 1.319,-6.714C1.074,-7.791 0.863,-8.875 0.688,-9.965C0.512,-11.062 0.418,-12.197 0.114,-13.267C0.095,-13.333 0.006,-13.314 0,-13.251" style="fill:#272727;fill-rule:nonzero;"/>
                    </g>
                    <g transform="matrix(-4.16667,0,0,4.16667,1041.23,276.274)">
                        <path d="M0,-4.194C0.548,-3.718 1.19,-3.35 1.812,-2.981C2.465,-2.592 3.14,-2.24 3.816,-1.894C5.156,-1.21 6.523,-0.588 7.917,-0.021C8.225,0.104 8.36,-0.396 8.055,-0.519C6.665,-1.08 5.292,-1.688 3.945,-2.345C3.296,-2.663 2.657,-2.998 2.013,-3.324C1.365,-3.651 0.728,-4.02 0.049,-4.28C0.002,-4.298 -0.038,-4.227 0,-4.194" style="fill:#272727;fill-rule:nonzero;"/>
                    </g>
                    <g transform="matrix(-4.16667,0,0,4.16667,1015.4,287.899)">
                        <path d="M0,-9.951C-0.276,-9.716 -0.363,-9.297 -0.487,-8.967C-0.639,-8.559 -0.79,-8.152 -0.94,-7.744C-1.233,-6.947 -1.542,-6.157 -1.856,-5.368C-2.496,-3.762 -3.198,-2.18 -3.961,-0.629C-4.129,-0.287 -3.617,0.015 -3.448,-0.329C-2.68,-1.89 -1.98,-3.484 -1.352,-5.107C-1.039,-5.914 -0.755,-6.734 -0.49,-7.558C-0.356,-7.972 -0.231,-8.385 -0.119,-8.804C-0.025,-9.155 0.153,-9.576 0.05,-9.937C0.043,-9.961 0.017,-9.966 0,-9.951" style="fill:#272727;fill-rule:nonzero;"/>
                    </g>
                    <g transform="matrix(-4.16667,0,0,4.16667,1732.46,-1485.8)">
                        <g opacity="0.3">
                            <g transform="matrix(-0.261378,-0.965237,-0.965237,0.261378,231.247,407.149)">
                                <path d="M-6.481,-8.469C-10.189,-8.469 -13.196,-5.463 -13.194,-1.754C-13.195,1.954 -10.189,4.96 -6.481,4.959C-2.772,4.959 0.234,1.953 0.234,-1.755C0.233,-5.464 -2.773,-8.47 -6.481,-8.469" style="fill:#bb7f4d;fill-rule:nonzero;"/>
                            </g>
                            <g transform="matrix(-0.261397,-0.965231,-0.965231,0.261397,185.688,419.484)">
                                <path d="M-6.481,-8.469C-10.189,-8.469 -13.196,-5.463 -13.194,-1.755C-13.195,1.953 -10.189,4.96 -6.481,4.958C-2.772,4.959 0.234,1.953 0.233,-1.756C0.233,-5.464 -2.773,-8.47 -6.481,-8.469" style="fill:#bb7f4d;fill-rule:nonzero;"/>
                            </g>
                        </g>
                    </g>
                    <g transform="matrix(-4.16667,0,0,4.16667,838.08,226.419)">
                        <path d="M0,1.068C-0.556,0.201 -1.485,-0.469 -2.313,-1.06C-3.105,-1.625 -4.037,-2.247 -5.062,-2.058C-5.976,-1.89 -6.542,-1.125 -6.96,-0.358C-7.499,0.632 -7.911,1.713 -8.1,2.827C-8.157,3.165 -7.647,3.315 -7.578,2.97C-7.382,1.998 -7.082,1.062 -6.631,0.175C-6.266,-0.544 -5.799,-1.403 -4.921,-1.546C-3.983,-1.699 -3.094,-1.022 -2.376,-0.512C-1.609,0.032 -0.951,0.714 -0.181,1.249C-0.071,1.324 0.069,1.175 0,1.068" style="fill:#272727;fill-rule:nonzero;"/>
                    </g>
                    <g transform="matrix(1.08885,-4.02188,4.02188,1.08885,820.904,150.401)">
                        <path d="M-8.218,-10.74C-12.92,-10.74 -16.733,-6.928 -16.732,-2.226C-16.733,2.476 -12.92,6.289 -8.218,6.289C-3.517,6.289 0.296,2.476 0.296,-2.226C0.296,-6.928 -3.516,-10.74 -8.218,-10.74" style="fill:#fff;fill-rule:nonzero;"/>
                    </g>
                    <g transform="matrix(-1.08885,4.02188,-4.02188,-1.08885,944.775,183.938)">
                        <path d="M8.219,-6.289C12.921,-6.289 16.733,-2.476 16.733,2.225C16.733,6.927 12.92,10.74 8.219,10.74C3.517,10.74 -0.296,6.927 -0.296,2.225C-0.296,-2.477 3.517,-6.289 8.219,-6.289" style="fill:#fff;fill-rule:nonzero;"/>
                    </g>
                    <g transform="matrix(-0.313748,4.15484,-4.15484,-0.313748,821.342,139.448)">
                        <g>
                            <clipPath id="_clip1">
                                <path d="M1.92,2.037C2.804,-2.582 7.265,-5.609 11.882,-4.725C16.501,-3.843 19.529,0.619 18.645,5.237C17.761,9.855 13.302,12.884 8.683,11.999C4.822,11.262 2.073,8.025 1.791,4.283C1.735,3.549 1.774,2.795 1.92,2.037Z"/>
                            </clipPath>
                            <g clip-path="url(#_clip1)">
                                <path d="M8.489,-7.872C13.19,-7.872 17.001,-4.06 17.002,0.641C17.001,5.343 13.19,9.154 8.489,9.154C3.787,9.154 -0.024,5.342 -0.024,0.64C-0.024,-4.061 3.788,-7.872 8.489,-7.872" style="fill:#272727;fill-rule:nonzero;"/>
                            </g>
                        </g>
                    </g>
                    <g transform="matrix(2.43285,-3.38265,3.38265,2.43285,964.358,197.105)">
                        <g>
                            <clipPath id="_clip2">
                                <path d="M-0.685,-7.852C0.967,-3.449 -1.262,1.459 -5.665,3.111C-10.068,4.765 -14.975,2.535 -16.628,-1.868C-18.28,-6.27 -16.051,-11.179 -11.65,-12.83C-7.969,-14.212 -3.935,-12.881 -1.745,-9.836C-1.315,-9.238 -0.956,-8.575 -0.685,-7.852Z"/>
                            </clipPath>
                            <g clip-path="url(#_clip2)">
                                <path d="M-6.914,-13.492C-12.818,-13.447 -16.871,-7.713 -14.943,-2.132C-13.777,1.247 -10.489,3.569 -6.914,3.543C-1.011,3.499 3.043,-2.236 1.115,-7.816C-0.053,-11.195 -3.339,-13.518 -6.914,-13.492" style="fill:#272727;fill-rule:nonzero;"/>
                            </g>
                        </g>
                    </g>
                    <g transform="matrix(-4.02146,1.09039,-1.09039,-4.02146,869.103,571.725)">
                        <path d="M7.725,-3.777C3.325,9.814 -7.217,43.673 -7.217,43.673L7.725,52.411L41.79,16.145L7.725,-3.777Z" style="fill:#c0ebe2;fill-rule:nonzero;"/>
                    </g>
                    <g transform="matrix(3.4999,2.26092,-2.26092,3.4999,872.284,473.274)">
                        <path d="M-15.467,-14.309L-1.433,-14.309L-1.639,-0.776L-8.165,-2.009L-15.467,-14.309Z" style="fill:#c0ebe2;fill-rule:nonzero;"/>
                    </g>
                    <g transform="matrix(-4.11119,0.677672,-0.677672,-4.11119,775.192,365.067)">
                        <path d="M-1.184,-1.245L13.025,-1.245L14.404,-14.597L7.521,-12.593L-1.184,-1.245Z" style="fill:#c0ebe2;fill-rule:nonzero;"/>
                    </g>
                    <g transform="matrix(-1.9583,3.67779,-3.67779,-1.9583,751.041,379.42)">
                        <path d="M-3.116,-5.19L8.643,-5.19" style="fill:none;fill-rule:nonzero;stroke:#272727;stroke-width:0.44px;"/>
                    </g>
                    <g transform="matrix(-0.15795,4.16367,-4.16367,-0.15795,824.422,421.074)">
                        <path d="M-5.736,-5.958L6.188,-5.958" style="fill:none;fill-rule:nonzero;stroke:#272727;stroke-width:0.44px;"/>
                    </g>
                    <g transform="matrix(-4.16667,0,0,4.16667,763.42,184.651)">
                        <path d="M0,-22.186C-9.738,-33.438 -26.982,-30.952 -33.216,-29.264C-39.451,-27.576 -55.594,-21.023 -58.325,-6.395C-59.25,-1.438 -59.576,4.898 -59.022,11.252L-46.047,-6.516C-46.047,-6.516 -46.397,-1.336 -44.945,-1.336C-43.493,-1.336 -30.097,-12.235 -30.097,-12.235C-30.097,-12.235 -30.016,-6.987 -28.704,-6.516C-27.391,-6.045 -10.141,-23.11 -10.141,-23.11C-1.652,-9.397 8.375,-9.385 8.474,-9.385C5.93,-14.336 2.897,-18.838 0,-22.186" style="fill:#ffc058;fill-rule:nonzero;"/>
                    </g>
                    <g transform="matrix(-4.16667,0,0,4.16667,801.182,31.9152)">
                        <path d="M0,8.203C0,8.203 -0.187,2.344 1.781,1.172C3.75,0 8.063,0.703 8.063,0.703C8.063,0.703 1.922,3.656 0,8.203" style="fill:#ffc058;fill-rule:nonzero;"/>
                    </g>
                    <g transform="matrix(-4.16667,0,0,4.16667,815.733,134.985)">
                        <path d="M0,-15.359C-0.791,-14.348 -1.621,-13.368 -2.413,-12.356C-3.207,-11.34 -4.008,-10.332 -4.823,-9.333C-6.452,-7.334 -8.126,-5.371 -9.848,-3.451C-10.796,-2.394 -11.81,-1.378 -12.668,-0.245C-12.795,-0.078 -12.535,0.084 -12.395,-0.034C-11.415,-0.867 -10.564,-1.857 -9.706,-2.812C-8.844,-3.772 -7.995,-4.743 -7.157,-5.723C-5.495,-7.672 -3.883,-9.665 -2.335,-11.705C-1.911,-12.264 -1.491,-12.827 -1.081,-13.398C-0.648,-14.001 -0.268,-14.631 0.147,-15.245C0.207,-15.332 0.066,-15.443 0,-15.359" style="fill:#272727;fill-rule:nonzero;"/>
                    </g>
                    <g transform="matrix(-4.16667,0,0,4.16667,828.911,120.558)">
                        <path d="M0,-12.085C-0.769,-11.467 -1.451,-10.704 -2.127,-9.987C-2.811,-9.264 -3.479,-8.525 -4.129,-7.771C-5.428,-6.262 -6.672,-4.705 -7.859,-3.106C-8.533,-2.2 -9.197,-1.285 -9.792,-0.323C-9.924,-0.109 -9.604,0.063 -9.461,-0.13C-8.275,-1.734 -7.149,-3.378 -5.919,-4.95C-4.714,-6.49 -3.451,-7.983 -2.153,-9.445C-1.406,-10.288 -0.583,-11.088 0.111,-11.975C0.173,-12.054 0.08,-12.148 0,-12.085" style="fill:#272727;fill-rule:nonzero;"/>
                    </g>
                    <g transform="matrix(-4.16667,0,0,4.16667,850.605,159.254)">
                        <path d="M0,-21.616C-1.558,-20.459 -2.985,-19.118 -4.424,-17.82C-5.892,-16.497 -7.339,-15.151 -8.773,-13.792C-11.656,-11.06 -14.476,-8.265 -17.237,-5.412C-18.79,-3.807 -20.324,-2.186 -21.842,-0.55C-22.059,-0.316 -21.708,0.036 -21.491,-0.199C-16.148,-6.023 -10.542,-11.595 -4.771,-16.995C-3.161,-18.502 -1.465,-19.941 0.064,-21.533C0.104,-21.574 0.05,-21.652 0,-21.616" style="fill:#272727;fill-rule:nonzero;"/>
                    </g>
                    <g transform="matrix(-4.16667,0,0,4.16667,880.129,146.007)">
                        <path d="M0,-17.35C-1.11,-16.254 -2.161,-15.088 -3.234,-13.956C-4.311,-12.821 -5.392,-11.69 -6.489,-10.576C-8.684,-8.344 -10.924,-6.161 -13.219,-4.031C-14.508,-2.833 -15.834,-1.675 -17.127,-0.481C-17.352,-0.274 -17.024,0.04 -16.795,-0.15C-14.375,-2.156 -12.089,-4.347 -9.842,-6.543C-7.59,-8.744 -5.386,-10.997 -3.279,-13.337C-2.127,-14.618 -0.958,-15.913 0.08,-17.288C0.115,-17.335 0.04,-17.39 0,-17.35" style="fill:#272727;fill-rule:nonzero;"/>
                    </g>
                    <g transform="matrix(-4.16667,0,0,4.16667,910.153,177.533)">
                        <path d="M0,-23.798C-3.235,-21.49 -6.163,-18.716 -8.835,-15.783C-11.511,-12.845 -13.941,-9.682 -16.087,-6.337C-17.299,-4.447 -18.494,-2.497 -19.453,-0.465C-19.585,-0.186 -19.186,0.06 -19.032,-0.219C-18.074,-1.951 -17.155,-3.694 -16.108,-5.377C-15.064,-7.056 -13.949,-8.69 -12.768,-10.276C-10.399,-13.457 -7.753,-16.439 -4.893,-19.187C-3.279,-20.736 -1.589,-22.201 0.109,-23.657C0.185,-23.723 0.083,-23.858 0,-23.798" style="fill:#272727;fill-rule:nonzero;"/>
                    </g>
                    <g transform="matrix(-4.16667,0,0,4.16667,943.5,139.821)">
                        <path d="M0,-10.585C-1.621,-9.062 -3.14,-7.476 -4.53,-5.735C-5.205,-4.892 -5.85,-4.024 -6.469,-3.139C-7.112,-2.219 -7.735,-1.297 -8.211,-0.278C-8.294,-0.101 -8.067,0.027 -7.952,-0.127C-7.301,-0.993 -6.738,-1.914 -6.131,-2.813C-5.517,-3.723 -4.874,-4.613 -4.208,-5.486C-2.877,-7.231 -1.463,-8.945 0.044,-10.541C0.072,-10.57 0.029,-10.612 0,-10.585" style="fill:#272727;fill-rule:nonzero;"/>
                    </g>
                    <g transform="matrix(-4.16667,0,0,4.16667,786.493,121.086)">
                        <path d="M0,-9.115C1.379,-7.726 2.667,-6.235 3.854,-4.68C4.437,-3.918 4.989,-3.133 5.511,-2.327C5.767,-1.931 6.013,-1.53 6.257,-1.127C6.5,-0.726 6.706,-0.244 7.061,0.071C7.145,0.146 7.257,0.072 7.24,-0.034C7.164,-0.503 6.851,-0.932 6.612,-1.335C6.372,-1.74 6.119,-2.137 5.86,-2.531C5.323,-3.346 4.753,-4.14 4.154,-4.912C2.94,-6.476 1.577,-7.899 0.091,-9.206C0.029,-9.261 -0.059,-9.175 0,-9.115" style="fill:#272727;fill-rule:nonzero;"/>
                    </g>
                    <g transform="matrix(-4.16667,0,0,4.16667,787.409,115.518)">
                        <path d="M0,-5.102C0.301,-4.632 0.696,-4.213 1.056,-3.788C1.444,-3.328 1.838,-2.873 2.234,-2.421C2.619,-1.981 3.003,-1.541 3.388,-1.102C3.581,-0.882 3.772,-0.662 3.965,-0.443C4.151,-0.232 4.342,0.029 4.594,0.159C4.726,0.225 4.928,0.112 4.867,-0.051C4.778,-0.29 4.587,-0.488 4.418,-0.678C4.225,-0.896 4.028,-1.112 3.833,-1.329C3.43,-1.775 3.028,-2.22 2.625,-2.666C2.234,-3.099 1.841,-3.531 1.445,-3.958C1.042,-4.394 0.646,-4.869 0.187,-5.247C0.089,-5.327 -0.079,-5.224 0,-5.102" style="fill:#272727;fill-rule:nonzero;"/>
                    </g>
                    <g transform="matrix(-4.16667,0,0,4.16667,816.972,296.469)">
                        <path d="M0,-15.167L-14.851,-8.501C-14.851,-8.501 -8.943,0 -2.932,-2.813C3.079,-5.626 0,-15.167 0,-15.167" style="fill:#ff9a85;fill-rule:nonzero;"/>
                    </g>
                </g>
            </g>
        </g>
    </g>
</svg>
