<?xml version="1.0" encoding="UTF-8" standalone="no"?>
<!DOCTYPE svg PUBLIC "-//W3C//DTD SVG 1.1//EN" "http://www.w3.org/Graphics/SVG/1.1/DTD/svg11.dtd">
<svg width="172px" height="186px" version="1.1" xmlns="http://www.w3.org/2000/svg" xmlns:xlink="http://www.w3.org/1999/xlink" xml:space="preserve" xmlns:serif="http://www.serif.com/" style="fill-rule:evenodd;clip-rule:evenodd;stroke-linecap:round;stroke-linejoin:round;stroke-miterlimit:10;">
    <g transform="matrix(1,0,0,1,-347.384,-301.63)">
        <g transform="matrix(1,0,0,1,-1130.34,-229.168)">
            <g transform="matrix(1.00769,0,0,1.00769,1515.61,596.342)">
                <g>
                    <path d="M0,-13.627C0,-13.627 -6.172,-19.349 -11.186,-17.292C-16.199,-15.234 -16.852,-7.845 -16.59,-4.919C-16.328,-1.992 -14.143,5.722 -7.071,5.464C-1.459,5.471 1.157,2.25 1.157,2.25L0,-13.627Z" style="fill:#fdc27b;fill-rule:nonzero;"/>
                </g>
            </g>
        </g>
        <g transform="matrix(1,0,0,1,-1130.34,-229.168)">
            <g transform="matrix(1.00769,0,0,1.00769,1610.33,596.342)">
                <g>
                    <path d="M0,-13.627C0,-13.627 6.171,-19.349 11.186,-17.292C16.199,-15.234 16.852,-7.845 16.59,-4.919C16.328,-1.992 14.143,5.722 7.071,5.464C1.459,5.471 -1.157,2.25 -1.157,2.25L0,-13.627Z" style="fill:#fdc27b;fill-rule:nonzero;"/>
                </g>
            </g>
        </g>
        <g transform="matrix(1,0,0,1,-1130.34,-229.168)">
            <g transform="matrix(1.00769,0,0,1.00769,1603.91,631.952)">
                <g>
                    <path d="M0,-73.797C-8.672,-91.797 -31.892,-94.625 -40.564,-94.625C-49.236,-94.625 -72.456,-91.797 -81.128,-73.797C-89.801,-55.798 -95.955,-20.405 -77.771,-10.377C-59.587,-0.349 -48.956,-3.6 -47.838,20.828L-33.29,20.828C-32.172,-3.6 -21.541,-0.349 -3.356,-10.377C14.827,-20.405 8.673,-55.798 0,-73.797" style="fill:#fdc27b;fill-rule:nonzero;"/>
                </g>
            </g>
        </g>
        <g transform="matrix(1,0,0,1,-1130.34,-229.168)">
            <g transform="matrix(1.00769,0,0,1.00769,1514.45,600.611)">
                <g>
                    <path d="M0,-18.215C-0.412,-17.111 -0.562,-15.932 -0.726,-14.77C-0.886,-13.636 -0.985,-12.492 -1.069,-11.351C-1.241,-9.017 -1.289,-6.674 -1.217,-4.335C-1.175,-2.992 -1.093,-1.652 -0.973,-0.314C-0.937,0.077 -0.323,0.08 -0.358,-0.314C-0.78,-4.955 -0.729,-9.637 -0.201,-14.268C-0.053,-15.568 0.169,-16.885 0.152,-18.194C0.151,-18.286 0.029,-18.295 0,-18.215" style="fill:#272727;fill-rule:nonzero;"/>
                </g>
            </g>
        </g>
        <g transform="matrix(1,0,0,1,-1130.34,-229.168)">
            <g transform="matrix(1.00769,0,0,1.00769,1502.58,594.615)">
                <g>
                    <path d="M0,-8.325C0.514,-7.51 1.252,-6.809 1.919,-6.121C2.631,-5.387 3.383,-4.691 4.141,-4.003C5.637,-2.646 7.19,-1.361 8.798,-0.138C9.153,0.132 9.501,-0.471 9.148,-0.737C7.554,-1.942 5.999,-3.205 4.494,-4.52C3.751,-5.168 3.028,-5.838 2.295,-6.498C1.579,-7.142 0.892,-7.873 0.094,-8.419C0.037,-8.457 -0.035,-8.381 0,-8.325" style="fill:#272727;fill-rule:nonzero;"/>
                </g>
            </g>
        </g>
        <g transform="matrix(1,0,0,1,-1130.34,-229.168)">
            <g transform="matrix(1.00769,0,0,1.00769,1511.72,596.265)">
                <g>
                    <path d="M0,-11.631C-0.455,-11.423 -0.735,-10.86 -1.021,-10.464C-1.359,-9.993 -1.694,-9.519 -2.03,-9.047C-2.69,-8.117 -3.369,-7.202 -4.053,-6.29C-5.431,-4.449 -6.888,-2.664 -8.406,-0.937C-8.744,-0.553 -8.182,0.013 -7.842,-0.373C-6.304,-2.122 -4.843,-3.936 -3.463,-5.812C-2.778,-6.742 -2.126,-7.699 -1.496,-8.668C-1.181,-9.153 -0.874,-9.641 -0.583,-10.141C-0.335,-10.568 0.074,-11.085 0.061,-11.596C0.06,-11.629 0.027,-11.644 0,-11.631" style="fill:#272727;fill-rule:nonzero;"/>
                </g>
            </g>
        </g>
        <g transform="matrix(1,0,0,1,-1130.34,-229.168)">
            <g transform="matrix(1.00769,0,0,1.00769,1611.34,600.59)">
                <g>
                    <path d="M0,-18.174C-0.015,-17.02 0.183,-15.879 0.301,-14.733C0.421,-13.579 0.546,-12.427 0.627,-11.269C0.789,-8.935 0.834,-6.592 0.758,-4.253C0.714,-2.931 0.631,-1.611 0.511,-0.293C0.476,0.1 1.09,0.097 1.125,-0.293C1.544,-4.954 1.493,-9.661 0.937,-14.308C0.78,-15.611 0.613,-16.962 0.152,-18.195C0.123,-18.274 0.001,-18.266 0,-18.174" style="fill:#272727;fill-rule:nonzero;"/>
                </g>
            </g>
        </g>
        <g transform="matrix(1,0,0,1,-1130.34,-229.168)">
            <g transform="matrix(1.00769,0,0,1.00769,1623.27,594.709)">
                <g>
                    <path d="M0,-8.512C-0.798,-7.967 -1.485,-7.236 -2.201,-6.591C-2.935,-5.932 -3.657,-5.262 -4.4,-4.613C-5.905,-3.299 -7.46,-2.035 -9.055,-0.83C-9.406,-0.564 -9.06,0.039 -8.704,-0.231C-7.097,-1.454 -5.543,-2.739 -4.047,-4.096C-3.304,-4.771 -2.564,-5.453 -1.865,-6.173C-1.185,-6.874 -0.43,-7.587 0.094,-8.418C0.129,-8.474 0.057,-8.551 0,-8.512" style="fill:#272727;fill-rule:nonzero;"/>
                </g>
            </g>
        </g>
        <g transform="matrix(1,0,0,1,-1130.34,-229.168)">
            <g transform="matrix(1.00769,0,0,1.00769,1614.16,596.231)">
                <g>
                    <path d="M0,-11.562C-0.014,-11.066 0.374,-10.571 0.614,-10.157C0.905,-9.656 1.21,-9.167 1.525,-8.682C2.164,-7.696 2.827,-6.724 3.523,-5.778C4.904,-3.901 6.364,-2.088 7.902,-0.339C8.242,0.047 8.805,-0.519 8.467,-0.903C6.948,-2.629 5.491,-4.415 4.113,-6.255C3.43,-7.168 2.751,-8.083 2.091,-9.012C1.755,-9.485 1.42,-9.958 1.081,-10.429C0.795,-10.826 0.517,-11.388 0.061,-11.597C0.033,-11.609 0.001,-11.595 0,-11.562" style="fill:#272727;fill-rule:nonzero;"/>
                </g>
            </g>
        </g>
        <g transform="matrix(1,0,0,1,-1130.34,-229.168)">
            <g transform="matrix(1.00769,0,0,1.00769,1204.36,475.374)">
                <g opacity="0.45">
                    <g transform="matrix(0,1,1,0,324.702,115.582)">
                        <path d="M9.015,-9.015C13.994,-9.015 18.03,-4.978 18.03,0.001C18.03,4.979 13.994,9.015 9.015,9.015C4.035,9.015 -0.001,4.979 -0.001,0.001C-0.001,-4.978 4.035,-9.015 9.015,-9.015" style="fill:#ffdba9;fill-rule:nonzero;"/>
                    </g>
                    <g transform="matrix(0,1,1,0,388.073,115.582)">
                        <path d="M9.015,-9.015C13.994,-9.015 18.03,-4.978 18.03,0.001C18.03,4.979 13.994,9.015 9.015,9.015C4.035,9.015 -0.001,4.979 -0.001,0.001C-0.001,-4.978 4.035,-9.015 9.015,-9.015" style="fill:#ffdba9;fill-rule:nonzero;"/>
                    </g>
                </g>
            </g>
        </g>
        <g transform="matrix(1,0,0,1,-1130.34,-229.168)">
            <g transform="matrix(1.00769,0,0,1.00769,1557.62,586.751)">
                <g>
                    <path d="M0,6.004C0.627,5.235 1.127,4.374 1.727,3.584C2.317,2.805 2.957,1.987 3.723,1.372C4.448,0.79 5.374,0.504 6.258,0.903C7.107,1.288 7.771,2.075 8.355,2.775C9.087,3.652 9.685,4.617 10.191,5.638C10.401,6.061 11.012,5.691 10.819,5.271C10.357,4.265 9.739,3.334 9.044,2.474C8.404,1.683 7.67,0.826 6.753,0.349C5.814,-0.138 4.76,-0.097 3.853,0.443C2.968,0.97 2.298,1.82 1.67,2.619C0.905,3.593 0.099,4.645 -0.296,5.832C-0.35,5.993 -0.112,6.142 0,6.004" style="fill:#272727;fill-rule:nonzero;"/>
                </g>
            </g>
        </g>
        <g transform="matrix(1,0,0,1,-1130.34,-229.168)">
            <g transform="matrix(1.00769,0,0,1.00769,1595.22,590.248)">
                <g>
                    <path d="M0,-8.938C-0.621,-3.211 -5.473,1.247 -11.365,1.247C-17.679,1.247 -22.796,-3.871 -22.796,-10.185" style="fill:none;fill-rule:nonzero;stroke:#272727;stroke-width:0.78px;"/>
                </g>
            </g>
        </g>
        <g transform="matrix(1,0,0,1,-1130.34,-229.168)">
            <g transform="matrix(1.00769,0,0,1.00769,1530.61,590.248)">
                <g>
                    <path d="M0,-8.938C0.621,-3.211 5.472,1.247 11.364,1.247C17.678,1.247 22.796,-3.871 22.796,-10.185" style="fill:none;fill-rule:nonzero;stroke:#272727;stroke-width:0.78px;"/>
                </g>
            </g>
        </g>
        <g transform="matrix(1,0,0,1,-1130.34,-229.168)">
            <g transform="matrix(1.00769,0,0,1.00769,1574.36,602.623)">
                <g>
                    <path d="M0,-9.483C-0.252,-9.081 -0.408,-8.63 -0.622,-8.205C-0.837,-7.778 -1.07,-7.361 -1.329,-6.959C-1.833,-6.177 -2.401,-5.454 -3.063,-4.8C-4.407,-3.472 -6.065,-2.443 -7.865,-1.862C-11.53,-0.681 -15.544,-1.577 -18.504,-4.006C-20.148,-5.356 -21.444,-7.119 -22.133,-9.139C-22.317,-9.679 -23.181,-9.446 -22.993,-8.902C-21.662,-5.03 -18.322,-2.001 -14.39,-0.911C-10.393,0.196 -6.125,-0.971 -3.059,-3.714C-2.22,-4.464 -1.479,-5.329 -0.867,-6.274C-0.559,-6.749 -0.294,-7.258 -0.075,-7.781C0.142,-8.296 0.358,-8.82 0.378,-9.38C0.386,-9.589 0.103,-9.647 0,-9.483" style="fill:#272727;fill-rule:nonzero;"/>
                </g>
            </g>
        </g>
        <g transform="matrix(1,0,0,1,-1130.34,-229.168)">
            <g transform="matrix(0.892886,-0.467117,-0.467117,-0.892886,1603.49,699.779)">
                <g>
                    <path d="M-19.89,-8.134C-13.826,12.327 0.7,63.249 0.7,63.249L-19.89,74.021L-66.839,16.427L-19.89,-8.134Z" style="fill:#f97a5b;fill-rule:nonzero;"/>
                </g>
            </g>
        </g>
        <g transform="matrix(1,0,0,1,-1130.34,-229.168)">
            <g transform="matrix(1.00769,0,0,1.00769,1603.91,549.635)">
                <g>
                    <path d="M0,7.892C-2.235,3.253 -5.44,-0.372 -9.11,-3.207L-9.102,-3.207C-9.102,-3.207 -3.818,-10.023 -4.69,-10.927C-5.562,-11.832 -14.672,-8.795 -14.672,-8.795C-14.672,-8.795 -9.406,-16.741 -10.957,-18.066C-12.507,-19.39 -20.018,-11.606 -20.018,-11.606C-20.018,-11.606 -18.612,-18.292 -20.018,-18.679C-21.422,-19.067 -23.328,-11.545 -28.545,-11.624L-28.543,-11.621C-33.416,-12.634 -37.755,-12.936 -40.564,-12.936C-49.236,-12.936 -72.456,-10.107 -81.128,7.892C-83.671,13.17 -85.991,19.947 -87.552,27.138L-87.486,27.282C-87.486,27.282 -75.171,6.448 -69.906,5.027C-64.643,3.605 -61.575,10.261 -40.514,10.261C-19.452,10.261 -16.629,2.486 -11.806,4.342C-7.017,6.184 6.257,26.963 6.451,27.267C4.891,20.028 2.559,13.202 0,7.892" style="fill:#5a4938;fill-rule:nonzero;"/>
                </g>
            </g>
        </g>
        <g transform="matrix(1,0,0,1,-1130.34,-229.168)">
            <g transform="matrix(1.00767,0.00592743,0.00592743,-1.00767,1479.21,630.314)">
                <g>
                    <path d="M-0.231,-0.485L164.504,-0.485L156.824,-78.477L8.36,-76.78L-0.231,-0.485Z" style="fill:#cceae2;fill-rule:nonzero;"/>
                </g>
            </g>
        </g>
        <g transform="matrix(1,0,0,1,-1130.34,-229.168)">
            <g transform="matrix(1.00769,0,0,1.00769,1645.24,671.986)">
                <g>
                    <path d="M0,-13.757C-1.234,-14.868 -11.113,-17.993 -12.43,-15.837C-13.747,-13.682 -4.514,-10.273 -4.514,-10.273C-4.514,-10.273 -14.981,-12.926 -15.978,-11.396C-16.975,-9.865 -7.297,-5.344 -7.297,-5.344C-7.297,-5.344 -15.988,-6.049 -15.479,-4.112C-14.969,-2.176 -5.902,-0.419 -5.902,-0.419C-5.902,-0.419 -15.25,0.432 -14.396,2.334C-13.541,4.236 -3.269,3.141 -1.089,2.276C1.092,1.411 3.077,-0.24 3.777,-5.094C4.478,-9.948 1.233,-12.645 0,-13.757" style="fill:#fdc27b;fill-rule:nonzero;"/>
                </g>
            </g>
        </g>
        <g transform="matrix(1,0,0,1,-1130.34,-229.168)">
            <g transform="matrix(1.00769,0,0,1.00769,1484.43,677.003)">
                <g>
                    <path d="M0,-19.109C1.498,-19.807 11.474,-20.907 12.008,-18.438C12.543,-15.969 3.116,-14.334 3.116,-14.334C3.116,-14.334 13.874,-13.408 14.312,-11.635C14.749,-9.862 3.705,-9.182 3.705,-9.182C3.705,-9.182 12.726,-6.061 11.607,-4.4C10.489,-2.738 1.186,-4.571 1.186,-4.571C1.186,-4.571 10.359,-1.231 8.927,0.283C7.495,1.798 -1.148,-0.56 -3.282,-2.141C-5.416,-3.722 -7.353,-7.358 -6.417,-12.172C-5.481,-16.985 -1.498,-18.411 0,-19.109" style="fill:#fdc27b;fill-rule:nonzero;"/>
                </g>
            </g>
        </g>
        <g transform="matrix(1,0,0,1,-1130.34,-229.168)">
            <g transform="matrix(1.00769,0,0,1.00769,1642.52,673.224)">
                <g>
                    <path d="M0,-16.238C-3.404,-17.436 -8.777,-18.616 -9.724,-17.066C-11.041,-14.911 -1.808,-11.502 -1.808,-11.502C-1.808,-11.502 -12.275,-14.155 -13.271,-12.625C-14.269,-11.094 -4.591,-6.573 -4.591,-6.573C-4.591,-6.573 -13.282,-7.278 -12.772,-5.342C-12.263,-3.405 -3.196,-1.648 -3.196,-1.648C-3.196,-1.648 -12.544,-0.797 -11.689,1.105C-11.118,2.378 -6.325,2.308 -2.565,1.864" style="fill:#fdc27b;fill-rule:nonzero;stroke:#272727;stroke-width:0.39px;"/>
                </g>
            </g>
        </g>
        <g transform="matrix(1,0,0,1,-1130.34,-229.168)">
            <g transform="matrix(1.00769,0,0,1.00769,1482.11,675.429)">
                <g>
                    <path d="M0,-16.396C0.92,-16.954 1.774,-17.297 2.311,-17.547C3.809,-18.246 13.784,-19.346 14.318,-16.876C14.854,-14.408 5.427,-12.772 5.427,-12.772C5.427,-12.772 16.185,-11.847 16.622,-10.074C17.06,-8.301 6.016,-7.62 6.016,-7.62C6.016,-7.62 15.036,-4.499 13.918,-2.838C12.8,-1.177 3.496,-3.01 3.496,-3.01C3.496,-3.01 12.67,0.331 11.237,1.845C10.193,2.95 5.312,1.995 1.92,0.783" style="fill:#fdc27b;fill-rule:nonzero;stroke:#272727;stroke-width:0.39px;"/>
                </g>
            </g>
        </g>
        <g transform="matrix(1,0,0,1,159,182)">
            <text x="238.641px" y="252.216px" style="font-family:'Poppins-Bold', 'Poppins';font-weight:700;font-size:30px;">20</text>
            <text x="280.671px" y="252.216px" style="font-family:'Poppins-Regular', 'Poppins';font-size:20px;">de</text>
            <text x="218.556px" y="286.216px" style="font-family:'Poppins-Regular', 'Poppins';font-size:20px;">noviembre</text>
        </g>
    </g>
</svg>
