<?xml version="1.0" encoding="UTF-8" standalone="no"?>
<!DOCTYPE svg PUBLIC "-//W3C//DTD SVG 1.1//EN" "http://www.w3.org/Graphics/SVG/1.1/DTD/svg11.dtd">
<svg width="216px" height="245px" version="1.1" xmlns="http://www.w3.org/2000/svg" xmlns:xlink="http://www.w3.org/1999/xlink" xml:space="preserve" xmlns:serif="http://www.serif.com/" style="fill-rule:evenodd;clip-rule:evenodd;stroke-linecap:round;stroke-linejoin:round;stroke-miterlimit:10;">
    <g transform="matrix(1,0,0,1,-313.473,0.000569516)">
        <g transform="matrix(3.30984,2.53102,-2.53102,3.30984,238.22,499.02)">
            <g transform="matrix(-0.106765,0.39323,0.39323,0.106765,-6.16913,-84.6181)">
                <path d="M0,-24.007L26.006,-13.903C26.006,-13.903 30.896,-18.752 32.731,-16.936C33.57,-16.224 30.627,-13.534 30.627,-13.534C30.627,-13.534 39.35,-14.547 39.263,-12.946C39.176,-11.347 34.255,-11.053 34.255,-11.053C34.255,-11.053 39.878,-8.923 39.848,-7.765C39.818,-6.607 33.377,-8.392 33.377,-8.392C33.377,-8.392 38.485,-4.448 37.522,-3.619C36.561,-2.791 31.18,-5.624 31.18,-5.624C31.18,-5.624 34.698,-1.673 33.659,-0.836C32.619,0 25.558,-5.436 25.558,-5.436L-2.572,-13.895L0,-24.007Z" style="fill:#fdc27b;fill-rule:nonzero;"/>
            </g>
        </g>
        <g transform="matrix(2.85412,3.03564,3.03564,-2.85412,282.708,391.48)">
            <g transform="matrix(0.025092,-0.406693,-0.406693,-0.025092,-19.0014,61.064)">
                <path d="M-1.184,-1.245L13.025,-1.245L14.404,-14.597L7.521,-12.593L-1.184,-1.245Z" style="fill:#f4efdf;fill-rule:nonzero;"/>
            </g>
        </g>
        <g transform="matrix(4.16667,0,0,4.16667,171.599,460.594)">
            <g transform="matrix(-0.407466,0,0,0.407466,69.0043,-65.5003)">
                <path d="M0,-20.877L-26.831,-13.231C-26.831,-13.231 -31.25,-18.511 -33.246,-16.873C-34.148,-16.242 -31.467,-13.291 -31.467,-13.291C-31.467,-13.291 -40.058,-15.108 -40.12,-13.508C-40.182,-11.906 -35.309,-11.157 -35.309,-11.157C-35.309,-11.157 -41.105,-9.558 -41.183,-8.402C-41.261,-7.246 -34.682,-8.426 -34.682,-8.426C-34.682,-8.426 -40.134,-4.974 -39.253,-4.06C-38.371,-3.145 -32.751,-5.466 -32.751,-5.466C-32.751,-5.466 -36.621,-1.859 -35.664,-0.93C-34.706,0 -27.17,-4.757 -27.17,-4.757L1.623,-10.57L0,-20.877Z" style="fill:#fdc27b;fill-rule:nonzero;"/>
            </g>
        </g>
        <g transform="matrix(4.16667,0,0,4.16667,170.378,186.995)">
            <g transform="matrix(-0.407466,0,0,0.407466,69.4167,-26.5923)">
                <path d="M0,-7.344C0,-7.344 -2.815,-12.945 -6.85,-12.815C-10.884,-12.686 -13.265,-7.699 -13.844,-5.589C-14.424,-3.48 -14.908,2.472 -9.907,4.135C-5.993,5.601 -3.329,4.036 -3.329,4.036L0,-7.344Z" style="fill:#fdc27b;fill-rule:nonzero;"/>
            </g>
        </g>
        <g transform="matrix(4.16667,0,0,4.16667,443.645,320.088)">
            <g transform="matrix(-0.407466,0,0,0.407466,-22.8905,-45.5192)">
                <path d="M0,-14.8C0,-14.8 5.796,-17.185 8.759,-14.444C11.722,-11.701 10.251,-6.375 9.307,-4.402C8.362,-2.428 4.827,2.385 -0.04,0.363C-3.957,-1.095 -4.943,-4.024 -4.943,-4.024L0,-14.8Z" style="fill:#fdc27b;fill-rule:nonzero;"/>
            </g>
        </g>
        <g transform="matrix(4.16667,0,0,4.16667,452.07,287.304)">
            <g transform="matrix(-0.407466,0,0,0.407466,-25.7364,-40.857)">
                <path d="M0,-25.918C-1.362,-40.736 -16.827,-48.759 -22.878,-51.019C-28.929,-53.277 -45.868,-57.353 -56.608,-47.053C-67.348,-36.753 -80.863,-13.661 -70.787,-1.927C-60.712,9.808 -52.447,10.309 -58.03,27.645L-52.955,29.539L-47.879,31.435C-40.735,14.682 -34.165,19.72 -18.864,17.459C-3.564,15.199 1.362,-11.1 0,-25.918" style="fill:#fdc27b;fill-rule:nonzero;"/>
            </g>
        </g>
        <g transform="matrix(4.16667,0,0,4.16667,167.436,206.704)">
            <g transform="matrix(-0.407466,0,0,0.407466,70.4105,-29.3951)">
                <path d="M0,-12.626C-0.723,-11.793 -1.238,-10.768 -1.732,-9.786C-2.234,-8.792 -2.703,-7.78 -3.136,-6.754C-4.016,-4.675 -4.756,-2.54 -5.354,-0.362C-5.432,-0.078 -4.991,0.043 -4.913,-0.241C-4.323,-2.399 -3.595,-4.52 -2.725,-6.581C-2.292,-7.607 -1.825,-8.619 -1.326,-9.615C-0.838,-10.587 -0.271,-11.545 0.097,-12.569C0.117,-12.624 0.038,-12.669 0,-12.626" style="fill:#272727;fill-rule:nonzero;"/>
            </g>
        </g>
        <g transform="matrix(4.16667,0,0,4.16667,157.093,182.691)">
            <g transform="matrix(-0.407466,0,0,0.407466,73.9043,-25.9802)">
                <path d="M0,-5.977C-0.361,-5.948 -0.685,-5.655 -0.977,-5.458C-1.328,-5.223 -1.678,-4.987 -2.027,-4.748C-2.744,-4.262 -3.47,-3.791 -4.2,-3.324C-5.659,-2.389 -7.156,-1.51 -8.683,-0.692C-9.021,-0.511 -8.721,0.002 -8.383,-0.178C-6.838,-1.007 -5.329,-1.9 -3.865,-2.865C-3.14,-3.342 -2.432,-3.846 -1.736,-4.364C-1.411,-4.606 -1.092,-4.851 -0.779,-5.108C-0.496,-5.34 -0.099,-5.583 0.029,-5.94C0.035,-5.957 0.019,-5.979 0,-5.977" style="fill:#272727;fill-rule:nonzero;"/>
            </g>
        </g>
        <g transform="matrix(4.16667,0,0,4.16667,446.9,312.756)">
            <g transform="matrix(-0.407466,0,0,0.407466,-23.9901,-44.4765)">
                <path d="M0,-13.006C-0.403,-11.964 -0.604,-10.839 -0.883,-9.758C-1.153,-8.707 -1.458,-7.665 -1.794,-6.634C-2.485,-4.516 -3.318,-2.445 -4.283,-0.437C-4.41,-0.173 -4.016,0.059 -3.888,-0.206C-2.917,-2.234 -2.076,-4.321 -1.378,-6.459C-1.03,-7.527 -0.718,-8.608 -0.443,-9.697C-0.173,-10.765 0.114,-11.884 0.114,-12.99C0.114,-13.06 0.022,-13.065 0,-13.006" style="fill:#272727;fill-rule:nonzero;"/>
            </g>
        </g>
        <g transform="matrix(4.16667,0,0,4.16667,477.167,297.46)">
            <g transform="matrix(-0.407466,0,0,0.407466,-34.214,-42.3013)">
                <path d="M0,-3.584C-0.697,-3.389 -1.362,-3.081 -2.034,-2.816C-2.732,-2.542 -3.425,-2.257 -4.127,-1.993C-5.513,-1.473 -6.92,-1.002 -8.338,-0.578C-8.656,-0.483 -8.521,0.017 -8.201,-0.08C-6.762,-0.515 -5.345,-1.01 -3.948,-1.567C-3.29,-1.831 -2.629,-2.099 -1.987,-2.401C-1.298,-2.727 -0.583,-3.046 0.04,-3.49C0.084,-3.522 0.059,-3.601 0,-3.584" style="fill:#272727;fill-rule:nonzero;"/>
            </g>
        </g>
        <g transform="matrix(4.16667,0,0,4.16667,452.566,310.599)">
            <g transform="matrix(-0.407466,0,0,0.407466,-25.904,-44.1698)">
                <path d="M0,-10.167C-0.13,-9.827 0,-9.4 0.061,-9.052C0.135,-8.618 0.221,-8.188 0.316,-7.759C0.501,-6.922 0.705,-6.087 0.937,-5.262C1.41,-3.592 1.958,-1.945 2.575,-0.323C2.71,0.03 3.285,-0.123 3.148,-0.481C2.531,-2.103 1.974,-3.748 1.485,-5.413C1.244,-6.235 1.006,-7.059 0.785,-7.888C0.672,-8.312 0.56,-8.735 0.444,-9.158C0.353,-9.495 0.301,-9.922 0.05,-10.18C0.033,-10.197 0.008,-10.187 0,-10.167" style="fill:#272727;fill-rule:nonzero;"/>
            </g>
        </g>
        <g transform="matrix(-1.45744,3.90346,3.90346,1.45744,212.736,211.305)">
            <g transform="matrix(0.307759,0.267045,0.267045,-0.307759,-47.4273,41.1165)">
                <path d="M6.29,-9.063C9.999,-9.063 13.004,-6.058 13.004,-2.349C13.004,1.36 9.998,4.365 6.29,4.365C2.582,4.365 -0.425,1.358 -0.424,-2.349C-0.424,-6.057 2.581,-9.063 6.29,-9.063" style="fill:#ff927c;fill-rule:nonzero;"/>
            </g>
        </g>
        <g transform="matrix(-1.45744,3.90346,3.90346,1.45744,396.976,280.092)">
            <g transform="matrix(0.307759,0.267045,0.267045,-0.307759,-34.8226,-20.6084)">
                <path d="M6.29,-9.063C9.999,-9.063 13.004,-6.057 13.004,-2.349C13.004,1.36 9.998,4.365 6.29,4.365C2.582,4.365 -0.425,1.358 -0.424,-2.349C-0.424,-6.057 2.581,-9.063 6.29,-9.063" style="fill:#ff927c;fill-rule:nonzero;"/>
            </g>
        </g>
        <g transform="matrix(4.16667,0,0,4.16667,278.4,235.226)">
            <g transform="matrix(-0.407466,0,0,0.407466,32.9278,-33.4511)">
                <path d="M0,0.433C0.787,-0.009 1.481,-0.606 2.263,-1.065C3.036,-1.518 4,-2.134 4.938,-1.909C5.801,-1.701 6.199,-0.824 6.496,-0.073C6.861,0.85 7.086,1.807 7.19,2.792C7.227,3.133 7.758,3.144 7.732,2.792C7.648,1.678 7.356,0.584 6.923,-0.444C6.582,-1.254 6.124,-2.077 5.24,-2.376C4.249,-2.711 3.244,-2.189 2.403,-1.707C1.508,-1.193 0.485,-0.596 -0.16,0.226C-0.248,0.338 -0.14,0.512 0,0.433" style="fill:#272727;fill-rule:nonzero;"/>
            </g>
        </g>
        <g transform="matrix(4.16667,0,0,4.16667,220.87,162.397)">
            <g transform="matrix(-0.407466,0,0,0.407466,52.361,-23.0942)">
                <path d="M0,-5.128C0.261,-4.258 0.707,-3.447 1.114,-2.638C1.532,-1.809 1.963,-0.984 2.362,-0.146C2.518,0.182 3.034,-0.108 2.854,-0.433C2.402,-1.243 1.981,-2.071 1.548,-2.892C1.126,-3.69 0.725,-4.512 0.17,-5.227C0.106,-5.31 -0.027,-5.22 0,-5.128" style="fill:#272727;fill-rule:nonzero;"/>
            </g>
        </g>
        <g transform="matrix(4.16667,0,0,4.16667,208.157,163.338)">
            <g transform="matrix(-0.407466,0,0,0.407466,56.6553,-23.2281)">
                <path d="M0,-3.132C0.225,-2.797 0.583,-2.532 0.895,-2.282C1.238,-2.007 1.587,-1.738 1.937,-1.471C2.634,-0.939 3.331,-0.407 4.03,0.122C4.155,0.216 4.351,0.14 4.424,0.018C4.512,-0.128 4.445,-0.283 4.321,-0.376C3.632,-0.895 2.941,-1.41 2.249,-1.925C1.904,-2.182 1.557,-2.438 1.206,-2.687C0.879,-2.917 0.525,-3.191 0.141,-3.315C0.04,-3.348 -0.061,-3.222 0,-3.132" style="fill:#272727;fill-rule:nonzero;"/>
            </g>
        </g>
        <g transform="matrix(-1.45757,3.90341,3.90341,1.45757,270.626,156.566)">
            <g transform="matrix(0.307741,0.267065,0.267065,-0.307741,-33.2956,25.5188)">
                <path d="M7.976,-11.493C12.679,-11.493 16.492,-7.68 16.491,-2.978C16.491,1.725 12.678,5.537 7.976,5.536C3.274,5.536 -0.539,1.723 -0.538,-2.978C-0.538,-7.682 3.274,-11.493 7.976,-11.493" style="fill:#fff;fill-rule:nonzero;"/>
            </g>
        </g>
        <g transform="matrix(4.16667,0,0,4.16667,410.134,217.853)">
            <g transform="matrix(-0.407466,0,0,0.407466,-11.5708,-30.9805)">
                <path d="M0,-2.949C-0.873,-2.698 -1.687,-2.258 -2.501,-1.858C-3.335,-1.448 -4.164,-1.025 -5.006,-0.634C-5.334,-0.481 -5.045,0.035 -4.719,-0.142C-3.918,-0.578 -3.101,-0.984 -2.291,-1.402C-1.484,-1.819 -0.645,-2.211 0.078,-2.762C0.164,-2.828 0.12,-2.984 0,-2.949" style="fill:#272727;fill-rule:nonzero;"/>
            </g>
        </g>
        <g transform="matrix(4.16667,0,0,4.16667,415.349,221.337)">
            <g transform="matrix(-0.407466,0,0,0.407466,-13.3324,-31.476)">
                <path d="M0,-0.381C-0.379,-0.508 -0.836,-0.491 -1.232,-0.496C-1.665,-0.501 -2.097,-0.498 -2.53,-0.493C-3.396,-0.484 -4.262,-0.472 -5.127,-0.457C-5.498,-0.451 -5.499,0.127 -5.127,0.119C-4.262,0.102 -3.396,0.082 -2.53,0.061C-2.097,0.051 -1.665,0.038 -1.232,0.017C-0.837,-0.002 -0.374,-0.001 0,-0.141C0.115,-0.184 0.122,-0.341 0,-0.381" style="fill:#272727;fill-rule:nonzero;"/>
            </g>
        </g>
        <g transform="matrix(1.45735,-3.90349,-3.90349,-1.45735,390.848,201.452)">
            <g transform="matrix(0.307771,0.267031,0.267031,-0.307771,25.0703,14.7569)">
                <path d="M-7.977,-5.536C-12.679,-5.536 -16.491,-1.725 -16.49,2.979C-16.491,7.68 -12.679,11.493 -7.976,11.492C-3.274,11.492 0.538,7.681 0.537,2.978C0.538,-1.724 -3.274,-5.537 -7.977,-5.536" style="fill:#fff;fill-rule:nonzero;"/>
            </g>
        </g>
        <g transform="matrix(4.16667,0,0,4.16667,326.447,249.084)">
            <g transform="matrix(-0.407466,0,0,0.407466,16.6979,-35.4218)">
                <path d="M0,1.612C-0.557,2.039 -1.006,2.592 -1.572,3.018C-2.12,3.43 -2.705,3.789 -3.329,4.075C-4.606,4.662 -6.033,4.947 -7.437,4.896C-10.327,4.792 -12.899,3.106 -14.351,0.633C-15.162,-0.747 -15.595,-2.326 -15.551,-3.93C-15.54,-4.358 -16.205,-4.358 -16.216,-3.93C-16.292,-0.862 -14.714,2.113 -12.238,3.895C-9.755,5.682 -6.457,5.97 -3.637,4.844C-2.85,4.531 -2.105,4.125 -1.429,3.614C-0.805,3.142 -0.085,2.518 0.222,1.783C0.271,1.666 0.101,1.535 0,1.612" style="fill:#272727;fill-rule:nonzero;"/>
            </g>
        </g>
        <g transform="matrix(0.698208,-4.10775,-4.10775,-0.698208,272.651,144.603)">
            <g transform="matrix(0.384583,0.134627,0.134627,-0.384583,26.1162,-30.9309)">
                <clipPath id="_clip1">
                    <path d="M-8.587,12.785C-13.206,13.668 -17.667,10.64 -18.549,6.021C-19.433,1.403 -16.405,-3.058 -11.787,-3.941C-7.168,-4.825 -2.707,-1.796 -1.825,2.823C-1.627,3.852 -1.624,4.874 -1.79,5.849C-2.369,9.252 -4.997,12.098 -8.587,12.785Z"/>
                </clipPath>
                <g clip-path="url(#_clip1)">
                    <path d="M-8.392,-7.087C-13.094,-7.087 -16.905,-3.275 -16.905,1.425C-16.906,6.127 -13.093,9.938 -8.392,9.939C-3.692,9.94 0.12,6.128 0.12,1.426C0.121,-3.274 -3.691,-7.086 -8.392,-7.087" style="fill:#272727;fill-rule:nonzero;"/>
                </g>
            </g>
        </g>
        <g transform="matrix(-2.73638,3.14218,3.14218,2.73638,407.139,217.576)">
            <g transform="matrix(0.0559884,0.403601,0.403601,-0.0559884,-16.399,-28.283)">
                <clipPath id="_clip2">
                    <path d="M11.158,-13.449C15.56,-11.796 17.788,-6.888 16.136,-2.485C14.483,1.918 9.575,4.146 5.172,2.494C0.77,0.84 -1.46,-4.068 0.194,-8.471C0.562,-9.451 1.092,-10.324 1.741,-11.07C4.008,-13.673 7.736,-14.733 11.158,-13.449Z"/>
                </clipPath>
                <g clip-path="url(#_clip2)">
                    <path d="M6.423,-14.109C12.326,-14.065 16.379,-8.331 14.452,-2.75C13.283,0.629 9.997,2.952 6.423,2.925C0.519,2.879 -3.534,-2.855 -1.606,-8.435C-0.439,-11.814 2.847,-14.136 6.423,-14.109" style="fill:#272727;fill-rule:nonzero;"/>
                </g>
            </g>
        </g>
        <g transform="matrix(4.1053,-0.712494,-0.712494,-4.1053,266.707,586.998)">
            <g transform="matrix(-0.383637,0.1373,0.1373,0.383637,50.6087,75.9404)">
                <path d="M-4.957,-2.188C-0.557,11.402 9.983,45.263 9.983,45.263L-4.957,53.999L-39.023,17.734L-4.957,-2.188Z" style="fill:#f4efdf;fill-rule:nonzero;"/>
            </g>
        </g>
        <g transform="matrix(-4.15633,0.293257,0.293257,4.15633,149.213,430.984)">
            <g transform="matrix(-0.403429,0.0572141,0.0572141,0.403429,-80.69,-55.7487)">
                <path d="M-15.098,-13.884L-0.89,-13.884L0.489,-0.532L-6.393,-2.536L-15.098,-13.884Z" style="fill:#f4efdf;fill-rule:nonzero;"/>
            </g>
        </g>
        <g transform="matrix(-2.29198,3.47965,3.47965,2.29198,270.04,375.702)">
            <g transform="matrix(0.160882,0.37436,0.37436,-0.160882,-64.2846,0.467488)">
                <path d="M7.985,-13.363L10.833,-13.363L6.569,5.258C5.258,4.62 4.257,4.135 3.647,3.838L7.985,-13.363Z" style="fill:#ff9a85;fill-rule:nonzero;"/>
            </g>
        </g>
        <g transform="matrix(1.9214,-3.69721,-3.69721,-1.9214,265.756,387.894)">
            <g transform="matrix(0.234174,0.333453,0.333453,-0.234174,66.1004,-7.57061)">
                <path d="M-9.766,-6.209C-8.532,-5.76 -7.383,-5.343 -6.341,-4.965L-9.766,15.199L-12.422,15.475L-9.766,-6.209Z" style="fill:#ff9a85;fill-rule:nonzero;"/>
            </g>
        </g>
        <g transform="matrix(-2.29126,3.48012,3.48012,2.29126,198.64,420.081)">
            <g transform="matrix(0.161037,0.374294,0.374294,-0.161037,-82.8185,17.1546)">
                <path d="M-9.112,-4.911L2.646,-4.911" style="fill:none;fill-rule:nonzero;stroke:#272727;stroke-width:0.44px;"/>
            </g>
        </g>
        <g transform="matrix(-0.526974,4.13321,-4.13321,-0.526974,248.289,439.273)">
            <g transform="matrix(0.394431,-0.10224,-0.10224,-0.394431,-67.4175,-34.8524)">
                <path d="M-9.112,-4.911L2.646,-4.911" style="fill:none;fill-rule:nonzero;stroke:#272727;stroke-width:0.44px;"/>
            </g>
        </g>
        <g transform="matrix(4.16667,0,0,4.16667,451.545,48.3323)">
            <g transform="matrix(-0.407466,0,0,0.407466,-25.5591,-6.87332)">
                <path d="M0,43.188C0.414,38.948 0.442,34.88 0.126,31.435C-1.236,16.617 -16.701,8.594 -22.752,6.334C-28.803,4.076 -45.742,0 -56.482,10.3C-57.657,11.427 -58.866,12.715 -60.073,14.118C-40.357,20.855 -20.898,9.468 -20.898,9.468C-24.044,25.955 -0.09,43.123 0,43.188" style="fill:#fb3f3f;fill-rule:nonzero;"/>
            </g>
        </g>
        <g transform="matrix(-0.386814,4.14867,4.14867,0.386814,493.749,116.422)">
            <g transform="matrix(0.400443,0.0753278,0.0753278,-0.400443,-12.7885,-41.1804)">
                <path d="M10.345,-11.354C16.082,-11.353 20.734,-6.702 20.734,-0.964C20.733,4.774 16.082,9.425 10.345,9.425C4.606,9.424 -0.045,4.772 -0.045,-0.964C-0.044,-6.702 4.607,-11.354 10.345,-11.354" style="fill:#fb3f3f;fill-rule:nonzero;"/>
            </g>
        </g>
        <g transform="matrix(-0.386633,4.14869,4.14869,0.386633,231.289,0.747847)">
            <g transform="matrix(0.400449,0.0752928,0.0752928,-0.400449,-4.63807,48.621)">
                <path d="M10.345,-11.353C16.083,-11.352 20.733,-6.702 20.734,-0.964C20.733,4.774 16.083,9.425 10.345,9.425C4.607,9.425 -0.045,4.774 -0.045,-0.964C-0.044,-6.702 4.607,-11.353 10.345,-11.353" style="fill:#fb3f3f;fill-rule:nonzero;"/>
            </g>
        </g>
        <g transform="matrix(4.16667,0,0,4.16667,257.473,87.2219)">
            <g transform="matrix(-0.407466,0,0,0.407466,39.9968,-12.4037)">
                <path d="M0,-5.043C-1.655,-4.833 -3.273,-4.15 -4.758,-3.415C-6.272,-2.664 -7.758,-1.731 -9.033,-0.617C-9.323,-0.364 -8.909,0.021 -8.619,-0.203C-7.316,-1.214 -5.982,-2.132 -4.515,-2.894C-3.046,-3.655 -1.493,-4.152 0.038,-4.763C0.172,-4.816 0.174,-5.064 0,-5.043" style="fill:#272727;fill-rule:nonzero;"/>
            </g>
        </g>
        <g transform="matrix(4.16667,0,0,4.16667,443.781,186.566)">
            <g transform="matrix(-0.407466,0,0,0.407466,-22.9365,-26.5313)">
                <path d="M0,-8.659C0.284,-7.984 0.603,-7.331 0.863,-6.645C1.125,-5.957 1.333,-5.248 1.484,-4.527C1.791,-3.07 1.853,-1.583 1.693,-0.103C1.65,0.296 2.275,0.293 2.318,-0.103C2.482,-1.629 2.387,-3.186 2.048,-4.682C1.723,-6.12 1.197,-7.647 0.284,-8.824C0.183,-8.955 -0.064,-8.812 0,-8.659" style="fill:#272727;fill-rule:nonzero;"/>
            </g>
        </g>
        <g transform="matrix(4.16667,0,0,4.16667,513.202,180.42)">
            <g transform="matrix(-0.407466,0,0,0.407466,-46.3863,-25.6573)">
                <path d="M0,-12.227C-0.31,-11.732 -0.495,-11.139 -0.749,-10.612C-1.008,-10.075 -1.294,-9.55 -1.604,-9.041C-2.218,-8.039 -2.929,-7.104 -3.713,-6.229C-5.292,-4.467 -7.2,-3.001 -9.312,-1.935C-10.522,-1.324 -11.799,-0.869 -13.108,-0.52C-13.447,-0.43 -13.303,0.079 -12.963,0.003C-8.188,-1.056 -3.922,-4.343 -1.417,-8.506C-1.07,-9.083 -0.755,-9.68 -0.474,-10.292C-0.204,-10.879 0.119,-11.528 0.193,-12.174C0.206,-12.283 0.05,-12.306 0,-12.227" style="fill:#272727;fill-rule:nonzero;"/>
            </g>
        </g>
        <g transform="matrix(4.16667,0,0,4.16667,521.23,191.55)">
            <g transform="matrix(-0.407466,0,0,0.407466,-49.0981,-27.24)">
                <path d="M0,-12.195C-0.295,-11.125 -0.551,-10.037 -0.959,-9.002C-1.373,-7.953 -1.919,-6.953 -2.565,-6.031C-3.851,-4.196 -5.588,-2.706 -7.576,-1.678C-8.127,-1.393 -8.697,-1.144 -9.282,-0.935C-9.889,-0.719 -10.533,-0.611 -11.133,-0.389C-11.37,-0.301 -11.359,0.101 -11.069,0.082C-10.5,0.047 -9.919,-0.16 -9.381,-0.341C-8.846,-0.522 -8.322,-0.734 -7.811,-0.974C-6.762,-1.467 -5.779,-2.09 -4.878,-2.817C-3.06,-4.286 -1.631,-6.201 -0.726,-8.354C-0.216,-9.566 0.18,-10.847 0.18,-12.171C0.18,-12.274 0.028,-12.296 0,-12.195" style="fill:#272727;fill-rule:nonzero;"/>
            </g>
        </g>
        <g transform="matrix(4.16667,0,0,4.16667,259.829,13.5289)">
            <g transform="matrix(-0.407466,0,0,0.407466,39.2009,-1.924)">
                <path d="M0,9.824C-0.398,9.505 -1.071,9.498 -1.559,9.388C-2.145,9.256 -2.728,9.105 -3.302,8.93C-4.435,8.585 -5.532,8.137 -6.589,7.604C-8.735,6.522 -10.69,5.072 -12.339,3.323C-13.271,2.335 -14.096,1.255 -14.806,0.097C-14.974,-0.177 -15.406,0.075 -15.237,0.349C-12.662,4.536 -8.555,7.728 -3.875,9.224C-3.212,9.436 -2.539,9.619 -1.855,9.751C-1.542,9.81 -1.229,9.866 -0.913,9.906C-0.604,9.945 -0.293,10.001 -0.005,9.867C0.009,9.86 0.013,9.835 0,9.824" style="fill:#272727;fill-rule:nonzero;"/>
            </g>
        </g>
        <g transform="matrix(4.16667,0,0,4.16667,241.92,36.1919)">
            <g transform="matrix(-0.407466,0,0,0.407466,45.2505,-5.14686)">
                <path d="M0,7.3C-0.918,7.03 -1.857,6.846 -2.772,6.565C-3.718,6.275 -4.647,5.93 -5.545,5.515C-7.31,4.697 -8.967,3.634 -10.433,2.356C-10.832,2.008 -11.216,1.644 -11.586,1.266C-11.976,0.867 -12.315,0.4 -12.727,0.027C-12.908,-0.137 -13.213,0.072 -13.077,0.296C-12.829,0.701 -12.462,1.053 -12.136,1.396C-11.783,1.767 -11.415,2.124 -11.034,2.467C-10.294,3.133 -9.506,3.745 -8.678,4.299C-7.036,5.398 -5.21,6.285 -3.313,6.845C-2.248,7.159 -1.133,7.437 -0.017,7.427C0.056,7.426 0.07,7.321 0,7.3" style="fill:#272727;fill-rule:nonzero;"/>
            </g>
        </g>
        <g transform="matrix(4.16667,0,0,4.16667,335.395,109.078)">
            <g transform="matrix(-0.407466,0,0,0.407466,13.6754,-15.5118)">
                <path d="M0,-5.801C-1.319,-5.152 -2.574,-4.383 -3.914,-3.767C-5.266,-3.145 -6.654,-2.6 -8.073,-2.147C-10.89,-1.247 -13.812,-0.691 -16.766,-0.533C-17.588,-0.489 -18.414,-0.475 -19.237,-0.49C-19.632,-0.497 -20.026,-0.512 -20.419,-0.533C-20.829,-0.556 -21.231,-0.6 -21.635,-0.514C-21.779,-0.484 -21.746,-0.299 -21.635,-0.254C-20.977,0.011 -20.153,-0.044 -19.453,-0.027C-18.7,-0.007 -17.947,-0.015 -17.195,-0.047C-15.707,-0.113 -14.222,-0.277 -12.754,-0.533C-9.804,-1.05 -6.931,-1.954 -4.224,-3.238C-2.76,-3.932 -1.221,-4.72 0.026,-5.768C0.046,-5.783 0.021,-5.812 0,-5.801" style="fill:#272727;fill-rule:nonzero;"/>
            </g>
        </g>
        <g transform="matrix(4.16667,0,0,4.16667,327.092,95.7264)">
            <g transform="matrix(-0.407466,0,0,0.407466,16.4801,-13.6131)">
                <path d="M0,-4.585C-2.543,-3.516 -5.132,-2.562 -7.817,-1.912C-10.481,-1.268 -13.216,-0.904 -15.956,-0.833C-17.524,-0.792 -19.093,-0.85 -20.655,-1.001C-20.972,-1.031 -20.97,-0.535 -20.655,-0.505C-15.099,0.029 -9.414,-0.65 -4.161,-2.55C-2.708,-3.075 -1.293,-3.704 0.05,-4.467C0.111,-4.502 0.069,-4.614 0,-4.585" style="fill:#272727;fill-rule:nonzero;"/>
            </g>
        </g>
        <g transform="matrix(4.16667,0,0,4.16667,291.364,83.0044)">
            <g transform="matrix(-0.407466,0,0,0.407466,28.5487,-11.804)">
                <path d="M0,-1.187C-0.858,-0.968 -1.732,-0.777 -2.607,-0.641C-3.043,-0.574 -3.48,-0.532 -3.918,-0.478C-4.147,-0.451 -4.375,-0.42 -4.605,-0.4C-4.815,-0.382 -5.039,-0.392 -5.239,-0.324C-5.383,-0.274 -5.399,-0.057 -5.239,-0.014C-5.034,0.041 -4.816,0.015 -4.605,0.007C-4.377,-0.001 -4.146,-0.008 -3.918,-0.025C-3.474,-0.058 -3.028,-0.133 -2.59,-0.212C-1.679,-0.377 -0.798,-0.613 0.068,-0.938C0.221,-0.996 0.164,-1.228 0,-1.187" style="fill:#272727;fill-rule:nonzero;"/>
            </g>
        </g>
        <g transform="matrix(4.16667,0,0,4.16667,378.451,189.14)">
            <g transform="matrix(-0.407466,0,0,0.407466,-0.868564,-26.8973)">
                <path d="M0,-20.144C0.202,-19.366 0.39,-18.596 0.667,-17.836C0.93,-17.117 1.21,-16.403 1.508,-15.697C2.097,-14.295 2.761,-12.927 3.487,-11.591C4.963,-8.873 6.706,-6.305 8.673,-3.918C9.228,-3.246 9.8,-2.588 10.391,-1.946C10.976,-1.31 11.564,-0.639 12.226,-0.082C12.462,0.116 12.772,-0.188 12.566,-0.422C12.059,-0.996 11.49,-1.519 10.968,-2.08C10.444,-2.64 9.934,-3.214 9.438,-3.799C8.448,-4.967 7.515,-6.182 6.642,-7.439C4.897,-9.95 3.402,-12.614 2.129,-15.391C1.773,-16.167 1.439,-16.953 1.126,-17.747C0.805,-18.562 0.447,-19.366 0.132,-20.18C0.101,-20.26 -0.022,-20.231 0,-20.144" style="fill:#272727;fill-rule:nonzero;"/>
            </g>
        </g>
        <g transform="matrix(4.16667,0,0,4.16667,392.526,186.944)">
            <g transform="matrix(-0.407466,0,0,0.407466,-5.62298,-26.585)">
                <path d="M0,-18.53C0.189,-17.134 0.676,-15.788 1.22,-14.495C1.761,-13.213 2.394,-11.972 3.093,-10.769C4.517,-8.316 6.196,-6.022 7.96,-3.805C8.957,-2.552 9.952,-1.28 11.033,-0.098C11.205,0.089 11.551,-0.167 11.392,-0.376C10.548,-1.483 9.625,-2.531 8.751,-3.615C7.856,-4.726 6.979,-5.853 6.138,-7.007C4.501,-9.251 3.015,-11.607 1.842,-14.13C1.17,-15.572 0.67,-17.076 0.098,-18.557C0.074,-18.619 -0.009,-18.594 0,-18.53" style="fill:#272727;fill-rule:nonzero;"/>
            </g>
        </g>
        <g transform="matrix(4.16667,0,0,4.16667,414.016,153.279)">
            <g transform="matrix(-0.407466,0,0,0.407466,-12.8821,-21.7976)">
                <path d="M0,-6.968C0.651,-5.771 1.313,-4.582 1.997,-3.402C2.329,-2.83 2.663,-2.261 2.996,-1.691C3.339,-1.101 3.656,-0.508 4.09,0.019C4.204,0.158 4.471,0.009 4.4,-0.161C4.144,-0.773 3.784,-1.313 3.434,-1.875C3.074,-2.453 2.715,-3.033 2.354,-3.611C1.629,-4.768 0.887,-5.909 0.132,-7.045C0.078,-7.126 -0.047,-7.055 0,-6.968" style="fill:#272727;fill-rule:nonzero;"/>
            </g>
        </g>
    </g>
</svg>
