<?xml version="1.0" encoding="UTF-8" standalone="no"?>
<!DOCTYPE svg PUBLIC "-//W3C//DTD SVG 1.1//EN" "http://www.w3.org/Graphics/SVG/1.1/DTD/svg11.dtd">
<svg width="678px" height="1144px" version="1.1" xmlns="http://www.w3.org/2000/svg" xmlns:xlink="http://www.w3.org/1999/xlink" xml:space="preserve" xmlns:serif="http://www.serif.com/" style="fill-rule:evenodd;clip-rule:evenodd;stroke-linecap:round;stroke-linejoin:round;stroke-miterlimit:10;">
    <g transform="matrix(1,0,0,1,-0.000413457,0.000439754)">
        <g transform="matrix(1,0,0,1,-276.501,-809.873)">
            <g transform="matrix(4.16667,0,0,4.16667,488.817,1599.22)">
                <g>
                    <path d="M0,10.65C0,10.65 -10.339,14.681 -12.741,13.931C-15.143,13.181 -24.51,-2.766 -24.51,-2.766C-24.51,-2.766 -18.259,-13.881 -22.372,-14.661C-24.093,-15.125 -28.574,-7.914 -28.574,-7.914C-28.574,-7.914 -33.775,-23.344 -35.831,-21.756C-37.886,-20.168 -34.948,-10.881 -34.948,-10.881C-34.948,-10.881 -44.367,-17.288 -45.885,-16.183C-47.403,-15.079 -39.668,-6.58 -39.668,-6.58C-39.668,-6.58 -49.596,-9.533 -49.816,-7.487C-50.037,-5.44 -41.035,-1.256 -41.035,-1.256C-41.035,-1.256 -49.198,-0.646 -49.074,1.494C-48.951,3.633 -33.827,6.473 -33.827,6.473C-33.827,6.473 -28.275,26.119 -20.206,30.056C-12.136,33.994 1.763,27.056 1.763,27.056L0,10.65Z" style="fill:#ffdba9;fill-rule:nonzero;"/>
                </g>
            </g>
        </g>
        <g transform="matrix(1,0,0,1,-276.501,-809.873)">
            <g transform="matrix(4.16667,0,0,4.16667,719.121,1597.4)">
                <g>
                    <path d="M0,7.815C0,7.815 17.209,16.994 18.776,11.931C21.426,5.866 22.163,5.08 23.795,-1.842C23.795,-1.842 13.241,-9.813 16.425,-12.53C17.689,-13.789 25.022,-9.255 25.022,-9.255C25.022,-9.255 24.897,-26.241 27.47,-25.881C30.042,-25.523 31.208,-14.131 31.208,-14.131C31.208,-14.131 36.092,-24.65 37.958,-24.444C39.825,-24.238 36.784,-12.206 36.784,-12.206C36.784,-12.206 37.995,-12.961 39.202,-11.294C40.409,-9.626 39.458,-8.506 39.458,-8.506C39.458,-8.506 40.658,-8.741 41.347,-6.866C42.037,-4.991 36.469,0.999 36.469,0.999C35.6,9.186 29.708,30.306 23.896,32.181C18.083,34.056 -3.854,26.687 -3.854,26.687L0,7.815Z" style="fill:#ffdba9;fill-rule:nonzero;"/>
                </g>
            </g>
        </g>
        <g transform="matrix(1,0,0,1,-276.501,-809.873)">
            <g transform="matrix(4.16667,0,0,4.16667,364.051,1367.16)">
                <g>
                    <path d="M0,-17.207C0,-17.207 -7.793,-24.434 -14.125,-21.836C-20.458,-19.237 -21.281,-9.905 -20.95,-6.21C-20.62,-2.515 -17.86,7.227 -8.93,6.902C-1.842,6.91 1.461,2.844 1.461,2.844L0,-17.207Z" style="fill:#ffdba9;fill-rule:nonzero;"/>
                </g>
            </g>
        </g>
        <g transform="matrix(1,0,0,1,-276.501,-809.873)">
            <g transform="matrix(4.16667,0,0,4.16667,858.634,1367.16)">
                <g>
                    <path d="M0,-17.207C0,-17.207 7.793,-24.434 14.125,-21.836C20.458,-19.237 21.281,-9.905 20.95,-6.21C20.62,-2.515 17.86,7.227 8.93,6.902C1.842,6.91 -1.461,2.844 -1.461,2.844L0,-17.207Z" style="fill:#ffdba9;fill-rule:nonzero;"/>
                </g>
            </g>
        </g>
        <g transform="matrix(1,0,0,1,-276.501,-809.873)">
            <g transform="matrix(4.16667,0,0,4.16667,825.096,1553.12)">
                <g>
                    <path d="M0,-93.195C-10.952,-115.925 -40.275,-119.498 -51.227,-119.498C-62.179,-119.498 -91.502,-115.925 -102.454,-93.195C-113.406,-70.465 -121.178,-25.768 -98.214,-13.104C-75.25,-0.44 -61.826,-4.546 -60.413,26.303L-42.042,26.303C-40.628,-4.546 -27.203,-0.44 -4.239,-13.104C18.724,-25.768 10.952,-70.465 0,-93.195" style="fill:#ffdba9;fill-rule:nonzero;"/>
                </g>
            </g>
        </g>
        <g transform="matrix(1,0,0,1,-276.501,-809.873)">
            <g transform="matrix(4.16667,0,0,4.16667,357.992,1389.49)">
                <g>
                    <path d="M0,-23.009C-0.519,-21.622 -0.707,-20.143 -0.913,-18.682C-1.12,-17.222 -1.25,-15.748 -1.359,-14.279C-1.578,-11.321 -1.634,-8.353 -1.54,-5.389C-1.486,-3.724 -1.383,-2.062 -1.233,-0.403C-1.188,0.098 -0.401,0.102 -0.447,-0.403C-0.981,-6.268 -0.915,-12.188 -0.251,-18.04C-0.066,-19.677 0.213,-21.334 0.193,-22.984C0.192,-23.099 0.038,-23.111 0,-23.009" style="fill:#272727;fill-rule:nonzero;"/>
                </g>
            </g>
        </g>
        <g transform="matrix(1,0,0,1,-276.501,-809.873)">
            <g transform="matrix(4.16667,0,0,4.16667,295.982,1357.36)">
                <g>
                    <path d="M0,-10.322C0.512,-9.518 1.205,-8.82 1.856,-8.13C2.545,-7.397 3.261,-6.693 3.992,-6.004C5.425,-4.653 6.895,-3.336 8.421,-2.092C9.304,-1.371 10.2,-0.668 11.107,0.022C11.299,0.168 11.602,0.051 11.715,-0.137C11.85,-0.363 11.746,-0.601 11.556,-0.745C8.434,-3.104 5.488,-5.664 2.592,-8.292C1.79,-9.019 1.011,-9.822 0.118,-10.44C0.046,-10.49 -0.045,-10.393 0,-10.322" style="fill:#272727;fill-rule:nonzero;"/>
                </g>
            </g>
        </g>
        <g transform="matrix(1,0,0,1,-276.501,-809.873)">
            <g transform="matrix(4.16667,0,0,4.16667,343.738,1366.82)">
                <g>
                    <path d="M0,-14.7C-0.458,-14.49 -0.74,-13.999 -1.025,-13.596C-1.35,-13.138 -1.686,-12.688 -2.008,-12.228C-2.662,-11.296 -3.328,-10.369 -4.004,-9.452C-5.342,-7.638 -6.721,-5.855 -8.148,-4.11C-8.955,-3.125 -9.779,-2.155 -10.62,-1.199C-11.052,-0.708 -10.333,0.016 -9.899,-0.478C-6.879,-3.911 -4.069,-7.537 -1.605,-11.391C-1.263,-11.929 -0.938,-12.472 -0.617,-13.022C-0.46,-13.29 -0.316,-13.559 -0.175,-13.836C-0.026,-14.129 0.085,-14.322 0.076,-14.656C0.075,-14.697 0.035,-14.716 0,-14.7" style="fill:#272727;fill-rule:nonzero;"/>
                </g>
            </g>
        </g>
        <g transform="matrix(1,0,0,1,-276.501,-809.873)">
            <g transform="matrix(4.16667,0,0,4.16667,863.888,1389.39)">
                <g>
                    <path d="M0,-22.959C-0.018,-21.484 0.235,-20.024 0.387,-18.56C0.536,-17.105 0.692,-15.653 0.791,-14.193C0.991,-11.255 1.048,-8.308 0.951,-5.364C0.896,-3.699 0.791,-2.037 0.64,-0.378C0.594,0.126 1.382,0.123 1.427,-0.378C1.959,-6.281 1.899,-12.251 1.177,-18.137C0.977,-19.763 0.769,-21.444 0.193,-22.985C0.156,-23.085 0.001,-23.075 0,-22.959" style="fill:#272727;fill-rule:nonzero;"/>
                </g>
            </g>
        </g>
        <g transform="matrix(1,0,0,1,-276.501,-809.873)">
            <g transform="matrix(4.16667,0,0,4.16667,926.209,1357.85)">
                <g>
                    <path d="M0,-10.557C-0.783,-10.015 -1.469,-9.32 -2.174,-8.682C-2.891,-8.034 -3.604,-7.38 -4.323,-6.733C-5.775,-5.424 -7.272,-4.171 -8.789,-2.939C-9.659,-2.231 -10.542,-1.538 -11.438,-0.862C-11.63,-0.716 -11.726,-0.48 -11.597,-0.254C-11.489,-0.065 -11.18,0.05 -10.989,-0.095C-7.844,-2.487 -4.8,-5.061 -2.059,-7.911C-1.297,-8.703 -0.475,-9.508 0.118,-10.439C0.163,-10.51 0.072,-10.607 0,-10.557" style="fill:#272727;fill-rule:nonzero;"/>
                </g>
            </g>
        </g>
        <g transform="matrix(1,0,0,1,-276.501,-809.873)">
            <g transform="matrix(4.16667,0,0,4.16667,878.626,1366.63)">
                <g>
                    <path d="M0,-14.612C-0.014,-14.096 0.324,-13.613 0.577,-13.177C0.858,-12.695 1.135,-12.211 1.434,-11.738C2.042,-10.777 2.669,-9.83 3.316,-8.894C4.624,-7.006 6.014,-5.17 7.468,-3.39C8.285,-2.389 9.122,-1.404 9.976,-0.434C10.41,0.06 11.128,-0.664 10.697,-1.155C7.715,-4.544 4.958,-8.122 2.352,-11.805C1.994,-12.311 1.629,-12.811 1.27,-13.315C1.083,-13.578 0.89,-13.835 0.691,-14.09C0.494,-14.343 0.374,-14.519 0.077,-14.656C0.042,-14.672 0.001,-14.653 0,-14.612" style="fill:#272727;fill-rule:nonzero;"/>
                </g>
            </g>
        </g>
        <g transform="matrix(1,0,0,1,-276.501,-809.873)">
            <g transform="matrix(4.16667,0,0,4.16667,0,0)">
                <g opacity="0.45">
                    <g transform="matrix(0,1,1,0,107.353,325.096)">
                        <path d="M11.384,-11.385C17.672,-11.385 22.769,-6.288 22.769,0C22.769,6.287 17.672,11.384 11.384,11.384C5.097,11.384 -0,6.287 -0,0C-0,-6.288 5.097,-11.385 11.384,-11.385" style="fill:#ffdba9;fill-rule:nonzero;"/>
                    </g>
                    <g transform="matrix(0,1,1,0,187.383,325.096)">
                        <path d="M11.384,-11.385C17.672,-11.385 22.769,-6.288 22.769,-0.001C22.769,6.286 17.672,11.384 11.384,11.384C5.097,11.384 -0,6.286 -0,-0.001C-0,-6.288 5.097,-11.385 11.384,-11.385" style="fill:#ffdba9;fill-rule:nonzero;"/>
                    </g>
                </g>
            </g>
        </g>
        <g transform="matrix(1,0,0,1,-276.501,-809.873)">
            <g transform="matrix(4.16667,0,0,4.16667,583.4,1327.99)">
                <g>
                    <path d="M0,7.577C0.828,6.56 1.492,5.421 2.293,4.383C3.03,3.429 3.821,2.409 4.783,1.67C5.699,0.966 6.848,0.646 7.937,1.158C9.002,1.659 9.834,2.646 10.573,3.534C11.485,4.632 12.232,5.84 12.865,7.117C13.133,7.658 13.914,7.185 13.668,6.648C13.096,5.399 12.331,4.243 11.472,3.173C10.663,2.164 9.733,1.074 8.576,0.454C7.403,-0.174 6.074,-0.148 4.922,0.514C3.787,1.165 2.933,2.247 2.136,3.259C1.157,4.5 0.128,5.844 -0.374,7.359C-0.441,7.563 -0.142,7.751 0,7.577" style="fill:#272727;fill-rule:nonzero;"/>
                </g>
            </g>
        </g>
        <g transform="matrix(1,0,0,1,-276.501,-809.873)">
            <g transform="matrix(4.16667,0,0,4.16667,435.217,1268.37)">
                <g>
                    <path d="M0,-6.519C0.248,-6.208 0.475,-5.897 0.751,-5.609C1.007,-5.341 1.277,-5.085 1.542,-4.827C2.104,-4.281 2.678,-3.748 3.252,-3.215C4.386,-2.165 5.539,-1.13 6.649,-0.055C7.105,0.387 7.815,-0.341 7.34,-0.746C6.146,-1.762 4.989,-2.826 3.818,-3.868C3.247,-4.375 2.676,-4.883 2.092,-5.377C1.793,-5.63 1.495,-5.889 1.186,-6.131C0.872,-6.375 0.542,-6.575 0.209,-6.79C0.032,-6.906 -0.114,-6.662 0,-6.519" style="fill:#272727;fill-rule:nonzero;"/>
                </g>
            </g>
        </g>
        <g transform="matrix(1,0,0,1,-276.501,-809.873)">
            <g transform="matrix(4.16667,0,0,4.16667,420.55,1273.91)">
                <g>
                    <path d="M0,-2.511C0.553,-2.115 1.301,-1.9 1.941,-1.689C2.646,-1.456 3.353,-1.238 4.062,-1.023C5.459,-0.598 6.857,-0.175 8.256,0.243C8.867,0.426 9.129,-0.531 8.519,-0.711C7.119,-1.125 5.717,-1.533 4.314,-1.941C3.623,-2.142 2.932,-2.339 2.235,-2.524C1.565,-2.701 0.807,-2.937 0.107,-2.906C-0.112,-2.896 -0.168,-2.632 0,-2.511" style="fill:#272727;fill-rule:nonzero;"/>
                </g>
            </g>
        </g>
        <g transform="matrix(1,0,0,1,-276.501,-809.873)">
            <g transform="matrix(0,4.16667,4.16667,0,502.346,1232.48)">
                <g>
                    <path d="M14.437,-14.437C22.411,-14.437 28.874,-7.974 28.874,0C28.874,7.973 22.411,14.437 14.437,14.437C6.464,14.437 -0,7.973 -0,0C-0,-7.974 6.464,-14.437 14.437,-14.437" style="fill:#fff;fill-rule:nonzero;"/>
                </g>
            </g>
        </g>
        <g transform="matrix(1,0,0,1,-276.501,-809.873)">
            <g transform="matrix(4.16667,0,0,4.16667,773.967,1263.3)">
                <g>
                    <path d="M0,-7.642C-0.313,-7.397 -0.627,-7.172 -0.918,-6.899C-1.188,-6.645 -1.447,-6.377 -1.708,-6.115C-2.26,-5.558 -2.798,-4.989 -3.336,-4.419C-4.398,-3.295 -5.443,-2.153 -6.529,-1.053C-6.975,-0.602 -6.248,0.111 -5.838,-0.362C-4.81,-1.546 -3.737,-2.693 -2.683,-3.854C-2.17,-4.419 -1.657,-4.986 -1.158,-5.564C-0.901,-5.862 -0.639,-6.156 -0.396,-6.463C-0.149,-6.775 0.053,-7.102 0.271,-7.432C0.39,-7.61 0.143,-7.753 0,-7.642" style="fill:#272727;fill-rule:nonzero;"/>
                </g>
            </g>
        </g>
        <g transform="matrix(1,0,0,1,-276.501,-809.873)">
            <g transform="matrix(4.16667,0,0,4.16667,790.826,1267.26)">
                <g>
                    <path d="M0,-3.947C-0.676,-3.919 -1.38,-3.641 -2.012,-3.414C-2.708,-3.164 -3.398,-2.901 -4.087,-2.634C-5.449,-2.107 -6.81,-1.579 -8.168,-1.046C-8.417,-0.948 -8.59,-0.714 -8.514,-0.437C-8.449,-0.201 -8.155,0.008 -7.905,-0.092C-6.528,-0.636 -5.152,-1.186 -3.777,-1.738C-3.11,-2.006 -2.445,-2.276 -1.785,-2.559C-1.133,-2.839 -0.394,-3.121 0.149,-3.586C0.289,-3.705 0.177,-3.955 0,-3.947" style="fill:#272727;fill-rule:nonzero;"/>
                </g>
            </g>
        </g>
        <g transform="matrix(1,0,0,1,-276.501,-809.873)">
            <g transform="matrix(0,-4.16667,-4.16667,0,719.946,1232.48)">
                <g>
                    <path d="M-14.437,-14.437C-22.411,-14.437 -28.874,-7.974 -28.874,0C-28.874,7.973 -22.411,14.437 -14.437,14.437C-6.464,14.437 0,7.973 0,0C0,-7.974 -6.464,-14.437 -14.437,-14.437" style="fill:#fff;fill-rule:nonzero;"/>
                </g>
            </g>
        </g>
        <g transform="matrix(1,0,0,1,-276.501,-809.873)">
            <g transform="matrix(4.16667,0,0,4.16667,670.821,1410.78)">
                <g>
                    <path d="M0,-11.961C-0.315,-11.457 -0.515,-10.899 -0.782,-10.367C-1.056,-9.821 -1.354,-9.284 -1.687,-8.772C-2.345,-7.759 -3.08,-6.823 -3.945,-5.98C-5.637,-4.33 -7.715,-3.052 -9.967,-2.332C-12.228,-1.61 -14.636,-1.462 -16.961,-1.959C-19.292,-2.457 -21.508,-3.529 -23.353,-5.04C-25.433,-6.743 -27.077,-8.974 -27.946,-11.527C-28.18,-12.218 -29.282,-11.921 -29.043,-11.226C-27.361,-6.318 -23.112,-2.481 -18.126,-1.117C-13.101,0.257 -7.746,-1.211 -3.885,-4.648C-2.826,-5.59 -1.89,-6.678 -1.115,-7.866C-0.719,-8.473 -0.379,-9.121 -0.098,-9.789C0.179,-10.446 0.452,-11.113 0.478,-11.831C0.487,-12.095 0.13,-12.168 0,-11.961" style="fill:#272727;fill-rule:nonzero;"/>
                </g>
            </g>
        </g>
        <g transform="matrix(1,0,0,1,-276.501,-809.873)">
            <g transform="matrix(-0.783009,-4.09244,-4.09244,0.783009,485.255,1221.46)">
                <g>
                    <g>
                        <clipPath id="_clip1">
                            <path d="M-14.837,13.36C-22.669,14.858 -30.231,9.725 -31.729,1.894C-33.228,-5.937 -28.095,-13.5 -20.263,-14.999C-12.433,-16.497 -4.869,-11.363 -3.371,-3.532C-1.873,4.299 -7.007,11.862 -14.837,13.36Z"/>
                        </clipPath>
                        <g clip-path="url(#_clip1)">
                            <path d="M-14.176,-17.146C-22.148,-17.146 -28.61,-10.684 -28.61,-2.712C-28.61,5.259 -22.148,11.721 -14.176,11.722C-6.205,11.721 0.258,5.258 0.257,-2.712C0.257,-10.684 -6.205,-17.146 -14.176,-17.146" style="fill:#272727;fill-rule:nonzero;"/>
                        </g>
                    </g>
                </g>
            </g>
        </g>
        <g transform="matrix(1,0,0,1,-276.501,-809.873)">
            <g transform="matrix(-0.783038,4.09243,4.09243,0.783038,737.013,1221.46)">
                <g>
                    <g>
                        <clipPath id="_clip2">
                            <path d="M20.263,-15C28.095,-13.501 33.228,-5.938 31.73,1.893C30.231,9.724 22.669,14.858 14.837,13.359C7.007,11.861 1.873,4.298 3.371,-3.533C4.869,-11.364 12.433,-16.498 20.263,-15Z"/>
                        </clipPath>
                        <g clip-path="url(#_clip2)">
                            <path d="M14.177,-17.146C22.149,-17.146 28.61,-10.684 28.61,-2.713C28.61,5.26 22.148,11.721 14.177,11.721C6.204,11.721 -0.258,5.258 -0.257,-2.713C-0.257,-10.685 6.205,-17.146 14.177,-17.146" style="fill:#272727;fill-rule:nonzero;"/>
                        </g>
                    </g>
                </g>
            </g>
        </g>
        <g transform="matrix(1,0,0,1,-276.501,-809.873)">
            <g transform="matrix(4.16667,0,0,4.16667,862.017,1059.71)">
                <g>
                    <path d="M0,53.265C-1.924,42.813 -5.212,32.798 -8.861,25.225C-19.813,2.494 -49.136,-1.078 -60.088,-1.078C-71.04,-1.078 -100.363,2.494 -111.315,25.225C-115.089,33.059 -118.485,43.501 -120.376,54.343C-120.356,54.324 -109.45,44.028 -103.268,31.477L-63.518,31.477L-60.088,9.727L-55.455,30.914L-18.518,30.914C-18.518,30.914 -10.16,48.427 0,53.265" style="fill:#ffc058;fill-rule:nonzero;"/>
                </g>
            </g>
        </g>
        <g transform="matrix(1,0,0,1,-276.501,-809.873)">
            <g transform="matrix(3.59677,-2.10342,-2.10342,-3.59677,817.438,1859.55)">
                <g>
                    <path d="M-25.334,-11.266C-17.873,11.777 -0.002,69.189 -0.002,69.189L-25.334,84.004L-83.096,22.514L-25.334,-11.266Z" style="fill:#f97a5b;fill-rule:nonzero;"/>
                </g>
            </g>
        </g>
        <g transform="matrix(1,0,0,1,-276.501,-809.873)">
            <g transform="matrix(3.96917,1.26761,1.26761,-3.96917,692.513,1599.19)">
                <g>
                    <path d="M-3.872,-4.135L19.922,-4.135L19.573,-27.079L8.507,-24.988L-3.872,-4.135Z" style="fill:#f97a5b;fill-rule:nonzero;"/>
                </g>
            </g>
        </g>
        <g transform="matrix(1,0,0,1,-276.501,-809.873)">
            <g transform="matrix(-3.96915,1.26766,1.26766,3.96915,475.813,1742.98)">
                <g>
                    <path d="M-26.539,-24.854L-2.745,-24.854L-3.093,-1.91L-14.159,-4.001L-26.539,-24.854Z" style="fill:#f97a5b;fill-rule:nonzero;"/>
                </g>
            </g>
        </g>
        <g transform="matrix(1,0,0,1,-276.501,-809.873)">
            <g transform="matrix(-0.929797,4.0616,4.0616,0.929797,633.071,1567.56)">
                <g>
                    <path d="M16.516,-17.212L21.347,-17.212L14.119,14.36C11.896,13.281 10.198,12.456 9.163,11.953L16.516,-17.212Z" style="fill:#fff;fill-rule:nonzero;"/>
                </g>
            </g>
        </g>
        <g transform="matrix(1,0,0,1,-276.501,-809.873)">
            <g transform="matrix(0.506792,-4.13573,-4.13573,-0.506792,632.659,1592.83)">
                <g>
                    <path d="M-19.255,-15.739C-17.165,-14.98 -15.217,-14.272 -13.448,-13.63L-19.255,20.56L-23.76,21.026L-19.255,-15.739Z" style="fill:#fff;fill-rule:nonzero;"/>
                </g>
            </g>
        </g>
        <g transform="matrix(1,0,0,1,-276.501,-809.873)">
            <g transform="matrix(0.691671,-4.10886,-4.10886,-0.691671,643.809,1669.56)">
                <g>
                    <path d="M-23.898,-20.444C-22.131,-19.715 -20.375,-18.988 -18.64,-18.271L-23.898,26.622L-31.321,27.054L-23.898,-20.444Z" style="fill:#fff;fill-rule:nonzero;"/>
                </g>
            </g>
        </g>
        <g transform="matrix(1,0,0,1,-276.501,-809.873)">
            <g transform="matrix(0.453142,-4.14196,-4.14196,-0.453142,633.013,1628.21)">
                <g>
                    <path d="M-21.808,-18.233C-19.775,-17.525 -17.801,-16.839 -15.905,-16.179L-21.808,23.127L-26.391,23.661L-21.808,-18.233Z" style="fill:#fff;fill-rule:nonzero;"/>
                </g>
            </g>
        </g>
        <g transform="matrix(1,0,0,1,-276.501,-809.873)">
            <g transform="matrix(0.461434,-4.14104,-4.14104,-0.461434,636.742,1708.53)">
                <g>
                    <path d="M-27.189,-23.797C-24.969,-23.025 -22.727,-22.244 -20.483,-21.461L-27.189,28.901L-33.478,29.621L-27.189,-23.797Z" style="fill:#fff;fill-rule:nonzero;"/>
                </g>
            </g>
        </g>
        <g transform="matrix(1,0,0,1,-276.501,-809.873)">
            <g transform="matrix(0.215709,-4.16108,-4.16108,-0.215709,628.976,1786.1)">
                <g>
                    <path d="M-33.698,-29.739C-31.497,-29.128 -29.112,-28.463 -26.592,-27.757L-33.698,34.275L-38.51,35.117L-33.698,-29.739Z" style="fill:#fff;fill-rule:nonzero;"/>
                </g>
            </g>
        </g>
        <g transform="matrix(1,0,0,1,-276.501,-809.873)">
            <g transform="matrix(0.490859,-4.13766,-4.13766,-0.490859,634.384,1751.46)">
                <g>
                    <path d="M-28.782,-27.621C-27.054,-27.009 -25.278,-26.379 -23.469,-25.737L-28.782,30.611L-37.904,31.59L-28.782,-27.621Z" style="fill:#fff;fill-rule:nonzero;"/>
                </g>
            </g>
        </g>
        <g transform="matrix(1,0,0,1,-276.501,-809.873)">
            <g transform="matrix(-0.92913,4.06176,4.06176,0.92913,574.013,1685.62)">
                <g>
                    <path d="M-12.192,-9.718L7.746,-9.718" style="fill:none;fill-rule:nonzero;stroke:#272727;stroke-width:0.75px;"/>
                </g>
            </g>
        </g>
        <g transform="matrix(1,0,0,1,-276.501,-809.873)">
            <g transform="matrix(0.935709,4.06024,4.06024,-0.935709,723.013,1649.68)">
                <g>
                    <path d="M-7.838,-9.85L12.378,-9.85" style="fill:none;fill-rule:nonzero;stroke:#272727;stroke-width:0.75px;"/>
                </g>
            </g>
        </g>
        <g transform="matrix(1,0,0,1,-276.501,-809.873)">
            <g transform="matrix(4.16667,0,0,4.16667,883.53,1567.11)">
                <g>
                    <path d="M0,-1.237C0,-1.237 -3.5,3.7 -5.375,2.451C-7.25,1.201 -2.674,-4.937 -2.674,-4.937" style="fill:none;fill-rule:nonzero;stroke:#272727;stroke-width:0.75px;"/>
                </g>
            </g>
        </g>
        <g transform="matrix(1,0,0,1,-276.501,-809.873)">
            <g transform="matrix(4.16667,0,0,4.16667,883.301,1576.39)">
                <g>
                    <path d="M0,2.034C0,2.034 -1.569,2.862 -2.273,2.175C-3.07,1.19 -2.278,-0.828 -2.278,-0.828" style="fill:none;fill-rule:nonzero;stroke:#272727;stroke-width:0.75px;"/>
                </g>
            </g>
        </g>
        <g transform="matrix(1,0,0,1,-276.501,-809.873)">
            <g transform="matrix(4.16667,0,0,4.16667,447.513,987.488)">
                <g>
                    <path d="M0,34.327C-8.613,36.2 -17.226,38.074 -25.838,39.948C-28.195,40.461 -30.734,40.959 -32.95,40.007C-35.165,39.056 -36.601,35.998 -35.058,34.144C-33.917,32.774 -31.876,32.735 -30.18,32.185C-28.484,31.636 -26.863,29.564 -28.041,28.225C-28.979,27.157 -30.995,27.547 -31.776,26.358C-32.675,24.989 -30.899,23.337 -29.282,23.072C-27.666,22.807 -25.775,23.006 -24.64,21.825C-23.145,20.268 -24.242,17.576 -25.93,16.23C-27.618,14.886 -29.8,14.172 -31.234,12.558C-33.625,9.867 -32.973,5.336 -30.421,2.796C-27.87,0.256 -23.963,-0.515 -20.391,-0.066C-16.818,0.384 -13.479,1.896 -10.204,3.39C-11.622,0.535 -12.764,-3.539 -10.122,-5.323C-8.185,-6.632 -5.552,-5.603 -3.595,-4.324C6.143,2.037 11.461,14.522 9.302,25.951L0,34.327Z" style="fill:#ffc058;fill-rule:nonzero;"/>
                </g>
            </g>
        </g>
        <g transform="matrix(1,0,0,1,-276.501,-809.873)">
            <g transform="matrix(4.16667,0,0,4.16667,727.492,1019.68)">
                <g>
                    <path d="M0,16.742C2.336,6.69 6.667,-2.895 12.666,-11.292C14.095,-13.293 15.767,-15.334 18.115,-16.065C20.464,-16.795 23.565,-15.523 23.842,-13.079C24.077,-10.998 22.272,-8.958 22.9,-6.961C23.489,-5.086 25.898,-4.455 27.835,-4.785C29.772,-5.115 31.585,-6.08 33.547,-6.188C36.098,-6.327 38.665,-4.847 39.823,-2.571C40.98,-0.294 40.664,2.652 39.048,4.631C37.811,6.147 35.746,7.681 36.408,9.523C37.151,11.592 41.024,12.375 40.167,14.398C39.547,15.859 37.123,15.353 36.091,16.559C35.091,17.728 36.155,19.605 37.54,20.275C38.924,20.945 40.559,20.977 41.912,21.706C44.658,23.184 45.194,27.285 43.439,29.862C41.685,32.44 38.305,33.537 35.196,33.291C32.087,33.046 29.188,31.664 26.464,30.146C23.74,28.629 21.077,26.936 18.112,25.97L0,16.742Z" style="fill:#ffc058;fill-rule:nonzero;"/>
                </g>
            </g>
        </g>
        <g transform="matrix(1,0,0,1,-276.501,-809.873)">
            <g transform="matrix(4.16667,0,0,4.16667,582.909,1170.52)">
                <g>
                    <path d="M0,-22.992C-1.768,-20.285 -3.194,-17.4 -4.453,-14.426C-5.695,-11.489 -6.754,-8.481 -7.628,-5.415C-7.877,-4.54 -8.112,-3.66 -8.331,-2.776C-8.539,-1.938 -8.834,-0.977 -8.739,-0.108C-8.714,0.119 -8.417,0.239 -8.284,0.015C-7.895,-0.643 -7.742,-1.472 -7.562,-2.21C-7.373,-2.984 -7.172,-3.755 -6.96,-4.523C-6.536,-6.058 -6.065,-7.582 -5.549,-9.089C-4.515,-12.11 -3.288,-15.046 -1.945,-17.94C-1.194,-19.559 -0.406,-21.168 0.381,-22.769C0.506,-23.023 0.156,-23.231 0,-22.992" style="fill:#272727;fill-rule:nonzero;"/>
                </g>
            </g>
        </g>
        <g transform="matrix(1,0,0,1,-276.501,-809.873)">
            <g transform="matrix(4.16667,0,0,4.16667,556.209,1159.62)">
                <g>
                    <path d="M0,-16.609C-0.754,-15.738 -1.358,-14.712 -1.951,-13.728C-2.563,-12.713 -3.125,-11.671 -3.66,-10.613C-4.724,-8.502 -5.66,-6.321 -6.444,-4.089C-6.669,-3.451 -6.883,-2.807 -7.085,-2.161C-7.288,-1.516 -7.459,-0.892 -7.473,-0.213C-7.477,0.022 -7.149,0.107 -7.034,-0.093C-6.46,-1.089 -6.218,-2.258 -5.851,-3.341C-5.477,-4.446 -5.075,-5.542 -4.643,-6.624C-3.772,-8.8 -2.753,-10.899 -1.678,-12.98C-1.384,-13.548 -1.09,-14.119 -0.785,-14.68C-0.461,-15.277 -0.102,-15.851 0.183,-16.468C0.233,-16.579 0.093,-16.716 0,-16.609" style="fill:#272727;fill-rule:nonzero;"/>
                </g>
            </g>
        </g>
        <g transform="matrix(1,0,0,1,-276.501,-809.873)">
            <g transform="matrix(4.16667,0,0,4.16667,523.555,1172.81)">
                <g>
                    <path d="M0,-21.62C-0.679,-21.17 -1.182,-20.5 -1.715,-19.892C-2.242,-19.291 -2.74,-18.664 -3.227,-18.03C-4.215,-16.745 -5.163,-15.429 -6.069,-14.084C-7.899,-11.366 -9.544,-8.524 -11.011,-5.594C-11.423,-4.771 -11.817,-3.939 -12.198,-3.101C-12.38,-2.699 -12.565,-2.298 -12.732,-1.889C-12.915,-1.444 -13.037,-0.992 -13.193,-0.539C-13.311,-0.198 -12.765,0.038 -12.604,-0.291C-12.429,-0.654 -12.22,-0.995 -12.049,-1.362C-11.879,-1.729 -11.72,-2.101 -11.554,-2.471C-11.223,-3.21 -10.879,-3.943 -10.526,-4.673C-9.822,-6.132 -9.074,-7.57 -8.282,-8.983C-6.708,-11.792 -4.969,-14.512 -3.079,-17.117C-2.55,-17.846 -2.017,-18.571 -1.474,-19.289C-0.933,-20.004 -0.288,-20.716 0.086,-21.535C0.109,-21.587 0.058,-21.658 0,-21.62" style="fill:#272727;fill-rule:nonzero;"/>
                </g>
            </g>
        </g>
        <g transform="matrix(1,0,0,1,-276.501,-809.873)">
            <g transform="matrix(4.16667,0,0,4.16667,635.709,1161.49)">
                <g>
                    <path d="M0,-19.234C0.064,-18.62 0.257,-18.014 0.417,-17.42C0.586,-16.794 0.743,-16.166 0.908,-15.539C1.234,-14.305 1.556,-13.071 1.866,-11.834C2.493,-9.338 3.074,-6.834 3.584,-4.312C3.729,-3.597 3.869,-2.881 4.004,-2.166C4.134,-1.472 4.213,-0.737 4.525,-0.096C4.665,0.19 5.044,0.015 5.07,-0.244C5.133,-0.877 4.966,-1.529 4.845,-2.146C4.722,-2.782 4.594,-3.417 4.462,-4.051C4.203,-5.299 3.928,-6.546 3.638,-7.788C3.054,-10.291 2.421,-12.786 1.674,-15.246C1.462,-15.945 1.235,-16.637 1.009,-17.331C0.792,-17.992 0.602,-18.694 0.267,-19.306C0.202,-19.424 -0.015,-19.379 0,-19.234" style="fill:#272727;fill-rule:nonzero;"/>
                </g>
            </g>
        </g>
        <g transform="matrix(1,0,0,1,-276.501,-809.873)">
            <g transform="matrix(4.16667,0,0,4.16667,669.746,1166.29)">
                <g>
                    <path d="M0,-18.784C1.508,-16.665 2.896,-14.432 3.986,-12.067C5.08,-9.695 5.886,-7.191 6.374,-4.625C6.51,-3.908 6.619,-3.186 6.707,-2.463C6.795,-1.726 6.808,-0.976 6.924,-0.245C7.009,0.287 7.802,0.124 7.826,-0.367C7.858,-1.024 7.752,-1.706 7.674,-2.358C7.594,-3.027 7.491,-3.692 7.366,-4.354C7.12,-5.663 6.79,-6.957 6.381,-8.224C5.562,-10.764 4.429,-13.194 2.994,-15.443C2.183,-16.713 1.268,-17.873 0.225,-18.957C0.115,-19.071 -0.096,-18.919 0,-18.784" style="fill:#272727;fill-rule:nonzero;"/>
                </g>
            </g>
        </g>
        <g transform="matrix(1,0,0,1,-276.501,-809.873)">
            <g transform="matrix(4.16667,0,0,4.16667,690.667,1124.06)">
                <g>
                    <path d="M0,-7.947C0.287,-6.546 0.854,-5.181 1.341,-3.839C1.58,-3.179 1.815,-2.519 2.061,-1.863C2.188,-1.524 2.299,-1.174 2.447,-0.844C2.592,-0.521 2.741,-0.15 2.952,0.133C3.084,0.31 3.44,0.282 3.419,0.007C3.366,-0.68 3.059,-1.368 2.818,-2.008C2.557,-2.704 2.284,-3.395 2.016,-4.089C1.498,-5.426 1.025,-6.832 0.316,-8.08C0.216,-8.257 -0.038,-8.134 0,-7.947" style="fill:#272727;fill-rule:nonzero;"/>
                </g>
            </g>
        </g>
        <g transform="matrix(1,0,0,1,-276.501,-809.873)">
            <g transform="matrix(4.16667,0,0,4.16667,720.863,1172.22)">
                <g>
                    <path d="M0,-19.223C0.78,-18.059 1.629,-16.945 2.424,-15.791C3.222,-14.634 3.975,-13.446 4.682,-12.23C6.097,-9.796 7.369,-7.284 8.428,-4.674C8.727,-3.939 9.01,-3.197 9.276,-2.449C9.542,-1.703 9.748,-0.928 10.042,-0.194C10.236,0.289 10.953,0.116 10.836,-0.412C10.682,-1.112 10.412,-1.798 10.174,-2.473C9.935,-3.154 9.681,-3.828 9.414,-4.499C8.894,-5.807 8.327,-7.097 7.704,-8.36C6.441,-10.92 4.972,-13.364 3.304,-15.682C2.364,-16.989 1.387,-18.277 0.229,-19.4C0.114,-19.512 -0.095,-19.365 0,-19.223" style="fill:#272727;fill-rule:nonzero;"/>
                </g>
            </g>
        </g>
        <g transform="matrix(1,0,0,1,-276.501,-809.873)">
            <g transform="matrix(4.16667,0,0,4.16667,729.934,1125.71)">
                <g>
                    <path d="M0,-11.04C0.536,-10.692 1.159,-10.469 1.743,-10.216C2.337,-9.959 2.924,-9.686 3.504,-9.397C4.665,-8.821 5.792,-8.181 6.892,-7.496C9.059,-6.146 11.083,-4.578 12.929,-2.815C13.989,-1.802 14.989,-0.727 15.924,0.403C16.092,0.607 16.44,0.578 16.615,0.403C16.816,0.202 16.784,-0.084 16.615,-0.288C13.258,-4.328 9.046,-7.684 4.327,-9.997C3.65,-10.33 2.962,-10.64 2.267,-10.933C1.588,-11.218 0.889,-11.514 0.154,-11.606C-0.168,-11.647 -0.228,-11.187 0,-11.04" style="fill:#272727;fill-rule:nonzero;"/>
                </g>
            </g>
        </g>
        <g transform="matrix(1,0,0,1,-276.501,-809.873)">
            <g transform="matrix(4.16667,0,0,4.16667,483.342,1136.86)">
                <g>
                    <path d="M0,-13.635C-1.318,-13.311 -2.592,-12.719 -3.799,-12.105C-5.038,-11.476 -6.232,-10.764 -7.382,-9.986C-9.66,-8.444 -11.758,-6.64 -13.619,-4.614C-14.14,-4.047 -14.641,-3.463 -15.123,-2.864C-15.609,-2.258 -16.173,-1.63 -16.532,-0.941C-16.774,-0.477 -16.162,0.062 -15.779,-0.359C-15.321,-0.862 -14.958,-1.46 -14.538,-1.996C-14.125,-2.523 -13.697,-3.038 -13.255,-3.54C-12.36,-4.558 -11.406,-5.523 -10.399,-6.431C-8.412,-8.224 -6.234,-9.776 -3.907,-11.096C-2.57,-11.854 -1.165,-12.471 0.182,-13.204C0.42,-13.335 0.255,-13.697 0,-13.635" style="fill:#272727;fill-rule:nonzero;"/>
                </g>
            </g>
        </g>
        <g transform="matrix(1,0,0,1,-276.501,-809.873)">
            <g transform="matrix(4.16667,0,0,4.16667,803.446,1074.51)">
                <g>
                    <path d="M0,-20.646C-0.633,-20.213 -1.217,-19.641 -1.764,-19.104C-2.313,-18.566 -2.849,-18.012 -3.357,-17.435C-4.371,-16.285 -5.305,-15.073 -6.154,-13.797C-7.878,-11.206 -9.229,-8.371 -10.184,-5.41C-10.713,-3.772 -11.203,-2.058 -11.338,-0.338C-11.366,0.006 -10.822,0.073 -10.741,-0.257C-10.38,-1.738 -10.11,-3.232 -9.671,-4.696C-9.232,-6.159 -8.696,-7.593 -8.063,-8.983C-6.812,-11.732 -5.224,-14.344 -3.326,-16.695C-2.8,-17.347 -2.254,-17.985 -1.685,-18.599C-1.094,-19.235 -0.439,-19.825 0.13,-20.478C0.206,-20.563 0.107,-20.719 0,-20.646" style="fill:#272727;fill-rule:nonzero;"/>
                </g>
            </g>
        </g>
        <g transform="matrix(1,0,0,1,-276.501,-809.873)">
            <g transform="matrix(4.16667,0,0,4.16667,871.117,1088.27)">
                <g>
                    <path d="M0,-16.796C-3.584,-15.333 -7.031,-13.568 -10.343,-11.564C-13.663,-9.554 -16.848,-7.326 -19.871,-4.893C-20.709,-4.219 -21.535,-3.53 -22.348,-2.825C-23.176,-2.107 -24.063,-1.408 -24.726,-0.53C-24.924,-0.267 -24.542,0.085 -24.282,-0.086C-23.479,-0.612 -22.803,-1.311 -22.086,-1.945C-21.375,-2.573 -20.655,-3.189 -19.925,-3.794C-18.436,-5.027 -16.904,-6.21 -15.337,-7.343C-12.235,-9.588 -8.985,-11.626 -5.626,-13.463C-3.726,-14.503 -1.798,-15.493 0.154,-16.431C0.355,-16.527 0.21,-16.881 0,-16.796" style="fill:#272727;fill-rule:nonzero;"/>
                </g>
            </g>
        </g>
        <g transform="matrix(1,0,0,1,-276.501,-809.873)">
            <g transform="matrix(4.16667,0,0,4.16667,857.551,1085.84)">
                <g>
                    <path d="M0,-6.485C-4.406,-5.71 -8.73,-4.178 -12.756,-2.248C-13.337,-1.969 -13.913,-1.681 -14.484,-1.383C-14.753,-1.243 -15.018,-1.097 -15.281,-0.946C-15.559,-0.786 -15.86,-0.642 -16.09,-0.415C-16.256,-0.252 -16.086,0.025 -15.867,-0.032C-15.354,-0.164 -14.849,-0.509 -14.382,-0.758C-13.898,-1.018 -13.41,-1.27 -12.919,-1.515C-11.919,-2.013 -10.908,-2.487 -9.883,-2.929C-7.834,-3.815 -5.731,-4.566 -3.601,-5.231C-2.389,-5.609 -1.165,-5.933 0.062,-6.26C0.208,-6.299 0.145,-6.51 0,-6.485" style="fill:#272727;fill-rule:nonzero;"/>
                </g>
            </g>
        </g>
        <g transform="matrix(1,0,0,1,-276.501,-809.873)">
            <g transform="matrix(4.16667,0,0,4.16667,883.563,1110.23)">
                <g>
                    <path d="M0,6.052C-5.299,3.812 -10.794,2.116 -16.383,0.762C-17.157,0.574 -17.932,0.395 -18.708,0.222C-19.504,0.044 -20.331,-0.206 -21.146,-0.255C-21.568,-0.28 -21.605,0.323 -21.241,0.448C-20.573,0.678 -19.835,0.759 -19.144,0.904C-18.442,1.051 -17.742,1.202 -17.043,1.361C-15.646,1.677 -14.254,2.017 -12.869,2.379C-10.115,3.1 -7.398,3.934 -4.686,4.794C-3.153,5.28 -1.621,5.769 -0.099,6.286C0.037,6.332 0.135,6.11 0,6.052" style="fill:#272727;fill-rule:nonzero;"/>
                </g>
            </g>
        </g>
        <g transform="matrix(1,0,0,1,-276.501,-809.873)">
            <g transform="matrix(4.16667,0,0,4.16667,413.975,1064.03)">
                <g>
                    <path d="M0,-19.628C0.263,-18.99 0.756,-18.435 1.168,-17.885C1.606,-17.302 2.033,-16.711 2.449,-16.112C3.261,-14.945 4.041,-13.753 4.781,-12.538C6.282,-10.077 7.613,-7.511 8.761,-4.865C9.416,-3.356 10.005,-1.818 10.536,-0.261C10.699,0.217 11.461,0.01 11.295,-0.47C9.37,-6.005 6.689,-11.322 3.265,-16.084C2.802,-16.728 2.326,-17.362 1.839,-17.988C1.358,-18.608 0.862,-19.346 0.202,-19.783C0.108,-19.845 -0.046,-19.74 0,-19.628" style="fill:#272727;fill-rule:nonzero;"/>
                </g>
            </g>
        </g>
        <g transform="matrix(1,0,0,1,-276.501,-809.873)">
            <g transform="matrix(4.16667,0,0,4.16667,355.616,1068.08)">
                <g>
                    <path d="M0,-12.067C0.569,-11.707 1.19,-11.449 1.806,-11.177C2.426,-10.903 3.037,-10.613 3.642,-10.31C4.825,-9.716 5.982,-9.081 7.102,-8.376C9.374,-6.946 11.488,-5.275 13.403,-3.394C13.935,-2.871 14.452,-2.333 14.953,-1.781C15.475,-1.204 15.944,-0.574 16.479,-0.012C16.729,0.251 17.197,-0.095 16.989,-0.405C16.61,-0.975 16.128,-1.49 15.675,-2.001C15.213,-2.521 14.737,-3.026 14.247,-3.519C13.29,-4.48 12.281,-5.388 11.227,-6.24C9.095,-7.962 6.784,-9.46 4.334,-10.69C3.644,-11.036 2.936,-11.347 2.223,-11.643C1.523,-11.933 0.816,-12.2 0.063,-12.3C-0.069,-12.318 -0.095,-12.127 0,-12.067" style="fill:#272727;fill-rule:nonzero;"/>
                </g>
            </g>
        </g>
        <g transform="matrix(1,0,0,1,-276.501,-809.873)">
            <g transform="matrix(4.16667,0,0,4.16667,350.381,1083.23)">
                <g>
                    <path d="M0,-3.06C0.499,-3.052 1.001,-2.998 1.5,-2.977C2.001,-2.956 2.502,-2.946 3.002,-2.915C4.007,-2.856 5.015,-2.749 6.009,-2.594C7.969,-2.288 9.897,-1.771 11.748,-1.054C12.271,-0.852 12.787,-0.634 13.297,-0.4C13.812,-0.163 14.31,0.132 14.837,0.338C15.243,0.498 15.436,-0.107 15.118,-0.326C14.697,-0.616 14.194,-0.82 13.731,-1.033C13.28,-1.24 12.824,-1.436 12.362,-1.619C11.397,-2.001 10.41,-2.329 9.408,-2.599C7.449,-3.129 5.421,-3.465 3.391,-3.528C2.818,-3.545 2.24,-3.558 1.667,-3.52C1.088,-3.482 0.539,-3.378 -0.031,-3.289C-0.164,-3.268 -0.127,-3.062 0,-3.06" style="fill:#272727;fill-rule:nonzero;"/>
                </g>
            </g>
        </g>
        <g transform="matrix(1,0,0,1,-276.501,-809.873)">
            <g transform="matrix(4.16667,0,0,4.16667,339.525,1106.2)">
                <g>
                    <path d="M0,5.196C1.707,3.841 3.498,2.658 5.552,1.893C7.567,1.141 9.674,0.706 11.829,0.699C12.413,0.697 12.997,0.721 13.578,0.779C13.868,0.807 14.159,0.837 14.448,0.873C14.772,0.914 15.081,0.919 15.406,0.936C15.73,0.953 15.749,0.504 15.479,0.403C15.214,0.304 14.972,0.202 14.692,0.151C14.419,0.101 14.145,0.055 13.869,0.023C13.305,-0.042 12.736,-0.072 12.169,-0.076C11.05,-0.085 9.927,0.025 8.826,0.228C6.652,0.63 4.578,1.446 2.714,2.636C1.664,3.306 0.663,4.098 -0.151,5.045C-0.243,5.151 -0.107,5.281 0,5.196" style="fill:#272727;fill-rule:nonzero;"/>
                </g>
            </g>
        </g>
        <g transform="matrix(1,0,0,1,-276.501,-809.873)">
            <g transform="matrix(4.16667,0,0,4.16667,614.78,1037.65)">
                <g>
                    <path d="M0,4.221L13.315,-6.511L13.315,10.732L0,4.221Z" style="fill:#f97a5b;fill-rule:nonzero;"/>
                </g>
            </g>
        </g>
        <g transform="matrix(1,0,0,1,-276.501,-809.873)">
            <g transform="matrix(4.16667,0,0,4.16667,614.78,1036.58)">
                <g>
                    <path d="M0,4.479L-11.718,-6.253L-13.313,10.732L0,4.479Z" style="fill:#f97a5b;fill-rule:nonzero;"/>
                </g>
            </g>
        </g>
        <g transform="matrix(1,0,0,1,-276.501,-809.873)">
            <g transform="matrix(-4.15707,-0.282665,-0.282665,4.15707,611.063,1066.65)">
                <g>
                    <path d="M-0.906,-5.296C-2.117,-5.378 -2.813,-4.368 -2.895,-3.164C-2.977,-1.96 -2.131,-0.102 -0.906,-0.019C0.319,0.065 1.271,-1.337 1.602,-2.615C1.931,-3.893 0.305,-5.213 -0.906,-5.296" style="fill:#f97a5b;fill-rule:nonzero;"/>
                </g>
            </g>
        </g>
        <g transform="matrix(1,0,0,1,-276.501,-809.873)">
            <g transform="matrix(4.16667,0,0,4.16667,606.992,1058.7)">
                <g>
                    <path d="M0,-2.304C-0.303,-2.028 -0.491,-1.602 -0.573,-1.206C-0.614,-1.005 -0.633,-0.798 -0.62,-0.593C-0.613,-0.487 -0.599,-0.379 -0.578,-0.274C-0.557,-0.166 -0.539,-0.04 -0.453,0.035C-0.377,0.1 -0.242,0.083 -0.218,-0.027C-0.195,-0.127 -0.23,-0.216 -0.251,-0.313C-0.271,-0.401 -0.284,-0.488 -0.291,-0.576C-0.304,-0.763 -0.296,-0.953 -0.261,-1.137C-0.188,-1.519 -0.01,-1.827 0.215,-2.138C0.309,-2.269 0.109,-2.404 0,-2.304" style="fill:#272727;fill-rule:nonzero;"/>
                </g>
            </g>
        </g>
        <g transform="matrix(1,0,0,1,-276.501,-809.873)">
            <g transform="matrix(4.16667,0,0,4.16667,622.15,1058.47)">
                <g>
                    <path d="M0,-2.045C0.144,-1.747 0.296,-1.457 0.34,-1.123C0.381,-0.804 0.344,-0.467 0.217,-0.17C0.127,0.039 0.422,0.166 0.506,-0.048C0.645,-0.403 0.676,-0.789 0.618,-1.164C0.562,-1.524 0.421,-1.913 0.135,-2.149C0.06,-2.211 -0.043,-2.135 0,-2.045" style="fill:#272727;fill-rule:nonzero;"/>
                </g>
            </g>
        </g>
        <g transform="matrix(1,0,0,1,-276.501,-809.873)">
            <g transform="matrix(4.16667,0,0,4.16667,335.106,944.388)">
                <g>
                    <path d="M0,-10.15C-2.323,-12.445 -4.051,-17.752 -4.051,-17.752C-4.051,-17.752 -3.898,-11.478 -5.815,-8.856C-7.732,-6.234 -13.003,-3.863 -13.003,-3.863C-13.003,-3.863 -6.563,-3.662 -4.84,-2.067C-3.116,-0.473 0.284,7.602 0.284,7.602C0.284,7.602 -0.179,0.228 1.504,-2.857C3.187,-5.942 9.007,-7.627 9.007,-7.627C9.007,-7.627 2.323,-7.855 0,-10.15" style="fill:#cceae2;fill-rule:nonzero;"/>
                </g>
            </g>
        </g>
        <g transform="matrix(1,0,0,1,-276.501,-809.873)">
            <g transform="matrix(4.16667,0,0,4.16667,893.234,910.684)">
                <g>
                    <path d="M0,-7.18C-1.323,-9.514 -1.501,-14.095 -1.501,-14.095C-1.501,-14.095 -2.784,-9.101 -4.886,-7.458C-6.988,-5.815 -11.684,-5.119 -11.684,-5.119C-11.684,-5.119 -6.639,-3.52 -5.634,-1.875C-4.628,-0.229 -3.747,6.915 -3.747,6.915C-3.747,6.915 -2.463,0.983 -0.443,-1.079C1.577,-3.141 6.555,-3.17 6.555,-3.17C6.555,-3.17 1.322,-4.847 0,-7.18" style="fill:#cceae2;fill-rule:nonzero;"/>
                </g>
            </g>
        </g>
        <g transform="matrix(1,0,0,1,-276.501,-809.873)">
            <g transform="matrix(4.16667,0,0,4.16667,345.254,1760.38)">
                <g>
                    <path d="M0,-9.057C-2.053,-11.149 -3.532,-15.935 -3.532,-15.935C-3.532,-15.935 -3.48,-10.302 -5.236,-7.975C-6.992,-5.649 -11.754,-3.592 -11.754,-3.592C-11.754,-3.592 -5.978,-3.325 -4.454,-1.87C-2.929,-0.415 0.013,6.878 0.013,6.878C0.013,6.878 -0.302,0.254 1.25,-2.492C2.803,-5.238 8.049,-6.669 8.049,-6.669C8.049,-6.669 2.053,-6.966 0,-9.057" style="fill:#cceae2;fill-rule:nonzero;"/>
                </g>
            </g>
        </g>
        <g transform="matrix(1,0,0,1,-276.501,-809.873)">
            <g transform="matrix(4.16667,0,0,4.16667,930.113,1637.06)">
                <g>
                    <path d="M0,-6.253C-1.207,-8.161 -1.543,-12.007 -1.543,-12.007C-1.543,-12.007 -2.419,-7.755 -4.12,-6.287C-5.821,-4.82 -9.742,-4.044 -9.742,-4.044C-9.742,-4.044 -5.434,-2.904 -4.521,-1.562C-3.609,-0.218 -2.577,5.754 -2.577,5.754C-2.577,5.754 -1.739,0.713 -0.124,-1.104C1.491,-2.92 5.676,-3.147 5.676,-3.147C5.676,-3.147 1.208,-4.344 0,-6.253" style="fill:#fbe4ae;fill-rule:nonzero;"/>
                </g>
            </g>
        </g>
        <g transform="matrix(1,0,0,1,-276.501,-809.873)">
            <g transform="matrix(4.16667,0,0,4.16667,746.155,965.501)">
                <g>
                    <path d="M0,-17.624C0.164,-14.691 0.183,-11.758 0.187,-8.825C0.173,-7.359 0.187,-5.893 0.149,-4.426C0.13,-2.959 0.083,-1.493 0.027,-0.027C0.026,0.003 0.001,0.027 -0.029,0.026C-0.058,0.025 -0.081,0.001 -0.082,-0.027C-0.137,-1.493 -0.185,-2.959 -0.204,-4.426C-0.241,-5.893 -0.227,-7.359 -0.242,-8.825C-0.237,-11.758 -0.218,-14.691 -0.055,-17.624C-0.054,-17.639 -0.041,-17.651 -0.026,-17.65C-0.012,-17.649 0,-17.638 0,-17.624" style="fill:#f4efdf;fill-rule:nonzero;"/>
                </g>
            </g>
        </g>
        <g transform="matrix(1,0,0,1,-276.501,-809.873)">
            <g transform="matrix(4.16667,0,0,4.16667,782.509,932.622)">
                <g>
                    <path d="M0,-1.844C-2.901,-1.392 -5.814,-1.053 -8.728,-0.719C-11.644,-0.403 -14.56,-0.093 -17.486,0.132C-17.536,0.136 -17.579,0.099 -17.583,0.05C-17.586,0.002 -17.552,-0.039 -17.506,-0.046C-14.603,-0.472 -11.689,-0.814 -8.776,-1.149C-5.86,-1.466 -2.944,-1.779 -0.015,-1.978C0.022,-1.98 0.054,-1.952 0.057,-1.915C0.059,-1.88 0.034,-1.849 0,-1.844" style="fill:#f4efdf;fill-rule:nonzero;"/>
                </g>
            </g>
        </g>
        <g transform="matrix(1,0,0,1,-276.501,-809.873)">
            <g transform="matrix(4.16667,0,0,4.16667,768.746,914.738)">
                <g>
                    <path d="M0,8.581C-1.537,7.223 -3.036,5.822 -4.551,4.441C-6.055,3.047 -7.552,1.645 -9.016,0.208C-9.071,0.154 -9.071,0.065 -9.018,0.01C-8.965,-0.043 -8.88,-0.045 -8.825,0.003C-7.286,1.36 -5.78,2.751 -4.282,4.152C-2.795,5.564 -1.291,6.957 0.175,8.393C0.226,8.442 0.227,8.524 0.177,8.575C0.129,8.623 0.051,8.626 0,8.581" style="fill:#f4efdf;fill-rule:nonzero;"/>
                </g>
            </g>
        </g>
        <g transform="matrix(1,0,0,1,-276.501,-809.873)">
            <g transform="matrix(4.16667,0,0,4.16667,762.309,944.955)">
                <g>
                    <path d="M0,-8.252C-1.168,-6.816 -2.391,-5.428 -3.585,-4.016C-4.811,-2.631 -6.018,-1.229 -7.278,0.126C-7.327,0.178 -7.409,0.181 -7.46,0.132C-7.511,0.086 -7.515,0.009 -7.473,-0.044C-6.301,-1.476 -5.075,-2.861 -3.868,-4.263C-2.631,-5.638 -1.421,-7.037 -0.156,-8.389C-0.117,-8.43 -0.051,-8.433 -0.01,-8.394C0.03,-8.356 0.034,-8.294 0,-8.252" style="fill:#f4efdf;fill-rule:nonzero;"/>
                </g>
            </g>
        </g>
        <g transform="matrix(1,0,0,1,-276.501,-809.873)">
            <g transform="matrix(4.16667,0,0,4.16667,307.971,1432.14)">
                <g>
                    <path d="M0,17.042C0.583,14.162 1.306,11.32 2.043,8.481C2.427,7.066 2.785,5.644 3.191,4.234C3.58,2.82 3.998,1.414 4.421,0.009C4.43,-0.02 4.46,-0.036 4.489,-0.027C4.517,-0.02 4.533,0.009 4.527,0.036C4.209,1.469 3.886,2.9 3.533,4.323C3.198,5.752 2.814,7.167 2.458,8.59C1.712,11.426 0.953,14.259 0.053,17.056C0.048,17.069 0.033,17.078 0.019,17.073C0.005,17.068 -0.003,17.055 0,17.042" style="fill:#f4efdf;fill-rule:nonzero;"/>
                </g>
            </g>
        </g>
        <g transform="matrix(1,0,0,1,-276.501,-809.873)">
            <g transform="matrix(4.16667,0,0,4.16667,281.108,1473.35)">
                <g>
                    <path d="M0,-2.687C2.92,-2.391 5.825,-1.983 8.729,-1.569C11.63,-1.138 14.53,-0.702 17.418,-0.179C17.466,-0.17 17.499,-0.124 17.49,-0.076C17.482,-0.029 17.438,0.003 17.392,-0.002C14.475,-0.324 11.57,-0.729 8.667,-1.142C5.765,-1.572 2.865,-2.006 -0.02,-2.554C-0.056,-2.561 -0.08,-2.596 -0.073,-2.632C-0.066,-2.667 -0.034,-2.69 0,-2.687" style="fill:#f4efdf;fill-rule:nonzero;"/>
                </g>
            </g>
        </g>
        <g transform="matrix(1,0,0,1,-276.501,-809.873)">
            <g transform="matrix(4.16667,0,0,4.16667,300.884,1484.81)">
                <g>
                    <path d="M0,-10.536C1.144,-8.833 2.24,-7.099 3.356,-5.38C4.46,-3.651 5.554,-1.917 6.606,-0.156C6.646,-0.09 6.625,-0.004 6.559,0.035C6.495,0.073 6.412,0.055 6.371,-0.007C5.225,-1.708 4.119,-3.434 3.024,-5.168C1.941,-6.91 0.838,-8.639 -0.217,-10.397C-0.253,-10.459 -0.234,-10.538 -0.173,-10.574C-0.114,-10.609 -0.038,-10.592 0,-10.536" style="fill:#f4efdf;fill-rule:nonzero;"/>
                </g>
            </g>
        </g>
        <g transform="matrix(1,0,0,1,-276.501,-809.873)">
            <g transform="matrix(4.16667,0,0,4.16667,297.02,1455.73)">
                <g>
                    <path d="M0,6.103C1.493,5.009 3.027,3.975 4.54,2.911C6.076,1.88 7.598,0.829 9.16,-0.164C9.22,-0.202 9.3,-0.183 9.338,-0.124C9.375,-0.066 9.359,0.01 9.305,0.05C7.809,1.14 6.273,2.17 4.751,3.221C3.206,4.239 1.682,5.287 0.117,6.275C0.068,6.305 0.004,6.29 -0.026,6.243C-0.055,6.196 -0.043,6.135 0,6.103" style="fill:#f4efdf;fill-rule:nonzero;"/>
                </g>
            </g>
        </g>
        <g transform="matrix(1,0,0,1,-276.501,-809.873)">
            <g transform="matrix(4.16667,0,0,4.16667,801.521,1789.68)">
                <g>
                    <path d="M0,-1.449C2.083,-1.456 4.163,-1.393 6.243,-1.333C8.321,-1.24 10.4,-1.169 12.477,-1.044C14.553,-0.912 16.63,-0.82 18.705,-0.656C20.78,-0.511 22.854,-0.35 24.927,-0.148C24.969,-0.144 25,-0.106 24.997,-0.063C24.992,-0.023 24.958,0.007 24.918,0.006C22.836,-0.014 20.757,-0.077 18.678,-0.155C16.598,-0.215 14.522,-0.345 12.444,-0.437C10.366,-0.535 8.292,-0.687 6.215,-0.818C4.141,-0.98 2.066,-1.14 -0.004,-1.371C-0.025,-1.374 -0.041,-1.393 -0.039,-1.414C-0.036,-1.434 -0.02,-1.449 0,-1.449" style="fill:#cceae2;fill-rule:nonzero;"/>
                </g>
            </g>
        </g>
        <g transform="matrix(1,0,0,1,-276.501,-809.873)">
            <g transform="matrix(4.16667,0,0,4.16667,850.842,1838.66)">
                <g>
                    <path d="M0,-24.963C0.203,-22.891 0.375,-20.817 0.529,-18.742L0.929,-12.515C1.033,-10.438 1.166,-8.361 1.247,-6.283C1.345,-4.205 1.412,-2.125 1.469,-0.045C1.471,0.025 1.415,0.084 1.345,0.086C1.277,0.087 1.221,0.036 1.215,-0.03C1.032,-2.104 0.859,-4.177 0.718,-6.252C0.56,-8.327 0.453,-10.404 0.318,-12.48L0,-18.712C-0.086,-20.791 -0.154,-22.87 -0.19,-24.951C-0.191,-25.004 -0.149,-25.048 -0.097,-25.049C-0.046,-25.05 -0.005,-25.012 0,-24.963" style="fill:#f4efdf;fill-rule:nonzero;"/>
                </g>
            </g>
        </g>
        <g transform="matrix(1,0,0,1,-276.501,-809.873)">
            <g transform="matrix(4.16667,0,0,4.16667,885.992,1805.58)">
                <g>
                    <path d="M0,-11.876C-2.041,-9.802 -4.138,-7.786 -6.21,-5.745C-7.242,-4.72 -8.306,-3.728 -9.359,-2.725C-10.411,-1.721 -11.466,-0.72 -12.545,0.257C-12.626,0.33 -12.752,0.324 -12.825,0.242C-12.896,0.165 -12.893,0.046 -12.82,-0.028C-11.807,-1.072 -10.77,-2.092 -9.729,-3.107C-8.689,-4.125 -7.66,-5.152 -6.599,-6.147C-4.486,-8.147 -2.398,-10.172 -0.253,-12.138C-0.179,-12.206 -0.064,-12.201 0.004,-12.127C0.07,-12.055 0.067,-11.944 0,-11.876" style="fill:#cceae2;fill-rule:nonzero;"/>
                </g>
            </g>
        </g>
        <g transform="matrix(1,0,0,1,-276.501,-809.873)">
            <g transform="matrix(4.16667,0,0,4.16667,828.955,1808.93)">
                <g>
                    <path d="M0,-11.222C1.945,-9.458 3.818,-7.621 5.727,-5.821L8.535,-3.064C9.474,-2.147 10.401,-1.219 11.313,-0.275C11.383,-0.202 11.381,-0.087 11.308,-0.017C11.238,0.05 11.128,0.051 11.058,-0.013C10.088,-0.898 9.134,-1.798 8.192,-2.711L5.356,-5.44C3.502,-7.297 1.613,-9.117 -0.205,-11.011C-0.261,-11.07 -0.259,-11.162 -0.201,-11.219C-0.145,-11.273 -0.057,-11.273 0,-11.222" style="fill:#cceae2;fill-rule:nonzero;"/>
                </g>
            </g>
        </g>
        <g transform="matrix(1,0,0,1,-276.501,-809.873)">
            <g transform="matrix(4.16667,0,0,4.16667,350.914,844.942)">
                <g>
                    <path d="M0,4.423C1.792,3.948 3.597,3.534 5.4,3.119C7.21,2.731 9.016,2.325 10.832,1.965C12.648,1.612 14.458,1.224 16.281,0.899C18.1,0.557 19.922,0.228 21.751,-0.064C21.789,-0.07 21.824,-0.044 21.83,-0.006C21.836,0.029 21.813,0.063 21.779,0.071C19.982,0.522 18.177,0.935 16.37,1.336C14.566,1.753 12.75,2.107 10.94,2.495C9.129,2.878 7.309,3.214 5.493,3.568C3.67,3.895 1.848,4.223 0.014,4.49C-0.005,4.493 -0.022,4.48 -0.025,4.461C-0.028,4.444 -0.017,4.427 0,4.423" style="fill:#f4efdf;fill-rule:nonzero;"/>
                </g>
            </g>
        </g>
        <g transform="matrix(1,0,0,1,-276.501,-809.873)">
            <g transform="matrix(4.16667,0,0,4.16667,382.357,898.488)">
                <g>
                    <path d="M0,-21.212C0.641,-19.474 1.255,-17.728 1.854,-15.976L3.599,-10.705C4.728,-7.18 5.849,-3.653 6.868,-0.092C6.885,-0.032 6.85,0.031 6.79,0.048C6.732,0.064 6.673,0.033 6.652,-0.022C5.391,-3.504 4.231,-7.02 3.081,-10.538L1.405,-15.831C0.864,-17.601 0.338,-19.376 -0.162,-21.16C-0.174,-21.205 -0.148,-21.252 -0.103,-21.265C-0.06,-21.276 -0.015,-21.253 0,-21.212" style="fill:#f4efdf;fill-rule:nonzero;"/>
                </g>
            </g>
        </g>
        <g transform="matrix(1,0,0,1,-276.501,-809.873)">
            <g transform="matrix(4.16667,0,0,4.16667,417.438,875.255)">
                <g>
                    <path d="M0,-13.104C-1.291,-10.86 -2.643,-8.653 -3.967,-6.43C-4.625,-5.315 -5.318,-4.222 -5.999,-3.121C-6.678,-2.021 -7.362,-0.921 -8.071,0.162C-8.125,0.243 -8.234,0.266 -8.315,0.212C-8.394,0.161 -8.417,0.058 -8.372,-0.022C-7.734,-1.148 -7.07,-2.259 -6.403,-3.368C-5.737,-4.477 -5.082,-5.594 -4.393,-6.689C-3.023,-8.885 -1.681,-11.098 -0.277,-13.273C-0.228,-13.348 -0.128,-13.37 -0.053,-13.321C0.021,-13.274 0.042,-13.178 0,-13.104" style="fill:#f4efdf;fill-rule:nonzero;"/>
                </g>
            </g>
        </g>
        <g transform="matrix(1,0,0,1,-276.501,-809.873)">
            <g transform="matrix(4.16667,0,0,4.16667,369.703,868.597)">
                <g>
                    <path d="M0,-7.171C2.071,-6.09 4.096,-4.93 6.145,-3.81C8.178,-2.662 10.207,-1.508 12.201,-0.292C12.277,-0.245 12.301,-0.145 12.254,-0.068C12.209,0.006 12.115,0.031 12.04,-0.009C9.972,-1.094 7.94,-2.243 5.911,-3.398C3.898,-4.58 1.862,-5.722 -0.129,-6.943C-0.19,-6.981 -0.21,-7.062 -0.172,-7.123C-0.136,-7.182 -0.061,-7.202 0,-7.171" style="fill:#f4efdf;fill-rule:nonzero;"/>
                </g>
            </g>
        </g>
    </g>
</svg>
