<?xml version="1.0" encoding="UTF-8" standalone="no"?>
<!DOCTYPE svg PUBLIC "-//W3C//DTD SVG 1.1//EN" "http://www.w3.org/Graphics/SVG/1.1/DTD/svg11.dtd">
<svg width="224px" height="75px" version="1.1" xmlns="http://www.w3.org/2000/svg" xmlns:xlink="http://www.w3.org/1999/xlink" xml:space="preserve" xmlns:serif="http://www.serif.com/" style="fill-rule:evenodd;clip-rule:evenodd;stroke-linejoin:round;stroke-miterlimit:2;">
    <g transform="matrix(1,0,0,1,-1206.03,-1414.83)">
        <g transform="matrix(4.16667,0,0,4.16667,0,0)">
            <g transform="matrix(1,0,0,1,289.448,338.903)">
                <path d="M0,18.632L53.527,18.632C53.527,18.632 51.256,2.668 39.688,12.933C39.688,12.933 40.101,1.373 31.521,0.687C22.941,0 22.085,11.339 22.085,11.339C22.085,11.339 19.9,6.104 14.888,6.81C9.874,7.516 9.985,14.713 9.985,14.713C9.985,14.713 8.716,12.572 5.622,13.605C0.704,15.244 0,18.632 0,18.632" style="fill:#f7ceb9;fill-rule:nonzero;"/>
            </g>
        </g>
    </g>
</svg>
