<?xml version="1.0" encoding="UTF-8" standalone="no"?>
<!DOCTYPE svg PUBLIC "-//W3C//DTD SVG 1.1//EN" "http://www.w3.org/Graphics/SVG/1.1/DTD/svg11.dtd">
<svg width="101px" height="103px" version="1.1" xmlns="http://www.w3.org/2000/svg" xmlns:xlink="http://www.w3.org/1999/xlink" xml:space="preserve" xmlns:serif="http://www.serif.com/" style="fill-rule:evenodd;clip-rule:evenodd;stroke-linejoin:round;stroke-miterlimit:2;">
    <g transform="matrix(1,0,0,1,-732.014,-284.781)">
        <g transform="matrix(0.185609,0,0,0.185609,678.369,231.923)">
            <path d="M355.977,504.81L460.618,609.465C460.285,608.648 459.813,607.907 459.516,607.057C457.516,601.377 456.415,595.273 456.415,588.901C456.415,582.337 457.628,576.058 459.767,570.206L423.307,533.764L423.291,533.778C418.964,537.57 412.404,537.446 408.264,533.307C404.143,529.185 404.08,522.637 407.855,518.309L373.995,484.448L370.672,487.737L370.72,487.783L370.454,488.037C365.149,493.354 360.429,499.019 355.977,504.81Z" style="fill:#cceae2;fill-rule:nonzero;"/>
        </g>
        <g transform="matrix(0.185609,0,0,0.185609,678.369,231.923)">
            <path d="M289.023,697.947L428.305,837.22L448.265,817.266L460.696,804.835C469.224,798.919 479.2,795.978 489.159,796.072C489.946,796.072 490.733,796.135 491.504,796.181C500.001,796.529 508.513,796.087 516.95,794.876C535.754,792.202 554.085,785.653 570.747,775.301C558.788,770.296 547.38,763.578 536.916,755.081L536.674,755.317L533.645,752.279C531.063,750.061 528.545,747.765 526.091,745.325C523.653,742.886 521.362,740.354 519.135,737.788L456.124,674.767L456.227,674.659L331.43,549.877C325.26,567.138 321.813,585.155 321.469,603.265C321.342,610.222 321.611,617.191 322.334,624.1C323.012,630.315 324.017,636.5 325.373,642.619C325.009,654.72 320.258,666.712 311.02,675.948L289.023,697.947Z" style="fill:#cceae2;fill-rule:nonzero;"/>
        </g>
        <g transform="matrix(0.185609,0,0,0.185609,678.369,231.923)">
            <path d="M442.734,483.568L462,464.449L428.203,430.648L408.927,449.767L442.734,483.568Z" style="fill:#cceae2;fill-rule:nonzero;"/>
        </g>
        <g transform="matrix(0.185609,0,0,0.185609,678.369,231.923)">
            <path d="M791.042,489.877L790.854,490.034L790.697,490.222L774.35,506.572C784.04,521.805 790.981,538.248 795.278,555.242L823.989,526.525L825.738,524.937L827.324,523.172C835.336,513.48 834.828,499.112 825.75,490.034C816.17,480.466 800.683,480.421 791.042,489.877Z" style="fill:#cceae2;fill-rule:nonzero;"/>
        </g>
        <g transform="matrix(0.185609,0,0,0.185609,678.369,231.923)">
            <path d="M751.546,477.967C753.737,480.17 755.679,482.512 757.731,484.793L797.354,445.174L798.231,444.372L799.019,443.488C803.14,438.958 805.282,433.278 805.403,427.55C805.561,421.05 803.17,414.52 798.231,409.578C793.287,404.622 786.745,402.246 780.263,402.404C774.157,402.531 768.104,404.921 763.445,409.578L762.651,410.462L762.561,410.365L723.192,449.737L751.34,477.667L751.28,477.712L751.546,477.967Z" style="fill:#cceae2;fill-rule:nonzero;"/>
        </g>
        <g transform="matrix(0.185609,0,0,0.185609,678.369,231.923)">
            <path d="M689.391,483.534L673.971,498.955L697.677,522.67L698.709,523.708C703.036,527.5 709.611,527.375 713.736,523.236C717.999,518.987 718.029,512.112 713.86,507.8L713.579,507.516L689.391,483.534Z" style="fill:#cceae2;fill-rule:nonzero;"/>
        </g>
        <g transform="matrix(0.185609,0,0,0.185609,678.369,231.923)">
            <path d="M634.351,371.39C640.173,371.359 645.411,373.529 649.566,376.976L688.825,337.701L689.706,336.914L690.493,336.033C694.82,331.295 696.962,325.3 696.929,319.306C696.866,313.06 694.476,306.826 689.706,302.06C684.94,297.292 678.709,294.901 672.46,294.852C666.26,294.789 660.069,297.089 655.264,301.682L654.852,302.06L654.477,302.469L566.044,390.917L600.844,425.707L616.043,410.492C612.636,406.386 610.512,401.193 610.479,395.435C610.449,382.199 621.118,371.438 634.351,371.39Z" style="fill:#cceae2;fill-rule:nonzero;"/>
        </g>
        <g transform="matrix(0.185609,0,0,0.185609,678.369,231.923)">
            <path d="M720.895,343.947L720.154,344.797L668.993,395.952L703.917,430.618L755.117,379.415L755.764,378.816C765.393,369.187 765.393,353.579 755.764,343.947C746.142,334.318 730.524,334.318 720.895,343.947Z" style="fill:#cceae2;fill-rule:nonzero;"/>
        </g>
        <g transform="matrix(0.185609,0,0,0.185609,678.369,231.923)">
            <path d="M469.901,389.28L463.135,395.986L496.917,429.783L503.526,423.223C508.296,418.959 511.316,412.804 511.473,405.944L487.053,381.509C480.547,381.666 474.682,384.387 470.452,388.729L469.901,389.28Z" style="fill:#cceae2;fill-rule:nonzero;"/>
        </g>
        <g transform="matrix(0.185609,0,0,0.185609,678.369,231.923)">
            <path d="M512.039,444.904L530.876,463.741C538.317,458.013 546.105,452.962 554.18,448.635L531.236,425.707L515.77,441.176L512.039,444.904Z" style="fill:#cceae2;fill-rule:nonzero;"/>
        </g>
        <g transform="matrix(0.185609,0,0,0.185609,678.369,231.923)">
            <path d="M482.411,523.251C486.438,514.945 491.223,506.871 496.73,499.176L477.249,479.698L458.051,498.895L482.411,523.251Z" style="fill:#cceae2;fill-rule:nonzero;"/>
        </g>
        <g transform="matrix(0.185609,0,0,0.185609,678.369,231.923)">
            <path d="M654.822,479.698L670.116,464.401L635.184,429.738L620.031,444.904L654.822,479.698Z" style="fill:#cceae2;fill-rule:nonzero;"/>
        </g>
        <g transform="matrix(0.185609,0,0,0.185609,678.369,231.923)">
            <path d="M519.135,737.788C521.362,740.354 523.653,742.886 526.091,745.325C528.545,747.765 531.063,750.061 533.645,752.279L536.674,755.317L536.916,755.081C547.38,763.578 558.788,770.296 570.747,775.301C581.81,779.943 593.345,783.136 605.068,784.806C613.487,786.016 621.999,786.458 630.496,786.11C631.283,786.064 632.069,786.001 632.841,786.001C642.814,785.907 652.776,788.848 661.304,794.764L673.735,807.195L693.703,827.149L832.977,687.876L810.958,665.877C801.742,656.641 796.991,644.649 796.64,632.548C797.983,626.429 799.006,620.245 799.66,614.029C800.368,607.121 800.67,600.151 800.525,593.194C800.29,580.418 798.425,567.704 795.278,555.242C790.981,538.248 784.04,521.805 774.35,506.572C769.502,498.955 763.929,491.702 757.731,484.793C755.679,482.512 753.737,480.17 751.546,477.967L751.28,477.712L751.34,477.667L723.192,449.737L703.917,430.618L668.993,395.952L652.117,379.209L651.566,378.658C650.952,378.029 650.243,377.527 649.566,376.976C645.411,373.529 640.173,371.359 634.351,371.39C621.118,371.438 610.449,382.199 610.479,395.435C610.512,401.193 612.636,406.386 616.043,410.492C616.821,411.421 617.577,412.35 618.474,413.152L634.381,428.933L635.184,429.738L670.116,464.401L689.391,483.534L713.579,507.516L713.86,507.8C718.029,512.112 717.999,518.987 713.736,523.236C709.611,527.375 703.036,527.5 698.709,523.708L697.677,522.67L673.971,498.955L670.14,495.133L670.194,495.069L654.822,479.698L620.031,444.904L606.23,431.106L600.844,425.707L566.044,390.917L467.508,292.398L467.147,291.99L466.754,291.612C461.937,287.018 455.74,284.719 449.53,284.782C443.291,284.83 437.054,287.221 432.294,291.99C427.525,296.756 425.134,302.989 425.071,309.235C425.038,315.23 427.195,321.224 431.489,325.963L432.294,326.844L433.166,327.63L487.053,381.509L511.473,405.944L531.236,425.707L554.18,448.635C546.105,452.962 538.317,458.013 530.876,463.741L512.039,444.904L496.917,429.783L463.135,395.986L401.846,334.726L401.105,333.876C391.476,324.247 375.864,324.247 366.236,333.876C356.589,343.508 356.607,359.116 366.236,368.745L366.896,369.344L428.203,430.648L462,464.449L477.249,479.698L496.73,499.176C491.223,506.871 486.438,514.945 482.411,523.251L458.051,498.895L442.734,483.568L408.927,449.767L359.445,400.294L359.376,400.391L358.574,399.508C353.914,394.851 347.84,392.46 341.737,392.333C335.237,392.176 328.722,394.551 323.766,399.508C318.824,404.449 316.448,410.979 316.591,417.479C316.718,423.207 318.842,428.887 322.979,433.417L323.766,434.301L324.646,435.103L373.995,484.448L407.855,518.309L423.307,533.764L459.767,570.206C467.429,549.214 487.531,534.157 511.128,534.157C533.282,534.157 552.385,547.39 561.009,566.336C569.615,547.39 588.718,534.157 610.857,534.157C641.039,534.157 665.595,558.719 665.595,588.901C665.595,595.413 664.451,601.662 662.345,607.469C659.606,615.066 655.2,621.912 649.581,627.531L649.581,627.546L563,713.57L561.127,714.342L559.26,713.57L475.784,630.645C473.599,628.772 471.535,626.744 469.671,624.571C465.841,620.117 462.881,614.973 460.618,609.465L355.977,504.81L331.318,480.151L331.146,479.963L330.958,479.807C321.312,470.35 305.827,470.396 296.262,479.963C287.189,489.042 286.654,503.41 294.67,513.102L296.262,514.866L298.008,516.455L331.43,549.877L456.227,674.659L456.124,674.767L519.135,737.788Z" style="fill:#616e7d;fill-rule:nonzero;"/>
        </g>
        <g transform="matrix(0.185609,0,0,0.185609,678.369,231.923)">
            <path d="M561.009,566.336C552.385,547.39 533.282,534.157 511.128,534.157C487.531,534.157 467.429,549.214 459.767,570.206C457.628,576.058 456.415,582.337 456.415,588.901C456.415,595.273 457.516,601.377 459.516,607.057C459.813,607.907 460.285,608.648 460.618,609.465C462.881,614.973 465.841,620.117 469.671,624.571C471.535,626.744 473.599,628.772 475.784,630.645L559.26,713.57L561.127,714.342L563,713.57L649.581,627.546L649.581,627.531C655.2,621.912 659.606,615.066 662.345,607.469C664.451,601.662 665.595,595.413 665.595,588.901C665.595,558.719 641.039,534.157 610.857,534.157C588.718,534.157 569.615,547.39 561.009,566.336Z" style="fill:#cceae2;fill-rule:nonzero;"/>
        </g>
    </g>
</svg>
