<?xml version="1.0" encoding="UTF-8" standalone="no"?>
<!DOCTYPE svg PUBLIC "-//W3C//DTD SVG 1.1//EN" "http://www.w3.org/Graphics/SVG/1.1/DTD/svg11.dtd">
<svg width="101px" height="88px" version="1.1" xmlns="http://www.w3.org/2000/svg" xmlns:xlink="http://www.w3.org/1999/xlink" xml:space="preserve" xmlns:serif="http://www.serif.com/" style="fill-rule:evenodd;clip-rule:evenodd;stroke-linejoin:round;stroke-miterlimit:2;">
    <g transform="matrix(1,0,0,1,-811.492,-246.348)">
        <g transform="matrix(0.154152,0,0,0.154152,771.413,208.373)">
            <path d="M910.398,396.712L909.203,394.908L868.513,352.511C866.11,348.921 867.689,343.671 872.079,342.347C878.252,340.472 884.118,337.153 889.162,332.368C906.127,316.185 906.883,289.557 890.685,273.395C875.247,256.468 848.635,256.039 831.695,272.272C826.688,277.073 823.11,282.789 820.975,288.88C819.447,293.2 814.138,294.542 810.668,291.987L770.121,249.429L768.363,248.162C765.809,245.714 761.71,245.732 759.058,248.287L712.031,293.397C709.114,293.591 706.242,291.969 705.348,288.859C701.352,275.04 689.854,263.108 670.36,259.339C668.362,258.946 666.236,258.928 664.218,259.286C624.294,266.307 614.014,307.812 635.47,330.332C640.013,335.099 645.475,338.474 651.341,340.454C654.504,341.527 655.909,344.741 655.342,347.762L608.045,393.14C605.296,395.769 605.158,400.033 607.702,402.66L650.473,447.254L651.234,447.844L651.489,448.112C655.117,451.915 661.459,449.898 662.787,444.681C666.707,429.612 679.165,416.163 699.962,412.069C703.851,411.786 707.765,412.037 711.571,412.841C720.325,415.232 727.27,419.41 732.445,424.678C737.469,430.093 741.342,437.218 743.319,446.076C743.969,449.898 744.056,453.81 743.596,457.701C738.552,478.294 724.557,490.134 709.328,493.348C704.07,494.472 701.766,500.707 705.404,504.493L705.66,504.758L706.222,505.563L748.828,550.283C751.357,552.945 755.63,552.98 758.363,550.372L805.814,505.134C808.864,504.707 812.012,506.278 812.942,509.475C814.674,515.44 817.791,521.049 822.354,525.798C843.888,548.246 885.784,539.835 894.608,500.277C895.054,498.258 895.135,496.135 894.823,494.135C891.932,474.487 880.521,462.451 866.918,457.844C863.857,456.807 862.33,453.861 862.688,450.969L909.852,406.014C912.514,403.48 912.708,399.392 910.398,396.712Z" style="fill:#cceae2;fill-rule:nonzero;"/>
        </g>
        <g transform="matrix(0.154152,0,0,0.154152,771.413,208.373)">
            <path d="M694.306,811.241L694.663,811.241L695.639,811.384L757.402,811.652C761.081,811.67 764.056,808.599 764.076,804.83L764.342,739.268C766.146,736.789 769.441,735.588 772.405,737.144C777.898,740.018 784.106,741.661 790.688,741.661C821.793,741.7 844.762,705.657 822.34,671.87C821.205,670.174 819.724,668.633 818.067,667.458C801.89,655.937 785.333,655.83 772.573,662.455C769.697,663.939 766.529,662.974 764.684,660.726L764.944,595.574C764.971,591.913 762.154,588.913 758.624,588.752L756.482,588.341L697.719,588.306C693.478,587.554 690.774,582.787 692.875,578.696C695.782,572.947 697.463,566.412 697.494,559.48C697.596,536.031 678.919,517.032 656.037,517.513C633.129,516.905 614.376,535.816 614.351,559.268C614.366,566.213 615.98,572.751 618.914,578.518C620.974,582.607 618.244,587.375 613.993,588.111L555.208,587.843L553.087,588.233C550.563,588.341 548.443,589.931 547.4,592.163C547.758,593.18 547.983,594.289 547.983,595.434L547.871,662.706L544.187,661.975C542.515,662.706 540.604,662.831 538.78,661.868L537.641,661.367C535.658,661.385 533.619,661.527 531.514,661.832L530.978,661.903L530.44,661.813C528.116,661.385 526.046,661.009 524.052,661.009C505.203,661.045 489.597,675.598 487.236,694.512C487.027,696.138 486.884,697.782 486.884,699.479C486.884,706.265 488.703,713.517 492.623,720.856C493.465,722.445 494.309,724.053 495.366,725.66C496.276,727.017 497.471,728.251 498.795,729.176C507.452,735.305 515.948,737.77 523.859,737.786C525.975,737.77 528.049,737.592 530.083,737.269L530.62,737.162L531.156,737.252C532.873,737.535 534.212,737.804 535.454,737.949C536.496,737.519 537.549,737.091 538.561,736.554C540.702,735.448 543.011,735.806 544.794,737.001L547.738,736.411L547.63,804.705C547.63,805.579 547.477,806.437 547.278,807.26C548.356,809.526 550.563,811.133 553.19,811.133L614.969,811.172L615.914,811.044L616.287,811.044C621.551,811.061 624.474,805.099 621.637,800.508C613.487,787.258 612.435,768.969 623.896,751.128C626.385,748.107 629.271,745.484 632.485,743.286C640.273,738.624 648.106,736.518 655.495,736.432C662.874,736.554 670.683,738.716 678.449,743.396C681.643,745.609 684.53,748.251 687.009,751.288C698.383,769.181 697.208,787.47 688.985,800.686C686.16,805.257 689.047,811.241 694.306,811.241Z" style="fill:#616e7d;fill-rule:nonzero;"/>
        </g>
        <g transform="matrix(0.154152,0,0,0.154152,771.413,208.373)">
            <path d="M475.683,579.767L475.545,580.124L475.484,580.252L475.131,581.66C475.116,583.144 476.321,584.644 477.809,584.964L536.144,584.858C536.981,584.858 537.682,585.091 538.413,585.269L538.413,585.252C540.461,585.342 542.337,586.057 543.875,587.217L544.248,585.377L544.514,519.817C546.322,517.334 549.619,516.156 552.577,517.692C558.06,520.566 564.264,522.208 570.855,522.208C601.975,522.245 624.933,486.204 602.511,452.415C601.366,450.719 599.899,449.183 598.244,448.005C582.071,436.484 565.5,436.377 552.735,443.005C549.874,444.484 546.69,443.521 544.851,441.271L545.127,376.122C545.131,372.463 542.321,369.458 538.791,369.3L536.654,368.891L477.891,368.853C473.639,368.104 470.936,363.332 473.031,359.246C475.964,353.492 477.629,346.957 477.671,340.025C477.778,316.563 459.101,297.577 436.199,298.058C413.306,297.454 394.548,316.364 394.518,339.813C394.527,346.76 396.157,353.298 399.08,359.067C401.14,363.152 398.421,367.925 394.175,368.638L335.385,368.388L333.259,368.778C329.723,368.924 326.903,371.906 326.903,375.588L326.846,440.736C324.976,442.967 321.803,443.933 318.952,442.415C306.223,435.734 289.646,435.751 273.417,447.2C271.756,448.363 270.275,449.898 269.12,451.595C246.519,485.259 269.324,521.406 300.434,521.529C307.021,521.565 313.239,519.958 318.727,517.099C321.706,515.566 325.007,516.78 326.775,519.281L326.724,584.841C326.724,585.661 326.913,586.43 327.173,587.163C328.701,586.036 330.562,585.342 332.601,585.252L332.601,585.269C333.321,585.091 334.037,584.858 334.874,584.858L393.214,584.964C394.696,584.644 395.907,583.144 395.876,581.681L395.534,580.252L395.468,580.092L395.391,579.931L395.314,579.733C392.345,573.714 390.623,566.926 390.577,559.73L390.567,559.73L390.567,559.391C390.567,554.838 391.425,550.607 392.56,546.639C397.92,528.049 414.528,514.263 434.538,514.263L435.595,514.281L436.485,514.263C456.475,514.263 473.097,528.049 478.458,546.639C479.592,550.607 480.435,554.838 480.435,559.409L480.435,559.498C480.435,566.803 478.688,573.679 475.683,579.767Z" style="fill:#616e7d;fill-rule:nonzero;"/>
        </g>
        <g transform="matrix(0.154152,0,0,0.154152,771.413,208.373)">
            <path d="M495.943,664.76C503.624,657.902 513.64,653.704 524.641,653.672L524.657,656.957L524.657,653.672C527.324,653.672 529.669,654.134 531.835,654.51C534.054,654.223 536.266,654.029 538.479,654.011C539.567,654.011 540.66,654.062 541.759,654.167L541.841,594.841C541.841,592.966 540.507,591.611 538.943,591.433L538.724,591.377L538.218,591.358L537.733,591.183L536.747,590.985L477.686,591.09L477.4,591.037C472.781,590.198 469.597,586.393 469.168,581.948L469.004,581.057C469.004,579.662 469.336,578.233 469.996,576.859L469.965,576.859L470.098,576.519L470.174,576.412C472.796,571.123 474.309,565.214 474.309,558.89L474.309,558.801C474.309,555.088 473.618,551.498 472.592,547.907C467.972,531.978 453.874,520.387 437.083,520.387L436.225,520.405L436.035,520.405L435.141,520.387C427.241,520.387 419.99,523.014 413.991,527.39C407.23,532.319 402.075,539.462 399.643,547.907C399.044,549.942 398.625,551.997 398.324,554.069C398.089,555.622 397.9,557.176 397.9,558.765L397.9,558.89C397.9,565.214 399.423,571.123 402.06,576.392L402.141,576.537L402.197,576.698L402.279,576.894L402.254,576.91C402.872,578.249 403.214,579.68 403.214,581.072L403.061,581.877C402.662,586.358 399.464,590.198 394.829,591.037L394.548,591.09L335.487,590.985L335.007,591.075L334.491,591.183L334.011,591.358L333.495,591.377C331.834,591.448 330.377,592.879 330.362,594.826L330.475,661.188L329.703,662.136C327.853,664.349 325.129,665.762 322.12,665.762C320.618,665.762 319.059,665.404 317.654,664.652C312.626,662.047 306.989,660.564 300.97,660.564C293.024,660.564 284.368,663.135 275.646,669.333C274.327,670.264 273.105,671.492 272.216,672.852C266.243,681.799 263.734,690.746 263.734,699.017C263.734,720.303 280.433,737.448 300.868,737.481L300.934,737.481C306.938,737.481 312.6,736.018 317.628,733.393C319.003,732.681 320.5,732.323 321.957,732.323C325.252,732.323 328.165,734.038 329.979,736.554L330.618,737.448L330.72,804.079C330.72,806.06 332.258,807.544 333.99,807.544L395.519,807.438L396.495,807.293L397.103,807.293C398.089,807.275 398.723,806.935 399.285,806.365C399.821,805.758 400.164,804.884 400.164,803.954L399.581,801.902C395.268,794.935 392.765,786.648 392.765,777.791C392.765,768.488 395.534,758.555 401.702,748.91L401.819,748.734L401.937,748.593C404.63,745.323 407.767,742.466 411.237,740.09L411.318,740.036L411.39,739.982C419.643,735.018 428.074,732.714 436.061,732.571L436.163,732.571C444.155,732.714 452.576,735.018 460.818,739.982L460.9,740.018L460.987,740.09C464.457,742.466 467.589,745.323 470.277,748.593L470.404,748.754L470.517,748.91C476.679,758.555 479.459,768.488 479.444,777.81C479.444,786.648 476.96,794.935 472.632,801.92L472.04,803.954C472.034,804.884 472.393,805.758 472.934,806.365C473.48,806.935 474.129,807.275 475.116,807.293L475.708,807.293L475.944,807.332L476.679,807.438L538.229,807.544C539.956,807.544 541.499,806.06 541.504,804.079L541.611,743.91C540.226,744.089 538.791,744.217 537.293,744.217L537.273,744.217C534.728,744.199 532.725,743.642 531.044,743.358C528.887,743.68 526.71,743.91 524.462,743.91C515.463,743.91 505.893,741.054 496.547,734.715L495.489,734.07C493.511,732.643 491.754,730.856 490.369,728.785C486.848,723.516 484.416,718.143 482.852,712.818C482.372,711.16 482.009,709.497 481.697,707.856C481.12,704.819 480.757,701.816 480.757,698.871C480.757,685.264 486.628,673.063 495.943,664.76Z" style="fill:#616e7d;fill-rule:nonzero;"/>
        </g>
    </g>
</svg>
