<?xml version="1.0" encoding="UTF-8" standalone="no"?>
<!DOCTYPE svg PUBLIC "-//W3C//DTD SVG 1.1//EN" "http://www.w3.org/Graphics/SVG/1.1/DTD/svg11.dtd">
<svg width="104px" height="91px" version="1.1" xmlns="http://www.w3.org/2000/svg" xmlns:xlink="http://www.w3.org/1999/xlink" xml:space="preserve" xmlns:serif="http://www.serif.com/" style="fill-rule:evenodd;clip-rule:evenodd;stroke-linejoin:round;stroke-miterlimit:2;">
    <g transform="matrix(1,0,0,1,-230.262,-271.984)">
        <g transform="matrix(0.155786,0,0,0.155786,194.39,229.613)">
            <path d="M676.258,347.819C676.258,306.011 642.244,271.984 600.438,271.984C569.774,271.984 543.292,290.295 531.377,316.553C519.442,290.295 492.988,271.984 462.307,271.984C420.51,271.984 386.486,306.011 386.486,347.819C386.486,356.621 388.015,365.089 390.795,372.965C393.963,381.936 398.764,390.146 404.858,397.207C407.453,400.225 410.29,403.043 413.33,405.638L528.968,520.498C529.691,521.221 530.636,521.573 531.563,521.573C532.497,521.573 533.423,521.221 534.14,520.498L654.095,401.337L654.088,401.319C661.86,393.535 667.958,384.067 671.774,373.52C674.676,365.477 676.258,356.842 676.258,347.819Z" style="fill:#aad4c8;fill-rule:nonzero;"/>
        </g>
        <g transform="matrix(0.155786,0,0,0.155786,194.39,229.613)">
            <path d="M891.524,636.731L891.738,636.136C843.955,636.136 814.702,607.006 779.538,582.468C754.01,564.659 725.389,549.243 684.181,549.243C665.67,549.243 649.953,549.407 636.6,549.799L539.439,549.799C525.223,549.799 513.708,561.324 513.708,575.537C513.708,589.752 525.223,601.278 539.439,601.278L630.681,601.278C649.073,604.282 663.146,620.199 663.146,639.454C663.146,654.06 654.992,666.622 643.061,673.2C640.167,673.981 626.215,677.688 607.59,682.616C595.58,685.507 584.176,688.564 573.48,691.661L571.182,692.253C531.117,702.852 487.956,714.213 480.137,716.048C474.966,716.326 470.222,716.103 466.06,715.064L322.344,621.906L296.317,603.078L296.3,603.131C295.078,602.298 293.741,601.574 292.416,600.907C290.491,599.928 288.506,599.072 286.414,598.423C284.771,597.943 283.057,597.591 281.335,597.313C279.49,597.034 277.618,596.849 275.701,596.849C273.135,596.849 270.633,597.108 268.213,597.611C246.987,599.443 230.262,617.049 230.262,638.752C230.262,650.242 235.034,660.506 242.604,667.976L242.575,668.012L242.771,668.161C245.79,671.091 249.172,673.628 252.953,675.573L262.857,682.766L488.134,846.067L488.151,846.05C489.067,846.402 489.995,846.752 490.921,847.122C495.989,848.864 501.356,850.017 507.008,850.017C510.315,850.017 513.541,849.664 516.672,849.051L517.792,848.755C594.108,829.332 751.814,789.248 825.619,771.07C827.433,770.383 829.146,769.751 830.929,769.085C849.757,764.359 875.452,758.746 891.524,758.746L891.524,747.959L891.738,747.941L891.524,733.134L891.524,636.731Z" style="fill:#616e7d;fill-rule:nonzero;"/>
        </g>
    </g>
</svg>
