<?xml version="1.0" encoding="UTF-8" standalone="no"?>
<!DOCTYPE svg PUBLIC "-//W3C//DTD SVG 1.1//EN" "http://www.w3.org/Graphics/SVG/1.1/DTD/svg11.dtd">
<svg width="101px" height="83px" version="1.1" xmlns="http://www.w3.org/2000/svg" xmlns:xlink="http://www.w3.org/1999/xlink" xml:space="preserve" xmlns:serif="http://www.serif.com/" style="fill-rule:evenodd;clip-rule:evenodd;stroke-linejoin:round;stroke-miterlimit:2;">
    <g transform="matrix(1,0,0,1,-762.174,-315.171)">
        <g transform="matrix(0.16693,0,0,0.16693,718.939,262.559)">
            <path d="M851.136,615.828L851.317,615.314C808.52,615.314 782.336,589.227 750.854,567.255C727.989,551.292 702.352,537.503 665.461,537.503C648.883,537.503 634.813,537.634 622.865,538.001L586.97,538.001C599.301,538.432 609.19,548.503 609.19,560.949C609.19,573.679 598.866,583.999 586.141,583.999L535.03,583.999C535.295,584.015 535.56,584.082 535.844,584.082L617.555,584.082C634.03,586.772 646.626,601.044 646.626,618.282C646.626,631.359 639.325,642.593 628.638,648.503C626.05,649.183 613.553,652.502 596.859,656.931C586.124,659.519 575.903,662.257 566.342,665.014L564.268,665.56C528.392,675.054 489.759,685.224 482.758,686.868C478.112,687.116 473.88,686.899 470.146,685.986L341.458,602.553L318.143,585.693L318.143,585.741C317.032,584.995 315.851,584.366 314.642,583.75C312.931,582.889 311.157,582.106 309.28,581.545C307.803,581.095 306.278,580.779 304.733,580.549C303.073,580.301 301.398,580.115 299.691,580.115C297.384,580.115 295.144,580.349 292.986,580.798C273.97,582.438 259,598.222 259,617.654C259,627.926 263.267,637.117 270.051,643.806L270.019,643.837L270.201,643.972C272.907,646.61 275.942,648.883 279.328,650.609L288.19,657.049L489.909,803.276L489.925,803.261C490.739,803.576 491.568,803.89 492.398,804.221C496.946,805.798 501.742,806.828 506.804,806.828C509.774,806.828 512.659,806.512 515.464,805.947L516.46,805.698C584.797,788.29 726.014,752.415 792.107,736.12C793.734,735.505 795.26,734.959 796.871,734.359C813.73,730.111 836.729,725.086 851.136,725.086L851.136,715.442L851.317,715.426L851.136,702.166L851.136,615.828Z" style="fill:#cceae2;fill-rule:nonzero;"/>
        </g>
        <g transform="matrix(0.16693,0,0,0.16693,718.939,262.559)">
            <path d="M493.362,473.497C495.951,472.801 508.447,469.483 525.124,465.069C535.875,462.481 546.081,459.743 555.658,456.986L557.713,456.44C593.592,446.946 632.221,436.776 639.242,435.132C643.873,434.883 648.12,435.082 651.854,436.013L780.542,519.432L803.841,536.29L803.857,536.259C804.951,537.005 806.149,537.634 807.342,538.234C809.068,539.112 810.843,539.893 812.719,540.456C814.178,540.905 815.723,541.221 817.267,541.451C818.907,541.7 820.585,541.866 822.309,541.866C824.601,541.866 826.841,541.636 829.014,541.186C848.014,539.542 863,523.778 863,504.346C863,494.058 858.717,484.864 851.949,478.178L851.965,478.144L851.799,478.013C849.093,475.39 846.058,473.117 842.672,471.391L833.81,464.935L632.09,318.708L632.074,318.739C631.244,318.424 630.415,318.11 629.585,317.779C625.054,316.203 620.258,315.171 615.18,315.171C612.226,315.171 609.341,315.488 606.535,316.037L605.523,316.301C537.187,333.69 395.97,369.585 329.893,385.879C328.265,386.479 326.721,387.04 325.128,387.641C308.269,391.873 285.27,396.898 270.865,396.898L270.865,406.558L270.683,406.574L270.865,419.834L270.865,506.171L270.683,506.686C313.464,506.686 339.665,532.774 371.146,554.746C394.01,570.691 419.632,584.497 456.539,584.497C473.117,584.497 487.187,584.347 499.135,583.999L586.141,583.999C598.866,583.999 609.19,573.679 609.19,560.949C609.19,548.503 599.301,538.432 586.97,538.001C586.688,537.985 586.421,537.918 586.141,537.918L504.445,537.918C487.969,535.212 475.374,520.957 475.374,503.718C475.374,490.641 482.675,479.388 493.362,473.497Z" style="fill:#616e7d;fill-rule:nonzero;"/>
        </g>
    </g>
</svg>
