<?xml version="1.0" encoding="utf-8"?>
<!-- Generator: Adobe Illustrator 26.0.0, SVG Export Plug-In . SVG Version: 6.00 Build 0)  -->
<svg version="1.1"  xmlns="http://www.w3.org/2000/svg" xmlns:xlink="http://www.w3.org/1999/xlink" x="0px" y="0px"
	 viewBox="0 0 48 48" style="enable-background:new 0 0 48 48;" xml:space="preserve" width="100%" height="100%">
	


<g class="st2">
	<path class="st3" d="M23.89,14.98c-5.11,0-9.35,4.16-9.35,9.35s4.16,9.35,9.35,9.35s9.35-4.23,9.35-9.35S29,14.98,23.89,14.98z
		 M23.89,30.31c-3.29,0-5.99-2.7-5.99-5.99s2.7-5.99,5.99-5.99s5.99,2.7,5.99,5.99S27.18,30.31,23.89,30.31z"/>
	<circle class="st3" cx="33.6" cy="14.76" r="2.12"/>
	<path class="st3" d="M39.08,9.28c-1.9-1.97-4.6-2.99-7.67-2.99H16.37c-6.35,0-10.59,4.23-10.59,10.59v14.97
		c0,3.14,1.02,5.84,3.07,7.81c1.97,1.9,4.6,2.85,7.59,2.85h14.89c3.14,0,5.77-1.02,7.67-2.85c1.97-1.9,2.99-4.6,2.99-7.74V16.87
		C42,13.81,40.98,11.18,39.08,9.28z M38.79,31.91c0,2.26-0.8,4.09-2.12,5.33c-1.31,1.24-3.14,1.9-5.33,1.9H16.45
		c-2.19,0-4.02-0.66-5.33-1.9c-1.31-1.31-1.97-3.14-1.97-5.4V16.87c0-2.19,0.66-4.02,1.97-5.33c1.24-1.24,3.14-1.9,5.33-1.9h15.04
		c2.19,0,4.02,0.66,5.33,1.97c1.24,1.31,1.97,3.14,1.97,5.26V31.91L38.79,31.91z"/>
</g>
<path class="st4" d="M34,15.73h-6.88v-4.51c0-1.7,1.12-2.09,1.92-2.09c0.79,0,4.86,0,4.86,0V1.67L27.2,1.64
	c-7.43,0-9.12,5.56-9.12,9.12v4.97h-4.3v7.68h4.3c0,9.86,0,21.73,0,21.73h9.03c0,0,0-11.99,0-21.73h6.1L34,15.73z"/>
</svg>
