<?xml version="1.0" encoding="utf-8"?>
<!-- Generator: Adobe Illustrator 26.0.0, SVG Export Plug-In . SVG Version: 6.00 Build 0)  -->
<svg version="1.1" id="Capa_1" xmlns="http://www.w3.org/2000/svg" xmlns:xlink="http://www.w3.org/1999/xlink" x="0px" y="0px"
	 viewBox="0 0 48 48" style="enable-background:new 0 0 48 48;" xml:space="preserve" width="48" height="48">
<style type="text/css">
	.st0{display:none;fill:#3F3D47;}
	.st1{display:none;fill:#FFFFFF;}
	.st2{fill:#FFFFFF;}
</style>
<rect class="st0" width="48" height="48"/>
<path class="st1" d="M44.13,13.71c-0.48-1.78-1.88-3.19-3.67-3.67c-3.23-0.87-16.2-0.87-16.2-0.87s-12.97,0-16.2,0.87
	c-1.78,0.48-3.19,1.88-3.67,3.67c-0.87,3.23-0.87,9.98-0.87,9.98s0,6.75,0.87,9.98c0.48,1.78,1.88,3.19,3.67,3.67
	c3.23,0.87,16.2,0.87,16.2,0.87s12.97,0,16.2-0.87c1.78-0.48,3.19-1.88,3.67-3.67C45,30.45,45,23.7,45,23.7S45,16.95,44.13,13.71
	L44.13,13.71z M20.12,29.92V17.48l10.77,6.22L20.12,29.92L20.12,29.92z"/>
<path class="st1" d="M45.98,10.14c-1.57,0.7-3.26,1.17-5.04,1.38c1.81-1.08,3.2-2.8,3.86-4.85c-1.69,1.01-3.57,1.73-5.57,2.13
	c-1.6-1.7-3.88-2.77-6.4-2.77c-4.84,0-8.77,3.93-8.77,8.77c0,0.69,0.08,1.36,0.23,2c-7.29-0.37-13.75-3.86-18.07-9.16
	c-0.75,1.29-1.19,2.8-1.19,4.41c0,3.04,1.55,5.73,3.9,7.3c-1.44-0.05-2.79-0.44-3.97-1.1c0,0.04,0,0.07,0,0.11
	c0,4.25,3.02,7.79,7.03,8.6c-0.74,0.2-1.51,0.31-2.31,0.31c-0.57,0-1.11-0.05-1.65-0.16c1.12,3.48,4.35,6.02,8.19,6.09
	c-3,2.35-6.78,3.75-10.89,3.75c-0.71,0-1.41-0.04-2.09-0.12c3.88,2.49,8.49,3.94,13.44,3.94c16.13,0,24.95-13.36,24.95-24.95
	c0-0.38-0.01-0.76-0.02-1.14C43.32,13.44,44.81,11.9,45.98,10.14z"/>
<g>
	<path class="st2" d="M23.89,14.98c-5.11,0-9.35,4.16-9.35,9.35s4.16,9.35,9.35,9.35s9.35-4.23,9.35-9.35S29,14.98,23.89,14.98z
		 M23.89,30.31c-3.29,0-5.99-2.7-5.99-5.99s2.7-5.99,5.99-5.99s5.99,2.7,5.99,5.99S27.18,30.31,23.89,30.31z"/>
	<circle class="st2" cx="33.6" cy="14.76" r="2.12"/>
	<path class="st2" d="M39.08,9.28c-1.9-1.97-4.6-2.99-7.67-2.99H16.37c-6.35,0-10.59,4.23-10.59,10.59v14.97
		c0,3.14,1.02,5.84,3.07,7.81c1.97,1.9,4.6,2.85,7.59,2.85h14.89c3.14,0,5.77-1.02,7.67-2.85c1.97-1.9,2.99-4.6,2.99-7.74V16.87
		C42,13.81,40.98,11.18,39.08,9.28z M38.79,31.91c0,2.26-0.8,4.09-2.12,5.33c-1.31,1.24-3.14,1.9-5.33,1.9H16.45
		c-2.19,0-4.02-0.66-5.33-1.9c-1.31-1.31-1.97-3.14-1.97-5.4V16.87c0-2.19,0.66-4.02,1.97-5.33c1.24-1.24,3.14-1.9,5.33-1.9h15.04
		c2.19,0,4.02,0.66,5.33,1.97c1.24,1.31,1.97,3.14,1.97,5.26V31.91L38.79,31.91z"/>
</g>
<path class="st1" d="M34,15.73h-6.88v-4.51c0-1.7,1.12-2.09,1.92-2.09c0.79,0,4.86,0,4.86,0V1.67L27.2,1.64
	c-7.43,0-9.12,5.56-9.12,9.12v4.97h-4.3v7.68h4.3c0,9.86,0,21.73,0,21.73h9.03c0,0,0-11.99,0-21.73h6.1L34,15.73z"/>
</svg>
