<?xml version="1.0" encoding="utf-8"?>
<svg version="1.1" id="Capa_1" xmlns="http://www.w3.org/2000/svg" xmlns:xlink="http://www.w3.org/1999/xlink" 
	 viewBox="0 0 48 48" width="48" height="48" >

<rect display="none" fill="#3F3D47" width="48" height="48"/>

<path display="none" fill="#FFFFFF" d="M44.1,13.7c-0.5-1.8-1.9-3.2-3.7-3.7c-3.2-0.9-16.2-0.9-16.2-0.9s-13,0-16.2,0.9
	c-1.8,0.5-3.2,1.9-3.7,3.7c-0.9,3.2-0.9,10-0.9,10s0,6.8,0.9,10c0.5,1.8,1.9,3.2,3.7,3.7c3.2,0.9,16.2,0.9,16.2,0.9s13,0,16.2-0.9
	c1.8-0.5,3.2-1.9,3.7-3.7c0.9-3.2,0.9-10,0.9-10S45,17,44.1,13.7L44.1,13.7z M20.1,29.9V17.5l10.8,6.2L20.1,29.9L20.1,29.9z"/>
<path display="none" fill="#FFFFFF" d="M46,10.1c-1.6,0.7-3.3,1.2-5,1.4c1.8-1.1,3.2-2.8,3.9-4.8c-1.7,1-3.6,1.7-5.6,2.1
	C37.6,7.1,35.3,6,32.8,6c-4.8,0-8.8,3.9-8.8,8.8c0,0.7,0.1,1.4,0.2,2C17,16.4,10.5,12.9,6.2,7.6C5.5,8.9,5,10.4,5,12.1
	c0,3,1.5,5.7,3.9,7.3c-1.4,0-2.8-0.4-4-1.1c0,0,0,0.1,0,0.1c0,4.2,3,7.8,7,8.6c-0.7,0.2-1.5,0.3-2.3,0.3c-0.6,0-1.1,0-1.6-0.2
	c1.1,3.5,4.4,6,8.2,6.1c-3,2.3-6.8,3.8-10.9,3.8c-0.7,0-1.4,0-2.1-0.1c3.9,2.5,8.5,3.9,13.4,3.9c16.1,0,25-13.4,25-25
	c0-0.4,0-0.8,0-1.1C43.3,13.4,44.8,11.9,46,10.1z"/>
<g display="none">
	<path display="inline" fill="#FFFFFF" d="M23.9,15c-5.1,0-9.4,4.2-9.4,9.4s4.2,9.4,9.4,9.4s9.3-4.2,9.3-9.4S29,15,23.9,15z
		 M23.9,30.3c-3.3,0-6-2.7-6-6s2.7-6,6-6s6,2.7,6,6S27.2,30.3,23.9,30.3z"/>
	<circle display="inline" fill="#FFFFFF" cx="33.6" cy="14.8" r="2.1"/>
	<path display="inline" fill="#FFFFFF" d="M39.1,9.3c-1.9-2-4.6-3-7.7-3h-15C10,6.3,5.8,10.5,5.8,16.9v15c0,3.1,1,5.8,3.1,7.8
		c2,1.9,4.6,2.8,7.6,2.8h14.9c3.1,0,5.8-1,7.7-2.8c2-1.9,3-4.6,3-7.7V16.9C42,13.8,41,11.2,39.1,9.3z M38.8,31.9
		c0,2.3-0.8,4.1-2.1,5.3c-1.3,1.2-3.1,1.9-5.3,1.9H16.5c-2.2,0-4-0.7-5.3-1.9c-1.3-1.3-2-3.1-2-5.4v-15c0-2.2,0.7-4,2-5.3
		c1.2-1.2,3.1-1.9,5.3-1.9h15c2.2,0,4,0.7,5.3,2c1.2,1.3,2,3.1,2,5.3V31.9L38.8,31.9z"/>
</g>
<path fill="#FFFFFF" d="M34,15.7h-6.9v-4.5c0-1.7,1.1-2.1,1.9-2.1c0.8,0,4.9,0,4.9,0V1.7l-6.7,0c-7.4,0-9.1,5.6-9.1,9.1v5h-4.3v7.7
	h4.3c0,9.9,0,21.7,0,21.7h9c0,0,0-12,0-21.7h6.1L34,15.7z"/>
</svg>
