<?xml version="1.0" encoding="UTF-8"?><svg id="Layer_1" xmlns="http://www.w3.org/2000/svg" viewBox="0 0 129.76 118.67"><defs><style>.cls-1{fill:#fff;}</style></defs><path class="cls-1" d="M129.74,49.66c-.47-13.72-4.84-23.09-13-27.84-13.34-7.76-32.4-.3-38.82,2.63C72.85,18.76,56.29,1.74,37.54,.12c-8.84-.76-16.9,1.99-23.98,8.19C3.59,17.03-.92,27.29,.15,38.79c3.58,38.39,68.94,77.32,71.72,78.96l1.55,.92,1.54-.94c2.28-1.4,55.92-34.72,54.78-68.06Zm-56.38,61.97C63.39,105.46,9.14,70.48,6.13,38.23c-.9-9.61,2.83-17.92,11.39-25.4,5.18-4.53,10.97-6.82,17.24-6.82,.75,0,1.5,.03,2.26,.1,19.52,1.67,37.62,23.73,37.8,23.96l1.55,1.91,2.17-1.14c.22-.12,22.15-11.41,35.2-3.8,6.25,3.64,9.62,11.33,10.02,22.85,.92,26.96-41.69,56.1-50.39,61.76Zm-2.63-8.89S-29.3,35.84,36.64,12.92c-14.62,49.3,34.09,89.82,34.09,89.82Z"/></svg>